<svg version="1.1" xmlns="http://www.w3.org/2000/svg" xmlns:xlink="http://www.w3.org/1999/xlink" width="444" height="348"><defs/><g><text fill="#eeeeee" stroke="none" font-family="Arial" font-size="24px" font-style="normal" font-weight="normal" text-decoration="none" x="0" y="0">UNREGISTERED</text><text fill="#eeeeee" stroke="none" font-family="Arial" font-size="24px" font-style="normal" font-weight="normal" text-decoration="none" x="0" y="30">UNREGISTERED</text><text fill="#eeeeee" stroke="none" font-family="Arial" font-size="24px" font-style="normal" font-weight="normal" text-decoration="none" x="0" y="60">UNREGISTERED</text><text fill="#eeeeee" stroke="none" font-family="Arial" font-size="24px" font-style="normal" font-weight="normal" text-decoration="none" x="0" y="90">UNREGISTERED</text><text fill="#eeeeee" stroke="none" font-family="Arial" font-size="24px" font-style="normal" font-weight="normal" text-decoration="none" x="0" y="120">UNREGISTERED</text><text fill="#eeeeee" stroke="none" font-family="Arial" font-size="24px" font-style="normal" font-weight="normal" text-decoration="none" x="0" y="150">UNREGISTERED</text><text fill="#eeeeee" stroke="none" font-family="Arial" font-size="24px" font-style="normal" font-weight="normal" text-decoration="none" x="0" y="180">UNREGISTERED</text><text fill="#eeeeee" stroke="none" font-family="Arial" font-size="24px" font-style="normal" font-weight="normal" text-decoration="none" x="0" y="210">UNREGISTERED</text><text fill="#eeeeee" stroke="none" font-family="Arial" font-size="24px" font-style="normal" font-weight="normal" text-decoration="none" x="0" y="240">UNREGISTERED</text><text fill="#eeeeee" stroke="none" font-family="Arial" font-size="24px" font-style="normal" font-weight="normal" text-decoration="none" x="0" y="270">UNREGISTERED</text><text fill="#eeeeee" stroke="none" font-family="Arial" font-size="24px" font-style="normal" font-weight="normal" text-decoration="none" x="0" y="300">UNREGISTERED</text><text fill="#eeeeee" stroke="none" font-family="Arial" font-size="24px" font-style="normal" font-weight="normal" text-decoration="none" x="0" y="330">UNREGISTERED</text><text fill="#eeeeee" stroke="none" font-family="Arial" font-size="24px" font-style="normal" font-weight="normal" text-decoration="none" x="200" y="0">UNREGISTERED</text><text fill="#eeeeee" stroke="none" font-family="Arial" font-size="24px" font-style="normal" font-weight="normal" text-decoration="none" x="200" y="30">UNREGISTERED</text><text fill="#eeeeee" stroke="none" font-family="Arial" font-size="24px" font-style="normal" font-weight="normal" text-decoration="none" x="200" y="60">UNREGISTERED</text><text fill="#eeeeee" stroke="none" font-family="Arial" font-size="24px" font-style="normal" font-weight="normal" text-decoration="none" x="200" y="90">UNREGISTERED</text><text fill="#eeeeee" stroke="none" font-family="Arial" font-size="24px" font-style="normal" font-weight="normal" text-decoration="none" x="200" y="120">UNREGISTERED</text><text fill="#eeeeee" stroke="none" font-family="Arial" font-size="24px" font-style="normal" font-weight="normal" text-decoration="none" x="200" y="150">UNREGISTERED</text><text fill="#eeeeee" stroke="none" font-family="Arial" font-size="24px" font-style="normal" font-weight="normal" text-decoration="none" x="200" y="180">UNREGISTERED</text><text fill="#eeeeee" stroke="none" font-family="Arial" font-size="24px" font-style="normal" font-weight="normal" text-decoration="none" x="200" y="210">UNREGISTERED</text><text fill="#eeeeee" stroke="none" font-family="Arial" font-size="24px" font-style="normal" font-weight="normal" text-decoration="none" x="200" y="240">UNREGISTERED</text><text fill="#eeeeee" stroke="none" font-family="Arial" font-size="24px" font-style="normal" font-weight="normal" text-decoration="none" x="200" y="270">UNREGISTERED</text><text fill="#eeeeee" stroke="none" font-family="Arial" font-size="24px" font-style="normal" font-weight="normal" text-decoration="none" x="200" y="300">UNREGISTERED</text><text fill="#eeeeee" stroke="none" font-family="Arial" font-size="24px" font-style="normal" font-weight="normal" text-decoration="none" x="200" y="330">UNREGISTERED</text><text fill="#eeeeee" stroke="none" font-family="Arial" font-size="24px" font-style="normal" font-weight="normal" text-decoration="none" x="400" y="0">UNREGISTERED</text><text fill="#eeeeee" stroke="none" font-family="Arial" font-size="24px" font-style="normal" font-weight="normal" text-decoration="none" x="400" y="30">UNREGISTERED</text><text fill="#eeeeee" stroke="none" font-family="Arial" font-size="24px" font-style="normal" font-weight="normal" text-decoration="none" x="400" y="60">UNREGISTERED</text><text fill="#eeeeee" stroke="none" font-family="Arial" font-size="24px" font-style="normal" font-weight="normal" text-decoration="none" x="400" y="90">UNREGISTERED</text><text fill="#eeeeee" stroke="none" font-family="Arial" font-size="24px" font-style="normal" font-weight="normal" text-decoration="none" x="400" y="120">UNREGISTERED</text><text fill="#eeeeee" stroke="none" font-family="Arial" font-size="24px" font-style="normal" font-weight="normal" text-decoration="none" x="400" y="150">UNREGISTERED</text><text fill="#eeeeee" stroke="none" font-family="Arial" font-size="24px" font-style="normal" font-weight="normal" text-decoration="none" x="400" y="180">UNREGISTERED</text><text fill="#eeeeee" stroke="none" font-family="Arial" font-size="24px" font-style="normal" font-weight="normal" text-decoration="none" x="400" y="210">UNREGISTERED</text><text fill="#eeeeee" stroke="none" font-family="Arial" font-size="24px" font-style="normal" font-weight="normal" text-decoration="none" x="400" y="240">UNREGISTERED</text><text fill="#eeeeee" stroke="none" font-family="Arial" font-size="24px" font-style="normal" font-weight="normal" text-decoration="none" x="400" y="270">UNREGISTERED</text><text fill="#eeeeee" stroke="none" font-family="Arial" font-size="24px" font-style="normal" font-weight="normal" text-decoration="none" x="400" y="300">UNREGISTERED</text><text fill="#eeeeee" stroke="none" font-family="Arial" font-size="24px" font-style="normal" font-weight="normal" text-decoration="none" x="400" y="330">UNREGISTERED</text><g transform="translate(-118,-6) scale(1,1)"><rect fill="#C0C0C0" stroke="none" x="327" y="23" width="232" height="328" opacity="0.2"/></g><g transform="translate(-118,-6) scale(1,1)"><rect fill="#ffffff" stroke="none" x="320" y="16" width="232" height="328"/></g><g transform="translate(-118,-6) scale(1,1)"><path fill="none" stroke="#000000" d="M 320 16 L 552 16 L 552 344 L 320 344 L 320 16 Z Z" stroke-miterlimit="10"/></g><g transform="translate(-118,-6) scale(1,1)"><g><path fill="none" stroke="none"/><text fill="#000000" stroke="none" font-family="Arial" font-size="13px" font-style="normal" font-weight="bold" text-decoration="none" x="387.945068359375" y="35.5">GeneraReportes</text></g></g><g transform="translate(-118,-6) scale(1,1)"><path fill="#C0C0C0" stroke="none" d="M 367 120 C 367 110.6111584 406.17508 103 454.5 103 C 502.82492 103 542 110.6111584 542 120 C 542 129.3888416 502.82492 137 454.5 137 C 406.17508 137 367 129.3888416 367 120 Z" opacity="0.2"/></g><g transform="translate(-118,-6) scale(1,1)"><path fill="#ffffff" stroke="none" d="M 360 113 C 360 103.6111584 399.17508 96 447.5 96 C 495.82492 96 535 103.6111584 535 113 C 535 122.3888416 495.82492 130 447.5 130 C 399.17508 130 360 122.3888416 360 113 Z"/></g><g transform="translate(-118,-6) scale(1,1)"><path fill="none" stroke="#000000" d="M 360 113 C 360 103.6111584 399.17508 96 447.5 96 C 495.82492 96 535 103.6111584 535 113 C 535 122.3888416 495.82492 130 447.5 130 C 399.17508 130 360 122.3888416 360 113 Z" stroke-miterlimit="10"/></g><g transform="translate(-118,-6) scale(1,1)"><g><path fill="none" stroke="none"/><text fill="#000000" stroke="none" font-family="Arial" font-size="13px" font-style="normal" font-weight="bold" text-decoration="none" x="393.66552734375" y="120">SeleccionaFactura</text></g></g><g transform="translate(-118,-6) scale(1,1)"><path fill="#C0C0C0" stroke="none" d="M 367 208 C 367 198.6111584 404.3842192 191 450.5 191 C 496.6157808 191 534 198.6111584 534 208 C 534 217.3888416 496.6157808 225 450.5 225 C 404.3842192 225 367 217.3888416 367 208 Z" opacity="0.2"/></g><g transform="translate(-118,-6) scale(1,1)"><path fill="#ffffff" stroke="none" d="M 360 201 C 360 191.6111584 397.3842192 184 443.5 184 C 489.6157808 184 527 191.6111584 527 201 C 527 210.3888416 489.6157808 218 443.5 218 C 397.3842192 218 360 210.3888416 360 201 Z"/></g><g transform="translate(-118,-6) scale(1,1)"><path fill="none" stroke="#000000" d="M 360 201 C 360 191.6111584 397.3842192 184 443.5 184 C 489.6157808 184 527 191.6111584 527 201 C 527 210.3888416 489.6157808 218 443.5 218 C 397.3842192 218 360 210.3888416 360 201 Z" stroke-miterlimit="10"/></g><g transform="translate(-118,-6) scale(1,1)"><g><path fill="none" stroke="none"/><text fill="#000000" stroke="none" font-family="Arial" font-size="13px" font-style="normal" font-weight="bold" text-decoration="none" x="392.1982421875" y="208">PresentaFacturas</text></g></g><g transform="translate(-118,-6) scale(1,1)"><path fill="#C0C0C0" stroke="none" d="M 367 296 C 367 286.6111584 399.6832096 279 440 279 C 480.3167904 279 513 286.6111584 513 296 C 513 305.3888416 480.3167904 313 440 313 C 399.6832096 313 367 305.3888416 367 296 Z" opacity="0.2"/></g><g transform="translate(-118,-6) scale(1,1)"><path fill="#ffffff" stroke="none" d="M 360 289 C 360 279.6111584 392.6832096 272 433 272 C 473.3167904 272 506 279.6111584 506 289 C 506 298.3888416 473.3167904 306 433 306 C 392.6832096 306 360 298.3888416 360 289 Z"/></g><g transform="translate(-118,-6) scale(1,1)"><path fill="none" stroke="#000000" d="M 360 289 C 360 279.6111584 392.6832096 272 433 272 C 473.3167904 272 506 279.6111584 506 289 C 506 298.3888416 473.3167904 306 433 306 C 392.6832096 306 360 298.3888416 360 289 Z" stroke-miterlimit="10"/></g><g transform="translate(-118,-6) scale(1,1)"><g><path fill="none" stroke="none"/><text fill="#000000" stroke="none" font-family="Arial" font-size="13px" font-style="normal" font-weight="bold" text-decoration="none" x="388.195068359375" y="296">GuardaReporte</text></g></g><g transform="translate(-118,-6) scale(1,1)"><path fill="#ffffff" stroke="none" d="M 192.24162571022728 89.68 C 192.24162571022728 84.886167936 196.12746803517274 81 200.9208984375 81 C 205.71432883982726 81 209.60017116477272 84.886167936 209.60017116477272 89.68 C 209.60017116477272 94.473832064 205.71432883982726 98.36 200.9208984375 98.36 C 196.12746803517274 98.36 192.24162571022728 94.473832064 192.24162571022728 89.68 Z"/></g><g transform="translate(-118,-6) scale(1,1)"><path fill="none" stroke="#000000" d="M 192.24162571022728 89.68 C 192.24162571022728 84.886167936 196.12746803517274 81 200.9208984375 81 C 205.71432883982726 81 209.60017116477272 84.886167936 209.60017116477272 89.68 C 209.60017116477272 94.473832064 205.71432883982726 98.36 200.9208984375 98.36 C 196.12746803517274 98.36 192.24162571022728 94.473832064 192.24162571022728 89.68 Z" stroke-miterlimit="10"/></g><g transform="translate(-118,-6) scale(1,1)"><path fill="none" stroke="#000000" d="M 200.9208984375 98.36 L 200.9208984375 115.64" stroke-miterlimit="10"/></g><g transform="translate(-118,-6) scale(1,1)"><path fill="none" stroke="#000000" d="M 191.73108025568183 104.84 L 210.11071661931817 104.84" stroke-miterlimit="10"/></g><g transform="translate(-118,-6) scale(1,1)"><path fill="none" stroke="#000000" d="M 200.9208984375 115.64 L 188.15726207386365 133" stroke-miterlimit="10"/></g><g transform="translate(-118,-6) scale(1,1)"><path fill="none" stroke="#000000" d="M 200.9208984375 115.64 L 213.68453480113635 133" stroke-miterlimit="10"/></g><g transform="translate(-118,-6) scale(1,1)"><g><path fill="none" stroke="none"/><text fill="#000000" stroke="none" font-family="Arial" font-size="13px" font-style="normal" font-weight="bold" text-decoration="none" x="160.82275390625" y="153.5">Administrador</text></g></g><g transform="translate(-118,-6) scale(1,1)"><path fill="#ffffff" stroke="none" d="M 180 265.49038461538464 C 180 260.80127424615387 183.8055792 257 188.5 257 C 193.1944208 257 197 260.80127424615387 197 265.49038461538464 C 197 270.1794949846154 193.1944208 273.9807692307692 188.5 273.9807692307692 C 183.8055792 273.9807692307692 180 270.1794949846154 180 265.49038461538464 Z"/></g><g transform="translate(-118,-6) scale(1,1)"><path fill="none" stroke="#000000" d="M 180 265.49038461538464 C 180 260.80127424615387 183.8055792 257 188.5 257 C 193.1944208 257 197 260.80127424615387 197 265.49038461538464 C 197 270.1794949846154 193.1944208 273.9807692307692 188.5 273.9807692307692 C 183.8055792 273.9807692307692 180 270.1794949846154 180 265.49038461538464 Z" stroke-miterlimit="10"/></g><g transform="translate(-118,-6) scale(1,1)"><path fill="none" stroke="#000000" d="M 188.5 273.9807692307692 L 188.5 290.9038461538462" stroke-miterlimit="10"/></g><g transform="translate(-118,-6) scale(1,1)"><path fill="none" stroke="#000000" d="M 179.5 280.3269230769231 L 197.5 280.3269230769231" stroke-miterlimit="10"/></g><g transform="translate(-118,-6) scale(1,1)"><path fill="none" stroke="#000000" d="M 188.5 290.9038461538462 L 176 307.8846153846154" stroke-miterlimit="10"/></g><g transform="translate(-118,-6) scale(1,1)"><path fill="none" stroke="#000000" d="M 188.5 290.9038461538462 L 201 307.8846153846154" stroke-miterlimit="10"/></g><g transform="translate(-118,-6) scale(1,1)"><g><path fill="none" stroke="none"/><text fill="#000000" stroke="none" font-family="Arial" font-size="13px" font-style="normal" font-weight="bold" text-decoration="none" x="186.694091796875" y="328.3846153846154">.</text></g></g><g transform="translate(-118,-6) scale(1,1)"><path fill="none" stroke="#000000" d="M 202 290 L 394 219" stroke-miterlimit="10"/></g><g transform="translate(-118,-6) scale(1,1)"><path fill="none" stroke="#000000" d="M 385.9281854478523 226.4730054085178 L 394 219 L 383.0081523934894 218.57657799390276" stroke-miterlimit="10"/></g><g transform="translate(-118,-6) scale(1,1)"><path fill="none" stroke="#000000" d="M 202 295 L 359 291" stroke-miterlimit="10"/></g><g transform="translate(-118,-6) scale(1,1)"><path fill="none" stroke="#000000" d="M 348.9478359711012 295.4669898518032 L 359 291 L 348.73340783386465 287.0506854652677" stroke-miterlimit="10"/></g><g transform="translate(-118,-6) scale(1,1)"><path fill="none" stroke="#000000" d="M 251 118 L 359 115" stroke-miterlimit="10"/></g><g transform="translate(-118,-6) scale(1,1)"><path fill="none" stroke="#000000" d="M 348.9581296224948 119.49008232902075 L 359 115 L 348.72435769733335 111.07429302320625" stroke-miterlimit="10"/></g><g transform="translate(-118,-6) scale(1,1)"><path fill="#ffffff" stroke="none" d="M 128 248 L 237.171875 248 L 247.171875 258 L 247.171875 311 L 128 311 L 128 248"/></g><g transform="translate(-118,-6) scale(1,1)"><path fill="none" stroke="#000000" d="M 128 248 L 237.171875 248 L 247.171875 258 L 247.171875 311 L 128 311 L 128 248 L 128 248" stroke-miterlimit="10"/></g><g transform="translate(-118,-6) scale(1,1)"><path fill="none" stroke="#000000" d="M 237.171875 248 L 237.171875 258 L 247.171875 258 L 237.171875 248" stroke-miterlimit="10"/></g><g transform="translate(-118,-6) scale(1,1)"><g><path fill="none" stroke="none"/><text fill="#000000" stroke="none" font-family="Arial" font-size="13px" font-style="normal" font-weight="normal" text-decoration="none" x="133" y="266">Imprenta</text><text fill="#000000" stroke="none" font-family="Arial" font-size="13px" font-style="normal" font-weight="normal" text-decoration="none" x="133" y="279">JemaStone</text></g></g></g></svg>