<svg version="1.1" xmlns="http://www.w3.org/2000/svg" xmlns:xlink="http://www.w3.org/1999/xlink" width="472" height="363"><defs/><g><text fill="#eeeeee" stroke="none" font-family="Arial" font-size="24px" font-style="normal" font-weight="normal" text-decoration="none" x="0" y="0">UNREGISTERED</text><text fill="#eeeeee" stroke="none" font-family="Arial" font-size="24px" font-style="normal" font-weight="normal" text-decoration="none" x="0" y="30">UNREGISTERED</text><text fill="#eeeeee" stroke="none" font-family="Arial" font-size="24px" font-style="normal" font-weight="normal" text-decoration="none" x="0" y="60">UNREGISTERED</text><text fill="#eeeeee" stroke="none" font-family="Arial" font-size="24px" font-style="normal" font-weight="normal" text-decoration="none" x="0" y="90">UNREGISTERED</text><text fill="#eeeeee" stroke="none" font-family="Arial" font-size="24px" font-style="normal" font-weight="normal" text-decoration="none" x="0" y="120">UNREGISTERED</text><text fill="#eeeeee" stroke="none" font-family="Arial" font-size="24px" font-style="normal" font-weight="normal" text-decoration="none" x="0" y="150">UNREGISTERED</text><text fill="#eeeeee" stroke="none" font-family="Arial" font-size="24px" font-style="normal" font-weight="normal" text-decoration="none" x="0" y="180">UNREGISTERED</text><text fill="#eeeeee" stroke="none" font-family="Arial" font-size="24px" font-style="normal" font-weight="normal" text-decoration="none" x="0" y="210">UNREGISTERED</text><text fill="#eeeeee" stroke="none" font-family="Arial" font-size="24px" font-style="normal" font-weight="normal" text-decoration="none" x="0" y="240">UNREGISTERED</text><text fill="#eeeeee" stroke="none" font-family="Arial" font-size="24px" font-style="normal" font-weight="normal" text-decoration="none" x="0" y="270">UNREGISTERED</text><text fill="#eeeeee" stroke="none" font-family="Arial" font-size="24px" font-style="normal" font-weight="normal" text-decoration="none" x="0" y="300">UNREGISTERED</text><text fill="#eeeeee" stroke="none" font-family="Arial" font-size="24px" font-style="normal" font-weight="normal" text-decoration="none" x="0" y="330">UNREGISTERED</text><text fill="#eeeeee" stroke="none" font-family="Arial" font-size="24px" font-style="normal" font-weight="normal" text-decoration="none" x="0" y="360">UNREGISTERED</text><text fill="#eeeeee" stroke="none" font-family="Arial" font-size="24px" font-style="normal" font-weight="normal" text-decoration="none" x="200" y="0">UNREGISTERED</text><text fill="#eeeeee" stroke="none" font-family="Arial" font-size="24px" font-style="normal" font-weight="normal" text-decoration="none" x="200" y="30">UNREGISTERED</text><text fill="#eeeeee" stroke="none" font-family="Arial" font-size="24px" font-style="normal" font-weight="normal" text-decoration="none" x="200" y="60">UNREGISTERED</text><text fill="#eeeeee" stroke="none" font-family="Arial" font-size="24px" font-style="normal" font-weight="normal" text-decoration="none" x="200" y="90">UNREGISTERED</text><text fill="#eeeeee" stroke="none" font-family="Arial" font-size="24px" font-style="normal" font-weight="normal" text-decoration="none" x="200" y="120">UNREGISTERED</text><text fill="#eeeeee" stroke="none" font-family="Arial" font-size="24px" font-style="normal" font-weight="normal" text-decoration="none" x="200" y="150">UNREGISTERED</text><text fill="#eeeeee" stroke="none" font-family="Arial" font-size="24px" font-style="normal" font-weight="normal" text-decoration="none" x="200" y="180">UNREGISTERED</text><text fill="#eeeeee" stroke="none" font-family="Arial" font-size="24px" font-style="normal" font-weight="normal" text-decoration="none" x="200" y="210">UNREGISTERED</text><text fill="#eeeeee" stroke="none" font-family="Arial" font-size="24px" font-style="normal" font-weight="normal" text-decoration="none" x="200" y="240">UNREGISTERED</text><text fill="#eeeeee" stroke="none" font-family="Arial" font-size="24px" font-style="normal" font-weight="normal" text-decoration="none" x="200" y="270">UNREGISTERED</text><text fill="#eeeeee" stroke="none" font-family="Arial" font-size="24px" font-style="normal" font-weight="normal" text-decoration="none" x="200" y="300">UNREGISTERED</text><text fill="#eeeeee" stroke="none" font-family="Arial" font-size="24px" font-style="normal" font-weight="normal" text-decoration="none" x="200" y="330">UNREGISTERED</text><text fill="#eeeeee" stroke="none" font-family="Arial" font-size="24px" font-style="normal" font-weight="normal" text-decoration="none" x="200" y="360">UNREGISTERED</text><text fill="#eeeeee" stroke="none" font-family="Arial" font-size="24px" font-style="normal" font-weight="normal" text-decoration="none" x="400" y="0">UNREGISTERED</text><text fill="#eeeeee" stroke="none" font-family="Arial" font-size="24px" font-style="normal" font-weight="normal" text-decoration="none" x="400" y="30">UNREGISTERED</text><text fill="#eeeeee" stroke="none" font-family="Arial" font-size="24px" font-style="normal" font-weight="normal" text-decoration="none" x="400" y="60">UNREGISTERED</text><text fill="#eeeeee" stroke="none" font-family="Arial" font-size="24px" font-style="normal" font-weight="normal" text-decoration="none" x="400" y="90">UNREGISTERED</text><text fill="#eeeeee" stroke="none" font-family="Arial" font-size="24px" font-style="normal" font-weight="normal" text-decoration="none" x="400" y="120">UNREGISTERED</text><text fill="#eeeeee" stroke="none" font-family="Arial" font-size="24px" font-style="normal" font-weight="normal" text-decoration="none" x="400" y="150">UNREGISTERED</text><text fill="#eeeeee" stroke="none" font-family="Arial" font-size="24px" font-style="normal" font-weight="normal" text-decoration="none" x="400" y="180">UNREGISTERED</text><text fill="#eeeeee" stroke="none" font-family="Arial" font-size="24px" font-style="normal" font-weight="normal" text-decoration="none" x="400" y="210">UNREGISTERED</text><text fill="#eeeeee" stroke="none" font-family="Arial" font-size="24px" font-style="normal" font-weight="normal" text-decoration="none" x="400" y="240">UNREGISTERED</text><text fill="#eeeeee" stroke="none" font-family="Arial" font-size="24px" font-style="normal" font-weight="normal" text-decoration="none" x="400" y="270">UNREGISTERED</text><text fill="#eeeeee" stroke="none" font-family="Arial" font-size="24px" font-style="normal" font-weight="normal" text-decoration="none" x="400" y="300">UNREGISTERED</text><text fill="#eeeeee" stroke="none" font-family="Arial" font-size="24px" font-style="normal" font-weight="normal" text-decoration="none" x="400" y="330">UNREGISTERED</text><text fill="#eeeeee" stroke="none" font-family="Arial" font-size="24px" font-style="normal" font-weight="normal" text-decoration="none" x="400" y="360">UNREGISTERED</text><g transform="translate(6,-118) scale(1,1)"><rect fill="#C0C0C0" stroke="none" x="223" y="135" width="240" height="296" opacity="0.2"/></g><g transform="translate(6,-118) scale(1,1)"><rect fill="#ffffff" stroke="none" x="216" y="128" width="240" height="296"/></g><g transform="translate(6,-118) scale(1,1)"><path fill="none" stroke="#000000" d="M 216 128 L 456 128 L 456 424 L 216 424 L 216 128 Z Z" stroke-miterlimit="10"/></g><g transform="translate(6,-118) scale(1,1)"><g><path fill="none" stroke="none"/><text fill="#000000" stroke="none" font-family="Arial" font-size="13px" font-style="normal" font-weight="bold" text-decoration="none" x="291.201416015625" y="147.5">Registra cliente</text></g></g><g transform="translate(6,-118) scale(1,1)"><path fill="#ffffff" stroke="none" d="M 24 136 L 97.76171875 136 L 107.76171875 146 L 107.76171875 174 L 24 174 L 24 136"/></g><g transform="translate(6,-118) scale(1,1)"><path fill="none" stroke="#000000" d="M 24 136 L 97.76171875 136 L 107.76171875 146 L 107.76171875 174 L 24 174 L 24 136 L 24 136" stroke-miterlimit="10"/></g><g transform="translate(6,-118) scale(1,1)"><path fill="none" stroke="#000000" d="M 97.76171875 136 L 97.76171875 146 L 107.76171875 146 L 97.76171875 136" stroke-miterlimit="10"/></g><g transform="translate(6,-118) scale(1,1)"><g><path fill="none" stroke="none"/><text fill="#000000" stroke="none" font-family="Arial" font-size="13px" font-style="normal" font-weight="normal" text-decoration="none" x="29" y="154">Sistema</text><text fill="#000000" stroke="none" font-family="Arial" font-size="13px" font-style="normal" font-weight="normal" text-decoration="none" x="29" y="167">JemaStone</text></g></g><g transform="translate(6,-118) scale(1,1)"><path fill="#C0C0C0" stroke="none" d="M 247 272 C 247 262.6111584 291.5476624 255 346.5 255 C 401.4523376 255 446 262.6111584 446 272 C 446 281.3888416 401.4523376 289 346.5 289 C 291.5476624 289 247 281.3888416 247 272 Z" opacity="0.2"/></g><g transform="translate(6,-118) scale(1,1)"><path fill="#ffffff" stroke="none" d="M 240 265 C 240 255.6111584 284.5476624 248 339.5 248 C 394.4523376 248 439 255.6111584 439 265 C 439 274.3888416 394.4523376 282 339.5 282 C 284.5476624 282 240 274.3888416 240 265 Z"/></g><g transform="translate(6,-118) scale(1,1)"><path fill="none" stroke="#000000" d="M 240 265 C 240 255.6111584 284.5476624 248 339.5 248 C 394.4523376 248 439 255.6111584 439 265 C 439 274.3888416 394.4523376 282 339.5 282 C 284.5476624 282 240 274.3888416 240 265 Z" stroke-miterlimit="10"/></g><g transform="translate(6,-118) scale(1,1)"><g><path fill="none" stroke="none"/><text fill="#000000" stroke="none" font-family="Arial" font-size="13px" font-style="normal" font-weight="bold" text-decoration="none" x="295.063232421875" y="272">RegistraCliente</text></g></g><g transform="translate(6,-118) scale(1,1)"><path fill="#ffffff" stroke="none" d="M 72.02116672585227 243.68 C 72.02116672585227 238.886167936 75.90700905079773 235 80.700439453125 235 C 85.49386985545227 235 89.37971218039773 238.886167936 89.37971218039773 243.68 C 89.37971218039773 248.47383206400002 85.49386985545227 252.36 80.700439453125 252.36 C 75.90700905079773 252.36 72.02116672585227 248.47383206400002 72.02116672585227 243.68 Z"/></g><g transform="translate(6,-118) scale(1,1)"><path fill="none" stroke="#000000" d="M 72.02116672585227 243.68 C 72.02116672585227 238.886167936 75.90700905079773 235 80.700439453125 235 C 85.49386985545227 235 89.37971218039773 238.886167936 89.37971218039773 243.68 C 89.37971218039773 248.47383206400002 85.49386985545227 252.36 80.700439453125 252.36 C 75.90700905079773 252.36 72.02116672585227 248.47383206400002 72.02116672585227 243.68 Z" stroke-miterlimit="10"/></g><g transform="translate(6,-118) scale(1,1)"><path fill="none" stroke="#000000" d="M 80.700439453125 252.36 L 80.700439453125 269.64" stroke-miterlimit="10"/></g><g transform="translate(6,-118) scale(1,1)"><path fill="none" stroke="#000000" d="M 71.51062127130682 258.84 L 89.89025763494318 258.84" stroke-miterlimit="10"/></g><g transform="translate(6,-118) scale(1,1)"><path fill="none" stroke="#000000" d="M 80.700439453125 269.64 L 67.93680308948863 287" stroke-miterlimit="10"/></g><g transform="translate(6,-118) scale(1,1)"><path fill="none" stroke="#000000" d="M 80.700439453125 269.64 L 93.46407581676137 287" stroke-miterlimit="10"/></g><g transform="translate(6,-118) scale(1,1)"><g><path fill="none" stroke="none"/><text fill="#000000" stroke="none" font-family="Arial" font-size="13px" font-style="normal" font-weight="bold" text-decoration="none" x="58.302734375" y="307.5">Usuario</text></g></g><g transform="translate(6,-118) scale(1,1)"><path fill="#ffffff" stroke="none" d="M 44.24162571022727 379.68 C 44.24162571022727 374.886167936 48.127468035172726 371 52.9208984375 371 C 57.714328839827274 371 61.60017116477273 374.886167936 61.60017116477273 379.68 C 61.60017116477273 384.473832064 57.714328839827274 388.36 52.9208984375 388.36 C 48.127468035172726 388.36 44.24162571022727 384.473832064 44.24162571022727 379.68 Z"/></g><g transform="translate(6,-118) scale(1,1)"><path fill="none" stroke="#000000" d="M 44.24162571022727 379.68 C 44.24162571022727 374.886167936 48.127468035172726 371 52.9208984375 371 C 57.714328839827274 371 61.60017116477273 374.886167936 61.60017116477273 379.68 C 61.60017116477273 384.473832064 57.714328839827274 388.36 52.9208984375 388.36 C 48.127468035172726 388.36 44.24162571022727 384.473832064 44.24162571022727 379.68 Z" stroke-miterlimit="10"/></g><g transform="translate(6,-118) scale(1,1)"><path fill="none" stroke="#000000" d="M 52.9208984375 388.36 L 52.9208984375 405.64" stroke-miterlimit="10"/></g><g transform="translate(6,-118) scale(1,1)"><path fill="none" stroke="#000000" d="M 43.73108025568182 394.84 L 62.11071661931818 394.84" stroke-miterlimit="10"/></g><g transform="translate(6,-118) scale(1,1)"><path fill="none" stroke="#000000" d="M 52.9208984375 405.64 L 40.157262073863635 423" stroke-miterlimit="10"/></g><g transform="translate(6,-118) scale(1,1)"><path fill="none" stroke="#000000" d="M 52.9208984375 405.64 L 65.68453480113637 423" stroke-miterlimit="10"/></g><g transform="translate(6,-118) scale(1,1)"><g><path fill="none" stroke="none"/><text fill="#000000" stroke="none" font-family="Arial" font-size="13px" font-style="normal" font-weight="bold" text-decoration="none" x="12.82275390625" y="443.5">Administrador</text></g></g><g transform="translate(6,-118) scale(1,1)"><path fill="#ffffff" stroke="none" d="M 137.49162571022728 401.68 C 137.49162571022728 396.886167936 141.37746803517274 393 146.1708984375 393 C 150.96432883982726 393 154.85017116477272 396.886167936 154.85017116477272 401.68 C 154.85017116477272 406.473832064 150.96432883982726 410.36 146.1708984375 410.36 C 141.37746803517274 410.36 137.49162571022728 406.473832064 137.49162571022728 401.68 Z"/></g><g transform="translate(6,-118) scale(1,1)"><path fill="none" stroke="#000000" d="M 137.49162571022728 401.68 C 137.49162571022728 396.886167936 141.37746803517274 393 146.1708984375 393 C 150.96432883982726 393 154.85017116477272 396.886167936 154.85017116477272 401.68 C 154.85017116477272 406.473832064 150.96432883982726 410.36 146.1708984375 410.36 C 141.37746803517274 410.36 137.49162571022728 406.473832064 137.49162571022728 401.68 Z" stroke-miterlimit="10"/></g><g transform="translate(6,-118) scale(1,1)"><path fill="none" stroke="#000000" d="M 146.1708984375 410.36 L 146.1708984375 427.64" stroke-miterlimit="10"/></g><g transform="translate(6,-118) scale(1,1)"><path fill="none" stroke="#000000" d="M 136.98108025568183 416.84 L 155.36071661931817 416.84" stroke-miterlimit="10"/></g><g transform="translate(6,-118) scale(1,1)"><path fill="none" stroke="#000000" d="M 146.1708984375 427.64 L 133.40726207386365 445" stroke-miterlimit="10"/></g><g transform="translate(6,-118) scale(1,1)"><path fill="none" stroke="#000000" d="M 146.1708984375 427.64 L 158.93453480113635 445" stroke-miterlimit="10"/></g><g transform="translate(6,-118) scale(1,1)"><g><path fill="none" stroke="none"/><text fill="#000000" stroke="none" font-family="Arial" font-size="13px" font-style="normal" font-weight="bold" text-decoration="none" x="125.937744140625" y="465.5">Cliente</text></g></g><g transform="translate(6,-118) scale(1,1)"><path fill="none" stroke="#000000" d="M 60 369 L 72 314" stroke-miterlimit="10"/></g><g transform="translate(6,-118) scale(1,1)"><path fill="none" stroke="#000000" d="M 73.94641751978455 324.82642410210667 L 72 314 L 65.72088712865886 323.031762925861" stroke-miterlimit="10"/></g><g transform="translate(6,-118) scale(1,1)"><path fill="none" stroke="#000000" d="M 129 391 L 97 314" stroke-miterlimit="10"/></g><g transform="translate(6,-118) scale(1,1)"><path fill="none" stroke="#000000" d="M 104.78726607253877 321.76907247459354 L 97 314 L 97.01286481648127 324.99999247711094" stroke-miterlimit="10"/></g><g transform="translate(6,-118) scale(1,1)"><path fill="#C0C0C0" stroke="none" d="M 239 376 C 239 366.6111584 285.7862384 359 343.5 359 C 401.2137616 359 448 366.6111584 448 376 C 448 385.3888416 401.2137616 393 343.5 393 C 285.7862384 393 239 385.3888416 239 376 Z" opacity="0.2"/></g><g transform="translate(6,-118) scale(1,1)"><path fill="#ffffff" stroke="none" d="M 232 369 C 232 359.6111584 278.7862384 352 336.5 352 C 394.2137616 352 441 359.6111584 441 369 C 441 378.3888416 394.2137616 386 336.5 386 C 278.7862384 386 232 378.3888416 232 369 Z"/></g><g transform="translate(6,-118) scale(1,1)"><path fill="none" stroke="#000000" d="M 232 369 C 232 359.6111584 278.7862384 352 336.5 352 C 394.2137616 352 441 359.6111584 441 369 C 441 378.3888416 394.2137616 386 336.5 386 C 278.7862384 386 232 378.3888416 232 369 Z" stroke-miterlimit="10"/></g><g transform="translate(6,-118) scale(1,1)"><g><path fill="none" stroke="none"/><text fill="#000000" stroke="none" font-family="Arial" font-size="13px" font-style="normal" font-weight="bold" text-decoration="none" x="271.833251953125" y="376">RegistraTarjetaCrédito</text></g></g><g transform="translate(6,-118) scale(1,1)"><path fill="#C0C0C0" stroke="none" d="M 319 192 C 319 182.6111584 345.862912 175 379 175 C 412.137088 175 439 182.6111584 439 192 C 439 201.3888416 412.137088 209 379 209 C 345.862912 209 319 201.3888416 319 192 Z" opacity="0.2"/></g><g transform="translate(6,-118) scale(1,1)"><path fill="#ffffff" stroke="none" d="M 312 185 C 312 175.6111584 338.862912 168 372 168 C 405.137088 168 432 175.6111584 432 185 C 432 194.3888416 405.137088 202 372 202 C 338.862912 202 312 194.3888416 312 185 Z"/></g><g transform="translate(6,-118) scale(1,1)"><path fill="none" stroke="#000000" d="M 312 185 C 312 175.6111584 338.862912 168 372 168 C 405.137088 168 432 175.6111584 432 185 C 432 194.3888416 405.137088 202 372 202 C 338.862912 202 312 194.3888416 312 185 Z" stroke-miterlimit="10"/></g><g transform="translate(6,-118) scale(1,1)"><g><path fill="none" stroke="none"/><text fill="#000000" stroke="none" font-family="Arial" font-size="13px" font-style="normal" font-weight="bold" text-decoration="none" x="336.951416015625" y="192">IniciaSesión</text></g></g><g transform="translate(6,-118) scale(1,1)"><path fill="none" stroke="#000000" d="M 110 272 L 239 268" stroke-miterlimit="10"/></g><g transform="translate(6,-118) scale(1,1)"><path fill="none" stroke="#000000" d="M 228.97267220754887 272.52246584760314 L 239 268 L 228.7117422522527 264.1074747893022" stroke-miterlimit="10"/></g><g transform="translate(6,-118) scale(1,1)"><path fill="none" stroke="#000000" d="M 110 284 L 288 351" stroke-miterlimit="10"/></g><g transform="translate(6,-118) scale(1,1)"><path fill="none" stroke="#000000" d="M 277.0058797232726 351.35960998435945 L 288 351 L 279.97170034062253 343.4802656576685" stroke-miterlimit="10"/></g><g transform="translate(6,-118) scale(1,1)"><path fill="none" stroke="#000000" d="M 346 247 L 365 203" stroke-miterlimit="10" stroke-dasharray="3"/></g><g transform="translate(6,-118) scale(1,1)"><path fill="none" stroke="#000000" d="M 364.8357494428346 213.99877364775142 L 365 203 L 357.10654988615374 210.66116474827558" stroke-miterlimit="10"/></g><g transform="translate(6,-118) scale(1,1)"><g><path fill="none" stroke="none"/><text fill="#000000" stroke="none" font-family="Arial" font-size="13px" font-style="normal" font-weight="normal" text-decoration="none" x="326.5" y="224.5">+use</text></g></g></g></svg>