<svg version="1.1" xmlns="http://www.w3.org/2000/svg" xmlns:xlink="http://www.w3.org/1999/xlink" width="516" height="371"><defs/><g><text fill="#eeeeee" stroke="none" font-family="Arial" font-size="24px" font-style="normal" font-weight="normal" text-decoration="none" x="0" y="0">UNREGISTERED</text><text fill="#eeeeee" stroke="none" font-family="Arial" font-size="24px" font-style="normal" font-weight="normal" text-decoration="none" x="0" y="30">UNREGISTERED</text><text fill="#eeeeee" stroke="none" font-family="Arial" font-size="24px" font-style="normal" font-weight="normal" text-decoration="none" x="0" y="60">UNREGISTERED</text><text fill="#eeeeee" stroke="none" font-family="Arial" font-size="24px" font-style="normal" font-weight="normal" text-decoration="none" x="0" y="90">UNREGISTERED</text><text fill="#eeeeee" stroke="none" font-family="Arial" font-size="24px" font-style="normal" font-weight="normal" text-decoration="none" x="0" y="120">UNREGISTERED</text><text fill="#eeeeee" stroke="none" font-family="Arial" font-size="24px" font-style="normal" font-weight="normal" text-decoration="none" x="0" y="150">UNREGISTERED</text><text fill="#eeeeee" stroke="none" font-family="Arial" font-size="24px" font-style="normal" font-weight="normal" text-decoration="none" x="0" y="180">UNREGISTERED</text><text fill="#eeeeee" stroke="none" font-family="Arial" font-size="24px" font-style="normal" font-weight="normal" text-decoration="none" x="0" y="210">UNREGISTERED</text><text fill="#eeeeee" stroke="none" font-family="Arial" font-size="24px" font-style="normal" font-weight="normal" text-decoration="none" x="0" y="240">UNREGISTERED</text><text fill="#eeeeee" stroke="none" font-family="Arial" font-size="24px" font-style="normal" font-weight="normal" text-decoration="none" x="0" y="270">UNREGISTERED</text><text fill="#eeeeee" stroke="none" font-family="Arial" font-size="24px" font-style="normal" font-weight="normal" text-decoration="none" x="0" y="300">UNREGISTERED</text><text fill="#eeeeee" stroke="none" font-family="Arial" font-size="24px" font-style="normal" font-weight="normal" text-decoration="none" x="0" y="330">UNREGISTERED</text><text fill="#eeeeee" stroke="none" font-family="Arial" font-size="24px" font-style="normal" font-weight="normal" text-decoration="none" x="0" y="360">UNREGISTERED</text><text fill="#eeeeee" stroke="none" font-family="Arial" font-size="24px" font-style="normal" font-weight="normal" text-decoration="none" x="200" y="0">UNREGISTERED</text><text fill="#eeeeee" stroke="none" font-family="Arial" font-size="24px" font-style="normal" font-weight="normal" text-decoration="none" x="200" y="30">UNREGISTERED</text><text fill="#eeeeee" stroke="none" font-family="Arial" font-size="24px" font-style="normal" font-weight="normal" text-decoration="none" x="200" y="60">UNREGISTERED</text><text fill="#eeeeee" stroke="none" font-family="Arial" font-size="24px" font-style="normal" font-weight="normal" text-decoration="none" x="200" y="90">UNREGISTERED</text><text fill="#eeeeee" stroke="none" font-family="Arial" font-size="24px" font-style="normal" font-weight="normal" text-decoration="none" x="200" y="120">UNREGISTERED</text><text fill="#eeeeee" stroke="none" font-family="Arial" font-size="24px" font-style="normal" font-weight="normal" text-decoration="none" x="200" y="150">UNREGISTERED</text><text fill="#eeeeee" stroke="none" font-family="Arial" font-size="24px" font-style="normal" font-weight="normal" text-decoration="none" x="200" y="180">UNREGISTERED</text><text fill="#eeeeee" stroke="none" font-family="Arial" font-size="24px" font-style="normal" font-weight="normal" text-decoration="none" x="200" y="210">UNREGISTERED</text><text fill="#eeeeee" stroke="none" font-family="Arial" font-size="24px" font-style="normal" font-weight="normal" text-decoration="none" x="200" y="240">UNREGISTERED</text><text fill="#eeeeee" stroke="none" font-family="Arial" font-size="24px" font-style="normal" font-weight="normal" text-decoration="none" x="200" y="270">UNREGISTERED</text><text fill="#eeeeee" stroke="none" font-family="Arial" font-size="24px" font-style="normal" font-weight="normal" text-decoration="none" x="200" y="300">UNREGISTERED</text><text fill="#eeeeee" stroke="none" font-family="Arial" font-size="24px" font-style="normal" font-weight="normal" text-decoration="none" x="200" y="330">UNREGISTERED</text><text fill="#eeeeee" stroke="none" font-family="Arial" font-size="24px" font-style="normal" font-weight="normal" text-decoration="none" x="200" y="360">UNREGISTERED</text><text fill="#eeeeee" stroke="none" font-family="Arial" font-size="24px" font-style="normal" font-weight="normal" text-decoration="none" x="400" y="0">UNREGISTERED</text><text fill="#eeeeee" stroke="none" font-family="Arial" font-size="24px" font-style="normal" font-weight="normal" text-decoration="none" x="400" y="30">UNREGISTERED</text><text fill="#eeeeee" stroke="none" font-family="Arial" font-size="24px" font-style="normal" font-weight="normal" text-decoration="none" x="400" y="60">UNREGISTERED</text><text fill="#eeeeee" stroke="none" font-family="Arial" font-size="24px" font-style="normal" font-weight="normal" text-decoration="none" x="400" y="90">UNREGISTERED</text><text fill="#eeeeee" stroke="none" font-family="Arial" font-size="24px" font-style="normal" font-weight="normal" text-decoration="none" x="400" y="120">UNREGISTERED</text><text fill="#eeeeee" stroke="none" font-family="Arial" font-size="24px" font-style="normal" font-weight="normal" text-decoration="none" x="400" y="150">UNREGISTERED</text><text fill="#eeeeee" stroke="none" font-family="Arial" font-size="24px" font-style="normal" font-weight="normal" text-decoration="none" x="400" y="180">UNREGISTERED</text><text fill="#eeeeee" stroke="none" font-family="Arial" font-size="24px" font-style="normal" font-weight="normal" text-decoration="none" x="400" y="210">UNREGISTERED</text><text fill="#eeeeee" stroke="none" font-family="Arial" font-size="24px" font-style="normal" font-weight="normal" text-decoration="none" x="400" y="240">UNREGISTERED</text><text fill="#eeeeee" stroke="none" font-family="Arial" font-size="24px" font-style="normal" font-weight="normal" text-decoration="none" x="400" y="270">UNREGISTERED</text><text fill="#eeeeee" stroke="none" font-family="Arial" font-size="24px" font-style="normal" font-weight="normal" text-decoration="none" x="400" y="300">UNREGISTERED</text><text fill="#eeeeee" stroke="none" font-family="Arial" font-size="24px" font-style="normal" font-weight="normal" text-decoration="none" x="400" y="330">UNREGISTERED</text><text fill="#eeeeee" stroke="none" font-family="Arial" font-size="24px" font-style="normal" font-weight="normal" text-decoration="none" x="400" y="360">UNREGISTERED</text><g transform="translate(10,-30) scale(1,1)"><rect fill="#C0C0C0" stroke="none" x="175" y="47" width="328" height="336" opacity="0.2"/></g><g transform="translate(10,-30) scale(1,1)"><rect fill="#ffffff" stroke="none" x="168" y="40" width="328" height="336"/></g><g transform="translate(10,-30) scale(1,1)"><path fill="none" stroke="#000000" d="M 168 40 L 496 40 L 496 376 L 168 376 L 168 40 Z Z" stroke-miterlimit="10"/></g><g transform="translate(10,-30) scale(1,1)"><g><path fill="none" stroke="none"/><text fill="#000000" stroke="none" font-family="Arial" font-size="13px" font-style="normal" font-weight="bold" text-decoration="none" x="285.03369140625" y="59.5">Ingreso Sistema</text></g></g><g transform="translate(10,-30) scale(1,1)"><path fill="#ffffff" stroke="none" d="M 68.02116672585227 169.68 C 68.02116672585227 164.886167936 71.90700905079773 161 76.700439453125 161 C 81.49386985545227 161 85.37971218039773 164.886167936 85.37971218039773 169.68 C 85.37971218039773 174.47383206400002 81.49386985545227 178.36 76.700439453125 178.36 C 71.90700905079773 178.36 68.02116672585227 174.47383206400002 68.02116672585227 169.68 Z"/></g><g transform="translate(10,-30) scale(1,1)"><path fill="none" stroke="#000000" d="M 68.02116672585227 169.68 C 68.02116672585227 164.886167936 71.90700905079773 161 76.700439453125 161 C 81.49386985545227 161 85.37971218039773 164.886167936 85.37971218039773 169.68 C 85.37971218039773 174.47383206400002 81.49386985545227 178.36 76.700439453125 178.36 C 71.90700905079773 178.36 68.02116672585227 174.47383206400002 68.02116672585227 169.68 Z" stroke-miterlimit="10"/></g><g transform="translate(10,-30) scale(1,1)"><path fill="none" stroke="#000000" d="M 76.700439453125 178.36 L 76.700439453125 195.64" stroke-miterlimit="10"/></g><g transform="translate(10,-30) scale(1,1)"><path fill="none" stroke="#000000" d="M 67.51062127130682 184.84 L 85.89025763494318 184.84" stroke-miterlimit="10"/></g><g transform="translate(10,-30) scale(1,1)"><path fill="none" stroke="#000000" d="M 76.700439453125 195.64 L 63.936803089488635 213" stroke-miterlimit="10"/></g><g transform="translate(10,-30) scale(1,1)"><path fill="none" stroke="#000000" d="M 76.700439453125 195.64 L 89.46407581676137 213" stroke-miterlimit="10"/></g><g transform="translate(10,-30) scale(1,1)"><g><path fill="none" stroke="none"/><text fill="#000000" stroke="none" font-family="Arial" font-size="13px" font-style="normal" font-weight="bold" text-decoration="none" x="54.302734375" y="233.5">Usuario</text></g></g><g transform="translate(10,-30) scale(1,1)"><path fill="#ffffff" stroke="none" d="M 40.24162571022727 289.68 C 40.24162571022727 284.886167936 44.127468035172726 281 48.9208984375 281 C 53.714328839827274 281 57.60017116477273 284.886167936 57.60017116477273 289.68 C 57.60017116477273 294.473832064 53.714328839827274 298.36 48.9208984375 298.36 C 44.127468035172726 298.36 40.24162571022727 294.473832064 40.24162571022727 289.68 Z"/></g><g transform="translate(10,-30) scale(1,1)"><path fill="none" stroke="#000000" d="M 40.24162571022727 289.68 C 40.24162571022727 284.886167936 44.127468035172726 281 48.9208984375 281 C 53.714328839827274 281 57.60017116477273 284.886167936 57.60017116477273 289.68 C 57.60017116477273 294.473832064 53.714328839827274 298.36 48.9208984375 298.36 C 44.127468035172726 298.36 40.24162571022727 294.473832064 40.24162571022727 289.68 Z" stroke-miterlimit="10"/></g><g transform="translate(10,-30) scale(1,1)"><path fill="none" stroke="#000000" d="M 48.9208984375 298.36 L 48.9208984375 315.64" stroke-miterlimit="10"/></g><g transform="translate(10,-30) scale(1,1)"><path fill="none" stroke="#000000" d="M 39.73108025568182 304.84 L 58.11071661931818 304.84" stroke-miterlimit="10"/></g><g transform="translate(10,-30) scale(1,1)"><path fill="none" stroke="#000000" d="M 48.9208984375 315.64 L 36.157262073863635 333" stroke-miterlimit="10"/></g><g transform="translate(10,-30) scale(1,1)"><path fill="none" stroke="#000000" d="M 48.9208984375 315.64 L 61.684534801136365 333" stroke-miterlimit="10"/></g><g transform="translate(10,-30) scale(1,1)"><g><path fill="none" stroke="none"/><text fill="#000000" stroke="none" font-family="Arial" font-size="13px" font-style="normal" font-weight="bold" text-decoration="none" x="8.82275390625" y="353.5">Administrador</text></g></g><g transform="translate(10,-30) scale(1,1)"><path fill="#ffffff" stroke="none" d="M 129.49162571022728 321.68 C 129.49162571022728 316.886167936 133.37746803517274 313 138.1708984375 313 C 142.96432883982726 313 146.85017116477272 316.886167936 146.85017116477272 321.68 C 146.85017116477272 326.473832064 142.96432883982726 330.36 138.1708984375 330.36 C 133.37746803517274 330.36 129.49162571022728 326.473832064 129.49162571022728 321.68 Z"/></g><g transform="translate(10,-30) scale(1,1)"><path fill="none" stroke="#000000" d="M 129.49162571022728 321.68 C 129.49162571022728 316.886167936 133.37746803517274 313 138.1708984375 313 C 142.96432883982726 313 146.85017116477272 316.886167936 146.85017116477272 321.68 C 146.85017116477272 326.473832064 142.96432883982726 330.36 138.1708984375 330.36 C 133.37746803517274 330.36 129.49162571022728 326.473832064 129.49162571022728 321.68 Z" stroke-miterlimit="10"/></g><g transform="translate(10,-30) scale(1,1)"><path fill="none" stroke="#000000" d="M 138.1708984375 330.36 L 138.1708984375 347.64" stroke-miterlimit="10"/></g><g transform="translate(10,-30) scale(1,1)"><path fill="none" stroke="#000000" d="M 128.98108025568183 336.84 L 147.36071661931817 336.84" stroke-miterlimit="10"/></g><g transform="translate(10,-30) scale(1,1)"><path fill="none" stroke="#000000" d="M 138.1708984375 347.64 L 125.40726207386365 365" stroke-miterlimit="10"/></g><g transform="translate(10,-30) scale(1,1)"><path fill="none" stroke="#000000" d="M 138.1708984375 347.64 L 150.93453480113635 365" stroke-miterlimit="10"/></g><g transform="translate(10,-30) scale(1,1)"><g><path fill="none" stroke="none"/><text fill="#000000" stroke="none" font-family="Arial" font-size="13px" font-style="normal" font-weight="bold" text-decoration="none" x="117.937744140625" y="385.5">Cliente</text></g></g><g transform="translate(10,-30) scale(1,1)"><path fill="#C0C0C0" stroke="none" d="M 263 216 C 263 206.6111584 291.4299152 199 326.5 199 C 361.5700848 199 390 206.6111584 390 216 C 390 225.3888416 361.5700848 233 326.5 233 C 291.4299152 233 263 225.3888416 263 216 Z" opacity="0.2"/></g><g transform="translate(10,-30) scale(1,1)"><path fill="#ffffff" stroke="none" d="M 256 209 C 256 199.6111584 284.4299152 192 319.5 192 C 354.5700848 192 383 199.6111584 383 209 C 383 218.3888416 354.5700848 226 319.5 226 C 284.4299152 226 256 218.3888416 256 209 Z"/></g><g transform="translate(10,-30) scale(1,1)"><path fill="none" stroke="#000000" d="M 256 209 C 256 199.6111584 284.4299152 192 319.5 192 C 354.5700848 192 383 199.6111584 383 209 C 383 218.3888416 354.5700848 226 319.5 226 C 284.4299152 226 256 218.3888416 256 209 Z" stroke-miterlimit="10"/></g><g transform="translate(10,-30) scale(1,1)"><g><path fill="none" stroke="none"/><text fill="#000000" stroke="none" font-family="Arial" font-size="13px" font-style="normal" font-weight="bold" text-decoration="none" x="282.286865234375" y="216">IniciarSesion</text></g></g><g transform="translate(10,-30) scale(1,1)"><path fill="#C0C0C0" stroke="none" d="M 231 104 C 231 94.6111584 274.8760896 87 329 87 C 383.1239104 87 427 94.6111584 427 104 C 427 113.3888416 383.1239104 121 329 121 C 274.8760896 121 231 113.3888416 231 104 Z" opacity="0.2"/></g><g transform="translate(10,-30) scale(1,1)"><path fill="#ffffff" stroke="none" d="M 224 97 C 224 87.6111584 267.8760896 80 322 80 C 376.1239104 80 420 87.6111584 420 97 C 420 106.3888416 376.1239104 114 322 114 C 267.8760896 114 224 106.3888416 224 97 Z"/></g><g transform="translate(10,-30) scale(1,1)"><path fill="none" stroke="#000000" d="M 224 97 C 224 87.6111584 267.8760896 80 322 80 C 376.1239104 80 420 87.6111584 420 97 C 420 106.3888416 376.1239104 114 322 114 C 267.8760896 114 224 106.3888416 224 97 Z" stroke-miterlimit="10"/></g><g transform="translate(10,-30) scale(1,1)"><g><path fill="none" stroke="none"/><text fill="#000000" stroke="none" font-family="Arial" font-size="13px" font-style="normal" font-weight="bold" text-decoration="none" x="261.66552734375" y="104">CredencialesUsuario</text></g></g><g transform="translate(10,-30) scale(1,1)"><path fill="#C0C0C0" stroke="none" d="M 239 328 C 239 318.6111584 278.8466528 311 328 311 C 377.1533472 311 417 318.6111584 417 328 C 417 337.3888416 377.1533472 345 328 345 C 278.8466528 345 239 337.3888416 239 328 Z" opacity="0.2"/></g><g transform="translate(10,-30) scale(1,1)"><path fill="#ffffff" stroke="none" d="M 232 321 C 232 311.6111584 271.8466528 304 321 304 C 370.1533472 304 410 311.6111584 410 321 C 410 330.3888416 370.1533472 338 321 338 C 271.8466528 338 232 330.3888416 232 321 Z"/></g><g transform="translate(10,-30) scale(1,1)"><path fill="none" stroke="#000000" d="M 232 321 C 232 311.6111584 271.8466528 304 321 304 C 370.1533472 304 410 311.6111584 410 321 C 410 330.3888416 370.1533472 338 321 338 C 271.8466528 338 232 330.3888416 232 321 Z" stroke-miterlimit="10"/></g><g transform="translate(10,-30) scale(1,1)"><g><path fill="none" stroke="none"/><text fill="#000000" stroke="none" font-family="Arial" font-size="13px" font-style="normal" font-weight="bold" text-decoration="none" x="265.83251953125" y="328">IngresoPaginaWeb</text></g></g><g transform="translate(10,-30) scale(1,1)"><path fill="none" stroke="#000000" d="M 319 191 L 322 115" stroke-miterlimit="10" stroke-dasharray="3"/></g><g transform="translate(10,-30) scale(1,1)"><path fill="none" stroke="#000000" d="M 325.8053959617094 125.32080237067865 L 322 115 L 317.3929119460316 124.98873063321767" stroke-miterlimit="10"/></g><g transform="translate(10,-30) scale(1,1)"><g><path fill="none" stroke="none"/><text fill="#000000" stroke="none" font-family="Arial" font-size="13px" font-style="normal" font-weight="normal" text-decoration="none" x="322.5" y="155.5">«extend»</text></g></g><g transform="translate(10,-30) scale(1,1)"><path fill="none" stroke="#000000" d="M 319 227 L 321 303" stroke-miterlimit="10" stroke-dasharray="3"/></g><g transform="translate(10,-30) scale(1,1)"><path fill="none" stroke="#000000" d="M 316.5245928199676 292.9515806928197 L 321 303 L 324.9407146667412 292.7301038021151" stroke-miterlimit="10"/></g><g transform="translate(10,-30) scale(1,1)"><g><path fill="none" stroke="none"/><text fill="#000000" stroke="none" font-family="Arial" font-size="13px" font-style="normal" font-weight="normal" text-decoration="none" x="319.5" y="270.5">+use</text></g></g><g transform="translate(10,-30) scale(1,1)"><path fill="none" stroke="#000000" d="M 57 279 L 66 240" stroke-miterlimit="10"/></g><g transform="translate(10,-30) scale(1,1)"><path fill="none" stroke="#000000" d="M 67.81654298435691 250.84897099203346 L 66 240 L 59.613108905192604 248.95587081991863" stroke-miterlimit="10"/></g><g transform="translate(10,-30) scale(1,1)"><path fill="none" stroke="#000000" d="M 122 311 L 93 240" stroke-miterlimit="10"/></g><g transform="translate(10,-30) scale(1,1)"><path fill="none" stroke="#000000" d="M 100.73974234523637 247.816417877094 L 93 240 L 92.94578221147236 250.99986638243425" stroke-miterlimit="10"/></g><g transform="translate(10,-30) scale(1,1)"><path fill="none" stroke="#000000" d="M 106 200 L 255 206" stroke-miterlimit="10"/></g><g transform="translate(10,-30) scale(1,1)"><path fill="none" stroke="#000000" d="M 244.67618125660212 209.79720509762993 L 255 206 L 245.01492828471234 201.38498723289283" stroke-miterlimit="10"/></g><g transform="translate(10,-30) scale(1,1)"><path fill="#ffffff" stroke="none" d="M 40 56 L 113.03173828125 56 L 123.03173828125 66 L 123.03173828125 94 L 40 94 L 40 56"/></g><g transform="translate(10,-30) scale(1,1)"><path fill="none" stroke="#000000" d="M 40 56 L 113.03173828125 56 L 123.03173828125 66 L 123.03173828125 94 L 40 94 L 40 56 L 40 56" stroke-miterlimit="10"/></g><g transform="translate(10,-30) scale(1,1)"><path fill="none" stroke="#000000" d="M 113.03173828125 56 L 113.03173828125 66 L 123.03173828125 66 L 113.03173828125 56" stroke-miterlimit="10"/></g><g transform="translate(10,-30) scale(1,1)"><g><path fill="none" stroke="none"/><text fill="#000000" stroke="none" font-family="Arial" font-size="13px" font-style="normal" font-weight="normal" text-decoration="none" x="45" y="74">Sistema </text></g></g><g transform="translate(10,-30) scale(1,1)"><g><path fill="none" stroke="none"/><text fill="#000000" stroke="none" font-family="Arial" font-size="13px" font-style="normal" font-weight="normal" text-decoration="none" x="45" y="89">JemaStace</text></g></g></g></svg>