<svg version="1.1" xmlns="http://www.w3.org/2000/svg" xmlns:xlink="http://www.w3.org/1999/xlink" width="420" height="252"><defs/><g><text fill="#eeeeee" stroke="none" font-family="Arial" font-size="24px" font-style="normal" font-weight="normal" text-decoration="none" x="0" y="0">UNREGISTERED</text><text fill="#eeeeee" stroke="none" font-family="Arial" font-size="24px" font-style="normal" font-weight="normal" text-decoration="none" x="0" y="30">UNREGISTERED</text><text fill="#eeeeee" stroke="none" font-family="Arial" font-size="24px" font-style="normal" font-weight="normal" text-decoration="none" x="0" y="60">UNREGISTERED</text><text fill="#eeeeee" stroke="none" font-family="Arial" font-size="24px" font-style="normal" font-weight="normal" text-decoration="none" x="0" y="90">UNREGISTERED</text><text fill="#eeeeee" stroke="none" font-family="Arial" font-size="24px" font-style="normal" font-weight="normal" text-decoration="none" x="0" y="120">UNREGISTERED</text><text fill="#eeeeee" stroke="none" font-family="Arial" font-size="24px" font-style="normal" font-weight="normal" text-decoration="none" x="0" y="150">UNREGISTERED</text><text fill="#eeeeee" stroke="none" font-family="Arial" font-size="24px" font-style="normal" font-weight="normal" text-decoration="none" x="0" y="180">UNREGISTERED</text><text fill="#eeeeee" stroke="none" font-family="Arial" font-size="24px" font-style="normal" font-weight="normal" text-decoration="none" x="0" y="210">UNREGISTERED</text><text fill="#eeeeee" stroke="none" font-family="Arial" font-size="24px" font-style="normal" font-weight="normal" text-decoration="none" x="0" y="240">UNREGISTERED</text><text fill="#eeeeee" stroke="none" font-family="Arial" font-size="24px" font-style="normal" font-weight="normal" text-decoration="none" x="200" y="0">UNREGISTERED</text><text fill="#eeeeee" stroke="none" font-family="Arial" font-size="24px" font-style="normal" font-weight="normal" text-decoration="none" x="200" y="30">UNREGISTERED</text><text fill="#eeeeee" stroke="none" font-family="Arial" font-size="24px" font-style="normal" font-weight="normal" text-decoration="none" x="200" y="60">UNREGISTERED</text><text fill="#eeeeee" stroke="none" font-family="Arial" font-size="24px" font-style="normal" font-weight="normal" text-decoration="none" x="200" y="90">UNREGISTERED</text><text fill="#eeeeee" stroke="none" font-family="Arial" font-size="24px" font-style="normal" font-weight="normal" text-decoration="none" x="200" y="120">UNREGISTERED</text><text fill="#eeeeee" stroke="none" font-family="Arial" font-size="24px" font-style="normal" font-weight="normal" text-decoration="none" x="200" y="150">UNREGISTERED</text><text fill="#eeeeee" stroke="none" font-family="Arial" font-size="24px" font-style="normal" font-weight="normal" text-decoration="none" x="200" y="180">UNREGISTERED</text><text fill="#eeeeee" stroke="none" font-family="Arial" font-size="24px" font-style="normal" font-weight="normal" text-decoration="none" x="200" y="210">UNREGISTERED</text><text fill="#eeeeee" stroke="none" font-family="Arial" font-size="24px" font-style="normal" font-weight="normal" text-decoration="none" x="200" y="240">UNREGISTERED</text><text fill="#eeeeee" stroke="none" font-family="Arial" font-size="24px" font-style="normal" font-weight="normal" text-decoration="none" x="400" y="0">UNREGISTERED</text><text fill="#eeeeee" stroke="none" font-family="Arial" font-size="24px" font-style="normal" font-weight="normal" text-decoration="none" x="400" y="30">UNREGISTERED</text><text fill="#eeeeee" stroke="none" font-family="Arial" font-size="24px" font-style="normal" font-weight="normal" text-decoration="none" x="400" y="60">UNREGISTERED</text><text fill="#eeeeee" stroke="none" font-family="Arial" font-size="24px" font-style="normal" font-weight="normal" text-decoration="none" x="400" y="90">UNREGISTERED</text><text fill="#eeeeee" stroke="none" font-family="Arial" font-size="24px" font-style="normal" font-weight="normal" text-decoration="none" x="400" y="120">UNREGISTERED</text><text fill="#eeeeee" stroke="none" font-family="Arial" font-size="24px" font-style="normal" font-weight="normal" text-decoration="none" x="400" y="150">UNREGISTERED</text><text fill="#eeeeee" stroke="none" font-family="Arial" font-size="24px" font-style="normal" font-weight="normal" text-decoration="none" x="400" y="180">UNREGISTERED</text><text fill="#eeeeee" stroke="none" font-family="Arial" font-size="24px" font-style="normal" font-weight="normal" text-decoration="none" x="400" y="210">UNREGISTERED</text><text fill="#eeeeee" stroke="none" font-family="Arial" font-size="24px" font-style="normal" font-weight="normal" text-decoration="none" x="400" y="240">UNREGISTERED</text><g transform="translate(-54,-78) scale(1,1)"><rect fill="#C0C0C0" stroke="none" x="231" y="95" width="240" height="232" opacity="0.2"/></g><g transform="translate(-54,-78) scale(1,1)"><rect fill="#ffffff" stroke="none" x="224" y="88" width="240" height="232"/></g><g transform="translate(-54,-78) scale(1,1)"><path fill="none" stroke="#000000" d="M 224 88 L 464 88 L 464 320 L 224 320 L 224 88 Z Z" stroke-miterlimit="10"/></g><g transform="translate(-54,-78) scale(1,1)"><g><path fill="none" stroke="none"/><text fill="#000000" stroke="none" font-family="Arial" font-size="13px" font-style="normal" font-weight="bold" text-decoration="none" x="281.148681640625" y="107.5">RegistroMateriaPrima</text></g></g><g transform="translate(-54,-78) scale(1,1)"><path fill="#ffffff" stroke="none" d="M 100 249.4903846153846 C 100 244.80127424615384 103.8055792 241 108.5 241 C 113.1944208 241 117 244.80127424615384 117 249.4903846153846 C 117 254.1794949846154 113.1944208 257.9807692307692 108.5 257.9807692307692 C 103.8055792 257.9807692307692 100 254.1794949846154 100 249.4903846153846 Z"/></g><g transform="translate(-54,-78) scale(1,1)"><path fill="none" stroke="#000000" d="M 100 249.4903846153846 C 100 244.80127424615384 103.8055792 241 108.5 241 C 113.1944208 241 117 244.80127424615384 117 249.4903846153846 C 117 254.1794949846154 113.1944208 257.9807692307692 108.5 257.9807692307692 C 103.8055792 257.9807692307692 100 254.1794949846154 100 249.4903846153846 Z" stroke-miterlimit="10"/></g><g transform="translate(-54,-78) scale(1,1)"><path fill="none" stroke="#000000" d="M 108.5 257.9807692307692 L 108.5 274.9038461538462" stroke-miterlimit="10"/></g><g transform="translate(-54,-78) scale(1,1)"><path fill="none" stroke="#000000" d="M 99.5 264.3269230769231 L 117.5 264.3269230769231" stroke-miterlimit="10"/></g><g transform="translate(-54,-78) scale(1,1)"><path fill="none" stroke="#000000" d="M 108.5 274.9038461538462 L 96 291.8846153846154" stroke-miterlimit="10"/></g><g transform="translate(-54,-78) scale(1,1)"><path fill="none" stroke="#000000" d="M 108.5 274.9038461538462 L 121 291.8846153846154" stroke-miterlimit="10"/></g><g transform="translate(-54,-78) scale(1,1)"><g><path fill="none" stroke="none"/><text fill="#000000" stroke="none" font-family="Arial" font-size="13px" font-style="normal" font-weight="bold" text-decoration="none" x="104.16455078125" y="312.3846153846154">A</text></g></g><g transform="translate(-54,-78) scale(1,1)"><path fill="#ffffff" stroke="none" d="M 112.24162571022728 121.68 C 112.24162571022728 116.886167936 116.12746803517274 113 120.9208984375 113 C 125.71432883982726 113 129.60017116477272 116.886167936 129.60017116477272 121.68 C 129.60017116477272 126.473832064 125.71432883982726 130.36 120.9208984375 130.36 C 116.12746803517274 130.36 112.24162571022728 126.473832064 112.24162571022728 121.68 Z"/></g><g transform="translate(-54,-78) scale(1,1)"><path fill="none" stroke="#000000" d="M 112.24162571022728 121.68 C 112.24162571022728 116.886167936 116.12746803517274 113 120.9208984375 113 C 125.71432883982726 113 129.60017116477272 116.886167936 129.60017116477272 121.68 C 129.60017116477272 126.473832064 125.71432883982726 130.36 120.9208984375 130.36 C 116.12746803517274 130.36 112.24162571022728 126.473832064 112.24162571022728 121.68 Z" stroke-miterlimit="10"/></g><g transform="translate(-54,-78) scale(1,1)"><path fill="none" stroke="#000000" d="M 120.9208984375 130.36 L 120.9208984375 147.64" stroke-miterlimit="10"/></g><g transform="translate(-54,-78) scale(1,1)"><path fill="none" stroke="#000000" d="M 111.73108025568183 136.84 L 130.11071661931817 136.84" stroke-miterlimit="10"/></g><g transform="translate(-54,-78) scale(1,1)"><path fill="none" stroke="#000000" d="M 120.9208984375 147.64 L 108.15726207386365 165" stroke-miterlimit="10"/></g><g transform="translate(-54,-78) scale(1,1)"><path fill="none" stroke="#000000" d="M 120.9208984375 147.64 L 133.68453480113635 165" stroke-miterlimit="10"/></g><g transform="translate(-54,-78) scale(1,1)"><g><path fill="none" stroke="none"/><text fill="#000000" stroke="none" font-family="Arial" font-size="13px" font-style="normal" font-weight="bold" text-decoration="none" x="80.82275390625" y="185.5">Administrador</text></g></g><g transform="translate(-54,-78) scale(1,1)"><path fill="#C0C0C0" stroke="none" d="M 255 256 C 255 246.6111584 297.9806592 239 351 239 C 404.0193408 239 447 246.6111584 447 256 C 447 265.3888416 404.0193408 273 351 273 C 297.9806592 273 255 265.3888416 255 256 Z" opacity="0.2"/></g><g transform="translate(-54,-78) scale(1,1)"><path fill="#ffffff" stroke="none" d="M 248 249 C 248 239.6111584 290.9806592 232 344 232 C 397.0193408 232 440 239.6111584 440 249 C 440 258.3888416 397.0193408 266 344 266 C 290.9806592 266 248 258.3888416 248 249 Z"/></g><g transform="translate(-54,-78) scale(1,1)"><path fill="none" stroke="#000000" d="M 248 249 C 248 239.6111584 290.9806592 232 344 232 C 397.0193408 232 440 239.6111584 440 249 C 440 258.3888416 397.0193408 266 344 266 C 290.9806592 266 248 258.3888416 248 249 Z" stroke-miterlimit="10"/></g><g transform="translate(-54,-78) scale(1,1)"><g><path fill="none" stroke="none"/><text fill="#000000" stroke="none" font-family="Arial" font-size="13px" font-style="normal" font-weight="bold" text-decoration="none" x="283.671875" y="256">GuardaMateriaPrima</text></g></g><g transform="translate(-54,-78) scale(1,1)"><path fill="#C0C0C0" stroke="none" d="M 247 176 C 247 166.6111584 292.2192352 159 348 159 C 403.7807648 159 449 166.6111584 449 176 C 449 185.3888416 403.7807648 193 348 193 C 292.2192352 193 247 185.3888416 247 176 Z" opacity="0.2"/></g><g transform="translate(-54,-78) scale(1,1)"><path fill="#ffffff" stroke="none" d="M 240 169 C 240 159.6111584 285.2192352 152 341 152 C 396.7807648 152 442 159.6111584 442 169 C 442 178.3888416 396.7807648 186 341 186 C 285.2192352 186 240 178.3888416 240 169 Z"/></g><g transform="translate(-54,-78) scale(1,1)"><path fill="none" stroke="#000000" d="M 240 169 C 240 159.6111584 285.2192352 152 341 152 C 396.7807648 152 442 159.6111584 442 169 C 442 178.3888416 396.7807648 186 341 186 C 285.2192352 186 240 178.3888416 240 169 Z" stroke-miterlimit="10"/></g><g transform="translate(-54,-78) scale(1,1)"><g><path fill="none" stroke="none"/><text fill="#000000" stroke="none" font-family="Arial" font-size="13px" font-style="normal" font-weight="bold" text-decoration="none" x="278.148681640625" y="176">RegistraMateriaPrima</text></g></g><g transform="translate(-54,-78) scale(1,1)"><path fill="none" stroke="#000000" d="M 171 155 L 239 161" stroke-miterlimit="10"/></g><g transform="translate(-54,-78) scale(1,1)"><path fill="none" stroke="#000000" d="M 228.5066656631317 164.2999900749398 L 239 161 L 229.24664677330455 155.91353749298105" stroke-miterlimit="10"/></g><g transform="translate(-54,-78) scale(1,1)"><path fill="none" stroke="#000000" d="M 122 277 L 247 261" stroke-miterlimit="10"/></g><g transform="translate(-54,-78) scale(1,1)"><path fill="none" stroke="#000000" d="M 237.45402631922622 266.465746654024 L 247 261 L 236.38511075398853 258.11484380060455" stroke-miterlimit="10"/></g><g transform="translate(-54,-78) scale(1,1)"><path fill="#ffffff" stroke="none" d="M 64 240 L 137.76171875 240 L 147.76171875 250 L 147.76171875 311 L 64 311 L 64 240"/></g><g transform="translate(-54,-78) scale(1,1)"><path fill="none" stroke="#000000" d="M 64 240 L 137.76171875 240 L 147.76171875 250 L 147.76171875 311 L 64 311 L 64 240 L 64 240" stroke-miterlimit="10"/></g><g transform="translate(-54,-78) scale(1,1)"><path fill="none" stroke="#000000" d="M 137.76171875 240 L 137.76171875 250 L 147.76171875 250 L 137.76171875 240" stroke-miterlimit="10"/></g><g transform="translate(-54,-78) scale(1,1)"><g><path fill="none" stroke="none"/><text fill="#000000" stroke="none" font-family="Arial" font-size="13px" font-style="normal" font-weight="normal" text-decoration="none" x="69" y="258">Imprenta</text><text fill="#000000" stroke="none" font-family="Arial" font-size="13px" font-style="normal" font-weight="normal" text-decoration="none" x="69" y="271">JemaStone</text></g></g></g></svg>