<svg version="1.1" xmlns="http://www.w3.org/2000/svg" xmlns:xlink="http://www.w3.org/1999/xlink" width="774.55712890625" height="629"><defs/><g><text fill="#eeeeee" stroke="none" font-family="Arial" font-size="24px" font-style="normal" font-weight="normal" text-decoration="none" x="0" y="0">UNREGISTERED</text><text fill="#eeeeee" stroke="none" font-family="Arial" font-size="24px" font-style="normal" font-weight="normal" text-decoration="none" x="0" y="30">UNREGISTERED</text><text fill="#eeeeee" stroke="none" font-family="Arial" font-size="24px" font-style="normal" font-weight="normal" text-decoration="none" x="0" y="60">UNREGISTERED</text><text fill="#eeeeee" stroke="none" font-family="Arial" font-size="24px" font-style="normal" font-weight="normal" text-decoration="none" x="0" y="90">UNREGISTERED</text><text fill="#eeeeee" stroke="none" font-family="Arial" font-size="24px" font-style="normal" font-weight="normal" text-decoration="none" x="0" y="120">UNREGISTERED</text><text fill="#eeeeee" stroke="none" font-family="Arial" font-size="24px" font-style="normal" font-weight="normal" text-decoration="none" x="0" y="150">UNREGISTERED</text><text fill="#eeeeee" stroke="none" font-family="Arial" font-size="24px" font-style="normal" font-weight="normal" text-decoration="none" x="0" y="180">UNREGISTERED</text><text fill="#eeeeee" stroke="none" font-family="Arial" font-size="24px" font-style="normal" font-weight="normal" text-decoration="none" x="0" y="210">UNREGISTERED</text><text fill="#eeeeee" stroke="none" font-family="Arial" font-size="24px" font-style="normal" font-weight="normal" text-decoration="none" x="0" y="240">UNREGISTERED</text><text fill="#eeeeee" stroke="none" font-family="Arial" font-size="24px" font-style="normal" font-weight="normal" text-decoration="none" x="0" y="270">UNREGISTERED</text><text fill="#eeeeee" stroke="none" font-family="Arial" font-size="24px" font-style="normal" font-weight="normal" text-decoration="none" x="0" y="300">UNREGISTERED</text><text fill="#eeeeee" stroke="none" font-family="Arial" font-size="24px" font-style="normal" font-weight="normal" text-decoration="none" x="0" y="330">UNREGISTERED</text><text fill="#eeeeee" stroke="none" font-family="Arial" font-size="24px" font-style="normal" font-weight="normal" text-decoration="none" x="0" y="360">UNREGISTERED</text><text fill="#eeeeee" stroke="none" font-family="Arial" font-size="24px" font-style="normal" font-weight="normal" text-decoration="none" x="0" y="390">UNREGISTERED</text><text fill="#eeeeee" stroke="none" font-family="Arial" font-size="24px" font-style="normal" font-weight="normal" text-decoration="none" x="0" y="420">UNREGISTERED</text><text fill="#eeeeee" stroke="none" font-family="Arial" font-size="24px" font-style="normal" font-weight="normal" text-decoration="none" x="0" y="450">UNREGISTERED</text><text fill="#eeeeee" stroke="none" font-family="Arial" font-size="24px" font-style="normal" font-weight="normal" text-decoration="none" x="0" y="480">UNREGISTERED</text><text fill="#eeeeee" stroke="none" font-family="Arial" font-size="24px" font-style="normal" font-weight="normal" text-decoration="none" x="0" y="510">UNREGISTERED</text><text fill="#eeeeee" stroke="none" font-family="Arial" font-size="24px" font-style="normal" font-weight="normal" text-decoration="none" x="0" y="540">UNREGISTERED</text><text fill="#eeeeee" stroke="none" font-family="Arial" font-size="24px" font-style="normal" font-weight="normal" text-decoration="none" x="0" y="570">UNREGISTERED</text><text fill="#eeeeee" stroke="none" font-family="Arial" font-size="24px" font-style="normal" font-weight="normal" text-decoration="none" x="0" y="600">UNREGISTERED</text><text fill="#eeeeee" stroke="none" font-family="Arial" font-size="24px" font-style="normal" font-weight="normal" text-decoration="none" x="200" y="0">UNREGISTERED</text><text fill="#eeeeee" stroke="none" font-family="Arial" font-size="24px" font-style="normal" font-weight="normal" text-decoration="none" x="200" y="30">UNREGISTERED</text><text fill="#eeeeee" stroke="none" font-family="Arial" font-size="24px" font-style="normal" font-weight="normal" text-decoration="none" x="200" y="60">UNREGISTERED</text><text fill="#eeeeee" stroke="none" font-family="Arial" font-size="24px" font-style="normal" font-weight="normal" text-decoration="none" x="200" y="90">UNREGISTERED</text><text fill="#eeeeee" stroke="none" font-family="Arial" font-size="24px" font-style="normal" font-weight="normal" text-decoration="none" x="200" y="120">UNREGISTERED</text><text fill="#eeeeee" stroke="none" font-family="Arial" font-size="24px" font-style="normal" font-weight="normal" text-decoration="none" x="200" y="150">UNREGISTERED</text><text fill="#eeeeee" stroke="none" font-family="Arial" font-size="24px" font-style="normal" font-weight="normal" text-decoration="none" x="200" y="180">UNREGISTERED</text><text fill="#eeeeee" stroke="none" font-family="Arial" font-size="24px" font-style="normal" font-weight="normal" text-decoration="none" x="200" y="210">UNREGISTERED</text><text fill="#eeeeee" stroke="none" font-family="Arial" font-size="24px" font-style="normal" font-weight="normal" text-decoration="none" x="200" y="240">UNREGISTERED</text><text fill="#eeeeee" stroke="none" font-family="Arial" font-size="24px" font-style="normal" font-weight="normal" text-decoration="none" x="200" y="270">UNREGISTERED</text><text fill="#eeeeee" stroke="none" font-family="Arial" font-size="24px" font-style="normal" font-weight="normal" text-decoration="none" x="200" y="300">UNREGISTERED</text><text fill="#eeeeee" stroke="none" font-family="Arial" font-size="24px" font-style="normal" font-weight="normal" text-decoration="none" x="200" y="330">UNREGISTERED</text><text fill="#eeeeee" stroke="none" font-family="Arial" font-size="24px" font-style="normal" font-weight="normal" text-decoration="none" x="200" y="360">UNREGISTERED</text><text fill="#eeeeee" stroke="none" font-family="Arial" font-size="24px" font-style="normal" font-weight="normal" text-decoration="none" x="200" y="390">UNREGISTERED</text><text fill="#eeeeee" stroke="none" font-family="Arial" font-size="24px" font-style="normal" font-weight="normal" text-decoration="none" x="200" y="420">UNREGISTERED</text><text fill="#eeeeee" stroke="none" font-family="Arial" font-size="24px" font-style="normal" font-weight="normal" text-decoration="none" x="200" y="450">UNREGISTERED</text><text fill="#eeeeee" stroke="none" font-family="Arial" font-size="24px" font-style="normal" font-weight="normal" text-decoration="none" x="200" y="480">UNREGISTERED</text><text fill="#eeeeee" stroke="none" font-family="Arial" font-size="24px" font-style="normal" font-weight="normal" text-decoration="none" x="200" y="510">UNREGISTERED</text><text fill="#eeeeee" stroke="none" font-family="Arial" font-size="24px" font-style="normal" font-weight="normal" text-decoration="none" x="200" y="540">UNREGISTERED</text><text fill="#eeeeee" stroke="none" font-family="Arial" font-size="24px" font-style="normal" font-weight="normal" text-decoration="none" x="200" y="570">UNREGISTERED</text><text fill="#eeeeee" stroke="none" font-family="Arial" font-size="24px" font-style="normal" font-weight="normal" text-decoration="none" x="200" y="600">UNREGISTERED</text><text fill="#eeeeee" stroke="none" font-family="Arial" font-size="24px" font-style="normal" font-weight="normal" text-decoration="none" x="400" y="0">UNREGISTERED</text><text fill="#eeeeee" stroke="none" font-family="Arial" font-size="24px" font-style="normal" font-weight="normal" text-decoration="none" x="400" y="30">UNREGISTERED</text><text fill="#eeeeee" stroke="none" font-family="Arial" font-size="24px" font-style="normal" font-weight="normal" text-decoration="none" x="400" y="60">UNREGISTERED</text><text fill="#eeeeee" stroke="none" font-family="Arial" font-size="24px" font-style="normal" font-weight="normal" text-decoration="none" x="400" y="90">UNREGISTERED</text><text fill="#eeeeee" stroke="none" font-family="Arial" font-size="24px" font-style="normal" font-weight="normal" text-decoration="none" x="400" y="120">UNREGISTERED</text><text fill="#eeeeee" stroke="none" font-family="Arial" font-size="24px" font-style="normal" font-weight="normal" text-decoration="none" x="400" y="150">UNREGISTERED</text><text fill="#eeeeee" stroke="none" font-family="Arial" font-size="24px" font-style="normal" font-weight="normal" text-decoration="none" x="400" y="180">UNREGISTERED</text><text fill="#eeeeee" stroke="none" font-family="Arial" font-size="24px" font-style="normal" font-weight="normal" text-decoration="none" x="400" y="210">UNREGISTERED</text><text fill="#eeeeee" stroke="none" font-family="Arial" font-size="24px" font-style="normal" font-weight="normal" text-decoration="none" x="400" y="240">UNREGISTERED</text><text fill="#eeeeee" stroke="none" font-family="Arial" font-size="24px" font-style="normal" font-weight="normal" text-decoration="none" x="400" y="270">UNREGISTERED</text><text fill="#eeeeee" stroke="none" font-family="Arial" font-size="24px" font-style="normal" font-weight="normal" text-decoration="none" x="400" y="300">UNREGISTERED</text><text fill="#eeeeee" stroke="none" font-family="Arial" font-size="24px" font-style="normal" font-weight="normal" text-decoration="none" x="400" y="330">UNREGISTERED</text><text fill="#eeeeee" stroke="none" font-family="Arial" font-size="24px" font-style="normal" font-weight="normal" text-decoration="none" x="400" y="360">UNREGISTERED</text><text fill="#eeeeee" stroke="none" font-family="Arial" font-size="24px" font-style="normal" font-weight="normal" text-decoration="none" x="400" y="390">UNREGISTERED</text><text fill="#eeeeee" stroke="none" font-family="Arial" font-size="24px" font-style="normal" font-weight="normal" text-decoration="none" x="400" y="420">UNREGISTERED</text><text fill="#eeeeee" stroke="none" font-family="Arial" font-size="24px" font-style="normal" font-weight="normal" text-decoration="none" x="400" y="450">UNREGISTERED</text><text fill="#eeeeee" stroke="none" font-family="Arial" font-size="24px" font-style="normal" font-weight="normal" text-decoration="none" x="400" y="480">UNREGISTERED</text><text fill="#eeeeee" stroke="none" font-family="Arial" font-size="24px" font-style="normal" font-weight="normal" text-decoration="none" x="400" y="510">UNREGISTERED</text><text fill="#eeeeee" stroke="none" font-family="Arial" font-size="24px" font-style="normal" font-weight="normal" text-decoration="none" x="400" y="540">UNREGISTERED</text><text fill="#eeeeee" stroke="none" font-family="Arial" font-size="24px" font-style="normal" font-weight="normal" text-decoration="none" x="400" y="570">UNREGISTERED</text><text fill="#eeeeee" stroke="none" font-family="Arial" font-size="24px" font-style="normal" font-weight="normal" text-decoration="none" x="400" y="600">UNREGISTERED</text><text fill="#eeeeee" stroke="none" font-family="Arial" font-size="24px" font-style="normal" font-weight="normal" text-decoration="none" x="600" y="0">UNREGISTERED</text><text fill="#eeeeee" stroke="none" font-family="Arial" font-size="24px" font-style="normal" font-weight="normal" text-decoration="none" x="600" y="30">UNREGISTERED</text><text fill="#eeeeee" stroke="none" font-family="Arial" font-size="24px" font-style="normal" font-weight="normal" text-decoration="none" x="600" y="60">UNREGISTERED</text><text fill="#eeeeee" stroke="none" font-family="Arial" font-size="24px" font-style="normal" font-weight="normal" text-decoration="none" x="600" y="90">UNREGISTERED</text><text fill="#eeeeee" stroke="none" font-family="Arial" font-size="24px" font-style="normal" font-weight="normal" text-decoration="none" x="600" y="120">UNREGISTERED</text><text fill="#eeeeee" stroke="none" font-family="Arial" font-size="24px" font-style="normal" font-weight="normal" text-decoration="none" x="600" y="150">UNREGISTERED</text><text fill="#eeeeee" stroke="none" font-family="Arial" font-size="24px" font-style="normal" font-weight="normal" text-decoration="none" x="600" y="180">UNREGISTERED</text><text fill="#eeeeee" stroke="none" font-family="Arial" font-size="24px" font-style="normal" font-weight="normal" text-decoration="none" x="600" y="210">UNREGISTERED</text><text fill="#eeeeee" stroke="none" font-family="Arial" font-size="24px" font-style="normal" font-weight="normal" text-decoration="none" x="600" y="240">UNREGISTERED</text><text fill="#eeeeee" stroke="none" font-family="Arial" font-size="24px" font-style="normal" font-weight="normal" text-decoration="none" x="600" y="270">UNREGISTERED</text><text fill="#eeeeee" stroke="none" font-family="Arial" font-size="24px" font-style="normal" font-weight="normal" text-decoration="none" x="600" y="300">UNREGISTERED</text><text fill="#eeeeee" stroke="none" font-family="Arial" font-size="24px" font-style="normal" font-weight="normal" text-decoration="none" x="600" y="330">UNREGISTERED</text><text fill="#eeeeee" stroke="none" font-family="Arial" font-size="24px" font-style="normal" font-weight="normal" text-decoration="none" x="600" y="360">UNREGISTERED</text><text fill="#eeeeee" stroke="none" font-family="Arial" font-size="24px" font-style="normal" font-weight="normal" text-decoration="none" x="600" y="390">UNREGISTERED</text><text fill="#eeeeee" stroke="none" font-family="Arial" font-size="24px" font-style="normal" font-weight="normal" text-decoration="none" x="600" y="420">UNREGISTERED</text><text fill="#eeeeee" stroke="none" font-family="Arial" font-size="24px" font-style="normal" font-weight="normal" text-decoration="none" x="600" y="450">UNREGISTERED</text><text fill="#eeeeee" stroke="none" font-family="Arial" font-size="24px" font-style="normal" font-weight="normal" text-decoration="none" x="600" y="480">UNREGISTERED</text><text fill="#eeeeee" stroke="none" font-family="Arial" font-size="24px" font-style="normal" font-weight="normal" text-decoration="none" x="600" y="510">UNREGISTERED</text><text fill="#eeeeee" stroke="none" font-family="Arial" font-size="24px" font-style="normal" font-weight="normal" text-decoration="none" x="600" y="540">UNREGISTERED</text><text fill="#eeeeee" stroke="none" font-family="Arial" font-size="24px" font-style="normal" font-weight="normal" text-decoration="none" x="600" y="570">UNREGISTERED</text><text fill="#eeeeee" stroke="none" font-family="Arial" font-size="24px" font-style="normal" font-weight="normal" text-decoration="none" x="600" y="600">UNREGISTERED</text><g transform="translate(10,-30) scale(1,1)"><path fill="#C0C0C0" stroke="none" d="M 359 64.5 C 359 59.2532944 363.2532944 55 368.5 55 C 373.7467056 55 378 59.2532944 378 64.5 C 378 69.7467056 373.7467056 74 368.5 74 C 363.2532944 74 359 69.7467056 359 64.5 Z" opacity="0.2"/></g><g transform="translate(10,-30) scale(1,1)"><path fill="#000000" stroke="none" d="M 352 57.5 C 352 52.2532944 356.2532944 48 361.5 48 C 366.7467056 48 371 52.2532944 371 57.5 C 371 62.7467056 366.7467056 67 361.5 67 C 356.2532944 67 352 62.7467056 352 57.5 Z"/></g><g transform="translate(10,-30) scale(1,1)"><path fill="#C0C0C0" stroke="none" d="M 281 103 L 440.5361328125 103 Q 450.5361328125 103 450.5361328125 113 L 450.5361328125 133 Q 450.5361328125 143 440.5361328125 143 L 281 143 Q 271 143 271 133 L 271 113 Q 271 103 281 103 Z" opacity="0.2"/></g><g transform="translate(10,-30) scale(1,1)"><path fill="#ffffff" stroke="none" d="M 274 96 L 433.5361328125 96 Q 443.5361328125 96 443.5361328125 106 L 443.5361328125 126 Q 443.5361328125 136 433.5361328125 136 L 274 136 Q 264 136 264 126 L 264 106 Q 264 96 274 96 Z"/></g><g transform="translate(10,-30) scale(1,1)"><path fill="none" stroke="#000000" d="M 274 96 L 433.5361328125 96 Q 443.5361328125 96 443.5361328125 106 L 443.5361328125 126 Q 443.5361328125 136 433.5361328125 136 L 274 136 Q 264 136 264 126 L 264 106 Q 264 96 274 96 Z" stroke-miterlimit="10"/></g><g transform="translate(10,-30) scale(1,1)"><g><path fill="none" stroke="none"/><text fill="#000000" stroke="none" font-family="Arial" font-size="13px" font-style="normal" font-weight="bold" text-decoration="none" x="274.285888671875" y="115.5">Elegir actividades a realizar</text></g></g><g transform="translate(10,-30) scale(1,1)"><path fill="#C0C0C0" stroke="none" d="M 17 223 L 331.06982421875 223 Q 341.06982421875 223 341.06982421875 233 L 341.06982421875 253 Q 341.06982421875 263 331.06982421875 263 L 17 263 Q 7 263 7 253 L 7 233 Q 7 223 17 223 Z" opacity="0.2"/></g><g transform="translate(10,-30) scale(1,1)"><path fill="#ffffff" stroke="none" d="M 10 216 L 324.06982421875 216 Q 334.06982421875 216 334.06982421875 226 L 334.06982421875 246 Q 334.06982421875 256 324.06982421875 256 L 10 256 Q 0 256 0 246 L 0 226 Q 0 216 10 216 Z"/></g><g transform="translate(10,-30) scale(1,1)"><path fill="none" stroke="#000000" d="M 10 216 L 324.06982421875 216 Q 334.06982421875 216 334.06982421875 226 L 334.06982421875 246 Q 334.06982421875 256 324.06982421875 256 L 10 256 Q 0 256 0 246 L 0 226 Q 0 216 10 216 Z" stroke-miterlimit="10"/></g><g transform="translate(10,-30) scale(1,1)"><g><path fill="none" stroke="none"/><text fill="#000000" stroke="none" font-family="Arial" font-size="13px" font-style="normal" font-weight="bold" text-decoration="none" x="17.8173828125" y="235.5">Diseño de plantillas u otros trabajos y otros trabajos</text></g></g><g transform="translate(10,-30) scale(1,1)"><path fill="#C0C0C0" stroke="none" d="M 361 223 L 533.47265625 223 Q 543.47265625 223 543.47265625 233 L 543.47265625 253 Q 543.47265625 263 533.47265625 263 L 361 263 Q 351 263 351 253 L 351 233 Q 351 223 361 223 Z" opacity="0.2"/></g><g transform="translate(10,-30) scale(1,1)"><path fill="#ffffff" stroke="none" d="M 354 216 L 526.47265625 216 Q 536.47265625 216 536.47265625 226 L 536.47265625 246 Q 536.47265625 256 526.47265625 256 L 354 256 Q 344 256 344 246 L 344 226 Q 344 216 354 216 Z"/></g><g transform="translate(10,-30) scale(1,1)"><path fill="none" stroke="#000000" d="M 354 216 L 526.47265625 216 Q 536.47265625 216 536.47265625 226 L 536.47265625 246 Q 536.47265625 256 526.47265625 256 L 354 256 Q 344 256 344 246 L 344 226 Q 344 216 354 216 Z" stroke-miterlimit="10"/></g><g transform="translate(10,-30) scale(1,1)"><g><path fill="none" stroke="none"/><text fill="#000000" stroke="none" font-family="Arial" font-size="13px" font-style="normal" font-weight="bold" text-decoration="none" x="354.603271484375" y="235.5">Mantenimiento de maquinaria</text></g></g><g transform="translate(10,-30) scale(1,1)"><path fill="#C0C0C0" stroke="none" d="M 561 223 L 751.55712890625 223 Q 761.55712890625 223 761.55712890625 233 L 761.55712890625 253 Q 761.55712890625 263 751.55712890625 263 L 561 263 Q 551 263 551 253 L 551 233 Q 551 223 561 223 Z" opacity="0.2"/></g><g transform="translate(10,-30) scale(1,1)"><path fill="#ffffff" stroke="none" d="M 554 216 L 744.55712890625 216 Q 754.55712890625 216 754.55712890625 226 L 754.55712890625 246 Q 754.55712890625 256 744.55712890625 256 L 554 256 Q 544 256 544 246 L 544 226 Q 544 216 554 216 Z"/></g><g transform="translate(10,-30) scale(1,1)"><path fill="none" stroke="#000000" d="M 554 216 L 744.55712890625 216 Q 754.55712890625 216 754.55712890625 226 L 754.55712890625 246 Q 754.55712890625 256 744.55712890625 256 L 554 256 Q 544 256 544 246 L 544 226 Q 544 216 554 216 Z" stroke-miterlimit="10"/></g><g transform="translate(10,-30) scale(1,1)"><g><path fill="none" stroke="none"/><text fill="#000000" stroke="none" font-family="Arial" font-size="13px" font-style="normal" font-weight="bold" text-decoration="none" x="556.42822265625" y="235.5">Creacion de material publicitario</text></g></g><g transform="translate(10,-30) scale(1,1)"><path fill="#C0C0C0" stroke="none" d="M 297 359 L 420.4052734375 359 Q 430.4052734375 359 430.4052734375 369 L 430.4052734375 389 Q 430.4052734375 399 420.4052734375 399 L 297 399 Q 287 399 287 389 L 287 369 Q 287 359 297 359 Z" opacity="0.2"/></g><g transform="translate(10,-30) scale(1,1)"><path fill="#ffffff" stroke="none" d="M 290 352 L 413.4052734375 352 Q 423.4052734375 352 423.4052734375 362 L 423.4052734375 382 Q 423.4052734375 392 413.4052734375 392 L 290 392 Q 280 392 280 382 L 280 362 Q 280 352 290 352 Z"/></g><g transform="translate(10,-30) scale(1,1)"><path fill="none" stroke="#000000" d="M 290 352 L 413.4052734375 352 Q 423.4052734375 352 423.4052734375 362 L 423.4052734375 382 Q 423.4052734375 392 413.4052734375 392 L 290 392 Q 280 392 280 382 L 280 362 Q 280 352 290 352 Z" stroke-miterlimit="10"/></g><g transform="translate(10,-30) scale(1,1)"><g><path fill="none" stroke="none"/><text fill="#000000" stroke="none" font-family="Arial" font-size="13px" font-style="normal" font-weight="bold" text-decoration="none" x="288.4736328125" y="371.5">Se realiza la actividad</text></g></g><g transform="translate(10,-30) scale(1,1)"><path fill="#C0C0C0" stroke="none" d="M 241 463 L 484.99169921875 463 Q 494.99169921875 463 494.99169921875 473 L 494.99169921875 493 Q 494.99169921875 503 484.99169921875 503 L 241 503 Q 231 503 231 493 L 231 473 Q 231 463 241 463 Z" opacity="0.2"/></g><g transform="translate(10,-30) scale(1,1)"><path fill="#ffffff" stroke="none" d="M 234 456 L 477.99169921875 456 Q 487.99169921875 456 487.99169921875 466 L 487.99169921875 486 Q 487.99169921875 496 477.99169921875 496 L 234 496 Q 224 496 224 486 L 224 466 Q 224 456 234 456 Z"/></g><g transform="translate(10,-30) scale(1,1)"><path fill="none" stroke="#000000" d="M 234 456 L 477.99169921875 456 Q 487.99169921875 456 487.99169921875 466 L 487.99169921875 486 Q 487.99169921875 496 477.99169921875 496 L 234 496 Q 224 496 224 486 L 224 466 Q 224 456 234 456 Z" stroke-miterlimit="10"/></g><g transform="translate(10,-30) scale(1,1)"><g><path fill="none" stroke="none"/><text fill="#000000" stroke="none" font-family="Arial" font-size="13px" font-style="normal" font-weight="bold" text-decoration="none" x="238.57373046875" y="475.5">Realizar logistica del producto terminado</text></g></g><g transform="translate(10,-30) scale(1,1)"><path fill="#C0C0C0" stroke="none" d="M 249 551 L 473.55517578125 551 Q 483.55517578125 551 483.55517578125 561 L 483.55517578125 581 Q 483.55517578125 591 473.55517578125 591 L 249 591 Q 239 591 239 581 L 239 561 Q 239 551 249 551 Z" opacity="0.2"/></g><g transform="translate(10,-30) scale(1,1)"><path fill="#ffffff" stroke="none" d="M 242 544 L 466.55517578125 544 Q 476.55517578125 544 476.55517578125 554 L 476.55517578125 574 Q 476.55517578125 584 466.55517578125 584 L 242 584 Q 232 584 232 574 L 232 554 Q 232 544 242 544 Z"/></g><g transform="translate(10,-30) scale(1,1)"><path fill="none" stroke="#000000" d="M 242 544 L 466.55517578125 544 Q 476.55517578125 544 476.55517578125 554 L 476.55517578125 574 Q 476.55517578125 584 466.55517578125 584 L 242 584 Q 232 584 232 574 L 232 554 Q 232 544 242 544 Z" stroke-miterlimit="10"/></g><g transform="translate(10,-30) scale(1,1)"><g><path fill="none" stroke="none"/><text fill="#000000" stroke="none" font-family="Arial" font-size="13px" font-style="normal" font-weight="bold" text-decoration="none" x="245.535888671875" y="563.5">Administrar las actividades realizadas</text></g></g><g transform="translate(10,-30) scale(1,1)"><path fill="none" stroke="#000000" d="M 352 393 L 354 455" stroke-miterlimit="10"/></g><g transform="translate(10,-30) scale(1,1)"><path fill="none" stroke="#000000" d="M 349.4650129238797 444.9783288709207 L 354 455 L 357.8796715000754 444.70688827168857" stroke-miterlimit="10"/></g><g transform="translate(10,-30) scale(1,1)"><path fill="none" stroke="#000000" d="M 355 497 L 354 543" stroke-miterlimit="10"/></g><g transform="translate(10,-30) scale(1,1)"><path fill="none" stroke="#000000" d="M 350.0123521078249 532.7482360401718 L 354 543 L 358.42939894957703 532.9312153193404" stroke-miterlimit="10"/></g><g transform="translate(10,-30) scale(1,1)"><path fill="#C0C0C0" stroke="none" d="M 343 643.5 C 343 636.59644 348.59644 631 355.5 631 C 362.40356 631 368 636.59644 368 643.5 C 368 650.40356 362.40356 656 355.5 656 C 348.59644 656 343 650.40356 343 643.5 Z" opacity="0.2"/></g><g transform="translate(10,-30) scale(1,1)"><path fill="none" stroke="#000000" d="M 336 636.5 C 336 629.59644 341.59644 624 348.5 624 C 355.40356 624 361 629.59644 361 636.5 C 361 643.40356 355.40356 649 348.5 649 C 341.59644 649 336 643.40356 336 636.5 Z" stroke-miterlimit="10"/></g><g transform="translate(10,-30) scale(1,1)"><path fill="#000000" stroke="none" d="M 341 636.5 C 341 632.357864 344.357864 629 348.5 629 C 352.642136 629 356 632.357864 356 636.5 C 356 640.642136 352.642136 644 348.5 644 C 344.357864 644 341 640.642136 341 636.5 Z"/></g><g transform="translate(10,-30) scale(1,1)"><path fill="none" stroke="#000000" d="M 352 585 L 349 623" stroke-miterlimit="10"/></g><g transform="translate(10,-30) scale(1,1)"><path fill="none" stroke="#000000" d="M 345.60336731211424 612.5375487392492 L 349 623 L 353.99628822750674 613.2001477588855" stroke-miterlimit="10"/></g><g transform="translate(10,-30) scale(1,1)"><path fill="#C0C0C0" stroke="none" d="M 106 175 L 619 175 Q 622 175 622 178 L 622 177 Q 622 180 619 180 L 106 180 Q 103 180 103 177 L 103 178 Q 103 175 106 175 Z" opacity="0.2"/></g><g transform="translate(10,-30) scale(1,1)"><path fill="#000000" stroke="none" d="M 99 168 L 612 168 Q 615 168 615 171 L 615 171 Q 615 174 612 174 L 99 174 Q 96 174 96 171 L 96 171 Q 96 168 99 168 Z"/></g><g transform="translate(10,-30) scale(1,1)"><path fill="#C0C0C0" stroke="none" d="M 106 311 L 619 311 Q 622 311 622 314 L 622 313 Q 622 316 619 316 L 106 316 Q 103 316 103 313 L 103 314 Q 103 311 106 311 Z" opacity="0.2"/></g><g transform="translate(10,-30) scale(1,1)"><path fill="#000000" stroke="none" d="M 99 304 L 612 304 Q 615 304 615 307 L 615 307 Q 615 310 612 310 L 99 310 Q 96 310 96 307 L 96 307 Q 96 304 99 304 Z"/></g><g transform="translate(10,-30) scale(1,1)"><path fill="none" stroke="#000000" d="M 360 68 L 356 95" stroke-miterlimit="10"/></g><g transform="translate(10,-30) scale(1,1)"><path fill="none" stroke="#000000" d="M 353.3252568543812 84.33014765308509 L 356 95 L 361.65339593256346 85.56394603503801" stroke-miterlimit="10"/></g><g transform="translate(10,-30) scale(1,1)"><path fill="none" stroke="#000000" d="M 354 137 L 355 167" stroke-miterlimit="10"/></g><g transform="translate(10,-30) scale(1,1)"><path fill="none" stroke="#000000" d="M 350.45425113032024 156.9832057416654 L 355 167 L 358.86861329449727 156.7027270028595" stroke-miterlimit="10"/></g><g transform="translate(10,-30) scale(1,1)"><path fill="none" stroke="#000000" d="M 344 174 L 227 215" stroke-miterlimit="10"/></g><g transform="translate(10,-30) scale(1,1)"><path fill="none" stroke="#000000" d="M 235.19871859511892 207.6664460595117 L 227 215 L 237.98297523716542 215.61176379413223" stroke-miterlimit="10"/></g><g transform="translate(10,-30) scale(1,1)"><path fill="none" stroke="#000000" d="M 360 174 L 413 215" stroke-miterlimit="10"/></g><g transform="translate(10,-30) scale(1,1)"><path fill="none" stroke="#000000" d="M 402.3860777390088 212.11128848140987 L 413 215 L 407.53745109795307 205.4521960905795" stroke-miterlimit="10"/></g><g transform="translate(10,-30) scale(1,1)"><path fill="none" stroke="#000000" d="M 373 174 L 555 215" stroke-miterlimit="10"/></g><g transform="translate(10,-30) scale(1,1)"><path fill="none" stroke="#000000" d="M 544.1606646226604 216.8731814054047 L 555 215 L 546.0108931769737 208.6599717252821" stroke-miterlimit="10"/></g><g transform="translate(10,-30) scale(1,1)"><path fill="none" stroke="#000000" d="M 223 257 L 347 303" stroke-miterlimit="10"/></g><g transform="translate(10,-30) scale(1,1)"><path fill="none" stroke="#000000" d="M 336.0077203679002 303.41205398884665 L 347 303 L 338.93591836171504 295.5186507011719" stroke-miterlimit="10"/></g><g transform="translate(10,-30) scale(1,1)"><path fill="none" stroke="#000000" d="M 415 257 L 359 303" stroke-miterlimit="10"/></g><g transform="translate(10,-30) scale(1,1)"><path fill="none" stroke="#000000" d="M 364.1810188056123 293.29654473211264 L 359 303 L 369.524912551767 299.80215451004005" stroke-miterlimit="10"/></g><g transform="translate(10,-30) scale(1,1)"><path fill="none" stroke="#000000" d="M 561 257 L 368 303" stroke-miterlimit="10"/></g><g transform="translate(10,-30) scale(1,1)"><path fill="none" stroke="#000000" d="M 376.90979659037316 296.5489904109376 L 368 303 L 378.8617302139711 304.7386249621202" stroke-miterlimit="10"/></g><g transform="translate(10,-30) scale(1,1)"><path fill="none" stroke="#000000" d="M 355 310 L 352 351" stroke-miterlimit="10"/></g><g transform="translate(10,-30) scale(1,1)"><path fill="none" stroke="#000000" d="M 348.5433336665559 340.55722939736614 L 352 351 L 356.93992170282036 341.1716138878245" stroke-miterlimit="10"/></g><g transform="translate(10,-30) scale(1,1)"><g><path fill="none" stroke="none"/><text fill="#000000" stroke="none" font-family="Arial" font-size="13px" font-style="normal" font-weight="normal" text-decoration="none" x="61" y="58">Administracion</text><text fill="#000000" stroke="none" font-family="Arial" font-size="13px" font-style="normal" font-weight="normal" text-decoration="none" x="61" y="71">de actividades</text></g></g></g></svg>