<svg version="1.1" xmlns="http://www.w3.org/2000/svg" xmlns:xlink="http://www.w3.org/1999/xlink" width="420" height="315"><defs/><g><text fill="#eeeeee" stroke="none" font-family="Arial" font-size="24px" font-style="normal" font-weight="normal" text-decoration="none" x="0" y="0">UNREGISTERED</text><text fill="#eeeeee" stroke="none" font-family="Arial" font-size="24px" font-style="normal" font-weight="normal" text-decoration="none" x="0" y="30">UNREGISTERED</text><text fill="#eeeeee" stroke="none" font-family="Arial" font-size="24px" font-style="normal" font-weight="normal" text-decoration="none" x="0" y="60">UNREGISTERED</text><text fill="#eeeeee" stroke="none" font-family="Arial" font-size="24px" font-style="normal" font-weight="normal" text-decoration="none" x="0" y="90">UNREGISTERED</text><text fill="#eeeeee" stroke="none" font-family="Arial" font-size="24px" font-style="normal" font-weight="normal" text-decoration="none" x="0" y="120">UNREGISTERED</text><text fill="#eeeeee" stroke="none" font-family="Arial" font-size="24px" font-style="normal" font-weight="normal" text-decoration="none" x="0" y="150">UNREGISTERED</text><text fill="#eeeeee" stroke="none" font-family="Arial" font-size="24px" font-style="normal" font-weight="normal" text-decoration="none" x="0" y="180">UNREGISTERED</text><text fill="#eeeeee" stroke="none" font-family="Arial" font-size="24px" font-style="normal" font-weight="normal" text-decoration="none" x="0" y="210">UNREGISTERED</text><text fill="#eeeeee" stroke="none" font-family="Arial" font-size="24px" font-style="normal" font-weight="normal" text-decoration="none" x="0" y="240">UNREGISTERED</text><text fill="#eeeeee" stroke="none" font-family="Arial" font-size="24px" font-style="normal" font-weight="normal" text-decoration="none" x="0" y="270">UNREGISTERED</text><text fill="#eeeeee" stroke="none" font-family="Arial" font-size="24px" font-style="normal" font-weight="normal" text-decoration="none" x="0" y="300">UNREGISTERED</text><text fill="#eeeeee" stroke="none" font-family="Arial" font-size="24px" font-style="normal" font-weight="normal" text-decoration="none" x="200" y="0">UNREGISTERED</text><text fill="#eeeeee" stroke="none" font-family="Arial" font-size="24px" font-style="normal" font-weight="normal" text-decoration="none" x="200" y="30">UNREGISTERED</text><text fill="#eeeeee" stroke="none" font-family="Arial" font-size="24px" font-style="normal" font-weight="normal" text-decoration="none" x="200" y="60">UNREGISTERED</text><text fill="#eeeeee" stroke="none" font-family="Arial" font-size="24px" font-style="normal" font-weight="normal" text-decoration="none" x="200" y="90">UNREGISTERED</text><text fill="#eeeeee" stroke="none" font-family="Arial" font-size="24px" font-style="normal" font-weight="normal" text-decoration="none" x="200" y="120">UNREGISTERED</text><text fill="#eeeeee" stroke="none" font-family="Arial" font-size="24px" font-style="normal" font-weight="normal" text-decoration="none" x="200" y="150">UNREGISTERED</text><text fill="#eeeeee" stroke="none" font-family="Arial" font-size="24px" font-style="normal" font-weight="normal" text-decoration="none" x="200" y="180">UNREGISTERED</text><text fill="#eeeeee" stroke="none" font-family="Arial" font-size="24px" font-style="normal" font-weight="normal" text-decoration="none" x="200" y="210">UNREGISTERED</text><text fill="#eeeeee" stroke="none" font-family="Arial" font-size="24px" font-style="normal" font-weight="normal" text-decoration="none" x="200" y="240">UNREGISTERED</text><text fill="#eeeeee" stroke="none" font-family="Arial" font-size="24px" font-style="normal" font-weight="normal" text-decoration="none" x="200" y="270">UNREGISTERED</text><text fill="#eeeeee" stroke="none" font-family="Arial" font-size="24px" font-style="normal" font-weight="normal" text-decoration="none" x="200" y="300">UNREGISTERED</text><text fill="#eeeeee" stroke="none" font-family="Arial" font-size="24px" font-style="normal" font-weight="normal" text-decoration="none" x="400" y="0">UNREGISTERED</text><text fill="#eeeeee" stroke="none" font-family="Arial" font-size="24px" font-style="normal" font-weight="normal" text-decoration="none" x="400" y="30">UNREGISTERED</text><text fill="#eeeeee" stroke="none" font-family="Arial" font-size="24px" font-style="normal" font-weight="normal" text-decoration="none" x="400" y="60">UNREGISTERED</text><text fill="#eeeeee" stroke="none" font-family="Arial" font-size="24px" font-style="normal" font-weight="normal" text-decoration="none" x="400" y="90">UNREGISTERED</text><text fill="#eeeeee" stroke="none" font-family="Arial" font-size="24px" font-style="normal" font-weight="normal" text-decoration="none" x="400" y="120">UNREGISTERED</text><text fill="#eeeeee" stroke="none" font-family="Arial" font-size="24px" font-style="normal" font-weight="normal" text-decoration="none" x="400" y="150">UNREGISTERED</text><text fill="#eeeeee" stroke="none" font-family="Arial" font-size="24px" font-style="normal" font-weight="normal" text-decoration="none" x="400" y="180">UNREGISTERED</text><text fill="#eeeeee" stroke="none" font-family="Arial" font-size="24px" font-style="normal" font-weight="normal" text-decoration="none" x="400" y="210">UNREGISTERED</text><text fill="#eeeeee" stroke="none" font-family="Arial" font-size="24px" font-style="normal" font-weight="normal" text-decoration="none" x="400" y="240">UNREGISTERED</text><text fill="#eeeeee" stroke="none" font-family="Arial" font-size="24px" font-style="normal" font-weight="normal" text-decoration="none" x="400" y="270">UNREGISTERED</text><text fill="#eeeeee" stroke="none" font-family="Arial" font-size="24px" font-style="normal" font-weight="normal" text-decoration="none" x="400" y="300">UNREGISTERED</text><g transform="translate(-22,-46) scale(1,1)"><rect fill="#C0C0C0" stroke="none" x="223" y="79" width="216" height="160" opacity="0.2"/></g><g transform="translate(-22,-46) scale(1,1)"><rect fill="#ffffff" stroke="none" x="216" y="72" width="216" height="160"/></g><g transform="translate(-22,-46) scale(1,1)"><path fill="none" stroke="#000000" d="M 216 72 L 432 72 L 432 232 L 216 232 L 216 72 Z Z" stroke-miterlimit="10"/></g><g transform="translate(-22,-46) scale(1,1)"><g><path fill="none" stroke="none"/><text fill="#000000" stroke="none" font-family="Arial" font-size="13px" font-style="normal" font-weight="bold" text-decoration="none" x="276.31640625" y="91.5">Salir del sistema</text></g></g><g transform="translate(-22,-46) scale(1,1)"><path fill="#ffffff" stroke="none" d="M 84.02116672585227 153.68 C 84.02116672585227 148.886167936 87.90700905079773 145 92.700439453125 145 C 97.49386985545227 145 101.37971218039773 148.886167936 101.37971218039773 153.68 C 101.37971218039773 158.47383206400002 97.49386985545227 162.36 92.700439453125 162.36 C 87.90700905079773 162.36 84.02116672585227 158.47383206400002 84.02116672585227 153.68 Z"/></g><g transform="translate(-22,-46) scale(1,1)"><path fill="none" stroke="#000000" d="M 84.02116672585227 153.68 C 84.02116672585227 148.886167936 87.90700905079773 145 92.700439453125 145 C 97.49386985545227 145 101.37971218039773 148.886167936 101.37971218039773 153.68 C 101.37971218039773 158.47383206400002 97.49386985545227 162.36 92.700439453125 162.36 C 87.90700905079773 162.36 84.02116672585227 158.47383206400002 84.02116672585227 153.68 Z" stroke-miterlimit="10"/></g><g transform="translate(-22,-46) scale(1,1)"><path fill="none" stroke="#000000" d="M 92.700439453125 162.36 L 92.700439453125 179.64" stroke-miterlimit="10"/></g><g transform="translate(-22,-46) scale(1,1)"><path fill="none" stroke="#000000" d="M 83.51062127130682 168.84 L 101.89025763494318 168.84" stroke-miterlimit="10"/></g><g transform="translate(-22,-46) scale(1,1)"><path fill="none" stroke="#000000" d="M 92.700439453125 179.64 L 79.93680308948863 197" stroke-miterlimit="10"/></g><g transform="translate(-22,-46) scale(1,1)"><path fill="none" stroke="#000000" d="M 92.700439453125 179.64 L 105.46407581676137 197" stroke-miterlimit="10"/></g><g transform="translate(-22,-46) scale(1,1)"><g><path fill="none" stroke="none"/><text fill="#000000" stroke="none" font-family="Arial" font-size="13px" font-style="normal" font-weight="bold" text-decoration="none" x="70.302734375" y="217.5">Usuario</text></g></g><g transform="translate(-22,-46) scale(1,1)"><path fill="#C0C0C0" stroke="none" d="M 255 160 C 255 150.6111584 283.6537728 143 319 143 C 354.3462272 143 383 150.6111584 383 160 C 383 169.3888416 354.3462272 177 319 177 C 283.6537728 177 255 169.3888416 255 160 Z" opacity="0.2"/></g><g transform="translate(-22,-46) scale(1,1)"><path fill="#ffffff" stroke="none" d="M 248 153 C 248 143.6111584 276.6537728 136 312 136 C 347.3462272 136 376 143.6111584 376 153 C 376 162.3888416 347.3462272 170 312 170 C 276.6537728 170 248 162.3888416 248 153 Z"/></g><g transform="translate(-22,-46) scale(1,1)"><path fill="none" stroke="#000000" d="M 248 153 C 248 143.6111584 276.6537728 136 312 136 C 347.3462272 136 376 143.6111584 376 153 C 376 162.3888416 347.3462272 170 312 170 C 276.6537728 170 248 162.3888416 248 153 Z" stroke-miterlimit="10"/></g><g transform="translate(-22,-46) scale(1,1)"><g><path fill="none" stroke="none"/><text fill="#000000" stroke="none" font-family="Arial" font-size="13px" font-style="normal" font-weight="bold" text-decoration="none" x="273.707763671875" y="160">CerrarSesión</text></g></g><g transform="translate(-22,-46) scale(1,1)"><path fill="#ffffff" stroke="none" d="M 49.49162571022727 281.68 C 49.49162571022727 276.886167936 53.377468035172726 273 58.1708984375 273 C 62.964328839827274 273 66.85017116477273 276.886167936 66.85017116477273 281.68 C 66.85017116477273 286.473832064 62.964328839827274 290.36 58.1708984375 290.36 C 53.377468035172726 290.36 49.49162571022727 286.473832064 49.49162571022727 281.68 Z"/></g><g transform="translate(-22,-46) scale(1,1)"><path fill="none" stroke="#000000" d="M 49.49162571022727 281.68 C 49.49162571022727 276.886167936 53.377468035172726 273 58.1708984375 273 C 62.964328839827274 273 66.85017116477273 276.886167936 66.85017116477273 281.68 C 66.85017116477273 286.473832064 62.964328839827274 290.36 58.1708984375 290.36 C 53.377468035172726 290.36 49.49162571022727 286.473832064 49.49162571022727 281.68 Z" stroke-miterlimit="10"/></g><g transform="translate(-22,-46) scale(1,1)"><path fill="none" stroke="#000000" d="M 58.1708984375 290.36 L 58.1708984375 307.64" stroke-miterlimit="10"/></g><g transform="translate(-22,-46) scale(1,1)"><path fill="none" stroke="#000000" d="M 48.98108025568182 296.84 L 67.36071661931818 296.84" stroke-miterlimit="10"/></g><g transform="translate(-22,-46) scale(1,1)"><path fill="none" stroke="#000000" d="M 58.1708984375 307.64 L 45.407262073863635 325" stroke-miterlimit="10"/></g><g transform="translate(-22,-46) scale(1,1)"><path fill="none" stroke="#000000" d="M 58.1708984375 307.64 L 70.93453480113637 325" stroke-miterlimit="10"/></g><g transform="translate(-22,-46) scale(1,1)"><g><path fill="none" stroke="none"/><text fill="#000000" stroke="none" font-family="Arial" font-size="13px" font-style="normal" font-weight="bold" text-decoration="none" x="37.937744140625" y="345.5">Cliente</text></g></g><g transform="translate(-22,-46) scale(1,1)"><path fill="#ffffff" stroke="none" d="M 136.24162571022728 281.68 C 136.24162571022728 276.886167936 140.12746803517274 273 144.9208984375 273 C 149.71432883982726 273 153.60017116477272 276.886167936 153.60017116477272 281.68 C 153.60017116477272 286.473832064 149.71432883982726 290.36 144.9208984375 290.36 C 140.12746803517274 290.36 136.24162571022728 286.473832064 136.24162571022728 281.68 Z"/></g><g transform="translate(-22,-46) scale(1,1)"><path fill="none" stroke="#000000" d="M 136.24162571022728 281.68 C 136.24162571022728 276.886167936 140.12746803517274 273 144.9208984375 273 C 149.71432883982726 273 153.60017116477272 276.886167936 153.60017116477272 281.68 C 153.60017116477272 286.473832064 149.71432883982726 290.36 144.9208984375 290.36 C 140.12746803517274 290.36 136.24162571022728 286.473832064 136.24162571022728 281.68 Z" stroke-miterlimit="10"/></g><g transform="translate(-22,-46) scale(1,1)"><path fill="none" stroke="#000000" d="M 144.9208984375 290.36 L 144.9208984375 307.64" stroke-miterlimit="10"/></g><g transform="translate(-22,-46) scale(1,1)"><path fill="none" stroke="#000000" d="M 135.73108025568183 296.84 L 154.11071661931817 296.84" stroke-miterlimit="10"/></g><g transform="translate(-22,-46) scale(1,1)"><path fill="none" stroke="#000000" d="M 144.9208984375 307.64 L 132.15726207386365 325" stroke-miterlimit="10"/></g><g transform="translate(-22,-46) scale(1,1)"><path fill="none" stroke="#000000" d="M 144.9208984375 307.64 L 157.68453480113635 325" stroke-miterlimit="10"/></g><g transform="translate(-22,-46) scale(1,1)"><g><path fill="none" stroke="none"/><text fill="#000000" stroke="none" font-family="Arial" font-size="13px" font-style="normal" font-weight="bold" text-decoration="none" x="104.82275390625" y="345.5">Administrador</text></g></g><g transform="translate(-22,-46) scale(1,1)"><path fill="none" stroke="#000000" d="M 69 271 L 81 224" stroke-miterlimit="10"/></g><g transform="translate(-22,-46) scale(1,1)"><path fill="none" stroke="#000000" d="M 82.56460082013162 234.88815982035732 L 81 224 L 74.40724820614754 232.80543149338266" stroke-miterlimit="10"/></g><g transform="translate(-22,-46) scale(1,1)"><path fill="none" stroke="#000000" d="M 128 271 L 109 224" stroke-miterlimit="10"/></g><g transform="translate(-22,-46) scale(1,1)"><path fill="none" stroke="#000000" d="M 116.71154681410015 231.8442364659629 L 109 224 L 108.90617424737457 234.9995998440009" stroke-miterlimit="10"/></g><g transform="translate(-22,-46) scale(1,1)"><path fill="none" stroke="#000000" d="M 122 179 L 247 162" stroke-miterlimit="10"/></g><g transform="translate(-22,-46) scale(1,1)"><path fill="none" stroke="#000000" d="M 237.4972978996695 167.5406364970438 L 247 162 L 236.36275326611127 159.19839654441" stroke-miterlimit="10"/></g><g transform="translate(-22,-46) scale(1,1)"><path fill="#ffffff" stroke="none" d="M 64 56 L 137.76171875 56 L 147.76171875 66 L 147.76171875 94 L 64 94 L 64 56"/></g><g transform="translate(-22,-46) scale(1,1)"><path fill="none" stroke="#000000" d="M 64 56 L 137.76171875 56 L 147.76171875 66 L 147.76171875 94 L 64 94 L 64 56 L 64 56" stroke-miterlimit="10"/></g><g transform="translate(-22,-46) scale(1,1)"><path fill="none" stroke="#000000" d="M 137.76171875 56 L 137.76171875 66 L 147.76171875 66 L 137.76171875 56" stroke-miterlimit="10"/></g><g transform="translate(-22,-46) scale(1,1)"><g><path fill="none" stroke="none"/><text fill="#000000" stroke="none" font-family="Arial" font-size="13px" font-style="normal" font-weight="normal" text-decoration="none" x="69" y="74">Sistema</text></g></g><g transform="translate(-22,-46) scale(1,1)"><g><path fill="none" stroke="none"/><text fill="#000000" stroke="none" font-family="Arial" font-size="13px" font-style="normal" font-weight="normal" text-decoration="none" x="69" y="89">JemaStone</text></g></g></g></svg>