<svg version="1.1" xmlns="http://www.w3.org/2000/svg" xmlns:xlink="http://www.w3.org/1999/xlink" width="484" height="300"><defs/><g><text fill="#eeeeee" stroke="none" font-family="Arial" font-size="24px" font-style="normal" font-weight="normal" text-decoration="none" x="0" y="0">UNREGISTERED</text><text fill="#eeeeee" stroke="none" font-family="Arial" font-size="24px" font-style="normal" font-weight="normal" text-decoration="none" x="0" y="30">UNREGISTERED</text><text fill="#eeeeee" stroke="none" font-family="Arial" font-size="24px" font-style="normal" font-weight="normal" text-decoration="none" x="0" y="60">UNREGISTERED</text><text fill="#eeeeee" stroke="none" font-family="Arial" font-size="24px" font-style="normal" font-weight="normal" text-decoration="none" x="0" y="90">UNREGISTERED</text><text fill="#eeeeee" stroke="none" font-family="Arial" font-size="24px" font-style="normal" font-weight="normal" text-decoration="none" x="0" y="120">UNREGISTERED</text><text fill="#eeeeee" stroke="none" font-family="Arial" font-size="24px" font-style="normal" font-weight="normal" text-decoration="none" x="0" y="150">UNREGISTERED</text><text fill="#eeeeee" stroke="none" font-family="Arial" font-size="24px" font-style="normal" font-weight="normal" text-decoration="none" x="0" y="180">UNREGISTERED</text><text fill="#eeeeee" stroke="none" font-family="Arial" font-size="24px" font-style="normal" font-weight="normal" text-decoration="none" x="0" y="210">UNREGISTERED</text><text fill="#eeeeee" stroke="none" font-family="Arial" font-size="24px" font-style="normal" font-weight="normal" text-decoration="none" x="0" y="240">UNREGISTERED</text><text fill="#eeeeee" stroke="none" font-family="Arial" font-size="24px" font-style="normal" font-weight="normal" text-decoration="none" x="0" y="270">UNREGISTERED</text><text fill="#eeeeee" stroke="none" font-family="Arial" font-size="24px" font-style="normal" font-weight="normal" text-decoration="none" x="200" y="0">UNREGISTERED</text><text fill="#eeeeee" stroke="none" font-family="Arial" font-size="24px" font-style="normal" font-weight="normal" text-decoration="none" x="200" y="30">UNREGISTERED</text><text fill="#eeeeee" stroke="none" font-family="Arial" font-size="24px" font-style="normal" font-weight="normal" text-decoration="none" x="200" y="60">UNREGISTERED</text><text fill="#eeeeee" stroke="none" font-family="Arial" font-size="24px" font-style="normal" font-weight="normal" text-decoration="none" x="200" y="90">UNREGISTERED</text><text fill="#eeeeee" stroke="none" font-family="Arial" font-size="24px" font-style="normal" font-weight="normal" text-decoration="none" x="200" y="120">UNREGISTERED</text><text fill="#eeeeee" stroke="none" font-family="Arial" font-size="24px" font-style="normal" font-weight="normal" text-decoration="none" x="200" y="150">UNREGISTERED</text><text fill="#eeeeee" stroke="none" font-family="Arial" font-size="24px" font-style="normal" font-weight="normal" text-decoration="none" x="200" y="180">UNREGISTERED</text><text fill="#eeeeee" stroke="none" font-family="Arial" font-size="24px" font-style="normal" font-weight="normal" text-decoration="none" x="200" y="210">UNREGISTERED</text><text fill="#eeeeee" stroke="none" font-family="Arial" font-size="24px" font-style="normal" font-weight="normal" text-decoration="none" x="200" y="240">UNREGISTERED</text><text fill="#eeeeee" stroke="none" font-family="Arial" font-size="24px" font-style="normal" font-weight="normal" text-decoration="none" x="200" y="270">UNREGISTERED</text><text fill="#eeeeee" stroke="none" font-family="Arial" font-size="24px" font-style="normal" font-weight="normal" text-decoration="none" x="400" y="0">UNREGISTERED</text><text fill="#eeeeee" stroke="none" font-family="Arial" font-size="24px" font-style="normal" font-weight="normal" text-decoration="none" x="400" y="30">UNREGISTERED</text><text fill="#eeeeee" stroke="none" font-family="Arial" font-size="24px" font-style="normal" font-weight="normal" text-decoration="none" x="400" y="60">UNREGISTERED</text><text fill="#eeeeee" stroke="none" font-family="Arial" font-size="24px" font-style="normal" font-weight="normal" text-decoration="none" x="400" y="90">UNREGISTERED</text><text fill="#eeeeee" stroke="none" font-family="Arial" font-size="24px" font-style="normal" font-weight="normal" text-decoration="none" x="400" y="120">UNREGISTERED</text><text fill="#eeeeee" stroke="none" font-family="Arial" font-size="24px" font-style="normal" font-weight="normal" text-decoration="none" x="400" y="150">UNREGISTERED</text><text fill="#eeeeee" stroke="none" font-family="Arial" font-size="24px" font-style="normal" font-weight="normal" text-decoration="none" x="400" y="180">UNREGISTERED</text><text fill="#eeeeee" stroke="none" font-family="Arial" font-size="24px" font-style="normal" font-weight="normal" text-decoration="none" x="400" y="210">UNREGISTERED</text><text fill="#eeeeee" stroke="none" font-family="Arial" font-size="24px" font-style="normal" font-weight="normal" text-decoration="none" x="400" y="240">UNREGISTERED</text><text fill="#eeeeee" stroke="none" font-family="Arial" font-size="24px" font-style="normal" font-weight="normal" text-decoration="none" x="400" y="270">UNREGISTERED</text><g transform="translate(-30,-22) scale(1,1)"><rect fill="#C0C0C0" stroke="none" x="271" y="39" width="240" height="280" opacity="0.2"/></g><g transform="translate(-30,-22) scale(1,1)"><rect fill="#ffffff" stroke="none" x="264" y="32" width="240" height="280"/></g><g transform="translate(-30,-22) scale(1,1)"><path fill="none" stroke="#000000" d="M 264 32 L 504 32 L 504 312 L 264 312 L 264 32 Z Z" stroke-miterlimit="10"/></g><g transform="translate(-30,-22) scale(1,1)"><g><path fill="none" stroke="none"/><text fill="#000000" stroke="none" font-family="Arial" font-size="13px" font-style="normal" font-weight="bold" text-decoration="none" x="329.083251953125" y="51.5">SeleccionaServicio</text></g></g><g transform="translate(-30,-22) scale(1,1)"><path fill="#C0C0C0" stroke="none" d="M 311 104 C 311 94.6111584 347.2649312 87 392 87 C 436.7350688 87 473 94.6111584 473 104 C 473 113.3888416 436.7350688 121 392 121 C 347.2649312 121 311 113.3888416 311 104 Z" opacity="0.2"/></g><g transform="translate(-30,-22) scale(1,1)"><path fill="#ffffff" stroke="none" d="M 304 97 C 304 87.6111584 340.2649312 80 385 80 C 429.7350688 80 466 87.6111584 466 97 C 466 106.3888416 429.7350688 114 385 114 C 340.2649312 114 304 106.3888416 304 97 Z"/></g><g transform="translate(-30,-22) scale(1,1)"><path fill="none" stroke="#000000" d="M 304 97 C 304 87.6111584 340.2649312 80 385 80 C 429.7350688 80 466 87.6111584 466 97 C 466 106.3888416 429.7350688 114 385 114 C 340.2649312 114 304 106.3888416 304 97 Z" stroke-miterlimit="10"/></g><g transform="translate(-30,-22) scale(1,1)"><g><path fill="none" stroke="none"/><text fill="#000000" stroke="none" font-family="Arial" font-size="13px" font-style="normal" font-weight="bold" text-decoration="none" x="335.865966796875" y="104">PresentaServicio</text></g></g><g transform="translate(-30,-22) scale(1,1)"><path fill="#C0C0C0" stroke="none" d="M 311 248 C 311 238.6111584 351.294368 231 401 231 C 450.705632 231 491 238.6111584 491 248 C 491 257.3888416 450.705632 265 401 265 C 351.294368 265 311 257.3888416 311 248 Z" opacity="0.2"/></g><g transform="translate(-30,-22) scale(1,1)"><path fill="#ffffff" stroke="none" d="M 304 241 C 304 231.6111584 344.294368 224 394 224 C 443.705632 224 484 231.6111584 484 241 C 484 250.3888416 443.705632 258 394 258 C 344.294368 258 304 250.3888416 304 241 Z"/></g><g transform="translate(-30,-22) scale(1,1)"><path fill="none" stroke="#000000" d="M 304 241 C 304 231.6111584 344.294368 224 394 224 C 443.705632 224 484 231.6111584 484 241 C 484 250.3888416 443.705632 258 394 258 C 344.294368 258 304 250.3888416 304 241 Z" stroke-miterlimit="10"/></g><g transform="translate(-30,-22) scale(1,1)"><g><path fill="none" stroke="none"/><text fill="#000000" stroke="none" font-family="Arial" font-size="13px" font-style="normal" font-weight="bold" text-decoration="none" x="339.083251953125" y="248">SeleccionaServicio</text></g></g><g transform="translate(-30,-22) scale(1,1)"><path fill="#C0C0C0" stroke="none" d="M 311 152 C 311 142.6111584 347.4887888 135 392.5 135 C 437.5112112 135 474 142.6111584 474 152 C 474 161.3888416 437.5112112 169 392.5 169 C 347.4887888 169 311 161.3888416 311 152 Z" opacity="0.2"/></g><g transform="translate(-30,-22) scale(1,1)"><path fill="#ffffff" stroke="none" d="M 304 145 C 304 135.6111584 340.4887888 128 385.5 128 C 430.5112112 128 467 135.6111584 467 145 C 467 154.3888416 430.5112112 162 385.5 162 C 340.4887888 162 304 154.3888416 304 145 Z"/></g><g transform="translate(-30,-22) scale(1,1)"><path fill="none" stroke="#000000" d="M 304 145 C 304 135.6111584 340.4887888 128 385.5 128 C 430.5112112 128 467 135.6111584 467 145 C 467 154.3888416 430.5112112 162 385.5 162 C 340.4887888 162 304 154.3888416 304 145 Z" stroke-miterlimit="10"/></g><g transform="translate(-30,-22) scale(1,1)"><g><path fill="none" stroke="none"/><text fill="#000000" stroke="none" font-family="Arial" font-size="13px" font-style="normal" font-weight="bold" text-decoration="none" x="335.635986328125" y="152">GuardaSeleccion</text></g></g><g transform="translate(-30,-22) scale(1,1)"><path fill="#ffffff" stroke="none" d="M 137.49162571022728 209.68 C 137.49162571022728 204.886167936 141.37746803517274 201 146.1708984375 201 C 150.96432883982726 201 154.85017116477272 204.886167936 154.85017116477272 209.68 C 154.85017116477272 214.47383206400002 150.96432883982726 218.36 146.1708984375 218.36 C 141.37746803517274 218.36 137.49162571022728 214.47383206400002 137.49162571022728 209.68 Z"/></g><g transform="translate(-30,-22) scale(1,1)"><path fill="none" stroke="#000000" d="M 137.49162571022728 209.68 C 137.49162571022728 204.886167936 141.37746803517274 201 146.1708984375 201 C 150.96432883982726 201 154.85017116477272 204.886167936 154.85017116477272 209.68 C 154.85017116477272 214.47383206400002 150.96432883982726 218.36 146.1708984375 218.36 C 141.37746803517274 218.36 137.49162571022728 214.47383206400002 137.49162571022728 209.68 Z" stroke-miterlimit="10"/></g><g transform="translate(-30,-22) scale(1,1)"><path fill="none" stroke="#000000" d="M 146.1708984375 218.36 L 146.1708984375 235.64" stroke-miterlimit="10"/></g><g transform="translate(-30,-22) scale(1,1)"><path fill="none" stroke="#000000" d="M 136.98108025568183 224.84 L 155.36071661931817 224.84" stroke-miterlimit="10"/></g><g transform="translate(-30,-22) scale(1,1)"><path fill="none" stroke="#000000" d="M 146.1708984375 235.64 L 133.40726207386365 253" stroke-miterlimit="10"/></g><g transform="translate(-30,-22) scale(1,1)"><path fill="none" stroke="#000000" d="M 146.1708984375 235.64 L 158.93453480113635 253" stroke-miterlimit="10"/></g><g transform="translate(-30,-22) scale(1,1)"><g><path fill="none" stroke="none"/><text fill="#000000" stroke="none" font-family="Arial" font-size="13px" font-style="normal" font-weight="bold" text-decoration="none" x="125.937744140625" y="273.5">Cliente</text></g></g><g transform="translate(-30,-22) scale(1,1)"><path fill="#ffffff" stroke="none" d="M 136.40935031960228 105.68 C 136.40935031960228 100.886167936 140.29519264454774 97 145.088623046875 97 C 149.88205344920226 97 153.76789577414772 100.886167936 153.76789577414772 105.68 C 153.76789577414772 110.473832064 149.88205344920226 114.36 145.088623046875 114.36 C 140.29519264454774 114.36 136.40935031960228 110.473832064 136.40935031960228 105.68 Z"/></g><g transform="translate(-30,-22) scale(1,1)"><path fill="none" stroke="#000000" d="M 136.40935031960228 105.68 C 136.40935031960228 100.886167936 140.29519264454774 97 145.088623046875 97 C 149.88205344920226 97 153.76789577414772 100.886167936 153.76789577414772 105.68 C 153.76789577414772 110.473832064 149.88205344920226 114.36 145.088623046875 114.36 C 140.29519264454774 114.36 136.40935031960228 110.473832064 136.40935031960228 105.68 Z" stroke-miterlimit="10"/></g><g transform="translate(-30,-22) scale(1,1)"><path fill="none" stroke="#000000" d="M 145.088623046875 114.36 L 145.088623046875 131.64" stroke-miterlimit="10"/></g><g transform="translate(-30,-22) scale(1,1)"><path fill="none" stroke="#000000" d="M 135.89880486505683 120.84 L 154.27844122869317 120.84" stroke-miterlimit="10"/></g><g transform="translate(-30,-22) scale(1,1)"><path fill="none" stroke="#000000" d="M 145.088623046875 131.64 L 132.32498668323865 149" stroke-miterlimit="10"/></g><g transform="translate(-30,-22) scale(1,1)"><path fill="none" stroke="#000000" d="M 145.088623046875 131.64 L 157.85225941051135 149" stroke-miterlimit="10"/></g><g transform="translate(-30,-22) scale(1,1)"><g><path fill="none" stroke="none"/><text fill="#000000" stroke="none" font-family="Arial" font-size="13px" font-style="normal" font-weight="bold" text-decoration="none" x="143.28271484375" y="169.5">.</text></g></g><g transform="translate(-30,-22) scale(1,1)"><path fill="#ffffff" stroke="none" d="M 40 96 L 149.171875 96 L 159.171875 106 L 159.171875 167 L 40 167 L 40 96"/></g><g transform="translate(-30,-22) scale(1,1)"><path fill="none" stroke="#000000" d="M 40 96 L 149.171875 96 L 159.171875 106 L 159.171875 167 L 40 167 L 40 96 L 40 96" stroke-miterlimit="10"/></g><g transform="translate(-30,-22) scale(1,1)"><path fill="none" stroke="#000000" d="M 149.171875 96 L 149.171875 106 L 159.171875 106 L 149.171875 96" stroke-miterlimit="10"/></g><g transform="translate(-30,-22) scale(1,1)"><g><path fill="none" stroke="none"/><text fill="#000000" stroke="none" font-family="Arial" font-size="20px" font-style="normal" font-weight="normal" text-decoration="none" x="45" y="121">Imprenta</text><text fill="#000000" stroke="none" font-family="Arial" font-size="20px" font-style="normal" font-weight="normal" text-decoration="none" x="45" y="141">JemaStone</text></g></g><g transform="translate(-30,-22) scale(1,1)"><path fill="none" stroke="#000000" d="M 171 131 L 303 110" stroke-miterlimit="10"/></g><g transform="translate(-30,-22) scale(1,1)"><path fill="none" stroke="#000000" d="M 293.62492103831124 115.75394599054428 L 303 110 L 292.3021638635355 107.43947232052555" stroke-miterlimit="10"/></g><g transform="translate(-30,-22) scale(1,1)"><path fill="none" stroke="#000000" d="M 171 136 L 303 142" stroke-miterlimit="10"/></g><g transform="translate(-30,-22) scale(1,1)"><path fill="none" stroke="#000000" d="M 292.6566631779511 145.74371251375513 L 303 142 L 293.0389518877435 137.3333608983219" stroke-miterlimit="10"/></g><g transform="translate(-30,-22) scale(1,1)"><path fill="none" stroke="#000000" d="M 173 239 L 303 240" stroke-miterlimit="10"/></g><g transform="translate(-30,-22) scale(1,1)"><path fill="none" stroke="#000000" d="M 292.80524585204387 244.13122111036563 L 303 240 L 292.87000574773 235.71243467117108" stroke-miterlimit="10"/></g></g></svg>