<svg version="1.1" xmlns="http://www.w3.org/2000/svg" xmlns:xlink="http://www.w3.org/1999/xlink" width="516" height="380"><defs/><g><text fill="#eeeeee" stroke="none" font-family="Arial" font-size="24px" font-style="normal" font-weight="normal" text-decoration="none" x="0" y="0">UNREGISTERED</text><text fill="#eeeeee" stroke="none" font-family="Arial" font-size="24px" font-style="normal" font-weight="normal" text-decoration="none" x="0" y="30">UNREGISTERED</text><text fill="#eeeeee" stroke="none" font-family="Arial" font-size="24px" font-style="normal" font-weight="normal" text-decoration="none" x="0" y="60">UNREGISTERED</text><text fill="#eeeeee" stroke="none" font-family="Arial" font-size="24px" font-style="normal" font-weight="normal" text-decoration="none" x="0" y="90">UNREGISTERED</text><text fill="#eeeeee" stroke="none" font-family="Arial" font-size="24px" font-style="normal" font-weight="normal" text-decoration="none" x="0" y="120">UNREGISTERED</text><text fill="#eeeeee" stroke="none" font-family="Arial" font-size="24px" font-style="normal" font-weight="normal" text-decoration="none" x="0" y="150">UNREGISTERED</text><text fill="#eeeeee" stroke="none" font-family="Arial" font-size="24px" font-style="normal" font-weight="normal" text-decoration="none" x="0" y="180">UNREGISTERED</text><text fill="#eeeeee" stroke="none" font-family="Arial" font-size="24px" font-style="normal" font-weight="normal" text-decoration="none" x="0" y="210">UNREGISTERED</text><text fill="#eeeeee" stroke="none" font-family="Arial" font-size="24px" font-style="normal" font-weight="normal" text-decoration="none" x="0" y="240">UNREGISTERED</text><text fill="#eeeeee" stroke="none" font-family="Arial" font-size="24px" font-style="normal" font-weight="normal" text-decoration="none" x="0" y="270">UNREGISTERED</text><text fill="#eeeeee" stroke="none" font-family="Arial" font-size="24px" font-style="normal" font-weight="normal" text-decoration="none" x="0" y="300">UNREGISTERED</text><text fill="#eeeeee" stroke="none" font-family="Arial" font-size="24px" font-style="normal" font-weight="normal" text-decoration="none" x="0" y="330">UNREGISTERED</text><text fill="#eeeeee" stroke="none" font-family="Arial" font-size="24px" font-style="normal" font-weight="normal" text-decoration="none" x="0" y="360">UNREGISTERED</text><text fill="#eeeeee" stroke="none" font-family="Arial" font-size="24px" font-style="normal" font-weight="normal" text-decoration="none" x="200" y="0">UNREGISTERED</text><text fill="#eeeeee" stroke="none" font-family="Arial" font-size="24px" font-style="normal" font-weight="normal" text-decoration="none" x="200" y="30">UNREGISTERED</text><text fill="#eeeeee" stroke="none" font-family="Arial" font-size="24px" font-style="normal" font-weight="normal" text-decoration="none" x="200" y="60">UNREGISTERED</text><text fill="#eeeeee" stroke="none" font-family="Arial" font-size="24px" font-style="normal" font-weight="normal" text-decoration="none" x="200" y="90">UNREGISTERED</text><text fill="#eeeeee" stroke="none" font-family="Arial" font-size="24px" font-style="normal" font-weight="normal" text-decoration="none" x="200" y="120">UNREGISTERED</text><text fill="#eeeeee" stroke="none" font-family="Arial" font-size="24px" font-style="normal" font-weight="normal" text-decoration="none" x="200" y="150">UNREGISTERED</text><text fill="#eeeeee" stroke="none" font-family="Arial" font-size="24px" font-style="normal" font-weight="normal" text-decoration="none" x="200" y="180">UNREGISTERED</text><text fill="#eeeeee" stroke="none" font-family="Arial" font-size="24px" font-style="normal" font-weight="normal" text-decoration="none" x="200" y="210">UNREGISTERED</text><text fill="#eeeeee" stroke="none" font-family="Arial" font-size="24px" font-style="normal" font-weight="normal" text-decoration="none" x="200" y="240">UNREGISTERED</text><text fill="#eeeeee" stroke="none" font-family="Arial" font-size="24px" font-style="normal" font-weight="normal" text-decoration="none" x="200" y="270">UNREGISTERED</text><text fill="#eeeeee" stroke="none" font-family="Arial" font-size="24px" font-style="normal" font-weight="normal" text-decoration="none" x="200" y="300">UNREGISTERED</text><text fill="#eeeeee" stroke="none" font-family="Arial" font-size="24px" font-style="normal" font-weight="normal" text-decoration="none" x="200" y="330">UNREGISTERED</text><text fill="#eeeeee" stroke="none" font-family="Arial" font-size="24px" font-style="normal" font-weight="normal" text-decoration="none" x="200" y="360">UNREGISTERED</text><text fill="#eeeeee" stroke="none" font-family="Arial" font-size="24px" font-style="normal" font-weight="normal" text-decoration="none" x="400" y="0">UNREGISTERED</text><text fill="#eeeeee" stroke="none" font-family="Arial" font-size="24px" font-style="normal" font-weight="normal" text-decoration="none" x="400" y="30">UNREGISTERED</text><text fill="#eeeeee" stroke="none" font-family="Arial" font-size="24px" font-style="normal" font-weight="normal" text-decoration="none" x="400" y="60">UNREGISTERED</text><text fill="#eeeeee" stroke="none" font-family="Arial" font-size="24px" font-style="normal" font-weight="normal" text-decoration="none" x="400" y="90">UNREGISTERED</text><text fill="#eeeeee" stroke="none" font-family="Arial" font-size="24px" font-style="normal" font-weight="normal" text-decoration="none" x="400" y="120">UNREGISTERED</text><text fill="#eeeeee" stroke="none" font-family="Arial" font-size="24px" font-style="normal" font-weight="normal" text-decoration="none" x="400" y="150">UNREGISTERED</text><text fill="#eeeeee" stroke="none" font-family="Arial" font-size="24px" font-style="normal" font-weight="normal" text-decoration="none" x="400" y="180">UNREGISTERED</text><text fill="#eeeeee" stroke="none" font-family="Arial" font-size="24px" font-style="normal" font-weight="normal" text-decoration="none" x="400" y="210">UNREGISTERED</text><text fill="#eeeeee" stroke="none" font-family="Arial" font-size="24px" font-style="normal" font-weight="normal" text-decoration="none" x="400" y="240">UNREGISTERED</text><text fill="#eeeeee" stroke="none" font-family="Arial" font-size="24px" font-style="normal" font-weight="normal" text-decoration="none" x="400" y="270">UNREGISTERED</text><text fill="#eeeeee" stroke="none" font-family="Arial" font-size="24px" font-style="normal" font-weight="normal" text-decoration="none" x="400" y="300">UNREGISTERED</text><text fill="#eeeeee" stroke="none" font-family="Arial" font-size="24px" font-style="normal" font-weight="normal" text-decoration="none" x="400" y="330">UNREGISTERED</text><text fill="#eeeeee" stroke="none" font-family="Arial" font-size="24px" font-style="normal" font-weight="normal" text-decoration="none" x="400" y="360">UNREGISTERED</text><g transform="translate(-14,-38) scale(1,1)"><rect fill="#C0C0C0" stroke="none" x="223" y="55" width="304" height="360" opacity="0.2"/></g><g transform="translate(-14,-38) scale(1,1)"><rect fill="#ffffff" stroke="none" x="216" y="48" width="304" height="360"/></g><g transform="translate(-14,-38) scale(1,1)"><path fill="none" stroke="#000000" d="M 216 48 L 520 48 L 520 408 L 216 408 L 216 48 Z Z" stroke-miterlimit="10"/></g><g transform="translate(-14,-38) scale(1,1)"><g><path fill="none" stroke="none"/><text fill="#000000" stroke="none" font-family="Arial" font-size="13px" font-style="normal" font-weight="bold" text-decoration="none" x="315.615966796875" y="67.5">GestionaServicios</text></g></g><g transform="translate(-14,-38) scale(1,1)"><path fill="#ffffff" stroke="none" d="M 64.24162571022727 129.68 C 64.24162571022727 124.886167936 68.12746803517273 121 72.9208984375 121 C 77.71432883982727 121 81.60017116477273 124.886167936 81.60017116477273 129.68 C 81.60017116477273 134.47383206400002 77.71432883982727 138.36 72.9208984375 138.36 C 68.12746803517273 138.36 64.24162571022727 134.47383206400002 64.24162571022727 129.68 Z"/></g><g transform="translate(-14,-38) scale(1,1)"><path fill="none" stroke="#000000" d="M 64.24162571022727 129.68 C 64.24162571022727 124.886167936 68.12746803517273 121 72.9208984375 121 C 77.71432883982727 121 81.60017116477273 124.886167936 81.60017116477273 129.68 C 81.60017116477273 134.47383206400002 77.71432883982727 138.36 72.9208984375 138.36 C 68.12746803517273 138.36 64.24162571022727 134.47383206400002 64.24162571022727 129.68 Z" stroke-miterlimit="10"/></g><g transform="translate(-14,-38) scale(1,1)"><path fill="none" stroke="#000000" d="M 72.9208984375 138.36 L 72.9208984375 155.64" stroke-miterlimit="10"/></g><g transform="translate(-14,-38) scale(1,1)"><path fill="none" stroke="#000000" d="M 63.73108025568182 144.84 L 82.11071661931818 144.84" stroke-miterlimit="10"/></g><g transform="translate(-14,-38) scale(1,1)"><path fill="none" stroke="#000000" d="M 72.9208984375 155.64 L 60.157262073863635 173" stroke-miterlimit="10"/></g><g transform="translate(-14,-38) scale(1,1)"><path fill="none" stroke="#000000" d="M 72.9208984375 155.64 L 85.68453480113637 173" stroke-miterlimit="10"/></g><g transform="translate(-14,-38) scale(1,1)"><g><path fill="none" stroke="none"/><text fill="#000000" stroke="none" font-family="Arial" font-size="13px" font-style="normal" font-weight="bold" text-decoration="none" x="32.82275390625" y="193.5">Administrador</text></g></g><g transform="translate(-14,-38) scale(1,1)"><path fill="#ffffff" stroke="none" d="M 120.40935031960228 281.68 C 120.40935031960228 276.886167936 124.29519264454774 273 129.088623046875 273 C 133.88205344920226 273 137.76789577414772 276.886167936 137.76789577414772 281.68 C 137.76789577414772 286.473832064 133.88205344920226 290.36 129.088623046875 290.36 C 124.29519264454774 290.36 120.40935031960228 286.473832064 120.40935031960228 281.68 Z"/></g><g transform="translate(-14,-38) scale(1,1)"><path fill="none" stroke="#000000" d="M 120.40935031960228 281.68 C 120.40935031960228 276.886167936 124.29519264454774 273 129.088623046875 273 C 133.88205344920226 273 137.76789577414772 276.886167936 137.76789577414772 281.68 C 137.76789577414772 286.473832064 133.88205344920226 290.36 129.088623046875 290.36 C 124.29519264454774 290.36 120.40935031960228 286.473832064 120.40935031960228 281.68 Z" stroke-miterlimit="10"/></g><g transform="translate(-14,-38) scale(1,1)"><path fill="none" stroke="#000000" d="M 129.088623046875 290.36 L 129.088623046875 307.64" stroke-miterlimit="10"/></g><g transform="translate(-14,-38) scale(1,1)"><path fill="none" stroke="#000000" d="M 119.89880486505683 296.84 L 138.27844122869317 296.84" stroke-miterlimit="10"/></g><g transform="translate(-14,-38) scale(1,1)"><path fill="none" stroke="#000000" d="M 129.088623046875 307.64 L 116.32498668323865 325" stroke-miterlimit="10"/></g><g transform="translate(-14,-38) scale(1,1)"><path fill="none" stroke="#000000" d="M 129.088623046875 307.64 L 141.85225941051135 325" stroke-miterlimit="10"/></g><g transform="translate(-14,-38) scale(1,1)"><g><path fill="none" stroke="none"/><text fill="#000000" stroke="none" font-family="Arial" font-size="13px" font-style="normal" font-weight="bold" text-decoration="none" x="127.28271484375" y="345.5">.</text></g></g><g transform="translate(-14,-38) scale(1,1)"><path fill="#C0C0C0" stroke="none" d="M 279 112 C 279 102.6111584 319.294368 95 369 95 C 418.705632 95 459 102.6111584 459 112 C 459 121.3888416 418.705632 129 369 129 C 319.294368 129 279 121.3888416 279 112 Z" opacity="0.2"/></g><g transform="translate(-14,-38) scale(1,1)"><path fill="#ffffff" stroke="none" d="M 272 105 C 272 95.6111584 312.294368 88 362 88 C 411.705632 88 452 95.6111584 452 105 C 452 114.3888416 411.705632 122 362 122 C 312.294368 122 272 114.3888416 272 105 Z"/></g><g transform="translate(-14,-38) scale(1,1)"><path fill="none" stroke="#000000" d="M 272 105 C 272 95.6111584 312.294368 88 362 88 C 411.705632 88 452 95.6111584 452 105 C 452 114.3888416 411.705632 122 362 122 C 312.294368 122 272 114.3888416 272 105 Z" stroke-miterlimit="10"/></g><g transform="translate(-14,-38) scale(1,1)"><g><path fill="none" stroke="none"/><text fill="#000000" stroke="none" font-family="Arial" font-size="13px" font-style="normal" font-weight="bold" text-decoration="none" x="307.083251953125" y="112">SeleccionaServicio</text></g></g><g transform="translate(-14,-38) scale(1,1)"><path fill="#C0C0C0" stroke="none" d="M 287 168 C 287 158.6111584 322.5933584 151 366.5 151 C 410.4066416 151 446 158.6111584 446 168 C 446 177.3888416 410.4066416 185 366.5 185 C 322.5933584 185 287 177.3888416 287 168 Z" opacity="0.2"/></g><g transform="translate(-14,-38) scale(1,1)"><path fill="#ffffff" stroke="none" d="M 280 161 C 280 151.6111584 315.5933584 144 359.5 144 C 403.4066416 144 439 151.6111584 439 161 C 439 170.3888416 403.4066416 178 359.5 178 C 315.5933584 178 280 170.3888416 280 161 Z"/></g><g transform="translate(-14,-38) scale(1,1)"><path fill="none" stroke="#000000" d="M 280 161 C 280 151.6111584 315.5933584 144 359.5 144 C 403.4066416 144 439 151.6111584 439 161 C 439 170.3888416 403.4066416 178 359.5 178 C 315.5933584 178 280 170.3888416 280 161 Z" stroke-miterlimit="10"/></g><g transform="translate(-14,-38) scale(1,1)"><g><path fill="none" stroke="none"/><text fill="#000000" stroke="none" font-family="Arial" font-size="13px" font-style="normal" font-weight="bold" text-decoration="none" x="312.17822265625" y="168">ModificaServicio</text></g></g><g transform="translate(-14,-38) scale(1,1)"><path fill="#C0C0C0" stroke="none" d="M 295 232 C 295 222.6111584 331.2649312 215 376 215 C 420.7350688 215 457 222.6111584 457 232 C 457 241.3888416 420.7350688 249 376 249 C 331.2649312 249 295 241.3888416 295 232 Z" opacity="0.2"/></g><g transform="translate(-14,-38) scale(1,1)"><path fill="#ffffff" stroke="none" d="M 288 225 C 288 215.6111584 324.2649312 208 369 208 C 413.7350688 208 450 215.6111584 450 225 C 450 234.3888416 413.7350688 242 369 242 C 324.2649312 242 288 234.3888416 288 225 Z"/></g><g transform="translate(-14,-38) scale(1,1)"><path fill="none" stroke="#000000" d="M 288 225 C 288 215.6111584 324.2649312 208 369 208 C 413.7350688 208 450 215.6111584 450 225 C 450 234.3888416 413.7350688 242 369 242 C 324.2649312 242 288 234.3888416 288 225 Z" stroke-miterlimit="10"/></g><g transform="translate(-14,-38) scale(1,1)"><g><path fill="none" stroke="none"/><text fill="#000000" stroke="none" font-family="Arial" font-size="13px" font-style="normal" font-weight="bold" text-decoration="none" x="319.865966796875" y="232">PresentaServicio</text></g></g><g transform="translate(-14,-38) scale(1,1)"><path fill="#C0C0C0" stroke="none" d="M 303 288 C 303 278.6111584 336.3547824 271 377.5 271 C 418.6452176 271 452 278.6111584 452 288 C 452 297.3888416 418.6452176 305 377.5 305 C 336.3547824 305 303 297.3888416 303 288 Z" opacity="0.2"/></g><g transform="translate(-14,-38) scale(1,1)"><path fill="#ffffff" stroke="none" d="M 296 281 C 296 271.6111584 329.3547824 264 370.5 264 C 411.6452176 264 445 271.6111584 445 281 C 445 290.3888416 411.6452176 298 370.5 298 C 329.3547824 298 296 290.3888416 296 281 Z"/></g><g transform="translate(-14,-38) scale(1,1)"><path fill="none" stroke="#000000" d="M 296 281 C 296 271.6111584 329.3547824 264 370.5 264 C 411.6452176 264 445 271.6111584 445 281 C 445 290.3888416 411.6452176 298 370.5 298 C 329.3547824 298 296 290.3888416 296 281 Z" stroke-miterlimit="10"/></g><g transform="translate(-14,-38) scale(1,1)"><g><path fill="none" stroke="none"/><text fill="#000000" stroke="none" font-family="Arial" font-size="13px" font-style="normal" font-weight="bold" text-decoration="none" x="325.701416015625" y="288">GuardaServicio</text></g></g><g transform="translate(-14,-38) scale(1,1)"><path fill="#C0C0C0" stroke="none" d="M 303 352 C 303 342.6111584 339.936504 335 385.5 335 C 431.063496 335 468 342.6111584 468 352 C 468 361.3888416 431.063496 369 385.5 369 C 339.936504 369 303 361.3888416 303 352 Z" opacity="0.2"/></g><g transform="translate(-14,-38) scale(1,1)"><path fill="#ffffff" stroke="none" d="M 296 345 C 296 335.6111584 332.936504 328 378.5 328 C 424.063496 328 461 335.6111584 461 345 C 461 354.3888416 424.063496 362 378.5 362 C 332.936504 362 296 354.3888416 296 345 Z"/></g><g transform="translate(-14,-38) scale(1,1)"><path fill="none" stroke="#000000" d="M 296 345 C 296 335.6111584 332.936504 328 378.5 328 C 424.063496 328 461 335.6111584 461 345 C 461 354.3888416 424.063496 362 378.5 362 C 332.936504 362 296 354.3888416 296 345 Z" stroke-miterlimit="10"/></g><g transform="translate(-14,-38) scale(1,1)"><g><path fill="none" stroke="none"/><text fill="#000000" stroke="none" font-family="Arial" font-size="13px" font-style="normal" font-weight="bold" text-decoration="none" x="329.00732421875" y="352">ActualizaServicio</text></g></g><g transform="translate(-14,-38) scale(1,1)"><path fill="none" stroke="#000000" d="M 123 150 L 271 122" stroke-miterlimit="10"/></g><g transform="translate(-14,-38) scale(1,1)"><path fill="none" stroke="#000000" d="M 261.7969723457876 128.02530347748578 L 271 122 L 260.23194379062204 119.75300968589619" stroke-miterlimit="10"/></g><g transform="translate(-14,-38) scale(1,1)"><path fill="none" stroke="#000000" d="M 123 159 L 279 160" stroke-miterlimit="10"/></g><g transform="translate(-14,-38) scale(1,1)"><path fill="none" stroke="#000000" d="M 268.81055040135533 164.14428725798294 L 279 160 L 268.86451746893505 155.72542471554456" stroke-miterlimit="10"/></g><g transform="translate(-14,-38) scale(1,1)"><path fill="none" stroke="#000000" d="M 155 302 L 319 243" stroke-miterlimit="10"/></g><g transform="translate(-14,-38) scale(1,1)"><path fill="none" stroke="#000000" d="M 310.86231439118177 250.40122104331664 L 319 243 L 308.0123337340507 242.47924091163023" stroke-miterlimit="10"/></g><g transform="translate(-14,-38) scale(1,1)"><path fill="none" stroke="#000000" d="M 155 308 L 295 290" stroke-miterlimit="10"/></g><g transform="translate(-14,-38) scale(1,1)"><path fill="none" stroke="#000000" d="M 285.4571005428893 295.47111231391534 L 295 290 L 284.3834904638928 287.12081169949835" stroke-miterlimit="10"/></g><g transform="translate(-14,-38) scale(1,1)"><path fill="none" stroke="#000000" d="M 155 315 L 295 334" stroke-miterlimit="10"/></g><g transform="translate(-14,-38) scale(1,1)"><path fill="none" stroke="#000000" d="M 284.36353963636674 336.80458747997966 L 295 334 L 285.4957439235285 328.4620295745775" stroke-miterlimit="10"/></g><g transform="translate(-14,-38) scale(1,1)"><path fill="#ffffff" stroke="none" d="M 32 272 L 141.171875 272 L 151.171875 282 L 151.171875 343 L 32 343 L 32 272"/></g><g transform="translate(-14,-38) scale(1,1)"><path fill="none" stroke="#000000" d="M 32 272 L 141.171875 272 L 151.171875 282 L 151.171875 343 L 32 343 L 32 272 L 32 272" stroke-miterlimit="10"/></g><g transform="translate(-14,-38) scale(1,1)"><path fill="none" stroke="#000000" d="M 141.171875 272 L 141.171875 282 L 151.171875 282 L 141.171875 272" stroke-miterlimit="10"/></g><g transform="translate(-14,-38) scale(1,1)"><g><path fill="none" stroke="none"/><text fill="#000000" stroke="none" font-family="Arial" font-size="20px" font-style="normal" font-weight="normal" text-decoration="none" x="37" y="297">Imprenta</text><text fill="#000000" stroke="none" font-family="Arial" font-size="20px" font-style="normal" font-weight="normal" text-decoration="none" x="37" y="317">JemaStone</text></g></g></g></svg>