<svg version="1.1" xmlns="http://www.w3.org/2000/svg" xmlns:xlink="http://www.w3.org/1999/xlink" width="476" height="267"><defs/><g><text fill="#eeeeee" stroke="none" font-family="Arial" font-size="24px" font-style="normal" font-weight="normal" text-decoration="none" x="0" y="0">UNREGISTERED</text><text fill="#eeeeee" stroke="none" font-family="Arial" font-size="24px" font-style="normal" font-weight="normal" text-decoration="none" x="0" y="30">UNREGISTERED</text><text fill="#eeeeee" stroke="none" font-family="Arial" font-size="24px" font-style="normal" font-weight="normal" text-decoration="none" x="0" y="60">UNREGISTERED</text><text fill="#eeeeee" stroke="none" font-family="Arial" font-size="24px" font-style="normal" font-weight="normal" text-decoration="none" x="0" y="90">UNREGISTERED</text><text fill="#eeeeee" stroke="none" font-family="Arial" font-size="24px" font-style="normal" font-weight="normal" text-decoration="none" x="0" y="120">UNREGISTERED</text><text fill="#eeeeee" stroke="none" font-family="Arial" font-size="24px" font-style="normal" font-weight="normal" text-decoration="none" x="0" y="150">UNREGISTERED</text><text fill="#eeeeee" stroke="none" font-family="Arial" font-size="24px" font-style="normal" font-weight="normal" text-decoration="none" x="0" y="180">UNREGISTERED</text><text fill="#eeeeee" stroke="none" font-family="Arial" font-size="24px" font-style="normal" font-weight="normal" text-decoration="none" x="0" y="210">UNREGISTERED</text><text fill="#eeeeee" stroke="none" font-family="Arial" font-size="24px" font-style="normal" font-weight="normal" text-decoration="none" x="0" y="240">UNREGISTERED</text><text fill="#eeeeee" stroke="none" font-family="Arial" font-size="24px" font-style="normal" font-weight="normal" text-decoration="none" x="200" y="0">UNREGISTERED</text><text fill="#eeeeee" stroke="none" font-family="Arial" font-size="24px" font-style="normal" font-weight="normal" text-decoration="none" x="200" y="30">UNREGISTERED</text><text fill="#eeeeee" stroke="none" font-family="Arial" font-size="24px" font-style="normal" font-weight="normal" text-decoration="none" x="200" y="60">UNREGISTERED</text><text fill="#eeeeee" stroke="none" font-family="Arial" font-size="24px" font-style="normal" font-weight="normal" text-decoration="none" x="200" y="90">UNREGISTERED</text><text fill="#eeeeee" stroke="none" font-family="Arial" font-size="24px" font-style="normal" font-weight="normal" text-decoration="none" x="200" y="120">UNREGISTERED</text><text fill="#eeeeee" stroke="none" font-family="Arial" font-size="24px" font-style="normal" font-weight="normal" text-decoration="none" x="200" y="150">UNREGISTERED</text><text fill="#eeeeee" stroke="none" font-family="Arial" font-size="24px" font-style="normal" font-weight="normal" text-decoration="none" x="200" y="180">UNREGISTERED</text><text fill="#eeeeee" stroke="none" font-family="Arial" font-size="24px" font-style="normal" font-weight="normal" text-decoration="none" x="200" y="210">UNREGISTERED</text><text fill="#eeeeee" stroke="none" font-family="Arial" font-size="24px" font-style="normal" font-weight="normal" text-decoration="none" x="200" y="240">UNREGISTERED</text><text fill="#eeeeee" stroke="none" font-family="Arial" font-size="24px" font-style="normal" font-weight="normal" text-decoration="none" x="400" y="0">UNREGISTERED</text><text fill="#eeeeee" stroke="none" font-family="Arial" font-size="24px" font-style="normal" font-weight="normal" text-decoration="none" x="400" y="30">UNREGISTERED</text><text fill="#eeeeee" stroke="none" font-family="Arial" font-size="24px" font-style="normal" font-weight="normal" text-decoration="none" x="400" y="60">UNREGISTERED</text><text fill="#eeeeee" stroke="none" font-family="Arial" font-size="24px" font-style="normal" font-weight="normal" text-decoration="none" x="400" y="90">UNREGISTERED</text><text fill="#eeeeee" stroke="none" font-family="Arial" font-size="24px" font-style="normal" font-weight="normal" text-decoration="none" x="400" y="120">UNREGISTERED</text><text fill="#eeeeee" stroke="none" font-family="Arial" font-size="24px" font-style="normal" font-weight="normal" text-decoration="none" x="400" y="150">UNREGISTERED</text><text fill="#eeeeee" stroke="none" font-family="Arial" font-size="24px" font-style="normal" font-weight="normal" text-decoration="none" x="400" y="180">UNREGISTERED</text><text fill="#eeeeee" stroke="none" font-family="Arial" font-size="24px" font-style="normal" font-weight="normal" text-decoration="none" x="400" y="210">UNREGISTERED</text><text fill="#eeeeee" stroke="none" font-family="Arial" font-size="24px" font-style="normal" font-weight="normal" text-decoration="none" x="400" y="240">UNREGISTERED</text><g transform="translate(-46,-22) scale(1,1)"><rect fill="#C0C0C0" stroke="none" x="255" y="39" width="264" height="240" opacity="0.2"/></g><g transform="translate(-46,-22) scale(1,1)"><rect fill="#ffffff" stroke="none" x="248" y="32" width="264" height="240"/></g><g transform="translate(-46,-22) scale(1,1)"><path fill="none" stroke="#000000" d="M 248 32 L 512 32 L 512 272 L 248 272 L 248 32 Z Z" stroke-miterlimit="10"/></g><g transform="translate(-46,-22) scale(1,1)"><g><path fill="none" stroke="none"/><text fill="#000000" stroke="none" font-family="Arial" font-size="13px" font-style="normal" font-weight="bold" text-decoration="none" x="309.195068359375" y="51.5">ContabilizaMateriaPrima</text></g></g><g transform="translate(-46,-22) scale(1,1)"><path fill="#C0C0C0" stroke="none" d="M 295 112 C 295 102.6111584 339.0999472 95 393.5 95 C 447.9000528 95 492 102.6111584 492 112 C 492 121.3888416 447.9000528 129 393.5 129 C 339.0999472 129 295 121.3888416 295 112 Z" opacity="0.2"/></g><g transform="translate(-46,-22) scale(1,1)"><path fill="#ffffff" stroke="none" d="M 288 105 C 288 95.6111584 332.0999472 88 386.5 88 C 440.9000528 88 485 95.6111584 485 105 C 485 114.3888416 440.9000528 122 386.5 122 C 332.0999472 122 288 114.3888416 288 105 Z"/></g><g transform="translate(-46,-22) scale(1,1)"><path fill="none" stroke="#000000" d="M 288 105 C 288 95.6111584 332.0999472 88 386.5 88 C 440.9000528 88 485 95.6111584 485 105 C 485 114.3888416 440.9000528 122 386.5 122 C 332.0999472 122 288 114.3888416 288 105 Z" stroke-miterlimit="10"/></g><g transform="translate(-46,-22) scale(1,1)"><g><path fill="none" stroke="none"/><text fill="#000000" stroke="none" font-family="Arial" font-size="13px" font-style="normal" font-weight="bold" text-decoration="none" x="326.156005859375" y="112">SeleccionaInventario</text></g></g><g transform="translate(-46,-22) scale(1,1)"><path fill="#C0C0C0" stroke="none" d="M 287 208 C 287 198.6111584 327.7420832 191 378 191 C 428.2579168 191 469 198.6111584 469 208 C 469 217.3888416 428.2579168 225 378 225 C 327.7420832 225 287 217.3888416 287 208 Z" opacity="0.2"/></g><g transform="translate(-46,-22) scale(1,1)"><path fill="#ffffff" stroke="none" d="M 280 201 C 280 191.6111584 320.7420832 184 371 184 C 421.2579168 184 462 191.6111584 462 201 C 462 210.3888416 421.2579168 218 371 218 C 320.7420832 218 280 210.3888416 280 201 Z"/></g><g transform="translate(-46,-22) scale(1,1)"><path fill="none" stroke="#000000" d="M 280 201 C 280 191.6111584 320.7420832 184 371 184 C 421.2579168 184 462 191.6111584 462 201 C 462 210.3888416 421.2579168 218 371 218 C 320.7420832 218 280 210.3888416 280 201 Z" stroke-miterlimit="10"/></g><g transform="translate(-46,-22) scale(1,1)"><g><path fill="none" stroke="none"/><text fill="#000000" stroke="none" font-family="Arial" font-size="13px" font-style="normal" font-weight="bold" text-decoration="none" x="316.438720703125" y="208">PresentaInventario</text></g></g><g transform="translate(-46,-22) scale(1,1)"><path fill="#ffffff" stroke="none" d="M 120.24162571022728 73.68 C 120.24162571022728 68.886167936 124.12746803517274 65 128.9208984375 65 C 133.71432883982726 65 137.60017116477272 68.886167936 137.60017116477272 73.68 C 137.60017116477272 78.473832064 133.71432883982726 82.36 128.9208984375 82.36 C 124.12746803517274 82.36 120.24162571022728 78.473832064 120.24162571022728 73.68 Z"/></g><g transform="translate(-46,-22) scale(1,1)"><path fill="none" stroke="#000000" d="M 120.24162571022728 73.68 C 120.24162571022728 68.886167936 124.12746803517274 65 128.9208984375 65 C 133.71432883982726 65 137.60017116477272 68.886167936 137.60017116477272 73.68 C 137.60017116477272 78.473832064 133.71432883982726 82.36 128.9208984375 82.36 C 124.12746803517274 82.36 120.24162571022728 78.473832064 120.24162571022728 73.68 Z" stroke-miterlimit="10"/></g><g transform="translate(-46,-22) scale(1,1)"><path fill="none" stroke="#000000" d="M 128.9208984375 82.36 L 128.9208984375 99.64" stroke-miterlimit="10"/></g><g transform="translate(-46,-22) scale(1,1)"><path fill="none" stroke="#000000" d="M 119.73108025568183 88.84 L 138.11071661931817 88.84" stroke-miterlimit="10"/></g><g transform="translate(-46,-22) scale(1,1)"><path fill="none" stroke="#000000" d="M 128.9208984375 99.64 L 116.15726207386365 117" stroke-miterlimit="10"/></g><g transform="translate(-46,-22) scale(1,1)"><path fill="none" stroke="#000000" d="M 128.9208984375 99.64 L 141.68453480113635 117" stroke-miterlimit="10"/></g><g transform="translate(-46,-22) scale(1,1)"><g><path fill="none" stroke="none"/><text fill="#000000" stroke="none" font-family="Arial" font-size="13px" font-style="normal" font-weight="bold" text-decoration="none" x="88.82275390625" y="137.5">Administrador</text></g></g><g transform="translate(-46,-22) scale(1,1)"><path fill="#ffffff" stroke="none" d="M 144.40935031960228 209.68 C 144.40935031960228 204.886167936 148.29519264454774 201 153.088623046875 201 C 157.88205344920226 201 161.76789577414772 204.886167936 161.76789577414772 209.68 C 161.76789577414772 214.47383206400002 157.88205344920226 218.36 153.088623046875 218.36 C 148.29519264454774 218.36 144.40935031960228 214.47383206400002 144.40935031960228 209.68 Z"/></g><g transform="translate(-46,-22) scale(1,1)"><path fill="none" stroke="#000000" d="M 144.40935031960228 209.68 C 144.40935031960228 204.886167936 148.29519264454774 201 153.088623046875 201 C 157.88205344920226 201 161.76789577414772 204.886167936 161.76789577414772 209.68 C 161.76789577414772 214.47383206400002 157.88205344920226 218.36 153.088623046875 218.36 C 148.29519264454774 218.36 144.40935031960228 214.47383206400002 144.40935031960228 209.68 Z" stroke-miterlimit="10"/></g><g transform="translate(-46,-22) scale(1,1)"><path fill="none" stroke="#000000" d="M 153.088623046875 218.36 L 153.088623046875 235.64" stroke-miterlimit="10"/></g><g transform="translate(-46,-22) scale(1,1)"><path fill="none" stroke="#000000" d="M 143.89880486505683 224.84 L 162.27844122869317 224.84" stroke-miterlimit="10"/></g><g transform="translate(-46,-22) scale(1,1)"><path fill="none" stroke="#000000" d="M 153.088623046875 235.64 L 140.32498668323865 253" stroke-miterlimit="10"/></g><g transform="translate(-46,-22) scale(1,1)"><path fill="none" stroke="#000000" d="M 153.088623046875 235.64 L 165.85225941051135 253" stroke-miterlimit="10"/></g><g transform="translate(-46,-22) scale(1,1)"><g><path fill="none" stroke="none"/><text fill="#000000" stroke="none" font-family="Arial" font-size="13px" font-style="normal" font-weight="bold" text-decoration="none" x="151.28271484375" y="273.5">.</text></g></g><g transform="translate(-46,-22) scale(1,1)"><path fill="none" stroke="#000000" d="M 179 103 L 287 104" stroke-miterlimit="10"/></g><g transform="translate(-46,-22) scale(1,1)"><path fill="none" stroke="#000000" d="M 276.79878541160815 108.1152425106646 L 287 104 L 276.87673610269087 99.69656787372706" stroke-miterlimit="10"/></g><g transform="translate(-46,-22) scale(1,1)"><path fill="none" stroke="#000000" d="M 179 234 L 279 217" stroke-miterlimit="10"/></g><g transform="translate(-46,-22) scale(1,1)"><path fill="none" stroke="#000000" d="M 269.6865637813498 222.8531962038816 L 279 217 L 268.275571366264 214.55324082102408" stroke-miterlimit="10"/></g><g transform="translate(-46,-22) scale(1,1)"><path fill="#ffffff" stroke="none" d="M 56 200 L 165.171875 200 L 175.171875 210 L 175.171875 263 L 56 263 L 56 200"/></g><g transform="translate(-46,-22) scale(1,1)"><path fill="none" stroke="#000000" d="M 56 200 L 165.171875 200 L 175.171875 210 L 175.171875 263 L 56 263 L 56 200 L 56 200" stroke-miterlimit="10"/></g><g transform="translate(-46,-22) scale(1,1)"><path fill="none" stroke="#000000" d="M 165.171875 200 L 165.171875 210 L 175.171875 210 L 165.171875 200" stroke-miterlimit="10"/></g><g transform="translate(-46,-22) scale(1,1)"><g><path fill="none" stroke="none"/><text fill="#000000" stroke="none" font-family="Arial" font-size="20px" font-style="normal" font-weight="normal" text-decoration="none" x="61" y="225">Imprenta</text><text fill="#000000" stroke="none" font-family="Arial" font-size="20px" font-style="normal" font-weight="normal" text-decoration="none" x="61" y="245">JemaStone</text></g></g></g></svg>