<svg version="1.1" xmlns="http://www.w3.org/2000/svg" xmlns:xlink="http://www.w3.org/1999/xlink" width="460" height="380"><defs/><g><text fill="#eeeeee" stroke="none" font-family="Arial" font-size="24px" font-style="normal" font-weight="normal" text-decoration="none" x="0" y="0">UNREGISTERED</text><text fill="#eeeeee" stroke="none" font-family="Arial" font-size="24px" font-style="normal" font-weight="normal" text-decoration="none" x="0" y="30">UNREGISTERED</text><text fill="#eeeeee" stroke="none" font-family="Arial" font-size="24px" font-style="normal" font-weight="normal" text-decoration="none" x="0" y="60">UNREGISTERED</text><text fill="#eeeeee" stroke="none" font-family="Arial" font-size="24px" font-style="normal" font-weight="normal" text-decoration="none" x="0" y="90">UNREGISTERED</text><text fill="#eeeeee" stroke="none" font-family="Arial" font-size="24px" font-style="normal" font-weight="normal" text-decoration="none" x="0" y="120">UNREGISTERED</text><text fill="#eeeeee" stroke="none" font-family="Arial" font-size="24px" font-style="normal" font-weight="normal" text-decoration="none" x="0" y="150">UNREGISTERED</text><text fill="#eeeeee" stroke="none" font-family="Arial" font-size="24px" font-style="normal" font-weight="normal" text-decoration="none" x="0" y="180">UNREGISTERED</text><text fill="#eeeeee" stroke="none" font-family="Arial" font-size="24px" font-style="normal" font-weight="normal" text-decoration="none" x="0" y="210">UNREGISTERED</text><text fill="#eeeeee" stroke="none" font-family="Arial" font-size="24px" font-style="normal" font-weight="normal" text-decoration="none" x="0" y="240">UNREGISTERED</text><text fill="#eeeeee" stroke="none" font-family="Arial" font-size="24px" font-style="normal" font-weight="normal" text-decoration="none" x="0" y="270">UNREGISTERED</text><text fill="#eeeeee" stroke="none" font-family="Arial" font-size="24px" font-style="normal" font-weight="normal" text-decoration="none" x="0" y="300">UNREGISTERED</text><text fill="#eeeeee" stroke="none" font-family="Arial" font-size="24px" font-style="normal" font-weight="normal" text-decoration="none" x="0" y="330">UNREGISTERED</text><text fill="#eeeeee" stroke="none" font-family="Arial" font-size="24px" font-style="normal" font-weight="normal" text-decoration="none" x="0" y="360">UNREGISTERED</text><text fill="#eeeeee" stroke="none" font-family="Arial" font-size="24px" font-style="normal" font-weight="normal" text-decoration="none" x="200" y="0">UNREGISTERED</text><text fill="#eeeeee" stroke="none" font-family="Arial" font-size="24px" font-style="normal" font-weight="normal" text-decoration="none" x="200" y="30">UNREGISTERED</text><text fill="#eeeeee" stroke="none" font-family="Arial" font-size="24px" font-style="normal" font-weight="normal" text-decoration="none" x="200" y="60">UNREGISTERED</text><text fill="#eeeeee" stroke="none" font-family="Arial" font-size="24px" font-style="normal" font-weight="normal" text-decoration="none" x="200" y="90">UNREGISTERED</text><text fill="#eeeeee" stroke="none" font-family="Arial" font-size="24px" font-style="normal" font-weight="normal" text-decoration="none" x="200" y="120">UNREGISTERED</text><text fill="#eeeeee" stroke="none" font-family="Arial" font-size="24px" font-style="normal" font-weight="normal" text-decoration="none" x="200" y="150">UNREGISTERED</text><text fill="#eeeeee" stroke="none" font-family="Arial" font-size="24px" font-style="normal" font-weight="normal" text-decoration="none" x="200" y="180">UNREGISTERED</text><text fill="#eeeeee" stroke="none" font-family="Arial" font-size="24px" font-style="normal" font-weight="normal" text-decoration="none" x="200" y="210">UNREGISTERED</text><text fill="#eeeeee" stroke="none" font-family="Arial" font-size="24px" font-style="normal" font-weight="normal" text-decoration="none" x="200" y="240">UNREGISTERED</text><text fill="#eeeeee" stroke="none" font-family="Arial" font-size="24px" font-style="normal" font-weight="normal" text-decoration="none" x="200" y="270">UNREGISTERED</text><text fill="#eeeeee" stroke="none" font-family="Arial" font-size="24px" font-style="normal" font-weight="normal" text-decoration="none" x="200" y="300">UNREGISTERED</text><text fill="#eeeeee" stroke="none" font-family="Arial" font-size="24px" font-style="normal" font-weight="normal" text-decoration="none" x="200" y="330">UNREGISTERED</text><text fill="#eeeeee" stroke="none" font-family="Arial" font-size="24px" font-style="normal" font-weight="normal" text-decoration="none" x="200" y="360">UNREGISTERED</text><text fill="#eeeeee" stroke="none" font-family="Arial" font-size="24px" font-style="normal" font-weight="normal" text-decoration="none" x="400" y="0">UNREGISTERED</text><text fill="#eeeeee" stroke="none" font-family="Arial" font-size="24px" font-style="normal" font-weight="normal" text-decoration="none" x="400" y="30">UNREGISTERED</text><text fill="#eeeeee" stroke="none" font-family="Arial" font-size="24px" font-style="normal" font-weight="normal" text-decoration="none" x="400" y="60">UNREGISTERED</text><text fill="#eeeeee" stroke="none" font-family="Arial" font-size="24px" font-style="normal" font-weight="normal" text-decoration="none" x="400" y="90">UNREGISTERED</text><text fill="#eeeeee" stroke="none" font-family="Arial" font-size="24px" font-style="normal" font-weight="normal" text-decoration="none" x="400" y="120">UNREGISTERED</text><text fill="#eeeeee" stroke="none" font-family="Arial" font-size="24px" font-style="normal" font-weight="normal" text-decoration="none" x="400" y="150">UNREGISTERED</text><text fill="#eeeeee" stroke="none" font-family="Arial" font-size="24px" font-style="normal" font-weight="normal" text-decoration="none" x="400" y="180">UNREGISTERED</text><text fill="#eeeeee" stroke="none" font-family="Arial" font-size="24px" font-style="normal" font-weight="normal" text-decoration="none" x="400" y="210">UNREGISTERED</text><text fill="#eeeeee" stroke="none" font-family="Arial" font-size="24px" font-style="normal" font-weight="normal" text-decoration="none" x="400" y="240">UNREGISTERED</text><text fill="#eeeeee" stroke="none" font-family="Arial" font-size="24px" font-style="normal" font-weight="normal" text-decoration="none" x="400" y="270">UNREGISTERED</text><text fill="#eeeeee" stroke="none" font-family="Arial" font-size="24px" font-style="normal" font-weight="normal" text-decoration="none" x="400" y="300">UNREGISTERED</text><text fill="#eeeeee" stroke="none" font-family="Arial" font-size="24px" font-style="normal" font-weight="normal" text-decoration="none" x="400" y="330">UNREGISTERED</text><text fill="#eeeeee" stroke="none" font-family="Arial" font-size="24px" font-style="normal" font-weight="normal" text-decoration="none" x="400" y="360">UNREGISTERED</text><g transform="translate(-6,-22) scale(1,1)"><rect fill="#C0C0C0" stroke="none" x="191" y="39" width="272" height="360" opacity="0.2"/></g><g transform="translate(-6,-22) scale(1,1)"><rect fill="#ffffff" stroke="none" x="184" y="32" width="272" height="360"/></g><g transform="translate(-6,-22) scale(1,1)"><path fill="none" stroke="#000000" d="M 184 32 L 456 32 L 456 392 L 184 392 L 184 32 Z Z" stroke-miterlimit="10"/></g><g transform="translate(-6,-22) scale(1,1)"><g><path fill="none" stroke="none"/><text fill="#000000" stroke="none" font-family="Arial" font-size="13px" font-style="normal" font-weight="bold" text-decoration="none" x="269.063232421875" y="51.5">AdministraCliente</text></g></g><g transform="translate(-6,-22) scale(1,1)"><path fill="#ffffff" stroke="none" d="M 88.24162571022727 121.68 C 88.24162571022727 116.886167936 92.12746803517273 113 96.9208984375 113 C 101.71432883982727 113 105.60017116477273 116.886167936 105.60017116477273 121.68 C 105.60017116477273 126.473832064 101.71432883982727 130.36 96.9208984375 130.36 C 92.12746803517273 130.36 88.24162571022727 126.473832064 88.24162571022727 121.68 Z"/></g><g transform="translate(-6,-22) scale(1,1)"><path fill="none" stroke="#000000" d="M 88.24162571022727 121.68 C 88.24162571022727 116.886167936 92.12746803517273 113 96.9208984375 113 C 101.71432883982727 113 105.60017116477273 116.886167936 105.60017116477273 121.68 C 105.60017116477273 126.473832064 101.71432883982727 130.36 96.9208984375 130.36 C 92.12746803517273 130.36 88.24162571022727 126.473832064 88.24162571022727 121.68 Z" stroke-miterlimit="10"/></g><g transform="translate(-6,-22) scale(1,1)"><path fill="none" stroke="#000000" d="M 96.9208984375 130.36 L 96.9208984375 147.64" stroke-miterlimit="10"/></g><g transform="translate(-6,-22) scale(1,1)"><path fill="none" stroke="#000000" d="M 87.73108025568182 136.84 L 106.11071661931818 136.84" stroke-miterlimit="10"/></g><g transform="translate(-6,-22) scale(1,1)"><path fill="none" stroke="#000000" d="M 96.9208984375 147.64 L 84.15726207386363 165" stroke-miterlimit="10"/></g><g transform="translate(-6,-22) scale(1,1)"><path fill="none" stroke="#000000" d="M 96.9208984375 147.64 L 109.68453480113637 165" stroke-miterlimit="10"/></g><g transform="translate(-6,-22) scale(1,1)"><g><path fill="none" stroke="none"/><text fill="#000000" stroke="none" font-family="Arial" font-size="13px" font-style="normal" font-weight="bold" text-decoration="none" x="56.82275390625" y="185.5">Administrador</text></g></g><g transform="translate(-6,-22) scale(1,1)"><path fill="#ffffff" stroke="none" d="M 116 265.49038461538464 C 116 260.80127424615387 119.8055792 257 124.5 257 C 129.1944208 257 133 260.80127424615387 133 265.49038461538464 C 133 270.1794949846154 129.1944208 273.9807692307692 124.5 273.9807692307692 C 119.8055792 273.9807692307692 116 270.1794949846154 116 265.49038461538464 Z"/></g><g transform="translate(-6,-22) scale(1,1)"><path fill="none" stroke="#000000" d="M 116 265.49038461538464 C 116 260.80127424615387 119.8055792 257 124.5 257 C 129.1944208 257 133 260.80127424615387 133 265.49038461538464 C 133 270.1794949846154 129.1944208 273.9807692307692 124.5 273.9807692307692 C 119.8055792 273.9807692307692 116 270.1794949846154 116 265.49038461538464 Z" stroke-miterlimit="10"/></g><g transform="translate(-6,-22) scale(1,1)"><path fill="none" stroke="#000000" d="M 124.5 273.9807692307692 L 124.5 290.9038461538462" stroke-miterlimit="10"/></g><g transform="translate(-6,-22) scale(1,1)"><path fill="none" stroke="#000000" d="M 115.5 280.3269230769231 L 133.5 280.3269230769231" stroke-miterlimit="10"/></g><g transform="translate(-6,-22) scale(1,1)"><path fill="none" stroke="#000000" d="M 124.5 290.9038461538462 L 112 307.8846153846154" stroke-miterlimit="10"/></g><g transform="translate(-6,-22) scale(1,1)"><path fill="none" stroke="#000000" d="M 124.5 290.9038461538462 L 137 307.8846153846154" stroke-miterlimit="10"/></g><g transform="translate(-6,-22) scale(1,1)"><g><path fill="none" stroke="none"/><text fill="#000000" stroke="none" font-family="Arial" font-size="13px" font-style="normal" font-weight="bold" text-decoration="none" x="122.694091796875" y="328.3846153846154">.</text></g></g><g transform="translate(-6,-22) scale(1,1)"><path fill="#C0C0C0" stroke="none" d="M 247 248 C 247 238.6111584 281.0263552 231 323 231 C 364.9736448 231 399 238.6111584 399 248 C 399 257.3888416 364.9736448 265 323 265 C 281.0263552 265 247 257.3888416 247 248 Z" opacity="0.2"/></g><g transform="translate(-6,-22) scale(1,1)"><path fill="#ffffff" stroke="none" d="M 240 241 C 240 231.6111584 274.0263552 224 316 224 C 357.9736448 224 392 231.6111584 392 241 C 392 250.3888416 357.9736448 258 316 258 C 274.0263552 258 240 250.3888416 240 241 Z"/></g><g transform="translate(-6,-22) scale(1,1)"><path fill="none" stroke="#000000" d="M 240 241 C 240 231.6111584 274.0263552 224 316 224 C 357.9736448 224 392 231.6111584 392 241 C 392 250.3888416 357.9736448 258 316 258 C 274.0263552 258 240 250.3888416 240 241 Z" stroke-miterlimit="10"/></g><g transform="translate(-6,-22) scale(1,1)"><g><path fill="none" stroke="none"/><text fill="#000000" stroke="none" font-family="Arial" font-size="13px" font-style="normal" font-weight="bold" text-decoration="none" x="269.7509765625" y="248">PresentaCliente</text></g></g><g transform="translate(-6,-22) scale(1,1)"><path fill="#C0C0C0" stroke="none" d="M 239 104 C 239 94.6111584 277.055792 87 324 87 C 370.944208 87 409 94.6111584 409 104 C 409 113.3888416 370.944208 121 324 121 C 277.055792 121 239 113.3888416 239 104 Z" opacity="0.2"/></g><g transform="translate(-6,-22) scale(1,1)"><path fill="#ffffff" stroke="none" d="M 232 97 C 232 87.6111584 270.055792 80 317 80 C 363.944208 80 402 87.6111584 402 97 C 402 106.3888416 363.944208 114 317 114 C 270.055792 114 232 106.3888416 232 97 Z"/></g><g transform="translate(-6,-22) scale(1,1)"><path fill="none" stroke="#000000" d="M 232 97 C 232 87.6111584 270.055792 80 317 80 C 363.944208 80 402 87.6111584 402 97 C 402 106.3888416 363.944208 114 317 114 C 270.055792 114 232 106.3888416 232 97 Z" stroke-miterlimit="10"/></g><g transform="translate(-6,-22) scale(1,1)"><g><path fill="none" stroke="none"/><text fill="#000000" stroke="none" font-family="Arial" font-size="13px" font-style="normal" font-weight="bold" text-decoration="none" x="264.96826171875" y="104">SeleccionaCliente</text></g></g><g transform="translate(-6,-22) scale(1,1)"><path fill="#C0C0C0" stroke="none" d="M 239 168 C 239 158.6111584 272.1309248 151 313 151 C 353.8690752 151 387 158.6111584 387 168 C 387 177.3888416 353.8690752 185 313 185 C 272.1309248 185 239 177.3888416 239 168 Z" opacity="0.2"/></g><g transform="translate(-6,-22) scale(1,1)"><path fill="#ffffff" stroke="none" d="M 232 161 C 232 151.6111584 265.1309248 144 306 144 C 346.8690752 144 380 151.6111584 380 161 C 380 170.3888416 346.8690752 178 306 178 C 265.1309248 178 232 170.3888416 232 161 Z"/></g><g transform="translate(-6,-22) scale(1,1)"><path fill="none" stroke="#000000" d="M 232 161 C 232 151.6111584 265.1309248 144 306 144 C 346.8690752 144 380 151.6111584 380 161 C 380 170.3888416 346.8690752 178 306 178 C 265.1309248 178 232 170.3888416 232 161 Z" stroke-miterlimit="10"/></g><g transform="translate(-6,-22) scale(1,1)"><g><path fill="none" stroke="none"/><text fill="#000000" stroke="none" font-family="Arial" font-size="13px" font-style="normal" font-weight="bold" text-decoration="none" x="261.563232421875" y="168">ModificaCliente</text></g></g><g transform="translate(-6,-22) scale(1,1)"><path fill="#C0C0C0" stroke="none" d="M 255 296 C 255 286.6111584 285.8923488 279 324 279 C 362.1076512 279 393 286.6111584 393 296 C 393 305.3888416 362.1076512 313 324 313 C 285.8923488 313 255 305.3888416 255 296 Z" opacity="0.2"/></g><g transform="translate(-6,-22) scale(1,1)"><path fill="#ffffff" stroke="none" d="M 248 289 C 248 279.6111584 278.8923488 272 317 272 C 355.1076512 272 386 279.6111584 386 289 C 386 298.3888416 355.1076512 306 317 306 C 278.8923488 306 248 298.3888416 248 289 Z"/></g><g transform="translate(-6,-22) scale(1,1)"><path fill="none" stroke="#000000" d="M 248 289 C 248 279.6111584 278.8923488 272 317 272 C 355.1076512 272 386 279.6111584 386 289 C 386 298.3888416 355.1076512 306 317 306 C 278.8923488 306 248 298.3888416 248 289 Z" stroke-miterlimit="10"/></g><g transform="translate(-6,-22) scale(1,1)"><g><path fill="none" stroke="none"/><text fill="#000000" stroke="none" font-family="Arial" font-size="13px" font-style="normal" font-weight="bold" text-decoration="none" x="275.08642578125" y="296">GuardaCliente</text></g></g><g transform="translate(-6,-22) scale(1,1)"><path fill="#C0C0C0" stroke="none" d="M 255 352 C 255 342.6111584 289.697928 335 332.5 335 C 375.302072 335 410 342.6111584 410 352 C 410 361.3888416 375.302072 369 332.5 369 C 289.697928 369 255 361.3888416 255 352 Z" opacity="0.2"/></g><g transform="translate(-6,-22) scale(1,1)"><path fill="#ffffff" stroke="none" d="M 248 345 C 248 335.6111584 282.697928 328 325.5 328 C 368.302072 328 403 335.6111584 403 345 C 403 354.3888416 368.302072 362 325.5 362 C 282.697928 362 248 354.3888416 248 345 Z"/></g><g transform="translate(-6,-22) scale(1,1)"><path fill="none" stroke="#000000" d="M 248 345 C 248 335.6111584 282.697928 328 325.5 328 C 368.302072 328 403 335.6111584 403 345 C 403 354.3888416 368.302072 362 325.5 362 C 282.697928 362 248 354.3888416 248 345 Z" stroke-miterlimit="10"/></g><g transform="translate(-6,-22) scale(1,1)"><g><path fill="none" stroke="none"/><text fill="#000000" stroke="none" font-family="Arial" font-size="13px" font-style="normal" font-weight="bold" text-decoration="none" x="278.892333984375" y="352">ActualizaCliente</text></g></g><g transform="translate(-6,-22) scale(1,1)"><path fill="none" stroke="#000000" d="M 147 139 L 243 115" stroke-miterlimit="10"/></g><g transform="translate(-6,-22) scale(1,1)"><path fill="none" stroke="#000000" d="M 234.16171522551727 121.54864277886242 L 243 115 L 232.1197991854035 113.38097861840738" stroke-miterlimit="10"/></g><g transform="translate(-6,-22) scale(1,1)"><path fill="none" stroke="#000000" d="M 147 153 L 231 157" stroke-miterlimit="10"/></g><g transform="translate(-6,-22) scale(1,1)"><path fill="none" stroke="#000000" d="M 220.64860154963412 160.72136401360612 L 231 157 L 221.04905423169788 152.31185769026683" stroke-miterlimit="10"/></g><g transform="translate(-6,-22) scale(1,1)"><path fill="none" stroke="#000000" d="M 138 291 L 252 259" stroke-miterlimit="10"/></g><g transform="translate(-6,-22) scale(1,1)"><path fill="none" stroke="#000000" d="M 243.35314371036569 265.7994026433512 L 252 259 L 241.07784556452265 257.6936529987854" stroke-miterlimit="10"/></g><g transform="translate(-6,-22) scale(1,1)"><path fill="none" stroke="#000000" d="M 138 295 L 247 291" stroke-miterlimit="10"/></g><g transform="translate(-6,-22) scale(1,1)"><path fill="none" stroke="#000000" d="M 236.99853501880796 295.57937749372 L 247 291 L 236.68978741057686 287.1660051694218" stroke-miterlimit="10"/></g><g transform="translate(-6,-22) scale(1,1)"><path fill="none" stroke="#000000" d="M 138 298 L 253 327" stroke-miterlimit="10"/></g><g transform="translate(-6,-22) scale(1,1)"><path fill="none" stroke="#000000" d="M 242.11651106049263 328.59676814335097 L 253 327 L 244.17512558575942 320.4332967500517" stroke-miterlimit="10"/></g><g transform="translate(-6,-22) scale(1,1)"><path fill="#ffffff" stroke="none" d="M 16 256 L 125.171875 256 L 135.171875 266 L 135.171875 327 L 16 327 L 16 256"/></g><g transform="translate(-6,-22) scale(1,1)"><path fill="none" stroke="#000000" d="M 16 256 L 125.171875 256 L 135.171875 266 L 135.171875 327 L 16 327 L 16 256 L 16 256" stroke-miterlimit="10"/></g><g transform="translate(-6,-22) scale(1,1)"><path fill="none" stroke="#000000" d="M 125.171875 256 L 125.171875 266 L 135.171875 266 L 125.171875 256" stroke-miterlimit="10"/></g><g transform="translate(-6,-22) scale(1,1)"><g><path fill="none" stroke="none"/><text fill="#000000" stroke="none" font-family="Arial" font-size="20px" font-style="normal" font-weight="normal" text-decoration="none" x="21" y="281">Imprenta</text><text fill="#000000" stroke="none" font-family="Arial" font-size="20px" font-style="normal" font-weight="normal" text-decoration="none" x="21" y="301">JemaStone</text></g></g></g></svg>