<svg version="1.1" xmlns="http://www.w3.org/2000/svg" xmlns:xlink="http://www.w3.org/1999/xlink" width="604" height="468"><defs/><g><text fill="#eeeeee" stroke="none" font-family="Arial" font-size="24px" font-style="normal" font-weight="normal" text-decoration="none" x="0" y="0">UNREGISTERED</text><text fill="#eeeeee" stroke="none" font-family="Arial" font-size="24px" font-style="normal" font-weight="normal" text-decoration="none" x="0" y="30">UNREGISTERED</text><text fill="#eeeeee" stroke="none" font-family="Arial" font-size="24px" font-style="normal" font-weight="normal" text-decoration="none" x="0" y="60">UNREGISTERED</text><text fill="#eeeeee" stroke="none" font-family="Arial" font-size="24px" font-style="normal" font-weight="normal" text-decoration="none" x="0" y="90">UNREGISTERED</text><text fill="#eeeeee" stroke="none" font-family="Arial" font-size="24px" font-style="normal" font-weight="normal" text-decoration="none" x="0" y="120">UNREGISTERED</text><text fill="#eeeeee" stroke="none" font-family="Arial" font-size="24px" font-style="normal" font-weight="normal" text-decoration="none" x="0" y="150">UNREGISTERED</text><text fill="#eeeeee" stroke="none" font-family="Arial" font-size="24px" font-style="normal" font-weight="normal" text-decoration="none" x="0" y="180">UNREGISTERED</text><text fill="#eeeeee" stroke="none" font-family="Arial" font-size="24px" font-style="normal" font-weight="normal" text-decoration="none" x="0" y="210">UNREGISTERED</text><text fill="#eeeeee" stroke="none" font-family="Arial" font-size="24px" font-style="normal" font-weight="normal" text-decoration="none" x="0" y="240">UNREGISTERED</text><text fill="#eeeeee" stroke="none" font-family="Arial" font-size="24px" font-style="normal" font-weight="normal" text-decoration="none" x="0" y="270">UNREGISTERED</text><text fill="#eeeeee" stroke="none" font-family="Arial" font-size="24px" font-style="normal" font-weight="normal" text-decoration="none" x="0" y="300">UNREGISTERED</text><text fill="#eeeeee" stroke="none" font-family="Arial" font-size="24px" font-style="normal" font-weight="normal" text-decoration="none" x="0" y="330">UNREGISTERED</text><text fill="#eeeeee" stroke="none" font-family="Arial" font-size="24px" font-style="normal" font-weight="normal" text-decoration="none" x="0" y="360">UNREGISTERED</text><text fill="#eeeeee" stroke="none" font-family="Arial" font-size="24px" font-style="normal" font-weight="normal" text-decoration="none" x="0" y="390">UNREGISTERED</text><text fill="#eeeeee" stroke="none" font-family="Arial" font-size="24px" font-style="normal" font-weight="normal" text-decoration="none" x="0" y="420">UNREGISTERED</text><text fill="#eeeeee" stroke="none" font-family="Arial" font-size="24px" font-style="normal" font-weight="normal" text-decoration="none" x="0" y="450">UNREGISTERED</text><text fill="#eeeeee" stroke="none" font-family="Arial" font-size="24px" font-style="normal" font-weight="normal" text-decoration="none" x="200" y="0">UNREGISTERED</text><text fill="#eeeeee" stroke="none" font-family="Arial" font-size="24px" font-style="normal" font-weight="normal" text-decoration="none" x="200" y="30">UNREGISTERED</text><text fill="#eeeeee" stroke="none" font-family="Arial" font-size="24px" font-style="normal" font-weight="normal" text-decoration="none" x="200" y="60">UNREGISTERED</text><text fill="#eeeeee" stroke="none" font-family="Arial" font-size="24px" font-style="normal" font-weight="normal" text-decoration="none" x="200" y="90">UNREGISTERED</text><text fill="#eeeeee" stroke="none" font-family="Arial" font-size="24px" font-style="normal" font-weight="normal" text-decoration="none" x="200" y="120">UNREGISTERED</text><text fill="#eeeeee" stroke="none" font-family="Arial" font-size="24px" font-style="normal" font-weight="normal" text-decoration="none" x="200" y="150">UNREGISTERED</text><text fill="#eeeeee" stroke="none" font-family="Arial" font-size="24px" font-style="normal" font-weight="normal" text-decoration="none" x="200" y="180">UNREGISTERED</text><text fill="#eeeeee" stroke="none" font-family="Arial" font-size="24px" font-style="normal" font-weight="normal" text-decoration="none" x="200" y="210">UNREGISTERED</text><text fill="#eeeeee" stroke="none" font-family="Arial" font-size="24px" font-style="normal" font-weight="normal" text-decoration="none" x="200" y="240">UNREGISTERED</text><text fill="#eeeeee" stroke="none" font-family="Arial" font-size="24px" font-style="normal" font-weight="normal" text-decoration="none" x="200" y="270">UNREGISTERED</text><text fill="#eeeeee" stroke="none" font-family="Arial" font-size="24px" font-style="normal" font-weight="normal" text-decoration="none" x="200" y="300">UNREGISTERED</text><text fill="#eeeeee" stroke="none" font-family="Arial" font-size="24px" font-style="normal" font-weight="normal" text-decoration="none" x="200" y="330">UNREGISTERED</text><text fill="#eeeeee" stroke="none" font-family="Arial" font-size="24px" font-style="normal" font-weight="normal" text-decoration="none" x="200" y="360">UNREGISTERED</text><text fill="#eeeeee" stroke="none" font-family="Arial" font-size="24px" font-style="normal" font-weight="normal" text-decoration="none" x="200" y="390">UNREGISTERED</text><text fill="#eeeeee" stroke="none" font-family="Arial" font-size="24px" font-style="normal" font-weight="normal" text-decoration="none" x="200" y="420">UNREGISTERED</text><text fill="#eeeeee" stroke="none" font-family="Arial" font-size="24px" font-style="normal" font-weight="normal" text-decoration="none" x="200" y="450">UNREGISTERED</text><text fill="#eeeeee" stroke="none" font-family="Arial" font-size="24px" font-style="normal" font-weight="normal" text-decoration="none" x="400" y="0">UNREGISTERED</text><text fill="#eeeeee" stroke="none" font-family="Arial" font-size="24px" font-style="normal" font-weight="normal" text-decoration="none" x="400" y="30">UNREGISTERED</text><text fill="#eeeeee" stroke="none" font-family="Arial" font-size="24px" font-style="normal" font-weight="normal" text-decoration="none" x="400" y="60">UNREGISTERED</text><text fill="#eeeeee" stroke="none" font-family="Arial" font-size="24px" font-style="normal" font-weight="normal" text-decoration="none" x="400" y="90">UNREGISTERED</text><text fill="#eeeeee" stroke="none" font-family="Arial" font-size="24px" font-style="normal" font-weight="normal" text-decoration="none" x="400" y="120">UNREGISTERED</text><text fill="#eeeeee" stroke="none" font-family="Arial" font-size="24px" font-style="normal" font-weight="normal" text-decoration="none" x="400" y="150">UNREGISTERED</text><text fill="#eeeeee" stroke="none" font-family="Arial" font-size="24px" font-style="normal" font-weight="normal" text-decoration="none" x="400" y="180">UNREGISTERED</text><text fill="#eeeeee" stroke="none" font-family="Arial" font-size="24px" font-style="normal" font-weight="normal" text-decoration="none" x="400" y="210">UNREGISTERED</text><text fill="#eeeeee" stroke="none" font-family="Arial" font-size="24px" font-style="normal" font-weight="normal" text-decoration="none" x="400" y="240">UNREGISTERED</text><text fill="#eeeeee" stroke="none" font-family="Arial" font-size="24px" font-style="normal" font-weight="normal" text-decoration="none" x="400" y="270">UNREGISTERED</text><text fill="#eeeeee" stroke="none" font-family="Arial" font-size="24px" font-style="normal" font-weight="normal" text-decoration="none" x="400" y="300">UNREGISTERED</text><text fill="#eeeeee" stroke="none" font-family="Arial" font-size="24px" font-style="normal" font-weight="normal" text-decoration="none" x="400" y="330">UNREGISTERED</text><text fill="#eeeeee" stroke="none" font-family="Arial" font-size="24px" font-style="normal" font-weight="normal" text-decoration="none" x="400" y="360">UNREGISTERED</text><text fill="#eeeeee" stroke="none" font-family="Arial" font-size="24px" font-style="normal" font-weight="normal" text-decoration="none" x="400" y="390">UNREGISTERED</text><text fill="#eeeeee" stroke="none" font-family="Arial" font-size="24px" font-style="normal" font-weight="normal" text-decoration="none" x="400" y="420">UNREGISTERED</text><text fill="#eeeeee" stroke="none" font-family="Arial" font-size="24px" font-style="normal" font-weight="normal" text-decoration="none" x="400" y="450">UNREGISTERED</text><text fill="#eeeeee" stroke="none" font-family="Arial" font-size="24px" font-style="normal" font-weight="normal" text-decoration="none" x="600" y="0">UNREGISTERED</text><text fill="#eeeeee" stroke="none" font-family="Arial" font-size="24px" font-style="normal" font-weight="normal" text-decoration="none" x="600" y="30">UNREGISTERED</text><text fill="#eeeeee" stroke="none" font-family="Arial" font-size="24px" font-style="normal" font-weight="normal" text-decoration="none" x="600" y="60">UNREGISTERED</text><text fill="#eeeeee" stroke="none" font-family="Arial" font-size="24px" font-style="normal" font-weight="normal" text-decoration="none" x="600" y="90">UNREGISTERED</text><text fill="#eeeeee" stroke="none" font-family="Arial" font-size="24px" font-style="normal" font-weight="normal" text-decoration="none" x="600" y="120">UNREGISTERED</text><text fill="#eeeeee" stroke="none" font-family="Arial" font-size="24px" font-style="normal" font-weight="normal" text-decoration="none" x="600" y="150">UNREGISTERED</text><text fill="#eeeeee" stroke="none" font-family="Arial" font-size="24px" font-style="normal" font-weight="normal" text-decoration="none" x="600" y="180">UNREGISTERED</text><text fill="#eeeeee" stroke="none" font-family="Arial" font-size="24px" font-style="normal" font-weight="normal" text-decoration="none" x="600" y="210">UNREGISTERED</text><text fill="#eeeeee" stroke="none" font-family="Arial" font-size="24px" font-style="normal" font-weight="normal" text-decoration="none" x="600" y="240">UNREGISTERED</text><text fill="#eeeeee" stroke="none" font-family="Arial" font-size="24px" font-style="normal" font-weight="normal" text-decoration="none" x="600" y="270">UNREGISTERED</text><text fill="#eeeeee" stroke="none" font-family="Arial" font-size="24px" font-style="normal" font-weight="normal" text-decoration="none" x="600" y="300">UNREGISTERED</text><text fill="#eeeeee" stroke="none" font-family="Arial" font-size="24px" font-style="normal" font-weight="normal" text-decoration="none" x="600" y="330">UNREGISTERED</text><text fill="#eeeeee" stroke="none" font-family="Arial" font-size="24px" font-style="normal" font-weight="normal" text-decoration="none" x="600" y="360">UNREGISTERED</text><text fill="#eeeeee" stroke="none" font-family="Arial" font-size="24px" font-style="normal" font-weight="normal" text-decoration="none" x="600" y="390">UNREGISTERED</text><text fill="#eeeeee" stroke="none" font-family="Arial" font-size="24px" font-style="normal" font-weight="normal" text-decoration="none" x="600" y="420">UNREGISTERED</text><text fill="#eeeeee" stroke="none" font-family="Arial" font-size="24px" font-style="normal" font-weight="normal" text-decoration="none" x="600" y="450">UNREGISTERED</text><g transform="translate(-326,-22) scale(1,1)"><rect fill="#C0C0C0" stroke="none" x="599" y="39" width="328" height="448" opacity="0.2"/></g><g transform="translate(-326,-22) scale(1,1)"><rect fill="#ffffff" stroke="none" x="592" y="32" width="328" height="448"/></g><g transform="translate(-326,-22) scale(1,1)"><path fill="none" stroke="#000000" d="M 592 32 L 920 32 L 920 480 L 592 480 L 592 32 Z Z" stroke-miterlimit="10"/></g><g transform="translate(-326,-22) scale(1,1)"><g><path fill="none" stroke="none"/><text fill="#000000" stroke="none" font-family="Arial" font-size="13px" font-style="normal" font-weight="bold" text-decoration="none" x="687.35009765625" y="51.5">GestionaMantenimiento</text></g></g><g transform="translate(-326,-22) scale(1,1)"><path fill="#C0C0C0" stroke="none" d="M 631 112 C 631 102.6111584 691.8892672 95 767 95 C 842.1107328 95 903 102.6111584 903 112 C 903 121.3888416 842.1107328 129 767 129 C 691.8892672 129 631 121.3888416 631 112 Z" opacity="0.2"/></g><g transform="translate(-326,-22) scale(1,1)"><path fill="#ffffff" stroke="none" d="M 624 105 C 624 95.6111584 684.8892672 88 760 88 C 835.1107328 88 896 95.6111584 896 105 C 896 114.3888416 835.1107328 122 760 122 C 684.8892672 122 624 114.3888416 624 105 Z"/></g><g transform="translate(-326,-22) scale(1,1)"><path fill="none" stroke="#000000" d="M 624 105 C 624 95.6111584 684.8892672 88 760 88 C 835.1107328 88 896 95.6111584 896 105 C 896 114.3888416 835.1107328 122 760 122 C 684.8892672 122 624 114.3888416 624 105 Z" stroke-miterlimit="10"/></g><g transform="translate(-326,-22) scale(1,1)"><g><path fill="none" stroke="none"/><text fill="#000000" stroke="none" font-family="Arial" font-size="13px" font-style="normal" font-weight="bold" text-decoration="none" x="676.182373046875" y="112">NotificarSobreMantenimiento</text></g></g><g transform="translate(-326,-22) scale(1,1)"><path fill="#C0C0C0" stroke="none" d="M 647 296 C 647 286.6111584 693.1146656 279 750 279 C 806.8853344 279 853 286.6111584 853 296 C 853 305.3888416 806.8853344 313 750 313 C 693.1146656 313 647 305.3888416 647 296 Z" opacity="0.2"/></g><g transform="translate(-326,-22) scale(1,1)"><path fill="#ffffff" stroke="none" d="M 640 289 C 640 279.6111584 686.1146656 272 743 272 C 799.8853344 272 846 279.6111584 846 289 C 846 298.3888416 799.8853344 306 743 306 C 686.1146656 306 640 298.3888416 640 289 Z"/></g><g transform="translate(-326,-22) scale(1,1)"><path fill="none" stroke="#000000" d="M 640 289 C 640 279.6111584 686.1146656 272 743 272 C 799.8853344 272 846 279.6111584 846 289 C 846 298.3888416 799.8853344 306 743 306 C 686.1146656 306 640 298.3888416 640 289 Z" stroke-miterlimit="10"/></g><g transform="translate(-326,-22) scale(1,1)"><g><path fill="none" stroke="none"/><text fill="#000000" stroke="none" font-family="Arial" font-size="13px" font-style="normal" font-weight="bold" text-decoration="none" x="678.688720703125" y="296">RealizaMantenimiento</text></g></g><g transform="translate(-326,-22) scale(1,1)"><path fill="#C0C0C0" stroke="none" d="M 647 352 C 647 342.6111584 680.3547824 335 721.5 335 C 762.6452176 335 796 342.6111584 796 352 C 796 361.3888416 762.6452176 369 721.5 369 C 680.3547824 369 647 361.3888416 647 352 Z" opacity="0.2"/></g><g transform="translate(-326,-22) scale(1,1)"><path fill="#ffffff" stroke="none" d="M 640 345 C 640 335.6111584 673.3547824 328 714.5 328 C 755.6452176 328 789 335.6111584 789 345 C 789 354.3888416 755.6452176 362 714.5 362 C 673.3547824 362 640 354.3888416 640 345 Z"/></g><g transform="translate(-326,-22) scale(1,1)"><path fill="none" stroke="#000000" d="M 640 345 C 640 335.6111584 673.3547824 328 714.5 328 C 755.6452176 328 789 335.6111584 789 345 C 789 354.3888416 755.6452176 362 714.5 362 C 673.3547824 362 640 354.3888416 640 345 Z" stroke-miterlimit="10"/></g><g transform="translate(-326,-22) scale(1,1)"><g><path fill="none" stroke="none"/><text fill="#000000" stroke="none" font-family="Arial" font-size="13px" font-style="normal" font-weight="bold" text-decoration="none" x="669.339599609375" y="352">AccedeSistema</text></g></g><g transform="translate(-326,-22) scale(1,1)"><path fill="#C0C0C0" stroke="none" d="M 639 168 C 639 158.6111584 696.7552608 151 768 151 C 839.2447392 151 897 158.6111584 897 168 C 897 177.3888416 839.2447392 185 768 185 C 696.7552608 185 639 177.3888416 639 168 Z" opacity="0.2"/></g><g transform="translate(-326,-22) scale(1,1)"><path fill="#ffffff" stroke="none" d="M 632 161 C 632 151.6111584 689.7552608 144 761 144 C 832.2447392 144 890 151.6111584 890 161 C 890 170.3888416 832.2447392 178 761 178 C 689.7552608 178 632 170.3888416 632 161 Z"/></g><g transform="translate(-326,-22) scale(1,1)"><path fill="none" stroke="#000000" d="M 632 161 C 632 151.6111584 689.7552608 144 761 144 C 832.2447392 144 890 151.6111584 890 161 C 890 170.3888416 832.2447392 178 761 178 C 689.7552608 178 632 170.3888416 632 161 Z" stroke-miterlimit="10"/></g><g transform="translate(-326,-22) scale(1,1)"><g><path fill="none" stroke="none"/><text fill="#000000" stroke="none" font-family="Arial" font-size="13px" font-style="normal" font-weight="bold" text-decoration="none" x="680.0673828125" y="168">BuscaMáquinasRegistradas</text></g></g><g transform="translate(-326,-22) scale(1,1)"><path fill="#C0C0C0" stroke="none" d="M 655 408 C 655 398.6111584 695.9659408 391 746.5 391 C 797.0340592 391 838 398.6111584 838 408 C 838 417.3888416 797.0340592 425 746.5 425 C 695.9659408 425 655 417.3888416 655 408 Z" opacity="0.2"/></g><g transform="translate(-326,-22) scale(1,1)"><path fill="#ffffff" stroke="none" d="M 648 401 C 648 391.6111584 688.9659408 384 739.5 384 C 790.0340592 384 831 391.6111584 831 401 C 831 410.3888416 790.0340592 418 739.5 418 C 688.9659408 418 648 410.3888416 648 401 Z"/></g><g transform="translate(-326,-22) scale(1,1)"><path fill="none" stroke="#000000" d="M 648 401 C 648 391.6111584 688.9659408 384 739.5 384 C 790.0340592 384 831 391.6111584 831 401 C 831 410.3888416 790.0340592 418 739.5 418 C 688.9659408 418 648 410.3888416 648 401 Z" stroke-miterlimit="10"/></g><g transform="translate(-326,-22) scale(1,1)"><g><path fill="none" stroke="none"/><text fill="#000000" stroke="none" font-family="Arial" font-size="13px" font-style="normal" font-weight="bold" text-decoration="none" x="682.767822265625" y="408">SeleccionaMáquina</text></g></g><g transform="translate(-326,-22) scale(1,1)"><path fill="#C0C0C0" stroke="none" d="M 655 456 C 655 446.6111584 686.7877792 439 726 439 C 765.2122208 439 797 446.6111584 797 456 C 797 465.3888416 765.2122208 473 726 473 C 686.7877792 473 655 465.3888416 655 456 Z" opacity="0.2"/></g><g transform="translate(-326,-22) scale(1,1)"><path fill="#ffffff" stroke="none" d="M 648 449 C 648 439.6111584 679.7877792 432 719 432 C 758.2122208 432 790 439.6111584 790 449 C 790 458.3888416 758.2122208 466 719 466 C 679.7877792 466 648 458.3888416 648 449 Z"/></g><g transform="translate(-326,-22) scale(1,1)"><path fill="none" stroke="#000000" d="M 648 449 C 648 439.6111584 679.7877792 432 719 432 C 758.2122208 432 790 439.6111584 790 449 C 790 458.3888416 758.2122208 466 719 466 C 679.7877792 466 648 458.3888416 648 449 Z" stroke-miterlimit="10"/></g><g transform="translate(-326,-22) scale(1,1)"><g><path fill="none" stroke="none"/><text fill="#000000" stroke="none" font-family="Arial" font-size="13px" font-style="normal" font-weight="bold" text-decoration="none" x="675.642333984375" y="456">DetallaReporte</text></g></g><g transform="translate(-326,-22) scale(1,1)"><path fill="#C0C0C0" stroke="none" d="M 647 216 C 647 206.6111584 679.6832096 199 720 199 C 760.3167904 199 793 206.6111584 793 216 C 793 225.3888416 760.3167904 233 720 233 C 679.6832096 233 647 225.3888416 647 216 Z" opacity="0.2"/></g><g transform="translate(-326,-22) scale(1,1)"><path fill="#ffffff" stroke="none" d="M 640 209 C 640 199.6111584 672.6832096 192 713 192 C 753.3167904 192 786 199.6111584 786 209 C 786 218.3888416 753.3167904 226 713 226 C 672.6832096 226 640 218.3888416 640 209 Z"/></g><g transform="translate(-326,-22) scale(1,1)"><path fill="none" stroke="#000000" d="M 640 209 C 640 199.6111584 672.6832096 192 713 192 C 753.3167904 192 786 199.6111584 786 209 C 786 218.3888416 753.3167904 226 713 226 C 672.6832096 226 640 218.3888416 640 209 Z" stroke-miterlimit="10"/></g><g transform="translate(-326,-22) scale(1,1)"><g><path fill="none" stroke="none"/><text fill="#000000" stroke="none" font-family="Arial" font-size="13px" font-style="normal" font-weight="bold" text-decoration="none" x="668.195068359375" y="216">GuardaReporte</text></g></g><g transform="translate(-326,-22) scale(1,1)"><path fill="#ffffff" stroke="none" d="M 412.38298313210225 329.68 C 412.38298313210225 324.886167936 416.26882545704774 321 421.062255859375 321 C 425.85568626170226 321 429.74152858664775 324.886167936 429.74152858664775 329.68 C 429.74152858664775 334.473832064 425.85568626170226 338.36 421.062255859375 338.36 C 416.26882545704774 338.36 412.38298313210225 334.473832064 412.38298313210225 329.68 Z"/></g><g transform="translate(-326,-22) scale(1,1)"><path fill="none" stroke="#000000" d="M 412.38298313210225 329.68 C 412.38298313210225 324.886167936 416.26882545704774 321 421.062255859375 321 C 425.85568626170226 321 429.74152858664775 324.886167936 429.74152858664775 329.68 C 429.74152858664775 334.473832064 425.85568626170226 338.36 421.062255859375 338.36 C 416.26882545704774 338.36 412.38298313210225 334.473832064 412.38298313210225 329.68 Z" stroke-miterlimit="10"/></g><g transform="translate(-326,-22) scale(1,1)"><path fill="none" stroke="#000000" d="M 421.062255859375 338.36 L 421.062255859375 355.64" stroke-miterlimit="10"/></g><g transform="translate(-326,-22) scale(1,1)"><path fill="none" stroke="#000000" d="M 411.87243767755683 344.84 L 430.25207404119317 344.84" stroke-miterlimit="10"/></g><g transform="translate(-326,-22) scale(1,1)"><path fill="none" stroke="#000000" d="M 421.062255859375 355.64 L 408.29861949573865 373" stroke-miterlimit="10"/></g><g transform="translate(-326,-22) scale(1,1)"><path fill="none" stroke="#000000" d="M 421.062255859375 355.64 L 433.82589222301135 373" stroke-miterlimit="10"/></g><g transform="translate(-326,-22) scale(1,1)"><g><path fill="none" stroke="none"/><text fill="#000000" stroke="none" font-family="Arial" font-size="13px" font-style="normal" font-weight="bold" text-decoration="none" x="398.302734375" y="393.5">Técnico</text></g></g><g transform="translate(-326,-22) scale(1,1)"><path fill="#ffffff" stroke="none" d="M 424.40935031960225 129.68 C 424.40935031960225 124.886167936 428.29519264454774 121 433.088623046875 121 C 437.88205344920226 121 441.76789577414775 124.886167936 441.76789577414775 129.68 C 441.76789577414775 134.47383206400002 437.88205344920226 138.36 433.088623046875 138.36 C 428.29519264454774 138.36 424.40935031960225 134.47383206400002 424.40935031960225 129.68 Z"/></g><g transform="translate(-326,-22) scale(1,1)"><path fill="none" stroke="#000000" d="M 424.40935031960225 129.68 C 424.40935031960225 124.886167936 428.29519264454774 121 433.088623046875 121 C 437.88205344920226 121 441.76789577414775 124.886167936 441.76789577414775 129.68 C 441.76789577414775 134.47383206400002 437.88205344920226 138.36 433.088623046875 138.36 C 428.29519264454774 138.36 424.40935031960225 134.47383206400002 424.40935031960225 129.68 Z" stroke-miterlimit="10"/></g><g transform="translate(-326,-22) scale(1,1)"><path fill="none" stroke="#000000" d="M 433.088623046875 138.36 L 433.088623046875 155.64" stroke-miterlimit="10"/></g><g transform="translate(-326,-22) scale(1,1)"><path fill="none" stroke="#000000" d="M 423.89880486505683 144.84 L 442.27844122869317 144.84" stroke-miterlimit="10"/></g><g transform="translate(-326,-22) scale(1,1)"><path fill="none" stroke="#000000" d="M 433.088623046875 155.64 L 420.32498668323865 173" stroke-miterlimit="10"/></g><g transform="translate(-326,-22) scale(1,1)"><path fill="none" stroke="#000000" d="M 433.088623046875 155.64 L 445.85225941051135 173" stroke-miterlimit="10"/></g><g transform="translate(-326,-22) scale(1,1)"><g><path fill="none" stroke="none"/><text fill="#000000" stroke="none" font-family="Arial" font-size="13px" font-style="normal" font-weight="bold" text-decoration="none" x="431.28271484375" y="193.5">.</text></g></g><g transform="translate(-326,-22) scale(1,1)"><path fill="none" stroke="#000000" d="M 451 352 L 660 307" stroke-miterlimit="10"/></g><g transform="translate(-326,-22) scale(1,1)"><path fill="none" stroke="#000000" d="M 650.9510537485323 313.2543242431176 L 660 307 L 649.1789536589467 305.02390382704243" stroke-miterlimit="10"/></g><g transform="translate(-326,-22) scale(1,1)"><path fill="none" stroke="#000000" d="M 451 358 L 639 349" stroke-miterlimit="10"/></g><g transform="translate(-326,-22) scale(1,1)"><path fill="none" stroke="#000000" d="M 629.0502393212973 353.690656930169 L 639 349 L 628.6476614293639 345.28125207644825" stroke-miterlimit="10"/></g><g transform="translate(-326,-22) scale(1,1)"><path fill="none" stroke="#000000" d="M 451 363 L 647 389" stroke-miterlimit="10"/></g><g transform="translate(-326,-22) scale(1,1)"><path fill="none" stroke="#000000" d="M 636.3720213301651 391.8365594288742 L 647 389 L 637.4791338048582 383.4906346196493" stroke-miterlimit="10"/></g><g transform="translate(-326,-22) scale(1,1)"><path fill="none" stroke="#000000" d="M 451 368 L 659 431" stroke-miterlimit="10"/></g><g transform="translate(-326,-22) scale(1,1)"><path fill="none" stroke="#000000" d="M 648.0534252613894 432.0828210803325 L 659 431 L 650.4939326428482 424.02527290027797" stroke-miterlimit="10"/></g><g transform="translate(-326,-22) scale(1,1)"><path fill="none" stroke="#000000" d="M 459 155 L 651 123" stroke-miterlimit="10"/></g><g transform="translate(-326,-22) scale(1,1)"><path fill="none" stroke="#000000" d="M 641.6676397266908 128.82297619170473 L 651 123 L 640.2835588144249 120.51849071810933" stroke-miterlimit="10"/></g><g transform="translate(-326,-22) scale(1,1)"><path fill="none" stroke="#000000" d="M 459 159 L 631 160" stroke-miterlimit="10"/></g><g transform="translate(-326,-22) scale(1,1)"><path fill="none" stroke="#000000" d="M 620.813023370852 164.1503622922815 L 631 160 L 620.8619704244874 155.73146906699375" stroke-miterlimit="10"/></g><g transform="translate(-326,-22) scale(1,1)"><path fill="none" stroke="#000000" d="M 459 164 L 639 196" stroke-miterlimit="10"/></g><g transform="translate(-326,-22) scale(1,1)"><path fill="none" stroke="#000000" d="M 628.2574054259768 198.36572648845282 L 639 196 L 629.7310172867527 190.076659771588" stroke-miterlimit="10"/></g><g transform="translate(-326,-22) scale(1,1)"><path fill="#ffffff" stroke="none" d="M 336 112 L 445.171875 112 L 455.171875 122 L 455.171875 178 L 336 178 L 336 112"/></g><g transform="translate(-326,-22) scale(1,1)"><path fill="none" stroke="#000000" d="M 336 112 L 445.171875 112 L 455.171875 122 L 455.171875 178 L 336 178 L 336 112 L 336 112" stroke-miterlimit="10"/></g><g transform="translate(-326,-22) scale(1,1)"><path fill="none" stroke="#000000" d="M 445.171875 112 L 445.171875 122 L 455.171875 122 L 445.171875 112" stroke-miterlimit="10"/></g><g transform="translate(-326,-22) scale(1,1)"><g><path fill="none" stroke="none"/><text fill="#000000" stroke="none" font-family="Arial" font-size="20px" font-style="normal" font-weight="normal" text-decoration="none" x="341" y="137">Imprenta</text><text fill="#000000" stroke="none" font-family="Arial" font-size="20px" font-style="normal" font-weight="normal" text-decoration="none" x="341" y="157">JemaStone</text></g></g></g></svg>