<svg version="1.1" xmlns="http://www.w3.org/2000/svg" xmlns:xlink="http://www.w3.org/1999/xlink" width="940" height="467"><defs/><g><text fill="#eeeeee" stroke="none" font-family="Arial" font-size="24px" font-style="normal" font-weight="normal" text-decoration="none" x="0" y="0">UNREGISTERED</text><text fill="#eeeeee" stroke="none" font-family="Arial" font-size="24px" font-style="normal" font-weight="normal" text-decoration="none" x="0" y="30">UNREGISTERED</text><text fill="#eeeeee" stroke="none" font-family="Arial" font-size="24px" font-style="normal" font-weight="normal" text-decoration="none" x="0" y="60">UNREGISTERED</text><text fill="#eeeeee" stroke="none" font-family="Arial" font-size="24px" font-style="normal" font-weight="normal" text-decoration="none" x="0" y="90">UNREGISTERED</text><text fill="#eeeeee" stroke="none" font-family="Arial" font-size="24px" font-style="normal" font-weight="normal" text-decoration="none" x="0" y="120">UNREGISTERED</text><text fill="#eeeeee" stroke="none" font-family="Arial" font-size="24px" font-style="normal" font-weight="normal" text-decoration="none" x="0" y="150">UNREGISTERED</text><text fill="#eeeeee" stroke="none" font-family="Arial" font-size="24px" font-style="normal" font-weight="normal" text-decoration="none" x="0" y="180">UNREGISTERED</text><text fill="#eeeeee" stroke="none" font-family="Arial" font-size="24px" font-style="normal" font-weight="normal" text-decoration="none" x="0" y="210">UNREGISTERED</text><text fill="#eeeeee" stroke="none" font-family="Arial" font-size="24px" font-style="normal" font-weight="normal" text-decoration="none" x="0" y="240">UNREGISTERED</text><text fill="#eeeeee" stroke="none" font-family="Arial" font-size="24px" font-style="normal" font-weight="normal" text-decoration="none" x="0" y="270">UNREGISTERED</text><text fill="#eeeeee" stroke="none" font-family="Arial" font-size="24px" font-style="normal" font-weight="normal" text-decoration="none" x="0" y="300">UNREGISTERED</text><text fill="#eeeeee" stroke="none" font-family="Arial" font-size="24px" font-style="normal" font-weight="normal" text-decoration="none" x="0" y="330">UNREGISTERED</text><text fill="#eeeeee" stroke="none" font-family="Arial" font-size="24px" font-style="normal" font-weight="normal" text-decoration="none" x="0" y="360">UNREGISTERED</text><text fill="#eeeeee" stroke="none" font-family="Arial" font-size="24px" font-style="normal" font-weight="normal" text-decoration="none" x="0" y="390">UNREGISTERED</text><text fill="#eeeeee" stroke="none" font-family="Arial" font-size="24px" font-style="normal" font-weight="normal" text-decoration="none" x="0" y="420">UNREGISTERED</text><text fill="#eeeeee" stroke="none" font-family="Arial" font-size="24px" font-style="normal" font-weight="normal" text-decoration="none" x="0" y="450">UNREGISTERED</text><text fill="#eeeeee" stroke="none" font-family="Arial" font-size="24px" font-style="normal" font-weight="normal" text-decoration="none" x="200" y="0">UNREGISTERED</text><text fill="#eeeeee" stroke="none" font-family="Arial" font-size="24px" font-style="normal" font-weight="normal" text-decoration="none" x="200" y="30">UNREGISTERED</text><text fill="#eeeeee" stroke="none" font-family="Arial" font-size="24px" font-style="normal" font-weight="normal" text-decoration="none" x="200" y="60">UNREGISTERED</text><text fill="#eeeeee" stroke="none" font-family="Arial" font-size="24px" font-style="normal" font-weight="normal" text-decoration="none" x="200" y="90">UNREGISTERED</text><text fill="#eeeeee" stroke="none" font-family="Arial" font-size="24px" font-style="normal" font-weight="normal" text-decoration="none" x="200" y="120">UNREGISTERED</text><text fill="#eeeeee" stroke="none" font-family="Arial" font-size="24px" font-style="normal" font-weight="normal" text-decoration="none" x="200" y="150">UNREGISTERED</text><text fill="#eeeeee" stroke="none" font-family="Arial" font-size="24px" font-style="normal" font-weight="normal" text-decoration="none" x="200" y="180">UNREGISTERED</text><text fill="#eeeeee" stroke="none" font-family="Arial" font-size="24px" font-style="normal" font-weight="normal" text-decoration="none" x="200" y="210">UNREGISTERED</text><text fill="#eeeeee" stroke="none" font-family="Arial" font-size="24px" font-style="normal" font-weight="normal" text-decoration="none" x="200" y="240">UNREGISTERED</text><text fill="#eeeeee" stroke="none" font-family="Arial" font-size="24px" font-style="normal" font-weight="normal" text-decoration="none" x="200" y="270">UNREGISTERED</text><text fill="#eeeeee" stroke="none" font-family="Arial" font-size="24px" font-style="normal" font-weight="normal" text-decoration="none" x="200" y="300">UNREGISTERED</text><text fill="#eeeeee" stroke="none" font-family="Arial" font-size="24px" font-style="normal" font-weight="normal" text-decoration="none" x="200" y="330">UNREGISTERED</text><text fill="#eeeeee" stroke="none" font-family="Arial" font-size="24px" font-style="normal" font-weight="normal" text-decoration="none" x="200" y="360">UNREGISTERED</text><text fill="#eeeeee" stroke="none" font-family="Arial" font-size="24px" font-style="normal" font-weight="normal" text-decoration="none" x="200" y="390">UNREGISTERED</text><text fill="#eeeeee" stroke="none" font-family="Arial" font-size="24px" font-style="normal" font-weight="normal" text-decoration="none" x="200" y="420">UNREGISTERED</text><text fill="#eeeeee" stroke="none" font-family="Arial" font-size="24px" font-style="normal" font-weight="normal" text-decoration="none" x="200" y="450">UNREGISTERED</text><text fill="#eeeeee" stroke="none" font-family="Arial" font-size="24px" font-style="normal" font-weight="normal" text-decoration="none" x="400" y="0">UNREGISTERED</text><text fill="#eeeeee" stroke="none" font-family="Arial" font-size="24px" font-style="normal" font-weight="normal" text-decoration="none" x="400" y="30">UNREGISTERED</text><text fill="#eeeeee" stroke="none" font-family="Arial" font-size="24px" font-style="normal" font-weight="normal" text-decoration="none" x="400" y="60">UNREGISTERED</text><text fill="#eeeeee" stroke="none" font-family="Arial" font-size="24px" font-style="normal" font-weight="normal" text-decoration="none" x="400" y="90">UNREGISTERED</text><text fill="#eeeeee" stroke="none" font-family="Arial" font-size="24px" font-style="normal" font-weight="normal" text-decoration="none" x="400" y="120">UNREGISTERED</text><text fill="#eeeeee" stroke="none" font-family="Arial" font-size="24px" font-style="normal" font-weight="normal" text-decoration="none" x="400" y="150">UNREGISTERED</text><text fill="#eeeeee" stroke="none" font-family="Arial" font-size="24px" font-style="normal" font-weight="normal" text-decoration="none" x="400" y="180">UNREGISTERED</text><text fill="#eeeeee" stroke="none" font-family="Arial" font-size="24px" font-style="normal" font-weight="normal" text-decoration="none" x="400" y="210">UNREGISTERED</text><text fill="#eeeeee" stroke="none" font-family="Arial" font-size="24px" font-style="normal" font-weight="normal" text-decoration="none" x="400" y="240">UNREGISTERED</text><text fill="#eeeeee" stroke="none" font-family="Arial" font-size="24px" font-style="normal" font-weight="normal" text-decoration="none" x="400" y="270">UNREGISTERED</text><text fill="#eeeeee" stroke="none" font-family="Arial" font-size="24px" font-style="normal" font-weight="normal" text-decoration="none" x="400" y="300">UNREGISTERED</text><text fill="#eeeeee" stroke="none" font-family="Arial" font-size="24px" font-style="normal" font-weight="normal" text-decoration="none" x="400" y="330">UNREGISTERED</text><text fill="#eeeeee" stroke="none" font-family="Arial" font-size="24px" font-style="normal" font-weight="normal" text-decoration="none" x="400" y="360">UNREGISTERED</text><text fill="#eeeeee" stroke="none" font-family="Arial" font-size="24px" font-style="normal" font-weight="normal" text-decoration="none" x="400" y="390">UNREGISTERED</text><text fill="#eeeeee" stroke="none" font-family="Arial" font-size="24px" font-style="normal" font-weight="normal" text-decoration="none" x="400" y="420">UNREGISTERED</text><text fill="#eeeeee" stroke="none" font-family="Arial" font-size="24px" font-style="normal" font-weight="normal" text-decoration="none" x="400" y="450">UNREGISTERED</text><text fill="#eeeeee" stroke="none" font-family="Arial" font-size="24px" font-style="normal" font-weight="normal" text-decoration="none" x="600" y="0">UNREGISTERED</text><text fill="#eeeeee" stroke="none" font-family="Arial" font-size="24px" font-style="normal" font-weight="normal" text-decoration="none" x="600" y="30">UNREGISTERED</text><text fill="#eeeeee" stroke="none" font-family="Arial" font-size="24px" font-style="normal" font-weight="normal" text-decoration="none" x="600" y="60">UNREGISTERED</text><text fill="#eeeeee" stroke="none" font-family="Arial" font-size="24px" font-style="normal" font-weight="normal" text-decoration="none" x="600" y="90">UNREGISTERED</text><text fill="#eeeeee" stroke="none" font-family="Arial" font-size="24px" font-style="normal" font-weight="normal" text-decoration="none" x="600" y="120">UNREGISTERED</text><text fill="#eeeeee" stroke="none" font-family="Arial" font-size="24px" font-style="normal" font-weight="normal" text-decoration="none" x="600" y="150">UNREGISTERED</text><text fill="#eeeeee" stroke="none" font-family="Arial" font-size="24px" font-style="normal" font-weight="normal" text-decoration="none" x="600" y="180">UNREGISTERED</text><text fill="#eeeeee" stroke="none" font-family="Arial" font-size="24px" font-style="normal" font-weight="normal" text-decoration="none" x="600" y="210">UNREGISTERED</text><text fill="#eeeeee" stroke="none" font-family="Arial" font-size="24px" font-style="normal" font-weight="normal" text-decoration="none" x="600" y="240">UNREGISTERED</text><text fill="#eeeeee" stroke="none" font-family="Arial" font-size="24px" font-style="normal" font-weight="normal" text-decoration="none" x="600" y="270">UNREGISTERED</text><text fill="#eeeeee" stroke="none" font-family="Arial" font-size="24px" font-style="normal" font-weight="normal" text-decoration="none" x="600" y="300">UNREGISTERED</text><text fill="#eeeeee" stroke="none" font-family="Arial" font-size="24px" font-style="normal" font-weight="normal" text-decoration="none" x="600" y="330">UNREGISTERED</text><text fill="#eeeeee" stroke="none" font-family="Arial" font-size="24px" font-style="normal" font-weight="normal" text-decoration="none" x="600" y="360">UNREGISTERED</text><text fill="#eeeeee" stroke="none" font-family="Arial" font-size="24px" font-style="normal" font-weight="normal" text-decoration="none" x="600" y="390">UNREGISTERED</text><text fill="#eeeeee" stroke="none" font-family="Arial" font-size="24px" font-style="normal" font-weight="normal" text-decoration="none" x="600" y="420">UNREGISTERED</text><text fill="#eeeeee" stroke="none" font-family="Arial" font-size="24px" font-style="normal" font-weight="normal" text-decoration="none" x="600" y="450">UNREGISTERED</text><text fill="#eeeeee" stroke="none" font-family="Arial" font-size="24px" font-style="normal" font-weight="normal" text-decoration="none" x="800" y="0">UNREGISTERED</text><text fill="#eeeeee" stroke="none" font-family="Arial" font-size="24px" font-style="normal" font-weight="normal" text-decoration="none" x="800" y="30">UNREGISTERED</text><text fill="#eeeeee" stroke="none" font-family="Arial" font-size="24px" font-style="normal" font-weight="normal" text-decoration="none" x="800" y="60">UNREGISTERED</text><text fill="#eeeeee" stroke="none" font-family="Arial" font-size="24px" font-style="normal" font-weight="normal" text-decoration="none" x="800" y="90">UNREGISTERED</text><text fill="#eeeeee" stroke="none" font-family="Arial" font-size="24px" font-style="normal" font-weight="normal" text-decoration="none" x="800" y="120">UNREGISTERED</text><text fill="#eeeeee" stroke="none" font-family="Arial" font-size="24px" font-style="normal" font-weight="normal" text-decoration="none" x="800" y="150">UNREGISTERED</text><text fill="#eeeeee" stroke="none" font-family="Arial" font-size="24px" font-style="normal" font-weight="normal" text-decoration="none" x="800" y="180">UNREGISTERED</text><text fill="#eeeeee" stroke="none" font-family="Arial" font-size="24px" font-style="normal" font-weight="normal" text-decoration="none" x="800" y="210">UNREGISTERED</text><text fill="#eeeeee" stroke="none" font-family="Arial" font-size="24px" font-style="normal" font-weight="normal" text-decoration="none" x="800" y="240">UNREGISTERED</text><text fill="#eeeeee" stroke="none" font-family="Arial" font-size="24px" font-style="normal" font-weight="normal" text-decoration="none" x="800" y="270">UNREGISTERED</text><text fill="#eeeeee" stroke="none" font-family="Arial" font-size="24px" font-style="normal" font-weight="normal" text-decoration="none" x="800" y="300">UNREGISTERED</text><text fill="#eeeeee" stroke="none" font-family="Arial" font-size="24px" font-style="normal" font-weight="normal" text-decoration="none" x="800" y="330">UNREGISTERED</text><text fill="#eeeeee" stroke="none" font-family="Arial" font-size="24px" font-style="normal" font-weight="normal" text-decoration="none" x="800" y="360">UNREGISTERED</text><text fill="#eeeeee" stroke="none" font-family="Arial" font-size="24px" font-style="normal" font-weight="normal" text-decoration="none" x="800" y="390">UNREGISTERED</text><text fill="#eeeeee" stroke="none" font-family="Arial" font-size="24px" font-style="normal" font-weight="normal" text-decoration="none" x="800" y="420">UNREGISTERED</text><text fill="#eeeeee" stroke="none" font-family="Arial" font-size="24px" font-style="normal" font-weight="normal" text-decoration="none" x="800" y="450">UNREGISTERED</text><g transform="translate(-54,-30) scale(1,1)"><path fill="#C0C0C0" stroke="none" d="M 633 47 L 981 47 Q 991 47 991 57 L 991 277 Q 991 287 981 287 L 633 287 Q 623 287 623 277 L 623 57 Q 623 47 633 47 Z" opacity="0.2"/></g><g transform="translate(-54,-30) scale(1,1)"><path fill="#ffffff" stroke="none" d="M 626 40 L 974 40 Q 984 40 984 50 L 984 270 Q 984 280 974 280 L 626 280 Q 616 280 616 270 L 616 50 Q 616 40 626 40 Z"/></g><g transform="translate(-54,-30) scale(1,1)"><path fill="none" stroke="#000000" d="M 626 40 L 974 40 Q 984 40 984 50 L 984 270 Q 984 280 974 280 L 626 280 Q 616 280 616 270 L 616 50 Q 616 40 626 40 Z" stroke-miterlimit="10"/></g><g transform="translate(-54,-30) scale(1,1)"><g><path fill="none" stroke="none"/><text fill="#000000" stroke="none" font-family="Arial" font-size="13px" font-style="normal" font-weight="bold" text-decoration="none" x="734.622314453125" y="59.5">Compra Materia Prima</text></g></g><g transform="translate(-54,-30) scale(1,1)"><path fill="#C0C0C0" stroke="none" d="M 71 168.5 C 71 163.2532944 75.2532944 159 80.5 159 C 85.7467056 159 90 163.2532944 90 168.5 C 90 173.7467056 85.7467056 178 80.5 178 C 75.2532944 178 71 173.7467056 71 168.5 Z" opacity="0.2"/></g><g transform="translate(-54,-30) scale(1,1)"><path fill="#000000" stroke="none" d="M 64 161.5 C 64 156.2532944 68.2532944 152 73.5 152 C 78.7467056 152 83 156.2532944 83 161.5 C 83 166.7467056 78.7467056 171 73.5 171 C 68.2532944 171 64 166.7467056 64 161.5 Z"/></g><g transform="translate(-54,-30) scale(1,1)"><path fill="#C0C0C0" stroke="none" d="M 177 151 L 298.92626953125 151 Q 308.92626953125 151 308.92626953125 161 L 308.92626953125 180 Q 308.92626953125 190 298.92626953125 190 L 177 190 Q 167 190 167 180 L 167 161 Q 167 151 177 151 Z" opacity="0.2"/></g><g transform="translate(-54,-30) scale(1,1)"><path fill="#ffffff" stroke="none" d="M 170 144 L 291.92626953125 144 Q 301.92626953125 144 301.92626953125 154 L 301.92626953125 173 Q 301.92626953125 183 291.92626953125 183 L 170 183 Q 160 183 160 173 L 160 154 Q 160 144 170 144 Z"/></g><g transform="translate(-54,-30) scale(1,1)"><path fill="none" stroke="#000000" d="M 170 144 L 291.92626953125 144 Q 301.92626953125 144 301.92626953125 154 L 301.92626953125 173 Q 301.92626953125 183 291.92626953125 183 L 170 183 Q 160 183 160 173 L 160 154 Q 160 144 170 144 Z" stroke-miterlimit="10"/></g><g transform="translate(-54,-30) scale(1,1)"><g><path fill="none" stroke="none"/><text fill="#000000" stroke="none" font-family="Arial" font-size="13px" font-style="normal" font-weight="bold" text-decoration="none" x="169.908203125" y="163.5">Contrato de servicios</text></g></g><g transform="translate(-54,-30) scale(1,1)"><path fill="#C0C0C0" stroke="none" d="M 393 151 L 519.99169921875 151 Q 529.99169921875 151 529.99169921875 161 L 529.99169921875 180 Q 529.99169921875 190 519.99169921875 190 L 393 190 Q 383 190 383 180 L 383 161 Q 383 151 393 151 Z" opacity="0.2"/></g><g transform="translate(-54,-30) scale(1,1)"><path fill="#ffffff" stroke="none" d="M 386 144 L 512.99169921875 144 Q 522.99169921875 144 522.99169921875 154 L 522.99169921875 173 Q 522.99169921875 183 512.99169921875 183 L 386 183 Q 376 183 376 173 L 376 154 Q 376 144 386 144 Z"/></g><g transform="translate(-54,-30) scale(1,1)"><path fill="none" stroke="#000000" d="M 386 144 L 512.99169921875 144 Q 522.99169921875 144 522.99169921875 154 L 522.99169921875 173 Q 522.99169921875 183 512.99169921875 183 L 386 183 Q 376 183 376 173 L 376 154 Q 376 144 386 144 Z" stroke-miterlimit="10"/></g><g transform="translate(-54,-30) scale(1,1)"><g><path fill="none" stroke="none"/><text fill="#000000" stroke="none" font-family="Arial" font-size="13px" font-style="normal" font-weight="bold" text-decoration="none" x="384.838623046875" y="163.5">Compra materia prima</text></g></g><g transform="translate(-54,-30) scale(1,1)"><path fill="#C0C0C0" stroke="none" d="M 721 95 L 952.734375 95 Q 962.734375 95 962.734375 105 L 962.734375 124 Q 962.734375 134 952.734375 134 L 721 134 Q 711 134 711 124 L 711 105 Q 711 95 721 95 Z" opacity="0.2"/></g><g transform="translate(-54,-30) scale(1,1)"><path fill="#ffffff" stroke="none" d="M 714 88 L 945.734375 88 Q 955.734375 88 955.734375 98 L 955.734375 117 Q 955.734375 127 945.734375 127 L 714 127 Q 704 127 704 117 L 704 98 Q 704 88 714 88 Z"/></g><g transform="translate(-54,-30) scale(1,1)"><path fill="none" stroke="#000000" d="M 714 88 L 945.734375 88 Q 955.734375 88 955.734375 98 L 955.734375 117 Q 955.734375 127 945.734375 127 L 714 127 Q 704 127 704 117 L 704 98 Q 704 88 714 88 Z" stroke-miterlimit="10"/></g><g transform="translate(-54,-30) scale(1,1)"><g><path fill="none" stroke="none"/><text fill="#000000" stroke="none" font-family="Arial" font-size="13px" font-style="normal" font-weight="bold" text-decoration="none" x="714.965087890625" y="107.5">Papel A4 - A3 -A5 y para gigantografías</text></g></g><g transform="translate(-54,-30) scale(1,1)"><path fill="#C0C0C0" stroke="none" d="M 721 159 L 823.419921875 159 Q 833.419921875 159 833.419921875 169 L 833.419921875 188 Q 833.419921875 198 823.419921875 198 L 721 198 Q 711 198 711 188 L 711 169 Q 711 159 721 159 Z" opacity="0.2"/></g><g transform="translate(-54,-30) scale(1,1)"><path fill="#ffffff" stroke="none" d="M 714 152 L 816.419921875 152 Q 826.419921875 152 826.419921875 162 L 826.419921875 181 Q 826.419921875 191 816.419921875 191 L 714 191 Q 704 191 704 181 L 704 162 Q 704 152 714 152 Z"/></g><g transform="translate(-54,-30) scale(1,1)"><path fill="none" stroke="#000000" d="M 714 152 L 816.419921875 152 Q 826.419921875 152 826.419921875 162 L 826.419921875 181 Q 826.419921875 191 816.419921875 191 L 714 191 Q 704 191 704 181 L 704 162 Q 704 152 714 152 Z" stroke-miterlimit="10"/></g><g transform="translate(-54,-30) scale(1,1)"><g><path fill="none" stroke="none"/><text fill="#000000" stroke="none" font-family="Arial" font-size="13px" font-style="normal" font-weight="bold" text-decoration="none" x="712.4609375" y="171.5">Material de oficina</text></g></g><g transform="translate(-54,-30) scale(1,1)"><path fill="#C0C0C0" stroke="none" d="M 729 223 L 927.51708984375 223 Q 937.51708984375 223 937.51708984375 233 L 937.51708984375 252 Q 937.51708984375 262 927.51708984375 262 L 729 262 Q 719 262 719 252 L 719 233 Q 719 223 729 223 Z" opacity="0.2"/></g><g transform="translate(-54,-30) scale(1,1)"><path fill="#ffffff" stroke="none" d="M 722 216 L 920.51708984375 216 Q 930.51708984375 216 930.51708984375 226 L 930.51708984375 245 Q 930.51708984375 255 920.51708984375 255 L 722 255 Q 712 255 712 245 L 712 226 Q 712 216 722 216 Z"/></g><g transform="translate(-54,-30) scale(1,1)"><path fill="none" stroke="#000000" d="M 722 216 L 920.51708984375 216 Q 930.51708984375 216 930.51708984375 226 L 930.51708984375 245 Q 930.51708984375 255 920.51708984375 255 L 722 255 Q 712 255 712 245 L 712 226 Q 712 216 722 216 Z" stroke-miterlimit="10"/></g><g transform="translate(-54,-30) scale(1,1)"><g><path fill="none" stroke="none"/><text fill="#000000" stroke="none" font-family="Arial" font-size="13px" font-style="normal" font-weight="bold" text-decoration="none" x="724.79638671875" y="235.5">Material para afiches publicitarios</text></g></g><g transform="translate(-54,-30) scale(1,1)"><path fill="#C0C0C0" stroke="none" d="M 737 359 L 866.89892578125 359 Q 876.89892578125 359 876.89892578125 369 L 876.89892578125 388 Q 876.89892578125 398 866.89892578125 398 L 737 398 Q 727 398 727 388 L 727 369 Q 727 359 737 359 Z" opacity="0.2"/></g><g transform="translate(-54,-30) scale(1,1)"><path fill="#ffffff" stroke="none" d="M 730 352 L 859.89892578125 352 Q 869.89892578125 352 869.89892578125 362 L 869.89892578125 381 Q 869.89892578125 391 859.89892578125 391 L 730 391 Q 720 391 720 381 L 720 362 Q 720 352 730 352 Z"/></g><g transform="translate(-54,-30) scale(1,1)"><path fill="none" stroke="#000000" d="M 730 352 L 859.89892578125 352 Q 869.89892578125 352 869.89892578125 362 L 869.89892578125 381 Q 869.89892578125 391 859.89892578125 391 L 730 391 Q 720 391 720 381 L 720 362 Q 720 352 730 352 Z" stroke-miterlimit="10"/></g><g transform="translate(-54,-30) scale(1,1)"><g><path fill="none" stroke="none"/><text fill="#000000" stroke="none" font-family="Arial" font-size="13px" font-style="normal" font-weight="bold" text-decoration="none" x="729.197265625" y="371.5">Revisión de materiales</text></g></g><g transform="translate(-54,-30) scale(1,1)"><path fill="#C0C0C0" stroke="none" d="M 729 455 L 871.8798828125 455 Q 881.8798828125 455 881.8798828125 465 L 881.8798828125 484 Q 881.8798828125 494 871.8798828125 494 L 729 494 Q 719 494 719 484 L 719 465 Q 719 455 729 455 Z" opacity="0.2"/></g><g transform="translate(-54,-30) scale(1,1)"><path fill="#ffffff" stroke="none" d="M 722 448 L 864.8798828125 448 Q 874.8798828125 448 874.8798828125 458 L 874.8798828125 477 Q 874.8798828125 487 864.8798828125 487 L 722 487 Q 712 487 712 477 L 712 458 Q 712 448 722 448 Z"/></g><g transform="translate(-54,-30) scale(1,1)"><path fill="none" stroke="#000000" d="M 722 448 L 864.8798828125 448 Q 874.8798828125 448 874.8798828125 458 L 874.8798828125 477 Q 874.8798828125 487 864.8798828125 487 L 722 487 Q 712 487 712 477 L 712 458 Q 712 448 722 448 Z" stroke-miterlimit="10"/></g><g transform="translate(-54,-30) scale(1,1)"><g><path fill="none" stroke="none"/><text fill="#000000" stroke="none" font-family="Arial" font-size="13px" font-style="normal" font-weight="bold" text-decoration="none" x="720.81640625" y="467.5">Realizar pago de compra</text></g></g><g transform="translate(-54,-30) scale(1,1)"><path fill="#C0C0C0" stroke="none" d="M 583 475.5 C 583 468.59644 588.59644 463 595.5 463 C 602.40356 463 608 468.59644 608 475.5 C 608 482.40356 602.40356 488 595.5 488 C 588.59644 488 583 482.40356 583 475.5 Z" opacity="0.2"/></g><g transform="translate(-54,-30) scale(1,1)"><path fill="none" stroke="#000000" d="M 576 468.5 C 576 461.59644 581.59644 456 588.5 456 C 595.40356 456 601 461.59644 601 468.5 C 601 475.40356 595.40356 481 588.5 481 C 581.59644 481 576 475.40356 576 468.5 Z" stroke-miterlimit="10"/></g><g transform="translate(-54,-30) scale(1,1)"><path fill="#000000" stroke="none" d="M 581 468.5 C 581 464.357864 584.357864 461 588.5 461 C 592.642136 461 596 464.357864 596 468.5 C 596 472.642136 592.642136 476 588.5 476 C 584.357864 476 581 472.642136 581 468.5 Z"/></g><g transform="translate(-54,-30) scale(1,1)"><path fill="none" stroke="#000000" d="M 84 161 L 159 162" stroke-miterlimit="10"/></g><g transform="translate(-54,-30) scale(1,1)"><path fill="none" stroke="#000000" d="M 148.78210645580282 166.07365333815406 L 159 162 L 148.89435028584398 157.6553660850679" stroke-miterlimit="10"/></g><g transform="translate(-54,-30) scale(1,1)"><path fill="none" stroke="#000000" d="M 303 163 L 375 163" stroke-miterlimit="10"/></g><g transform="translate(-54,-30) scale(1,1)"><path fill="none" stroke="#000000" d="M 364.83732514237585 167.209517756016 L 375 163 L 364.83732514237585 158.790482243984" stroke-miterlimit="10"/></g><g transform="translate(-54,-30) scale(1,1)"><path fill="#C0C0C0" stroke="none" d="M 615 174 C 615 170.1340064 618.1340064 167 622 167 C 625.8659936 167 629 170.1340064 629 174 C 629 177.8659936 625.8659936 181 622 181 C 618.1340064 181 615 177.8659936 615 174 Z" opacity="0.2"/></g><g transform="translate(-54,-30) scale(1,1)"><path fill="#ffffff" stroke="none" d="M 608 167 C 608 163.1340064 611.1340064 160 615 160 C 618.8659936 160 622 163.1340064 622 167 C 622 170.8659936 618.8659936 174 615 174 C 611.1340064 174 608 170.8659936 608 167 Z"/></g><g transform="translate(-54,-30) scale(1,1)"><path fill="none" stroke="#000000" d="M 608 167 C 608 163.1340064 611.1340064 160 615 160 C 618.8659936 160 622 163.1340064 622 167 C 622 170.8659936 618.8659936 174 615 174 C 611.1340064 174 608 170.8659936 608 167 Z" stroke-miterlimit="10"/></g><g transform="translate(-54,-30) scale(1,1)"><path fill="none" stroke="#000000" d="M 524 165 L 607 167" stroke-miterlimit="10"/></g><g transform="translate(-54,-30) scale(1,1)"><path fill="none" stroke="#000000" d="M 596.7388695371069 170.96348352128354 L 607 167 L 596.9416789920276 162.54689114206911" stroke-miterlimit="10"/></g><g transform="translate(-54,-30) scale(1,1)"><path fill="none" stroke="#000000" d="M 622 159 L 664 112 L 703 111" stroke-miterlimit="10"/></g><g transform="translate(-54,-30) scale(1,1)"><path fill="none" stroke="#000000" d="M 692.9485651713802 115.46863042620535 L 703 111 L 692.732763395042 107.0523611490146" stroke-miterlimit="10"/></g><g transform="translate(-54,-30) scale(1,1)"><path fill="none" stroke="#000000" d="M 622 175 L 672 232 L 711 233" stroke-miterlimit="10"/></g><g transform="translate(-54,-30) scale(1,1)"><path fill="none" stroke="#000000" d="M 700.732763395042 236.94763885098538 L 711 233 L 700.9485651713802 228.53136957379465" stroke-miterlimit="10"/></g><g transform="translate(-54,-30) scale(1,1)"><path fill="none" stroke="#000000" d="M 623 167 L 703 169" stroke-miterlimit="10"/></g><g transform="translate(-54,-30) scale(1,1)"><path fill="none" stroke="#000000" d="M 692.73529441792 172.9542153852841 L 703 169 L 692.9457045628213 164.53780958923446" stroke-miterlimit="10"/></g><g transform="translate(-54,-30) scale(1,1)"><path fill="none" stroke="#000000" d="M 797 281 L 795 351" stroke-miterlimit="10"/></g><g transform="translate(-54,-30) scale(1,1)"><path fill="none" stroke="#000000" d="M 791.0824430594122 340.7212477597107 L 795 351 L 799.4980443328709 340.96169351038094" stroke-miterlimit="10"/></g><g transform="translate(-54,-30) scale(1,1)"><path fill="none" stroke="#000000" d="M 794 392 L 793 447" stroke-miterlimit="10"/></g><g transform="translate(-54,-30) scale(1,1)"><path fill="none" stroke="#000000" d="M 788.9759232321812 436.7624804680674 L 793 447 L 797.3935675130193 436.9155285459008" stroke-miterlimit="10"/></g><g transform="translate(-54,-30) scale(1,1)"><path fill="none" stroke="#000000" d="M 711 467 L 602 468" stroke-miterlimit="10"/></g><g transform="translate(-54,-30) scale(1,1)"><path fill="none" stroke="#000000" d="M 612.1236293948183 463.69742776047025 L 602 468 L 612.2008650024119 472.116108988179" stroke-miterlimit="10"/></g></g></svg>