<svg version="1.1" xmlns="http://www.w3.org/2000/svg" xmlns:xlink="http://www.w3.org/1999/xlink" width="708" height="459"><defs/><g><text fill="#eeeeee" stroke="none" font-family="Arial" font-size="24px" font-style="normal" font-weight="normal" text-decoration="none" x="0" y="0">UNREGISTERED</text><text fill="#eeeeee" stroke="none" font-family="Arial" font-size="24px" font-style="normal" font-weight="normal" text-decoration="none" x="0" y="30">UNREGISTERED</text><text fill="#eeeeee" stroke="none" font-family="Arial" font-size="24px" font-style="normal" font-weight="normal" text-decoration="none" x="0" y="60">UNREGISTERED</text><text fill="#eeeeee" stroke="none" font-family="Arial" font-size="24px" font-style="normal" font-weight="normal" text-decoration="none" x="0" y="90">UNREGISTERED</text><text fill="#eeeeee" stroke="none" font-family="Arial" font-size="24px" font-style="normal" font-weight="normal" text-decoration="none" x="0" y="120">UNREGISTERED</text><text fill="#eeeeee" stroke="none" font-family="Arial" font-size="24px" font-style="normal" font-weight="normal" text-decoration="none" x="0" y="150">UNREGISTERED</text><text fill="#eeeeee" stroke="none" font-family="Arial" font-size="24px" font-style="normal" font-weight="normal" text-decoration="none" x="0" y="180">UNREGISTERED</text><text fill="#eeeeee" stroke="none" font-family="Arial" font-size="24px" font-style="normal" font-weight="normal" text-decoration="none" x="0" y="210">UNREGISTERED</text><text fill="#eeeeee" stroke="none" font-family="Arial" font-size="24px" font-style="normal" font-weight="normal" text-decoration="none" x="0" y="240">UNREGISTERED</text><text fill="#eeeeee" stroke="none" font-family="Arial" font-size="24px" font-style="normal" font-weight="normal" text-decoration="none" x="0" y="270">UNREGISTERED</text><text fill="#eeeeee" stroke="none" font-family="Arial" font-size="24px" font-style="normal" font-weight="normal" text-decoration="none" x="0" y="300">UNREGISTERED</text><text fill="#eeeeee" stroke="none" font-family="Arial" font-size="24px" font-style="normal" font-weight="normal" text-decoration="none" x="0" y="330">UNREGISTERED</text><text fill="#eeeeee" stroke="none" font-family="Arial" font-size="24px" font-style="normal" font-weight="normal" text-decoration="none" x="0" y="360">UNREGISTERED</text><text fill="#eeeeee" stroke="none" font-family="Arial" font-size="24px" font-style="normal" font-weight="normal" text-decoration="none" x="0" y="390">UNREGISTERED</text><text fill="#eeeeee" stroke="none" font-family="Arial" font-size="24px" font-style="normal" font-weight="normal" text-decoration="none" x="0" y="420">UNREGISTERED</text><text fill="#eeeeee" stroke="none" font-family="Arial" font-size="24px" font-style="normal" font-weight="normal" text-decoration="none" x="0" y="450">UNREGISTERED</text><text fill="#eeeeee" stroke="none" font-family="Arial" font-size="24px" font-style="normal" font-weight="normal" text-decoration="none" x="200" y="0">UNREGISTERED</text><text fill="#eeeeee" stroke="none" font-family="Arial" font-size="24px" font-style="normal" font-weight="normal" text-decoration="none" x="200" y="30">UNREGISTERED</text><text fill="#eeeeee" stroke="none" font-family="Arial" font-size="24px" font-style="normal" font-weight="normal" text-decoration="none" x="200" y="60">UNREGISTERED</text><text fill="#eeeeee" stroke="none" font-family="Arial" font-size="24px" font-style="normal" font-weight="normal" text-decoration="none" x="200" y="90">UNREGISTERED</text><text fill="#eeeeee" stroke="none" font-family="Arial" font-size="24px" font-style="normal" font-weight="normal" text-decoration="none" x="200" y="120">UNREGISTERED</text><text fill="#eeeeee" stroke="none" font-family="Arial" font-size="24px" font-style="normal" font-weight="normal" text-decoration="none" x="200" y="150">UNREGISTERED</text><text fill="#eeeeee" stroke="none" font-family="Arial" font-size="24px" font-style="normal" font-weight="normal" text-decoration="none" x="200" y="180">UNREGISTERED</text><text fill="#eeeeee" stroke="none" font-family="Arial" font-size="24px" font-style="normal" font-weight="normal" text-decoration="none" x="200" y="210">UNREGISTERED</text><text fill="#eeeeee" stroke="none" font-family="Arial" font-size="24px" font-style="normal" font-weight="normal" text-decoration="none" x="200" y="240">UNREGISTERED</text><text fill="#eeeeee" stroke="none" font-family="Arial" font-size="24px" font-style="normal" font-weight="normal" text-decoration="none" x="200" y="270">UNREGISTERED</text><text fill="#eeeeee" stroke="none" font-family="Arial" font-size="24px" font-style="normal" font-weight="normal" text-decoration="none" x="200" y="300">UNREGISTERED</text><text fill="#eeeeee" stroke="none" font-family="Arial" font-size="24px" font-style="normal" font-weight="normal" text-decoration="none" x="200" y="330">UNREGISTERED</text><text fill="#eeeeee" stroke="none" font-family="Arial" font-size="24px" font-style="normal" font-weight="normal" text-decoration="none" x="200" y="360">UNREGISTERED</text><text fill="#eeeeee" stroke="none" font-family="Arial" font-size="24px" font-style="normal" font-weight="normal" text-decoration="none" x="200" y="390">UNREGISTERED</text><text fill="#eeeeee" stroke="none" font-family="Arial" font-size="24px" font-style="normal" font-weight="normal" text-decoration="none" x="200" y="420">UNREGISTERED</text><text fill="#eeeeee" stroke="none" font-family="Arial" font-size="24px" font-style="normal" font-weight="normal" text-decoration="none" x="200" y="450">UNREGISTERED</text><text fill="#eeeeee" stroke="none" font-family="Arial" font-size="24px" font-style="normal" font-weight="normal" text-decoration="none" x="400" y="0">UNREGISTERED</text><text fill="#eeeeee" stroke="none" font-family="Arial" font-size="24px" font-style="normal" font-weight="normal" text-decoration="none" x="400" y="30">UNREGISTERED</text><text fill="#eeeeee" stroke="none" font-family="Arial" font-size="24px" font-style="normal" font-weight="normal" text-decoration="none" x="400" y="60">UNREGISTERED</text><text fill="#eeeeee" stroke="none" font-family="Arial" font-size="24px" font-style="normal" font-weight="normal" text-decoration="none" x="400" y="90">UNREGISTERED</text><text fill="#eeeeee" stroke="none" font-family="Arial" font-size="24px" font-style="normal" font-weight="normal" text-decoration="none" x="400" y="120">UNREGISTERED</text><text fill="#eeeeee" stroke="none" font-family="Arial" font-size="24px" font-style="normal" font-weight="normal" text-decoration="none" x="400" y="150">UNREGISTERED</text><text fill="#eeeeee" stroke="none" font-family="Arial" font-size="24px" font-style="normal" font-weight="normal" text-decoration="none" x="400" y="180">UNREGISTERED</text><text fill="#eeeeee" stroke="none" font-family="Arial" font-size="24px" font-style="normal" font-weight="normal" text-decoration="none" x="400" y="210">UNREGISTERED</text><text fill="#eeeeee" stroke="none" font-family="Arial" font-size="24px" font-style="normal" font-weight="normal" text-decoration="none" x="400" y="240">UNREGISTERED</text><text fill="#eeeeee" stroke="none" font-family="Arial" font-size="24px" font-style="normal" font-weight="normal" text-decoration="none" x="400" y="270">UNREGISTERED</text><text fill="#eeeeee" stroke="none" font-family="Arial" font-size="24px" font-style="normal" font-weight="normal" text-decoration="none" x="400" y="300">UNREGISTERED</text><text fill="#eeeeee" stroke="none" font-family="Arial" font-size="24px" font-style="normal" font-weight="normal" text-decoration="none" x="400" y="330">UNREGISTERED</text><text fill="#eeeeee" stroke="none" font-family="Arial" font-size="24px" font-style="normal" font-weight="normal" text-decoration="none" x="400" y="360">UNREGISTERED</text><text fill="#eeeeee" stroke="none" font-family="Arial" font-size="24px" font-style="normal" font-weight="normal" text-decoration="none" x="400" y="390">UNREGISTERED</text><text fill="#eeeeee" stroke="none" font-family="Arial" font-size="24px" font-style="normal" font-weight="normal" text-decoration="none" x="400" y="420">UNREGISTERED</text><text fill="#eeeeee" stroke="none" font-family="Arial" font-size="24px" font-style="normal" font-weight="normal" text-decoration="none" x="400" y="450">UNREGISTERED</text><text fill="#eeeeee" stroke="none" font-family="Arial" font-size="24px" font-style="normal" font-weight="normal" text-decoration="none" x="600" y="0">UNREGISTERED</text><text fill="#eeeeee" stroke="none" font-family="Arial" font-size="24px" font-style="normal" font-weight="normal" text-decoration="none" x="600" y="30">UNREGISTERED</text><text fill="#eeeeee" stroke="none" font-family="Arial" font-size="24px" font-style="normal" font-weight="normal" text-decoration="none" x="600" y="60">UNREGISTERED</text><text fill="#eeeeee" stroke="none" font-family="Arial" font-size="24px" font-style="normal" font-weight="normal" text-decoration="none" x="600" y="90">UNREGISTERED</text><text fill="#eeeeee" stroke="none" font-family="Arial" font-size="24px" font-style="normal" font-weight="normal" text-decoration="none" x="600" y="120">UNREGISTERED</text><text fill="#eeeeee" stroke="none" font-family="Arial" font-size="24px" font-style="normal" font-weight="normal" text-decoration="none" x="600" y="150">UNREGISTERED</text><text fill="#eeeeee" stroke="none" font-family="Arial" font-size="24px" font-style="normal" font-weight="normal" text-decoration="none" x="600" y="180">UNREGISTERED</text><text fill="#eeeeee" stroke="none" font-family="Arial" font-size="24px" font-style="normal" font-weight="normal" text-decoration="none" x="600" y="210">UNREGISTERED</text><text fill="#eeeeee" stroke="none" font-family="Arial" font-size="24px" font-style="normal" font-weight="normal" text-decoration="none" x="600" y="240">UNREGISTERED</text><text fill="#eeeeee" stroke="none" font-family="Arial" font-size="24px" font-style="normal" font-weight="normal" text-decoration="none" x="600" y="270">UNREGISTERED</text><text fill="#eeeeee" stroke="none" font-family="Arial" font-size="24px" font-style="normal" font-weight="normal" text-decoration="none" x="600" y="300">UNREGISTERED</text><text fill="#eeeeee" stroke="none" font-family="Arial" font-size="24px" font-style="normal" font-weight="normal" text-decoration="none" x="600" y="330">UNREGISTERED</text><text fill="#eeeeee" stroke="none" font-family="Arial" font-size="24px" font-style="normal" font-weight="normal" text-decoration="none" x="600" y="360">UNREGISTERED</text><text fill="#eeeeee" stroke="none" font-family="Arial" font-size="24px" font-style="normal" font-weight="normal" text-decoration="none" x="600" y="390">UNREGISTERED</text><text fill="#eeeeee" stroke="none" font-family="Arial" font-size="24px" font-style="normal" font-weight="normal" text-decoration="none" x="600" y="420">UNREGISTERED</text><text fill="#eeeeee" stroke="none" font-family="Arial" font-size="24px" font-style="normal" font-weight="normal" text-decoration="none" x="600" y="450">UNREGISTERED</text><g transform="translate(-30,-102) scale(1,1)"><path fill="#C0C0C0" stroke="none" d="M 441 119 L 725 119 Q 735 119 735 129 L 735 381 Q 735 391 725 391 L 441 391 Q 431 391 431 381 L 431 129 Q 431 119 441 119 Z" opacity="0.2"/></g><g transform="translate(-30,-102) scale(1,1)"><path fill="#ffffff" stroke="none" d="M 434 112 L 718 112 Q 728 112 728 122 L 728 374 Q 728 384 718 384 L 434 384 Q 424 384 424 374 L 424 122 Q 424 112 434 112 Z"/></g><g transform="translate(-30,-102) scale(1,1)"><path fill="none" stroke="#000000" d="M 434 112 L 718 112 Q 728 112 728 122 L 728 374 Q 728 384 718 384 L 434 384 Q 424 384 424 374 L 424 122 Q 424 112 434 112 Z" stroke-miterlimit="10"/></g><g transform="translate(-30,-102) scale(1,1)"><g><path fill="none" stroke="none"/><text fill="#000000" stroke="none" font-family="Arial" font-size="13px" font-style="normal" font-weight="bold" text-decoration="none" x="521.08642578125" y="131.5">Actividad a realizar</text></g></g><g transform="translate(-30,-102) scale(1,1)"><path fill="#C0C0C0" stroke="none" d="M 153 231 L 298.076171875 231 Q 308.076171875 231 308.076171875 241 L 308.076171875 260 Q 308.076171875 270 298.076171875 270 L 153 270 Q 143 270 143 260 L 143 241 Q 143 231 153 231 Z" opacity="0.2"/></g><g transform="translate(-30,-102) scale(1,1)"><path fill="#ffffff" stroke="none" d="M 146 224 L 291.076171875 224 Q 301.076171875 224 301.076171875 234 L 301.076171875 253 Q 301.076171875 263 291.076171875 263 L 146 263 Q 136 263 136 253 L 136 234 Q 136 224 146 224 Z"/></g><g transform="translate(-30,-102) scale(1,1)"><path fill="none" stroke="#000000" d="M 146 224 L 291.076171875 224 Q 301.076171875 224 301.076171875 234 L 301.076171875 253 Q 301.076171875 263 291.076171875 263 L 146 263 Q 136 263 136 253 L 136 234 Q 136 224 146 224 Z" stroke-miterlimit="10"/></g><g transform="translate(-30,-102) scale(1,1)"><g><path fill="none" stroke="none"/><text fill="#000000" stroke="none" font-family="Arial" font-size="13px" font-style="normal" font-weight="bold" text-decoration="none" x="145.9208984375" y="243.5">Elegir actividad a realizar</text></g></g><g transform="translate(-30,-102) scale(1,1)"><path fill="#C0C0C0" stroke="none" d="M 47 248.5 C 47 243.2532944 51.2532944 239 56.5 239 C 61.7467056 239 66 243.2532944 66 248.5 C 66 253.7467056 61.7467056 258 56.5 258 C 51.2532944 258 47 253.7467056 47 248.5 Z" opacity="0.2"/></g><g transform="translate(-30,-102) scale(1,1)"><path fill="#000000" stroke="none" d="M 40 241.5 C 40 236.2532944 44.2532944 232 49.5 232 C 54.7467056 232 59 236.2532944 59 241.5 C 59 246.7467056 54.7467056 251 49.5 251 C 44.2532944 251 40 246.7467056 40 241.5 Z"/></g><g transform="translate(-30,-102) scale(1,1)"><path fill="none" stroke="#000000" d="M 60 241 L 135 242" stroke-miterlimit="10"/></g><g transform="translate(-30,-102) scale(1,1)"><path fill="none" stroke="#000000" d="M 124.78210645580283 246.07365333815406 L 135 242 L 124.89435028584398 237.6553660850679" stroke-miterlimit="10"/></g><g transform="translate(-30,-102) scale(1,1)"><path fill="#C0C0C0" stroke="none" d="M 423 254 C 423 250.1340064 426.1340064 247 430 247 C 433.8659936 247 437 250.1340064 437 254 C 437 257.8659936 433.8659936 261 430 261 C 426.1340064 261 423 257.8659936 423 254 Z" opacity="0.2"/></g><g transform="translate(-30,-102) scale(1,1)"><path fill="#ffffff" stroke="none" d="M 416 247 C 416 243.1340064 419.1340064 240 423 240 C 426.8659936 240 430 243.1340064 430 247 C 430 250.8659936 426.8659936 254 423 254 C 419.1340064 254 416 250.8659936 416 247 Z"/></g><g transform="translate(-30,-102) scale(1,1)"><path fill="none" stroke="#000000" d="M 416 247 C 416 243.1340064 419.1340064 240 423 240 C 426.8659936 240 430 243.1340064 430 247 C 430 250.8659936 426.8659936 254 423 254 C 419.1340064 254 416 250.8659936 416 247 Z" stroke-miterlimit="10"/></g><g transform="translate(-30,-102) scale(1,1)"><path fill="#C0C0C0" stroke="none" d="M 513 175 L 682.5908203125 175 Q 692.5908203125 175 692.5908203125 185 L 692.5908203125 204 Q 692.5908203125 214 682.5908203125 214 L 513 214 Q 503 214 503 204 L 503 185 Q 503 175 513 175 Z" opacity="0.2"/></g><g transform="translate(-30,-102) scale(1,1)"><path fill="#ffffff" stroke="none" d="M 506 168 L 675.5908203125 168 Q 685.5908203125 168 685.5908203125 178 L 685.5908203125 197 Q 685.5908203125 207 675.5908203125 207 L 506 207 Q 496 207 496 197 L 496 178 Q 496 168 506 168 Z"/></g><g transform="translate(-30,-102) scale(1,1)"><path fill="none" stroke="#000000" d="M 506 168 L 675.5908203125 168 Q 685.5908203125 168 685.5908203125 178 L 685.5908203125 197 Q 685.5908203125 207 675.5908203125 207 L 506 207 Q 496 207 496 197 L 496 178 Q 496 168 506 168 Z" stroke-miterlimit="10"/></g><g transform="translate(-30,-102) scale(1,1)"><g><path fill="none" stroke="none"/><text fill="#000000" stroke="none" font-family="Arial" font-size="13px" font-style="normal" font-weight="bold" text-decoration="none" x="507.326904296875" y="187.5">Diseño de plantillas o trabajo</text></g></g><g transform="translate(-30,-102) scale(1,1)"><path fill="#C0C0C0" stroke="none" d="M 513 239 L 685.47265625 239 Q 695.47265625 239 695.47265625 249 L 695.47265625 268 Q 695.47265625 278 685.47265625 278 L 513 278 Q 503 278 503 268 L 503 249 Q 503 239 513 239 Z" opacity="0.2"/></g><g transform="translate(-30,-102) scale(1,1)"><path fill="#ffffff" stroke="none" d="M 506 232 L 678.47265625 232 Q 688.47265625 232 688.47265625 242 L 688.47265625 261 Q 688.47265625 271 678.47265625 271 L 506 271 Q 496 271 496 261 L 496 242 Q 496 232 506 232 Z"/></g><g transform="translate(-30,-102) scale(1,1)"><path fill="none" stroke="#000000" d="M 506 232 L 678.47265625 232 Q 688.47265625 232 688.47265625 242 L 688.47265625 261 Q 688.47265625 271 678.47265625 271 L 506 271 Q 496 271 496 261 L 496 242 Q 496 232 506 232 Z" stroke-miterlimit="10"/></g><g transform="translate(-30,-102) scale(1,1)"><g><path fill="none" stroke="none"/><text fill="#000000" stroke="none" font-family="Arial" font-size="13px" font-style="normal" font-weight="bold" text-decoration="none" x="506.603271484375" y="251.5">Mantenimiento de maquinaria</text></g></g><g transform="translate(-30,-102) scale(1,1)"><path fill="#C0C0C0" stroke="none" d="M 513 303 L 703.55712890625 303 Q 713.55712890625 303 713.55712890625 313 L 713.55712890625 332 Q 713.55712890625 342 703.55712890625 342 L 513 342 Q 503 342 503 332 L 503 313 Q 503 303 513 303 Z" opacity="0.2"/></g><g transform="translate(-30,-102) scale(1,1)"><path fill="#ffffff" stroke="none" d="M 506 296 L 696.55712890625 296 Q 706.55712890625 296 706.55712890625 306 L 706.55712890625 325 Q 706.55712890625 335 696.55712890625 335 L 506 335 Q 496 335 496 325 L 496 306 Q 496 296 506 296 Z"/></g><g transform="translate(-30,-102) scale(1,1)"><path fill="none" stroke="#000000" d="M 506 296 L 696.55712890625 296 Q 706.55712890625 296 706.55712890625 306 L 706.55712890625 325 Q 706.55712890625 335 696.55712890625 335 L 506 335 Q 496 335 496 325 L 496 306 Q 496 296 506 296 Z" stroke-miterlimit="10"/></g><g transform="translate(-30,-102) scale(1,1)"><g><path fill="none" stroke="none"/><text fill="#000000" stroke="none" font-family="Arial" font-size="13px" font-style="normal" font-weight="bold" text-decoration="none" x="508.42822265625" y="315.5">Creacion de material publicitario</text></g></g><g transform="translate(-30,-102) scale(1,1)"><path fill="#C0C0C0" stroke="none" d="M 537 439 L 635.8271484375 439 Q 645.8271484375 439 645.8271484375 449 L 645.8271484375 468 Q 645.8271484375 478 635.8271484375 478 L 537 478 Q 527 478 527 468 L 527 449 Q 527 439 537 439 Z" opacity="0.2"/></g><g transform="translate(-30,-102) scale(1,1)"><path fill="#ffffff" stroke="none" d="M 530 432 L 628.8271484375 432 Q 638.8271484375 432 638.8271484375 442 L 638.8271484375 461 Q 638.8271484375 471 628.8271484375 471 L 530 471 Q 520 471 520 461 L 520 442 Q 520 432 530 432 Z"/></g><g transform="translate(-30,-102) scale(1,1)"><path fill="none" stroke="#000000" d="M 530 432 L 628.8271484375 432 Q 638.8271484375 432 638.8271484375 442 L 638.8271484375 461 Q 638.8271484375 471 628.8271484375 471 L 530 471 Q 520 471 520 461 L 520 442 Q 520 432 530 432 Z" stroke-miterlimit="10"/></g><g transform="translate(-30,-102) scale(1,1)"><g><path fill="none" stroke="none"/><text fill="#000000" stroke="none" font-family="Arial" font-size="13px" font-style="normal" font-weight="bold" text-decoration="none" x="528.11181640625" y="451.5">Realizar actividad</text></g></g><g transform="translate(-30,-102) scale(1,1)"><path fill="#C0C0C0" stroke="none" d="M 505 519 L 672.41357421875 519 Q 682.41357421875 519 682.41357421875 529 L 682.41357421875 548 Q 682.41357421875 558 672.41357421875 558 L 505 558 Q 495 558 495 548 L 495 529 Q 495 519 505 519 Z" opacity="0.2"/></g><g transform="translate(-30,-102) scale(1,1)"><path fill="#ffffff" stroke="none" d="M 498 512 L 665.41357421875 512 Q 675.41357421875 512 675.41357421875 522 L 675.41357421875 541 Q 675.41357421875 551 665.41357421875 551 L 498 551 Q 488 551 488 541 L 488 522 Q 488 512 498 512 Z"/></g><g transform="translate(-30,-102) scale(1,1)"><path fill="none" stroke="#000000" d="M 498 512 L 665.41357421875 512 Q 675.41357421875 512 675.41357421875 522 L 675.41357421875 541 Q 675.41357421875 551 665.41357421875 551 L 498 551 Q 488 551 488 541 L 488 522 Q 488 512 498 512 Z" stroke-miterlimit="10"/></g><g transform="translate(-30,-102) scale(1,1)"><g><path fill="none" stroke="none"/><text fill="#000000" stroke="none" font-family="Arial" font-size="13px" font-style="normal" font-weight="bold" text-decoration="none" x="500.04736328125" y="531.5">Logistica produce terminado</text></g></g><g transform="translate(-30,-102) scale(1,1)"><path fill="#C0C0C0" stroke="none" d="M 249 519 L 385.38623046875 519 Q 395.38623046875 519 395.38623046875 529 L 395.38623046875 548 Q 395.38623046875 558 385.38623046875 558 L 249 558 Q 239 558 239 548 L 239 529 Q 239 519 249 519 Z" opacity="0.2"/></g><g transform="translate(-30,-102) scale(1,1)"><path fill="#ffffff" stroke="none" d="M 242 512 L 378.38623046875 512 Q 388.38623046875 512 388.38623046875 522 L 388.38623046875 541 Q 388.38623046875 551 378.38623046875 551 L 242 551 Q 232 551 232 541 L 232 522 Q 232 512 242 512 Z"/></g><g transform="translate(-30,-102) scale(1,1)"><path fill="none" stroke="#000000" d="M 242 512 L 378.38623046875 512 Q 388.38623046875 512 388.38623046875 522 L 388.38623046875 541 Q 388.38623046875 551 378.38623046875 551 L 242 551 Q 232 551 232 541 L 232 522 Q 232 512 242 512 Z" stroke-miterlimit="10"/></g><g transform="translate(-30,-102) scale(1,1)"><g><path fill="none" stroke="none"/><text fill="#000000" stroke="none" font-family="Arial" font-size="13px" font-style="normal" font-weight="bold" text-decoration="none" x="243" y="531.5">Administrar actividades</text></g></g><g transform="translate(-30,-102) scale(1,1)"><path fill="#C0C0C0" stroke="none" d="M 127 539.5 C 127 532.59644 132.59644 527 139.5 527 C 146.40356 527 152 532.59644 152 539.5 C 152 546.40356 146.40356 552 139.5 552 C 132.59644 552 127 546.40356 127 539.5 Z" opacity="0.2"/></g><g transform="translate(-30,-102) scale(1,1)"><path fill="none" stroke="#000000" d="M 120 532.5 C 120 525.59644 125.59644 520 132.5 520 C 139.40356 520 145 525.59644 145 532.5 C 145 539.40356 139.40356 545 132.5 545 C 125.59644 545 120 539.40356 120 532.5 Z" stroke-miterlimit="10"/></g><g transform="translate(-30,-102) scale(1,1)"><path fill="#000000" stroke="none" d="M 125 532.5 C 125 528.357864 128.357864 525 132.5 525 C 136.642136 525 140 528.357864 140 532.5 C 140 536.642136 136.642136 540 132.5 540 C 128.357864 540 125 536.642136 125 532.5 Z"/></g><g transform="translate(-30,-102) scale(1,1)"><path fill="none" stroke="#000000" d="M 231 531 L 146 532" stroke-miterlimit="10"/></g><g transform="translate(-30,-102) scale(1,1)"><path fill="none" stroke="#000000" d="M 156.112451319911 527.6712209224274 L 146 532 L 156.21149194273795 536.0896738627179" stroke-miterlimit="10"/></g><g transform="translate(-30,-102) scale(1,1)"><path fill="none" stroke="#000000" d="M 487 531 L 389 531" stroke-miterlimit="10"/></g><g transform="translate(-30,-102) scale(1,1)"><path fill="none" stroke="#000000" d="M 399.16267485762415 526.790482243984 L 389 531 L 399.16267485762415 535.209517756016" stroke-miterlimit="10"/></g><g transform="translate(-30,-102) scale(1,1)"><path fill="none" stroke="#000000" d="M 580 472 L 581 511" stroke-miterlimit="10"/></g><g transform="translate(-30,-102) scale(1,1)"><path fill="none" stroke="#000000" d="M 576.5313695737947 500.94856517138015 L 581 511 L 584.9476388509854 500.73276339504196" stroke-miterlimit="10"/></g><g transform="translate(-30,-102) scale(1,1)"><path fill="none" stroke="#000000" d="M 302 245 L 415 247" stroke-miterlimit="10"/></g><g transform="translate(-30,-102) scale(1,1)"><path fill="none" stroke="#000000" d="M 404.76442346936005 251.0290163918024 L 415 247 L 404.91340961367536 242.61129923798583" stroke-miterlimit="10"/></g><g transform="translate(-30,-102) scale(1,1)"><path fill="none" stroke="#000000" d="M 431 247 L 495 249" stroke-miterlimit="10"/></g><g transform="translate(-30,-102) scale(1,1)"><path fill="none" stroke="#000000" d="M 484.7108005097193 252.89003519896778 L 495 249 L 484.9737669991969 244.47510753568585" stroke-miterlimit="10"/></g><g transform="translate(-30,-102) scale(1,1)"><path fill="none" stroke="#000000" d="M 430 239 L 480 184 L 495 184" stroke-miterlimit="10"/></g><g transform="translate(-30,-102) scale(1,1)"><path fill="none" stroke="#000000" d="M 484.83732514237585 188.209517756016 L 495 184 L 484.83732514237585 179.790482243984" stroke-miterlimit="10"/></g><g transform="translate(-30,-102) scale(1,1)"><path fill="none" stroke="#000000" d="M 428 255 L 464 312 L 495 313" stroke-miterlimit="10"/></g><g transform="translate(-30,-102) scale(1,1)"><path fill="none" stroke="#000000" d="M 484.70688827168857 316.8796715000754 L 495 313 L 484.9783288709207 308.4650129238797" stroke-miterlimit="10"/></g><g transform="translate(-30,-102) scale(1,1)"><path fill="none" stroke="#000000" d="M 578 385 L 579 431" stroke-miterlimit="10"/></g><g transform="translate(-30,-102) scale(1,1)"><path fill="none" stroke="#000000" d="M 574.570601050423 420.93121531934037 L 579 431 L 582.9876478921751 420.74823604017183" stroke-miterlimit="10"/></g></g></svg>