<svg version="1.1" xmlns="http://www.w3.org/2000/svg" xmlns:xlink="http://www.w3.org/1999/xlink" width="644.85888671875" height="605"><defs/><g><text fill="#eeeeee" stroke="none" font-family="Arial" font-size="24px" font-style="normal" font-weight="normal" text-decoration="none" x="0" y="0">UNREGISTERED</text><text fill="#eeeeee" stroke="none" font-family="Arial" font-size="24px" font-style="normal" font-weight="normal" text-decoration="none" x="0" y="30">UNREGISTERED</text><text fill="#eeeeee" stroke="none" font-family="Arial" font-size="24px" font-style="normal" font-weight="normal" text-decoration="none" x="0" y="60">UNREGISTERED</text><text fill="#eeeeee" stroke="none" font-family="Arial" font-size="24px" font-style="normal" font-weight="normal" text-decoration="none" x="0" y="90">UNREGISTERED</text><text fill="#eeeeee" stroke="none" font-family="Arial" font-size="24px" font-style="normal" font-weight="normal" text-decoration="none" x="0" y="120">UNREGISTERED</text><text fill="#eeeeee" stroke="none" font-family="Arial" font-size="24px" font-style="normal" font-weight="normal" text-decoration="none" x="0" y="150">UNREGISTERED</text><text fill="#eeeeee" stroke="none" font-family="Arial" font-size="24px" font-style="normal" font-weight="normal" text-decoration="none" x="0" y="180">UNREGISTERED</text><text fill="#eeeeee" stroke="none" font-family="Arial" font-size="24px" font-style="normal" font-weight="normal" text-decoration="none" x="0" y="210">UNREGISTERED</text><text fill="#eeeeee" stroke="none" font-family="Arial" font-size="24px" font-style="normal" font-weight="normal" text-decoration="none" x="0" y="240">UNREGISTERED</text><text fill="#eeeeee" stroke="none" font-family="Arial" font-size="24px" font-style="normal" font-weight="normal" text-decoration="none" x="0" y="270">UNREGISTERED</text><text fill="#eeeeee" stroke="none" font-family="Arial" font-size="24px" font-style="normal" font-weight="normal" text-decoration="none" x="0" y="300">UNREGISTERED</text><text fill="#eeeeee" stroke="none" font-family="Arial" font-size="24px" font-style="normal" font-weight="normal" text-decoration="none" x="0" y="330">UNREGISTERED</text><text fill="#eeeeee" stroke="none" font-family="Arial" font-size="24px" font-style="normal" font-weight="normal" text-decoration="none" x="0" y="360">UNREGISTERED</text><text fill="#eeeeee" stroke="none" font-family="Arial" font-size="24px" font-style="normal" font-weight="normal" text-decoration="none" x="0" y="390">UNREGISTERED</text><text fill="#eeeeee" stroke="none" font-family="Arial" font-size="24px" font-style="normal" font-weight="normal" text-decoration="none" x="0" y="420">UNREGISTERED</text><text fill="#eeeeee" stroke="none" font-family="Arial" font-size="24px" font-style="normal" font-weight="normal" text-decoration="none" x="0" y="450">UNREGISTERED</text><text fill="#eeeeee" stroke="none" font-family="Arial" font-size="24px" font-style="normal" font-weight="normal" text-decoration="none" x="0" y="480">UNREGISTERED</text><text fill="#eeeeee" stroke="none" font-family="Arial" font-size="24px" font-style="normal" font-weight="normal" text-decoration="none" x="0" y="510">UNREGISTERED</text><text fill="#eeeeee" stroke="none" font-family="Arial" font-size="24px" font-style="normal" font-weight="normal" text-decoration="none" x="0" y="540">UNREGISTERED</text><text fill="#eeeeee" stroke="none" font-family="Arial" font-size="24px" font-style="normal" font-weight="normal" text-decoration="none" x="0" y="570">UNREGISTERED</text><text fill="#eeeeee" stroke="none" font-family="Arial" font-size="24px" font-style="normal" font-weight="normal" text-decoration="none" x="0" y="600">UNREGISTERED</text><text fill="#eeeeee" stroke="none" font-family="Arial" font-size="24px" font-style="normal" font-weight="normal" text-decoration="none" x="200" y="0">UNREGISTERED</text><text fill="#eeeeee" stroke="none" font-family="Arial" font-size="24px" font-style="normal" font-weight="normal" text-decoration="none" x="200" y="30">UNREGISTERED</text><text fill="#eeeeee" stroke="none" font-family="Arial" font-size="24px" font-style="normal" font-weight="normal" text-decoration="none" x="200" y="60">UNREGISTERED</text><text fill="#eeeeee" stroke="none" font-family="Arial" font-size="24px" font-style="normal" font-weight="normal" text-decoration="none" x="200" y="90">UNREGISTERED</text><text fill="#eeeeee" stroke="none" font-family="Arial" font-size="24px" font-style="normal" font-weight="normal" text-decoration="none" x="200" y="120">UNREGISTERED</text><text fill="#eeeeee" stroke="none" font-family="Arial" font-size="24px" font-style="normal" font-weight="normal" text-decoration="none" x="200" y="150">UNREGISTERED</text><text fill="#eeeeee" stroke="none" font-family="Arial" font-size="24px" font-style="normal" font-weight="normal" text-decoration="none" x="200" y="180">UNREGISTERED</text><text fill="#eeeeee" stroke="none" font-family="Arial" font-size="24px" font-style="normal" font-weight="normal" text-decoration="none" x="200" y="210">UNREGISTERED</text><text fill="#eeeeee" stroke="none" font-family="Arial" font-size="24px" font-style="normal" font-weight="normal" text-decoration="none" x="200" y="240">UNREGISTERED</text><text fill="#eeeeee" stroke="none" font-family="Arial" font-size="24px" font-style="normal" font-weight="normal" text-decoration="none" x="200" y="270">UNREGISTERED</text><text fill="#eeeeee" stroke="none" font-family="Arial" font-size="24px" font-style="normal" font-weight="normal" text-decoration="none" x="200" y="300">UNREGISTERED</text><text fill="#eeeeee" stroke="none" font-family="Arial" font-size="24px" font-style="normal" font-weight="normal" text-decoration="none" x="200" y="330">UNREGISTERED</text><text fill="#eeeeee" stroke="none" font-family="Arial" font-size="24px" font-style="normal" font-weight="normal" text-decoration="none" x="200" y="360">UNREGISTERED</text><text fill="#eeeeee" stroke="none" font-family="Arial" font-size="24px" font-style="normal" font-weight="normal" text-decoration="none" x="200" y="390">UNREGISTERED</text><text fill="#eeeeee" stroke="none" font-family="Arial" font-size="24px" font-style="normal" font-weight="normal" text-decoration="none" x="200" y="420">UNREGISTERED</text><text fill="#eeeeee" stroke="none" font-family="Arial" font-size="24px" font-style="normal" font-weight="normal" text-decoration="none" x="200" y="450">UNREGISTERED</text><text fill="#eeeeee" stroke="none" font-family="Arial" font-size="24px" font-style="normal" font-weight="normal" text-decoration="none" x="200" y="480">UNREGISTERED</text><text fill="#eeeeee" stroke="none" font-family="Arial" font-size="24px" font-style="normal" font-weight="normal" text-decoration="none" x="200" y="510">UNREGISTERED</text><text fill="#eeeeee" stroke="none" font-family="Arial" font-size="24px" font-style="normal" font-weight="normal" text-decoration="none" x="200" y="540">UNREGISTERED</text><text fill="#eeeeee" stroke="none" font-family="Arial" font-size="24px" font-style="normal" font-weight="normal" text-decoration="none" x="200" y="570">UNREGISTERED</text><text fill="#eeeeee" stroke="none" font-family="Arial" font-size="24px" font-style="normal" font-weight="normal" text-decoration="none" x="200" y="600">UNREGISTERED</text><text fill="#eeeeee" stroke="none" font-family="Arial" font-size="24px" font-style="normal" font-weight="normal" text-decoration="none" x="400" y="0">UNREGISTERED</text><text fill="#eeeeee" stroke="none" font-family="Arial" font-size="24px" font-style="normal" font-weight="normal" text-decoration="none" x="400" y="30">UNREGISTERED</text><text fill="#eeeeee" stroke="none" font-family="Arial" font-size="24px" font-style="normal" font-weight="normal" text-decoration="none" x="400" y="60">UNREGISTERED</text><text fill="#eeeeee" stroke="none" font-family="Arial" font-size="24px" font-style="normal" font-weight="normal" text-decoration="none" x="400" y="90">UNREGISTERED</text><text fill="#eeeeee" stroke="none" font-family="Arial" font-size="24px" font-style="normal" font-weight="normal" text-decoration="none" x="400" y="120">UNREGISTERED</text><text fill="#eeeeee" stroke="none" font-family="Arial" font-size="24px" font-style="normal" font-weight="normal" text-decoration="none" x="400" y="150">UNREGISTERED</text><text fill="#eeeeee" stroke="none" font-family="Arial" font-size="24px" font-style="normal" font-weight="normal" text-decoration="none" x="400" y="180">UNREGISTERED</text><text fill="#eeeeee" stroke="none" font-family="Arial" font-size="24px" font-style="normal" font-weight="normal" text-decoration="none" x="400" y="210">UNREGISTERED</text><text fill="#eeeeee" stroke="none" font-family="Arial" font-size="24px" font-style="normal" font-weight="normal" text-decoration="none" x="400" y="240">UNREGISTERED</text><text fill="#eeeeee" stroke="none" font-family="Arial" font-size="24px" font-style="normal" font-weight="normal" text-decoration="none" x="400" y="270">UNREGISTERED</text><text fill="#eeeeee" stroke="none" font-family="Arial" font-size="24px" font-style="normal" font-weight="normal" text-decoration="none" x="400" y="300">UNREGISTERED</text><text fill="#eeeeee" stroke="none" font-family="Arial" font-size="24px" font-style="normal" font-weight="normal" text-decoration="none" x="400" y="330">UNREGISTERED</text><text fill="#eeeeee" stroke="none" font-family="Arial" font-size="24px" font-style="normal" font-weight="normal" text-decoration="none" x="400" y="360">UNREGISTERED</text><text fill="#eeeeee" stroke="none" font-family="Arial" font-size="24px" font-style="normal" font-weight="normal" text-decoration="none" x="400" y="390">UNREGISTERED</text><text fill="#eeeeee" stroke="none" font-family="Arial" font-size="24px" font-style="normal" font-weight="normal" text-decoration="none" x="400" y="420">UNREGISTERED</text><text fill="#eeeeee" stroke="none" font-family="Arial" font-size="24px" font-style="normal" font-weight="normal" text-decoration="none" x="400" y="450">UNREGISTERED</text><text fill="#eeeeee" stroke="none" font-family="Arial" font-size="24px" font-style="normal" font-weight="normal" text-decoration="none" x="400" y="480">UNREGISTERED</text><text fill="#eeeeee" stroke="none" font-family="Arial" font-size="24px" font-style="normal" font-weight="normal" text-decoration="none" x="400" y="510">UNREGISTERED</text><text fill="#eeeeee" stroke="none" font-family="Arial" font-size="24px" font-style="normal" font-weight="normal" text-decoration="none" x="400" y="540">UNREGISTERED</text><text fill="#eeeeee" stroke="none" font-family="Arial" font-size="24px" font-style="normal" font-weight="normal" text-decoration="none" x="400" y="570">UNREGISTERED</text><text fill="#eeeeee" stroke="none" font-family="Arial" font-size="24px" font-style="normal" font-weight="normal" text-decoration="none" x="400" y="600">UNREGISTERED</text><text fill="#eeeeee" stroke="none" font-family="Arial" font-size="24px" font-style="normal" font-weight="normal" text-decoration="none" x="600" y="0">UNREGISTERED</text><text fill="#eeeeee" stroke="none" font-family="Arial" font-size="24px" font-style="normal" font-weight="normal" text-decoration="none" x="600" y="30">UNREGISTERED</text><text fill="#eeeeee" stroke="none" font-family="Arial" font-size="24px" font-style="normal" font-weight="normal" text-decoration="none" x="600" y="60">UNREGISTERED</text><text fill="#eeeeee" stroke="none" font-family="Arial" font-size="24px" font-style="normal" font-weight="normal" text-decoration="none" x="600" y="90">UNREGISTERED</text><text fill="#eeeeee" stroke="none" font-family="Arial" font-size="24px" font-style="normal" font-weight="normal" text-decoration="none" x="600" y="120">UNREGISTERED</text><text fill="#eeeeee" stroke="none" font-family="Arial" font-size="24px" font-style="normal" font-weight="normal" text-decoration="none" x="600" y="150">UNREGISTERED</text><text fill="#eeeeee" stroke="none" font-family="Arial" font-size="24px" font-style="normal" font-weight="normal" text-decoration="none" x="600" y="180">UNREGISTERED</text><text fill="#eeeeee" stroke="none" font-family="Arial" font-size="24px" font-style="normal" font-weight="normal" text-decoration="none" x="600" y="210">UNREGISTERED</text><text fill="#eeeeee" stroke="none" font-family="Arial" font-size="24px" font-style="normal" font-weight="normal" text-decoration="none" x="600" y="240">UNREGISTERED</text><text fill="#eeeeee" stroke="none" font-family="Arial" font-size="24px" font-style="normal" font-weight="normal" text-decoration="none" x="600" y="270">UNREGISTERED</text><text fill="#eeeeee" stroke="none" font-family="Arial" font-size="24px" font-style="normal" font-weight="normal" text-decoration="none" x="600" y="300">UNREGISTERED</text><text fill="#eeeeee" stroke="none" font-family="Arial" font-size="24px" font-style="normal" font-weight="normal" text-decoration="none" x="600" y="330">UNREGISTERED</text><text fill="#eeeeee" stroke="none" font-family="Arial" font-size="24px" font-style="normal" font-weight="normal" text-decoration="none" x="600" y="360">UNREGISTERED</text><text fill="#eeeeee" stroke="none" font-family="Arial" font-size="24px" font-style="normal" font-weight="normal" text-decoration="none" x="600" y="390">UNREGISTERED</text><text fill="#eeeeee" stroke="none" font-family="Arial" font-size="24px" font-style="normal" font-weight="normal" text-decoration="none" x="600" y="420">UNREGISTERED</text><text fill="#eeeeee" stroke="none" font-family="Arial" font-size="24px" font-style="normal" font-weight="normal" text-decoration="none" x="600" y="450">UNREGISTERED</text><text fill="#eeeeee" stroke="none" font-family="Arial" font-size="24px" font-style="normal" font-weight="normal" text-decoration="none" x="600" y="480">UNREGISTERED</text><text fill="#eeeeee" stroke="none" font-family="Arial" font-size="24px" font-style="normal" font-weight="normal" text-decoration="none" x="600" y="510">UNREGISTERED</text><text fill="#eeeeee" stroke="none" font-family="Arial" font-size="24px" font-style="normal" font-weight="normal" text-decoration="none" x="600" y="540">UNREGISTERED</text><text fill="#eeeeee" stroke="none" font-family="Arial" font-size="24px" font-style="normal" font-weight="normal" text-decoration="none" x="600" y="570">UNREGISTERED</text><text fill="#eeeeee" stroke="none" font-family="Arial" font-size="24px" font-style="normal" font-weight="normal" text-decoration="none" x="600" y="600">UNREGISTERED</text><g transform="translate(-86,-14) scale(1,1)"><path fill="#C0C0C0" stroke="none" d="M 263 40.5 C 263 35.2532944 267.2532944 31 272.5 31 C 277.7467056 31 282 35.2532944 282 40.5 C 282 45.7467056 277.7467056 50 272.5 50 C 267.2532944 50 263 45.7467056 263 40.5 Z" opacity="0.2"/></g><g transform="translate(-86,-14) scale(1,1)"><path fill="#000000" stroke="none" d="M 256 33.5 C 256 28.2532944 260.2532944 24 265.5 24 C 270.7467056 24 275 28.2532944 275 33.5 C 275 38.7467056 270.7467056 43 265.5 43 C 260.2532944 43 256 38.7467056 256 33.5 Z"/></g><g transform="translate(-86,-14) scale(1,1)"><path fill="#C0C0C0" stroke="none" d="M 225 111 L 320.91357421875 111 Q 330.91357421875 111 330.91357421875 121 L 330.91357421875 140 Q 330.91357421875 150 320.91357421875 150 L 225 150 Q 215 150 215 140 L 215 121 Q 215 111 225 111 Z" opacity="0.2"/></g><g transform="translate(-86,-14) scale(1,1)"><path fill="#ffffff" stroke="none" d="M 218 104 L 313.91357421875 104 Q 323.91357421875 104 323.91357421875 114 L 323.91357421875 133 Q 323.91357421875 143 313.91357421875 143 L 218 143 Q 208 143 208 133 L 208 114 Q 208 104 218 104 Z"/></g><g transform="translate(-86,-14) scale(1,1)"><path fill="none" stroke="#000000" d="M 218 104 L 313.91357421875 104 Q 323.91357421875 104 323.91357421875 114 L 323.91357421875 133 Q 323.91357421875 143 313.91357421875 143 L 218 143 Q 208 143 208 133 L 208 114 Q 208 104 218 104 Z" stroke-miterlimit="10"/></g><g transform="translate(-86,-14) scale(1,1)"><g><path fill="none" stroke="none"/><text fill="#000000" stroke="none" font-family="Arial" font-size="13px" font-style="normal" font-weight="bold" text-decoration="none" x="216.08642578125" y="123.5">Pedido de cliente</text></g></g><g transform="translate(-86,-14) scale(1,1)"><path fill="#C0C0C0" stroke="none" d="M 271 224.5 L 282.5 215 L 293 224.5 L 282.5 233 L 271 224.5" opacity="0.2"/></g><g transform="translate(-86,-14) scale(1,1)"><path fill="#ffffff" stroke="none" d="M 264 217 L 275 208 L 286 217 L 275 226 L 264 217"/></g><g transform="translate(-86,-14) scale(1,1)"><path fill="none" stroke="#000000" d="M 264 217 L 275 208 L 286 217 L 275 226 L 264 217 L 264 217" stroke-miterlimit="10"/></g><g transform="translate(-86,-14) scale(1,1)"><path fill="#C0C0C0" stroke="none" d="M 241 295 L 309 295 Q 319 295 319 305 L 319 324 Q 319 334 309 334 L 241 334 Q 231 334 231 324 L 231 305 Q 231 295 241 295 Z" opacity="0.2"/></g><g transform="translate(-86,-14) scale(1,1)"><path fill="#ffffff" stroke="none" d="M 234 288 L 302 288 Q 312 288 312 298 L 312 317 Q 312 327 302 327 L 234 327 Q 224 327 224 317 L 224 298 Q 224 288 234 288 Z"/></g><g transform="translate(-86,-14) scale(1,1)"><path fill="none" stroke="#000000" d="M 234 288 L 302 288 Q 312 288 312 298 L 312 317 Q 312 327 302 327 L 234 327 Q 224 327 224 317 L 224 298 Q 224 288 234 288 Z" stroke-miterlimit="10"/></g><g transform="translate(-86,-14) scale(1,1)"><g><path fill="none" stroke="none"/><text fill="#000000" stroke="none" font-family="Arial" font-size="15px" font-style="normal" font-weight="bold" text-decoration="none" x="237.5751953125" y="309.5">Registrar</text></g></g><g transform="translate(-86,-14) scale(1,1)"><path fill="#C0C0C0" stroke="none" d="M 169 391 L 224 391 Q 234 391 234 401 L 234 420 Q 234 430 224 430 L 169 430 Q 159 430 159 420 L 159 401 Q 159 391 169 391 Z" opacity="0.2"/></g><g transform="translate(-86,-14) scale(1,1)"><path fill="#ffffff" stroke="none" d="M 162 384 L 217 384 Q 227 384 227 394 L 227 413 Q 227 423 217 423 L 162 423 Q 152 423 152 413 L 152 394 Q 152 384 162 384 Z"/></g><g transform="translate(-86,-14) scale(1,1)"><path fill="none" stroke="#000000" d="M 162 384 L 217 384 Q 227 384 227 394 L 227 413 Q 227 423 217 423 L 162 423 Q 152 423 152 413 L 152 394 Q 152 384 162 384 Z" stroke-miterlimit="10"/></g><g transform="translate(-86,-14) scale(1,1)"><g><path fill="none" stroke="none"/><text fill="#000000" stroke="none" font-family="Arial" font-size="15px" font-style="normal" font-weight="bold" text-decoration="none" x="166.564208984375" y="405.5">Ventas</text></g></g><g transform="translate(-86,-14) scale(1,1)"><path fill="#C0C0C0" stroke="none" d="M 345 391 L 397 391 Q 407 391 407 401 L 407 420 Q 407 430 397 430 L 345 430 Q 335 430 335 420 L 335 401 Q 335 391 345 391 Z" opacity="0.2"/></g><g transform="translate(-86,-14) scale(1,1)"><path fill="#ffffff" stroke="none" d="M 338 384 L 390 384 Q 400 384 400 394 L 400 413 Q 400 423 390 423 L 338 423 Q 328 423 328 413 L 328 394 Q 328 384 338 384 Z"/></g><g transform="translate(-86,-14) scale(1,1)"><path fill="none" stroke="#000000" d="M 338 384 L 390 384 Q 400 384 400 394 L 400 413 Q 400 423 390 423 L 338 423 Q 328 423 328 413 L 328 394 Q 328 384 338 384 Z" stroke-miterlimit="10"/></g><g transform="translate(-86,-14) scale(1,1)"><g><path fill="none" stroke="none"/><text fill="#000000" stroke="none" font-family="Arial" font-size="15px" font-style="normal" font-weight="bold" text-decoration="none" x="346.484130859375" y="405.5">Pago</text></g></g><g transform="translate(-86,-14) scale(1,1)"><path fill="#C0C0C0" stroke="none" d="M 217 487 L 325.919921875 487 Q 335.919921875 487 335.919921875 497 L 335.919921875 516 Q 335.919921875 526 325.919921875 526 L 217 526 Q 207 526 207 516 L 207 497 Q 207 487 217 487 Z" opacity="0.2"/></g><g transform="translate(-86,-14) scale(1,1)"><path fill="#ffffff" stroke="none" d="M 210 480 L 318.919921875 480 Q 328.919921875 480 328.919921875 490 L 328.919921875 509 Q 328.919921875 519 318.919921875 519 L 210 519 Q 200 519 200 509 L 200 490 Q 200 480 210 480 Z"/></g><g transform="translate(-86,-14) scale(1,1)"><path fill="none" stroke="#000000" d="M 210 480 L 318.919921875 480 Q 328.919921875 480 328.919921875 490 L 328.919921875 509 Q 328.919921875 519 318.919921875 519 L 210 519 Q 200 519 200 509 L 200 490 Q 200 480 210 480 Z" stroke-miterlimit="10"/></g><g transform="translate(-86,-14) scale(1,1)"><g><path fill="none" stroke="none"/><text fill="#000000" stroke="none" font-family="Arial" font-size="13px" font-style="normal" font-weight="bold" text-decoration="none" x="209.17822265625" y="499.5">Stock de inventario</text></g></g><g transform="translate(-86,-14) scale(1,1)"><path fill="#C0C0C0" stroke="none" d="M 255 603.5 C 255 596.59644 260.59644 591 267.5 591 C 274.40356 591 280 596.59644 280 603.5 C 280 610.40356 274.40356 616 267.5 616 C 260.59644 616 255 610.40356 255 603.5 Z" opacity="0.2"/></g><g transform="translate(-86,-14) scale(1,1)"><path fill="none" stroke="#000000" d="M 248 596.5 C 248 589.59644 253.59644 584 260.5 584 C 267.40356 584 273 589.59644 273 596.5 C 273 603.40356 267.40356 609 260.5 609 C 253.59644 609 248 603.40356 248 596.5 Z" stroke-miterlimit="10"/></g><g transform="translate(-86,-14) scale(1,1)"><path fill="#000000" stroke="none" d="M 253 596.5 C 253 592.357864 256.357864 589 260.5 589 C 264.642136 589 268 592.357864 268 596.5 C 268 600.642136 264.642136 604 260.5 604 C 256.357864 604 253 600.642136 253 596.5 Z"/></g><g transform="translate(-86,-14) scale(1,1)"><path fill="#C0C0C0" stroke="none" d="M 489 247 L 717.85888671875 247 Q 727.85888671875 247 727.85888671875 257 L 727.85888671875 276 Q 727.85888671875 286 717.85888671875 286 L 489 286 Q 479 286 479 276 L 479 257 Q 479 247 489 247 Z" opacity="0.2"/></g><g transform="translate(-86,-14) scale(1,1)"><path fill="#ffffff" stroke="none" d="M 482 240 L 710.85888671875 240 Q 720.85888671875 240 720.85888671875 250 L 720.85888671875 269 Q 720.85888671875 279 710.85888671875 279 L 482 279 Q 472 279 472 269 L 472 250 Q 472 240 482 240 Z"/></g><g transform="translate(-86,-14) scale(1,1)"><path fill="none" stroke="#000000" d="M 482 240 L 710.85888671875 240 Q 720.85888671875 240 720.85888671875 250 L 720.85888671875 269 Q 720.85888671875 279 710.85888671875 279 L 482 279 Q 472 279 472 269 L 472 250 Q 472 240 482 240 Z" stroke-miterlimit="10"/></g><g transform="translate(-86,-14) scale(1,1)"><g><path fill="none" stroke="none"/><text fill="#000000" stroke="none" font-family="Arial" font-size="13px" font-style="normal" font-weight="bold" text-decoration="none" x="484.0537109375" y="259.5">Enumeración de demandas de clientes</text></g></g><g transform="translate(-86,-14) scale(1,1)"><path fill="none" stroke="#000000" d="M 265 44 L 265 103" stroke-miterlimit="10"/></g><g transform="translate(-86,-14) scale(1,1)"><path fill="none" stroke="#000000" d="M 260.790482243984 92.83732514237585 L 265 103 L 269.209517756016 92.83732514237585" stroke-miterlimit="10"/></g><g transform="translate(-86,-14) scale(1,1)"><path fill="none" stroke="#000000" d="M 267 144 L 274 207" stroke-miterlimit="10"/></g><g transform="translate(-86,-14) scale(1,1)"><path fill="none" stroke="#000000" d="M 268.693949077946 197.36434622806684 L 274 207 L 277.06149153499416 196.4346192883948" stroke-miterlimit="10"/></g><g transform="translate(-86,-14) scale(1,1)"><path fill="none" stroke="#000000" d="M 251 328 L 205 383" stroke-miterlimit="10"/></g><g transform="translate(-86,-14) scale(1,1)"><path fill="none" stroke="#000000" d="M 208.29089320067325 372.50380916990537 L 205 383 L 214.74894061094471 377.90508518576877" stroke-miterlimit="10"/></g><g transform="translate(-86,-14) scale(1,1)"><path fill="none" stroke="#000000" d="M 289 328 L 344 383" stroke-miterlimit="10"/></g><g transform="translate(-86,-14) scale(1,1)"><path fill="none" stroke="#000000" d="M 333.83732514237585 378.790482243984 L 344 383 L 339.790482243984 372.83732514237585" stroke-miterlimit="10"/></g><g transform="translate(-86,-14) scale(1,1)"><path fill="none" stroke="#000000" d="M 205 424 L 248 479" stroke-miterlimit="10"/></g><g transform="translate(-86,-14) scale(1,1)"><path fill="none" stroke="#000000" d="M 238.42429706288235 473.5865063720296 L 248 479 L 245.0568735727842 468.4010374642881" stroke-miterlimit="10"/></g><g transform="translate(-86,-14) scale(1,1)"><path fill="none" stroke="#000000" d="M 342 424 L 285 479" stroke-miterlimit="10"/></g><g transform="translate(-86,-14) scale(1,1)"><path fill="none" stroke="#000000" d="M 289.3902941654267 468.91410305718824 L 285 479 L 295.23621289838786 474.9726006531661" stroke-miterlimit="10"/></g><g transform="translate(-86,-14) scale(1,1)"><path fill="none" stroke="#000000" d="M 263 520 L 261 583" stroke-miterlimit="10"/></g><g transform="translate(-86,-14) scale(1,1)"><path fill="none" stroke="#000000" d="M 257.11506398936774 572.7088741046816 L 261 583 L 265.52986030903025 572.976010495782" stroke-miterlimit="10"/></g><g transform="translate(-86,-14) scale(1,1)"><path fill="none" stroke="#000000" d="M 287 217 L 592 216 L 594 239" stroke-miterlimit="10"/></g><g transform="translate(-86,-14) scale(1,1)"><path fill="none" stroke="#000000" d="M 588.9259189305699 229.24019973048368 L 594 239 L 597.313303821117 228.51086191391437" stroke-miterlimit="10"/></g><g transform="translate(-86,-14) scale(1,1)"><g><path fill="none" stroke="none"/><text fill="#000000" stroke="none" font-family="Arial" font-size="13px" font-style="normal" font-weight="normal" text-decoration="none" x="351.5" y="211.5">Tiene trabajos pendientes</text></g></g><g transform="translate(-86,-14) scale(1,1)"><path fill="none" stroke="#000000" d="M 594 280 L 592 304 L 313 307" stroke-miterlimit="10"/></g><g transform="translate(-86,-14) scale(1,1)"><path fill="none" stroke="#000000" d="M 323.11682638747754 302.68145581872346 L 313 307 L 323.20734841810673 311.100004667238" stroke-miterlimit="10"/></g><g transform="translate(-86,-14) scale(1,1)"><path fill="none" stroke="#000000" d="M 274 227 L 270 287" stroke-miterlimit="10"/></g><g transform="translate(-86,-14) scale(1,1)"><path fill="none" stroke="#000000" d="M 266.4758167371174 276.5798209070276 L 270 287 L 274.8762054144906 277.13984681885256" stroke-miterlimit="10"/></g><g transform="translate(-86,-14) scale(1,1)"><g><path fill="none" stroke="none"/><text fill="#000000" stroke="none" font-family="Arial" font-size="13px" font-style="normal" font-weight="normal" text-decoration="none" x="95.5" y="250.5">No tiene trabajos pendientes</text></g></g></g></svg>