<svg version="1.1" xmlns="http://www.w3.org/2000/svg" xmlns:xlink="http://www.w3.org/1999/xlink" width="588.85888671875" height="565"><defs/><g><text fill="#eeeeee" stroke="none" font-family="Arial" font-size="24px" font-style="normal" font-weight="normal" text-decoration="none" x="0" y="0">UNREGISTERED</text><text fill="#eeeeee" stroke="none" font-family="Arial" font-size="24px" font-style="normal" font-weight="normal" text-decoration="none" x="0" y="30">UNREGISTERED</text><text fill="#eeeeee" stroke="none" font-family="Arial" font-size="24px" font-style="normal" font-weight="normal" text-decoration="none" x="0" y="60">UNREGISTERED</text><text fill="#eeeeee" stroke="none" font-family="Arial" font-size="24px" font-style="normal" font-weight="normal" text-decoration="none" x="0" y="90">UNREGISTERED</text><text fill="#eeeeee" stroke="none" font-family="Arial" font-size="24px" font-style="normal" font-weight="normal" text-decoration="none" x="0" y="120">UNREGISTERED</text><text fill="#eeeeee" stroke="none" font-family="Arial" font-size="24px" font-style="normal" font-weight="normal" text-decoration="none" x="0" y="150">UNREGISTERED</text><text fill="#eeeeee" stroke="none" font-family="Arial" font-size="24px" font-style="normal" font-weight="normal" text-decoration="none" x="0" y="180">UNREGISTERED</text><text fill="#eeeeee" stroke="none" font-family="Arial" font-size="24px" font-style="normal" font-weight="normal" text-decoration="none" x="0" y="210">UNREGISTERED</text><text fill="#eeeeee" stroke="none" font-family="Arial" font-size="24px" font-style="normal" font-weight="normal" text-decoration="none" x="0" y="240">UNREGISTERED</text><text fill="#eeeeee" stroke="none" font-family="Arial" font-size="24px" font-style="normal" font-weight="normal" text-decoration="none" x="0" y="270">UNREGISTERED</text><text fill="#eeeeee" stroke="none" font-family="Arial" font-size="24px" font-style="normal" font-weight="normal" text-decoration="none" x="0" y="300">UNREGISTERED</text><text fill="#eeeeee" stroke="none" font-family="Arial" font-size="24px" font-style="normal" font-weight="normal" text-decoration="none" x="0" y="330">UNREGISTERED</text><text fill="#eeeeee" stroke="none" font-family="Arial" font-size="24px" font-style="normal" font-weight="normal" text-decoration="none" x="0" y="360">UNREGISTERED</text><text fill="#eeeeee" stroke="none" font-family="Arial" font-size="24px" font-style="normal" font-weight="normal" text-decoration="none" x="0" y="390">UNREGISTERED</text><text fill="#eeeeee" stroke="none" font-family="Arial" font-size="24px" font-style="normal" font-weight="normal" text-decoration="none" x="0" y="420">UNREGISTERED</text><text fill="#eeeeee" stroke="none" font-family="Arial" font-size="24px" font-style="normal" font-weight="normal" text-decoration="none" x="0" y="450">UNREGISTERED</text><text fill="#eeeeee" stroke="none" font-family="Arial" font-size="24px" font-style="normal" font-weight="normal" text-decoration="none" x="0" y="480">UNREGISTERED</text><text fill="#eeeeee" stroke="none" font-family="Arial" font-size="24px" font-style="normal" font-weight="normal" text-decoration="none" x="0" y="510">UNREGISTERED</text><text fill="#eeeeee" stroke="none" font-family="Arial" font-size="24px" font-style="normal" font-weight="normal" text-decoration="none" x="0" y="540">UNREGISTERED</text><text fill="#eeeeee" stroke="none" font-family="Arial" font-size="24px" font-style="normal" font-weight="normal" text-decoration="none" x="200" y="0">UNREGISTERED</text><text fill="#eeeeee" stroke="none" font-family="Arial" font-size="24px" font-style="normal" font-weight="normal" text-decoration="none" x="200" y="30">UNREGISTERED</text><text fill="#eeeeee" stroke="none" font-family="Arial" font-size="24px" font-style="normal" font-weight="normal" text-decoration="none" x="200" y="60">UNREGISTERED</text><text fill="#eeeeee" stroke="none" font-family="Arial" font-size="24px" font-style="normal" font-weight="normal" text-decoration="none" x="200" y="90">UNREGISTERED</text><text fill="#eeeeee" stroke="none" font-family="Arial" font-size="24px" font-style="normal" font-weight="normal" text-decoration="none" x="200" y="120">UNREGISTERED</text><text fill="#eeeeee" stroke="none" font-family="Arial" font-size="24px" font-style="normal" font-weight="normal" text-decoration="none" x="200" y="150">UNREGISTERED</text><text fill="#eeeeee" stroke="none" font-family="Arial" font-size="24px" font-style="normal" font-weight="normal" text-decoration="none" x="200" y="180">UNREGISTERED</text><text fill="#eeeeee" stroke="none" font-family="Arial" font-size="24px" font-style="normal" font-weight="normal" text-decoration="none" x="200" y="210">UNREGISTERED</text><text fill="#eeeeee" stroke="none" font-family="Arial" font-size="24px" font-style="normal" font-weight="normal" text-decoration="none" x="200" y="240">UNREGISTERED</text><text fill="#eeeeee" stroke="none" font-family="Arial" font-size="24px" font-style="normal" font-weight="normal" text-decoration="none" x="200" y="270">UNREGISTERED</text><text fill="#eeeeee" stroke="none" font-family="Arial" font-size="24px" font-style="normal" font-weight="normal" text-decoration="none" x="200" y="300">UNREGISTERED</text><text fill="#eeeeee" stroke="none" font-family="Arial" font-size="24px" font-style="normal" font-weight="normal" text-decoration="none" x="200" y="330">UNREGISTERED</text><text fill="#eeeeee" stroke="none" font-family="Arial" font-size="24px" font-style="normal" font-weight="normal" text-decoration="none" x="200" y="360">UNREGISTERED</text><text fill="#eeeeee" stroke="none" font-family="Arial" font-size="24px" font-style="normal" font-weight="normal" text-decoration="none" x="200" y="390">UNREGISTERED</text><text fill="#eeeeee" stroke="none" font-family="Arial" font-size="24px" font-style="normal" font-weight="normal" text-decoration="none" x="200" y="420">UNREGISTERED</text><text fill="#eeeeee" stroke="none" font-family="Arial" font-size="24px" font-style="normal" font-weight="normal" text-decoration="none" x="200" y="450">UNREGISTERED</text><text fill="#eeeeee" stroke="none" font-family="Arial" font-size="24px" font-style="normal" font-weight="normal" text-decoration="none" x="200" y="480">UNREGISTERED</text><text fill="#eeeeee" stroke="none" font-family="Arial" font-size="24px" font-style="normal" font-weight="normal" text-decoration="none" x="200" y="510">UNREGISTERED</text><text fill="#eeeeee" stroke="none" font-family="Arial" font-size="24px" font-style="normal" font-weight="normal" text-decoration="none" x="200" y="540">UNREGISTERED</text><text fill="#eeeeee" stroke="none" font-family="Arial" font-size="24px" font-style="normal" font-weight="normal" text-decoration="none" x="400" y="0">UNREGISTERED</text><text fill="#eeeeee" stroke="none" font-family="Arial" font-size="24px" font-style="normal" font-weight="normal" text-decoration="none" x="400" y="30">UNREGISTERED</text><text fill="#eeeeee" stroke="none" font-family="Arial" font-size="24px" font-style="normal" font-weight="normal" text-decoration="none" x="400" y="60">UNREGISTERED</text><text fill="#eeeeee" stroke="none" font-family="Arial" font-size="24px" font-style="normal" font-weight="normal" text-decoration="none" x="400" y="90">UNREGISTERED</text><text fill="#eeeeee" stroke="none" font-family="Arial" font-size="24px" font-style="normal" font-weight="normal" text-decoration="none" x="400" y="120">UNREGISTERED</text><text fill="#eeeeee" stroke="none" font-family="Arial" font-size="24px" font-style="normal" font-weight="normal" text-decoration="none" x="400" y="150">UNREGISTERED</text><text fill="#eeeeee" stroke="none" font-family="Arial" font-size="24px" font-style="normal" font-weight="normal" text-decoration="none" x="400" y="180">UNREGISTERED</text><text fill="#eeeeee" stroke="none" font-family="Arial" font-size="24px" font-style="normal" font-weight="normal" text-decoration="none" x="400" y="210">UNREGISTERED</text><text fill="#eeeeee" stroke="none" font-family="Arial" font-size="24px" font-style="normal" font-weight="normal" text-decoration="none" x="400" y="240">UNREGISTERED</text><text fill="#eeeeee" stroke="none" font-family="Arial" font-size="24px" font-style="normal" font-weight="normal" text-decoration="none" x="400" y="270">UNREGISTERED</text><text fill="#eeeeee" stroke="none" font-family="Arial" font-size="24px" font-style="normal" font-weight="normal" text-decoration="none" x="400" y="300">UNREGISTERED</text><text fill="#eeeeee" stroke="none" font-family="Arial" font-size="24px" font-style="normal" font-weight="normal" text-decoration="none" x="400" y="330">UNREGISTERED</text><text fill="#eeeeee" stroke="none" font-family="Arial" font-size="24px" font-style="normal" font-weight="normal" text-decoration="none" x="400" y="360">UNREGISTERED</text><text fill="#eeeeee" stroke="none" font-family="Arial" font-size="24px" font-style="normal" font-weight="normal" text-decoration="none" x="400" y="390">UNREGISTERED</text><text fill="#eeeeee" stroke="none" font-family="Arial" font-size="24px" font-style="normal" font-weight="normal" text-decoration="none" x="400" y="420">UNREGISTERED</text><text fill="#eeeeee" stroke="none" font-family="Arial" font-size="24px" font-style="normal" font-weight="normal" text-decoration="none" x="400" y="450">UNREGISTERED</text><text fill="#eeeeee" stroke="none" font-family="Arial" font-size="24px" font-style="normal" font-weight="normal" text-decoration="none" x="400" y="480">UNREGISTERED</text><text fill="#eeeeee" stroke="none" font-family="Arial" font-size="24px" font-style="normal" font-weight="normal" text-decoration="none" x="400" y="510">UNREGISTERED</text><text fill="#eeeeee" stroke="none" font-family="Arial" font-size="24px" font-style="normal" font-weight="normal" text-decoration="none" x="400" y="540">UNREGISTERED</text><g transform="translate(-62,-46) scale(1,1)"><path fill="#C0C0C0" stroke="none" d="M 255 72.5 C 255 67.2532944 259.2532944 63 264.5 63 C 269.7467056 63 274 67.2532944 274 72.5 C 274 77.7467056 269.7467056 82 264.5 82 C 259.2532944 82 255 77.7467056 255 72.5 Z" opacity="0.2"/></g><g transform="translate(-62,-46) scale(1,1)"><path fill="#000000" stroke="none" d="M 248 65.5 C 248 60.2532944 252.2532944 56 257.5 56 C 262.7467056 56 267 60.2532944 267 65.5 C 267 70.7467056 262.7467056 75 257.5 75 C 252.2532944 75 248 70.7467056 248 65.5 Z"/></g><g transform="translate(-62,-46) scale(1,1)"><path fill="#C0C0C0" stroke="none" d="M 217 119 L 312.91357421875 119 Q 322.91357421875 119 322.91357421875 129 L 322.91357421875 149 Q 322.91357421875 159 312.91357421875 159 L 217 159 Q 207 159 207 149 L 207 129 Q 207 119 217 119 Z" opacity="0.2"/></g><g transform="translate(-62,-46) scale(1,1)"><path fill="#ffffff" stroke="none" d="M 210 112 L 305.91357421875 112 Q 315.91357421875 112 315.91357421875 122 L 315.91357421875 142 Q 315.91357421875 152 305.91357421875 152 L 210 152 Q 200 152 200 142 L 200 122 Q 200 112 210 112 Z"/></g><g transform="translate(-62,-46) scale(1,1)"><path fill="none" stroke="#000000" d="M 210 112 L 305.91357421875 112 Q 315.91357421875 112 315.91357421875 122 L 315.91357421875 142 Q 315.91357421875 152 305.91357421875 152 L 210 152 Q 200 152 200 142 L 200 122 Q 200 112 210 112 Z" stroke-miterlimit="10"/></g><g transform="translate(-62,-46) scale(1,1)"><g><path fill="none" stroke="none"/><text fill="#000000" stroke="none" font-family="Arial" font-size="13px" font-style="normal" font-weight="bold" text-decoration="none" x="208.08642578125" y="131.5">Pedido de cliente</text></g></g><g transform="translate(-62,-46) scale(1,1)"><path fill="#C0C0C0" stroke="none" d="M 255 216.5 L 266.5 207 L 277 216.5 L 266.5 225 L 255 216.5" opacity="0.2"/></g><g transform="translate(-62,-46) scale(1,1)"><path fill="#ffffff" stroke="none" d="M 248 209 L 259 200 L 270 209 L 259 218 L 248 209"/></g><g transform="translate(-62,-46) scale(1,1)"><path fill="none" stroke="#000000" d="M 248 209 L 259 200 L 270 209 L 259 218 L 248 209 L 248 209" stroke-miterlimit="10"/></g><g transform="translate(-62,-46) scale(1,1)"><path fill="#C0C0C0" stroke="none" d="M 409 199 L 637.85888671875 199 Q 647.85888671875 199 647.85888671875 209 L 647.85888671875 229 Q 647.85888671875 239 637.85888671875 239 L 409 239 Q 399 239 399 229 L 399 209 Q 399 199 409 199 Z" opacity="0.2"/></g><g transform="translate(-62,-46) scale(1,1)"><path fill="#ffffff" stroke="none" d="M 402 192 L 630.85888671875 192 Q 640.85888671875 192 640.85888671875 202 L 640.85888671875 222 Q 640.85888671875 232 630.85888671875 232 L 402 232 Q 392 232 392 222 L 392 202 Q 392 192 402 192 Z"/></g><g transform="translate(-62,-46) scale(1,1)"><path fill="none" stroke="#000000" d="M 402 192 L 630.85888671875 192 Q 640.85888671875 192 640.85888671875 202 L 640.85888671875 222 Q 640.85888671875 232 630.85888671875 232 L 402 232 Q 392 232 392 222 L 392 202 Q 392 192 402 192 Z" stroke-miterlimit="10"/></g><g transform="translate(-62,-46) scale(1,1)"><g><path fill="none" stroke="none"/><text fill="#000000" stroke="none" font-family="Arial" font-size="13px" font-style="normal" font-weight="bold" text-decoration="none" x="404.0537109375" y="211.5">Enumeración de demandes de clientes</text></g></g><g transform="translate(-62,-46) scale(1,1)"><path fill="none" stroke="#000000" d="M 257 76 L 257 111" stroke-miterlimit="10"/></g><g transform="translate(-62,-46) scale(1,1)"><path fill="none" stroke="#000000" d="M 252.790482243984 100.83732514237585 L 257 111 L 261.209517756016 100.83732514237585" stroke-miterlimit="10"/></g><g transform="translate(-62,-46) scale(1,1)"><path fill="none" stroke="#000000" d="M 258 153 L 259 199" stroke-miterlimit="10"/></g><g transform="translate(-62,-46) scale(1,1)"><path fill="none" stroke="#000000" d="M 254.57060105042297 188.9312153193404 L 259 199 L 262.9876478921751 188.74823604017186" stroke-miterlimit="10"/></g><g transform="translate(-62,-46) scale(1,1)"><path fill="none" stroke="#000000" d="M 271 209 L 391 211" stroke-miterlimit="10"/></g><g transform="translate(-62,-46) scale(1,1)"><path fill="none" stroke="#000000" d="M 380.7685874439617 215.0395788280638 L 391 211 L 380.9088852180466 206.62171238296966" stroke-miterlimit="10"/></g><g transform="translate(-62,-46) scale(1,1)"><g><path fill="none" stroke="none"/><text fill="#000000" stroke="none" font-family="Arial" font-size="13px" font-style="normal" font-weight="normal" text-decoration="none" x="295.5" y="201.5">almacenado</text></g></g><g transform="translate(-62,-46) scale(1,1)"><path fill="#C0C0C0" stroke="none" d="M 255 288.5 L 266.5 279 L 277 288.5 L 266.5 297 L 255 288.5" opacity="0.2"/></g><g transform="translate(-62,-46) scale(1,1)"><path fill="#ffffff" stroke="none" d="M 248 281 L 259 272 L 270 281 L 259 290 L 248 281"/></g><g transform="translate(-62,-46) scale(1,1)"><path fill="none" stroke="#000000" d="M 248 281 L 259 272 L 270 281 L 259 290 L 248 281 L 248 281" stroke-miterlimit="10"/></g><g transform="translate(-62,-46) scale(1,1)"><path fill="none" stroke="#000000" d="M 259 219 L 259 271" stroke-miterlimit="10"/></g><g transform="translate(-62,-46) scale(1,1)"><path fill="none" stroke="#000000" d="M 254.790482243984 260.83732514237585 L 259 271 L 263.209517756016 260.83732514237585" stroke-miterlimit="10"/></g><g transform="translate(-62,-46) scale(1,1)"><g><path fill="none" stroke="none"/><text fill="#000000" stroke="none" font-family="Arial" font-size="13px" font-style="normal" font-weight="normal" text-decoration="none" x="256.5" y="250.5">activo</text></g></g><g transform="translate(-62,-46) scale(1,1)"><path fill="none" stroke="#000000" d="M 515 233 L 512 280 L 271 281" stroke-miterlimit="10"/></g><g transform="translate(-62,-46) scale(1,1)"><path fill="none" stroke="#000000" d="M 281.145120643377 276.748350069523 L 271 281 L 281.18005409995914 285.1673131058159" stroke-miterlimit="10"/></g><g transform="translate(-62,-46) scale(1,1)"><g><path fill="none" stroke="none"/><text fill="#000000" stroke="none" font-family="Arial" font-size="13px" font-style="normal" font-weight="normal" text-decoration="none" x="495.5" y="300.5">activo</text></g></g><g transform="translate(-62,-46) scale(1,1)"><path fill="#C0C0C0" stroke="none" d="M 97 351 L 209.54443359375 351 Q 219.54443359375 351 219.54443359375 361 L 219.54443359375 381 Q 219.54443359375 391 209.54443359375 391 L 97 391 Q 87 391 87 381 L 87 361 Q 87 351 97 351 Z" opacity="0.2"/></g><g transform="translate(-62,-46) scale(1,1)"><path fill="#ffffff" stroke="none" d="M 90 344 L 202.54443359375 344 Q 212.54443359375 344 212.54443359375 354 L 212.54443359375 374 Q 212.54443359375 384 202.54443359375 384 L 90 384 Q 80 384 80 374 L 80 354 Q 80 344 90 344 Z"/></g><g transform="translate(-62,-46) scale(1,1)"><path fill="none" stroke="#000000" d="M 90 344 L 202.54443359375 344 Q 212.54443359375 344 212.54443359375 354 L 212.54443359375 374 Q 212.54443359375 384 202.54443359375 384 L 90 384 Q 80 384 80 374 L 80 354 Q 80 344 90 344 Z" stroke-miterlimit="10"/></g><g transform="translate(-62,-46) scale(1,1)"><g><path fill="none" stroke="none"/><text fill="#000000" stroke="none" font-family="Arial" font-size="13px" font-style="normal" font-weight="bold" text-decoration="none" x="88.825927734375" y="363.5">Registros de ventas</text></g></g><g transform="translate(-62,-46) scale(1,1)"><path fill="#C0C0C0" stroke="none" d="M 241 351 L 477.7744140625 351 Q 487.7744140625 351 487.7744140625 361 L 487.7744140625 381 Q 487.7744140625 391 477.7744140625 391 L 241 391 Q 231 391 231 381 L 231 361 Q 231 351 241 351 Z" opacity="0.2"/></g><g transform="translate(-62,-46) scale(1,1)"><path fill="#ffffff" stroke="none" d="M 234 344 L 470.7744140625 344 Q 480.7744140625 344 480.7744140625 354 L 480.7744140625 374 Q 480.7744140625 384 470.7744140625 384 L 234 384 Q 224 384 224 374 L 224 354 Q 224 344 234 344 Z"/></g><g transform="translate(-62,-46) scale(1,1)"><path fill="none" stroke="#000000" d="M 234 344 L 470.7744140625 344 Q 480.7744140625 344 480.7744140625 354 L 480.7744140625 374 Q 480.7744140625 384 470.7744140625 384 L 234 384 Q 224 384 224 374 L 224 354 Q 224 344 234 344 Z" stroke-miterlimit="10"/></g><g transform="translate(-62,-46) scale(1,1)"><g><path fill="none" stroke="none"/><text fill="#000000" stroke="none" font-family="Arial" font-size="13px" font-style="normal" font-weight="bold" text-decoration="none" x="236.75830078125" y="363.5">Registros de pagos al contado y a plazo</text></g></g><g transform="translate(-62,-46) scale(1,1)"><path fill="#C0C0C0" stroke="none" d="M 209 495 L 317.919921875 495 Q 327.919921875 495 327.919921875 505 L 327.919921875 525 Q 327.919921875 535 317.919921875 535 L 209 535 Q 199 535 199 525 L 199 505 Q 199 495 209 495 Z" opacity="0.2"/></g><g transform="translate(-62,-46) scale(1,1)"><path fill="#ffffff" stroke="none" d="M 202 488 L 310.919921875 488 Q 320.919921875 488 320.919921875 498 L 320.919921875 518 Q 320.919921875 528 310.919921875 528 L 202 528 Q 192 528 192 518 L 192 498 Q 192 488 202 488 Z"/></g><g transform="translate(-62,-46) scale(1,1)"><path fill="none" stroke="#000000" d="M 202 488 L 310.919921875 488 Q 320.919921875 488 320.919921875 498 L 320.919921875 518 Q 320.919921875 528 310.919921875 528 L 202 528 Q 192 528 192 518 L 192 498 Q 192 488 202 488 Z" stroke-miterlimit="10"/></g><g transform="translate(-62,-46) scale(1,1)"><g><path fill="none" stroke="none"/><text fill="#000000" stroke="none" font-family="Arial" font-size="13px" font-style="normal" font-weight="bold" text-decoration="none" x="201.17822265625" y="507.5">Stock de inventario</text></g></g><g transform="translate(-62,-46) scale(1,1)"><path fill="none" stroke="#000000" d="M 247 290 L 175 343" stroke-miterlimit="10"/></g><g transform="translate(-62,-46) scale(1,1)"><path fill="none" stroke="#000000" d="M 180.68890141084623 333.58530931269263 L 175 343 L 185.67985239287995 340.36546913734225" stroke-miterlimit="10"/></g><g transform="translate(-62,-46) scale(1,1)"><path fill="none" stroke="#000000" d="M 270 291 L 328 343" stroke-miterlimit="10"/></g><g transform="translate(-62,-46) scale(1,1)"><path fill="none" stroke="#000000" d="M 317.6231402690385 339.3502353330729 L 328 343 L 323.2432254625347 333.0816787710963" stroke-miterlimit="10"/></g><g transform="translate(-62,-46) scale(1,1)"><path fill="#C0C0C0" stroke="none" d="M 162 439 L 356 439 Q 359 439 359 442 L 359 441 Q 359 444 356 444 L 162 444 Q 159 444 159 441 L 159 442 Q 159 439 162 439 Z" opacity="0.2"/></g><g transform="translate(-62,-46) scale(1,1)"><path fill="#000000" stroke="none" d="M 155 432 L 349 432 Q 352 432 352 435 L 352 435 Q 352 438 349 438 L 155 438 Q 152 438 152 435 L 152 435 Q 152 432 155 432 Z"/></g><g transform="translate(-62,-46) scale(1,1)"><path fill="none" stroke="#000000" d="M 178 385 L 247 431" stroke-miterlimit="10"/></g><g transform="translate(-62,-46) scale(1,1)"><path fill="none" stroke="#000000" d="M 236.20912306817837 428.86529275021616 L 247 431 L 240.87916371872967 421.8602317743892" stroke-miterlimit="10"/></g><g transform="translate(-62,-46) scale(1,1)"><path fill="none" stroke="#000000" d="M 322 385 L 256 431" stroke-miterlimit="10"/></g><g transform="translate(-62,-46) scale(1,1)"><path fill="none" stroke="#000000" d="M 261.9304684605383 421.7355764432664 L 256 431 L 266.7444111848103 428.6425377433088" stroke-miterlimit="10"/></g><g transform="translate(-62,-46) scale(1,1)"><path fill="none" stroke="#000000" d="M 252 438 L 255 487" stroke-miterlimit="10"/></g><g transform="translate(-62,-46) scale(1,1)"><path fill="none" stroke="#000000" d="M 250.17730798773817 477.11356273701864 L 255 487 L 258.58060860498495 476.599074944126" stroke-miterlimit="10"/></g><g transform="translate(-62,-46) scale(1,1)"><path fill="#C0C0C0" stroke="none" d="M 247 595.5 C 247 588.59644 252.59644 583 259.5 583 C 266.40356 583 272 588.59644 272 595.5 C 272 602.40356 266.40356 608 259.5 608 C 252.59644 608 247 602.40356 247 595.5 Z" opacity="0.2"/></g><g transform="translate(-62,-46) scale(1,1)"><path fill="none" stroke="#000000" d="M 240 588.5 C 240 581.59644 245.59644 576 252.5 576 C 259.40356 576 265 581.59644 265 588.5 C 265 595.40356 259.40356 601 252.5 601 C 245.59644 601 240 595.40356 240 588.5 Z" stroke-miterlimit="10"/></g><g transform="translate(-62,-46) scale(1,1)"><path fill="#000000" stroke="none" d="M 245 588.5 C 245 584.357864 248.357864 581 252.5 581 C 256.642136 581 260 584.357864 260 588.5 C 260 592.642136 256.642136 596 252.5 596 C 248.357864 596 245 592.642136 245 588.5 Z"/></g><g transform="translate(-62,-46) scale(1,1)"><path fill="none" stroke="#000000" d="M 255 529 L 253 575" stroke-miterlimit="10"/></g><g transform="translate(-62,-46) scale(1,1)"><path fill="none" stroke="#000000" d="M 249.23589374918507 564.6640673312673 L 253 575 L 257.6469830248906 565.0297668649936" stroke-miterlimit="10"/></g><g transform="translate(-62,-46) scale(1,1)"><g><path fill="none" stroke="none"/><text fill="#000000" stroke="none" font-family="Arial" font-size="13px" font-style="normal" font-weight="normal" text-decoration="none" x="77" y="74">Administracion</text><text fill="#000000" stroke="none" font-family="Arial" font-size="13px" font-style="normal" font-weight="normal" text-decoration="none" x="77" y="87">de pedidos</text></g></g></g></svg>