<svg version="1.1" xmlns="http://www.w3.org/2000/svg" xmlns:xlink="http://www.w3.org/1999/xlink" width="604.166015625" height="408"><defs/><g><text fill="#eeeeee" stroke="none" font-family="Arial" font-size="24px" font-style="normal" font-weight="normal" text-decoration="none" x="0" y="0">UNREGISTERED</text><text fill="#eeeeee" stroke="none" font-family="Arial" font-size="24px" font-style="normal" font-weight="normal" text-decoration="none" x="0" y="30">UNREGISTERED</text><text fill="#eeeeee" stroke="none" font-family="Arial" font-size="24px" font-style="normal" font-weight="normal" text-decoration="none" x="0" y="60">UNREGISTERED</text><text fill="#eeeeee" stroke="none" font-family="Arial" font-size="24px" font-style="normal" font-weight="normal" text-decoration="none" x="0" y="90">UNREGISTERED</text><text fill="#eeeeee" stroke="none" font-family="Arial" font-size="24px" font-style="normal" font-weight="normal" text-decoration="none" x="0" y="120">UNREGISTERED</text><text fill="#eeeeee" stroke="none" font-family="Arial" font-size="24px" font-style="normal" font-weight="normal" text-decoration="none" x="0" y="150">UNREGISTERED</text><text fill="#eeeeee" stroke="none" font-family="Arial" font-size="24px" font-style="normal" font-weight="normal" text-decoration="none" x="0" y="180">UNREGISTERED</text><text fill="#eeeeee" stroke="none" font-family="Arial" font-size="24px" font-style="normal" font-weight="normal" text-decoration="none" x="0" y="210">UNREGISTERED</text><text fill="#eeeeee" stroke="none" font-family="Arial" font-size="24px" font-style="normal" font-weight="normal" text-decoration="none" x="0" y="240">UNREGISTERED</text><text fill="#eeeeee" stroke="none" font-family="Arial" font-size="24px" font-style="normal" font-weight="normal" text-decoration="none" x="0" y="270">UNREGISTERED</text><text fill="#eeeeee" stroke="none" font-family="Arial" font-size="24px" font-style="normal" font-weight="normal" text-decoration="none" x="0" y="300">UNREGISTERED</text><text fill="#eeeeee" stroke="none" font-family="Arial" font-size="24px" font-style="normal" font-weight="normal" text-decoration="none" x="0" y="330">UNREGISTERED</text><text fill="#eeeeee" stroke="none" font-family="Arial" font-size="24px" font-style="normal" font-weight="normal" text-decoration="none" x="0" y="360">UNREGISTERED</text><text fill="#eeeeee" stroke="none" font-family="Arial" font-size="24px" font-style="normal" font-weight="normal" text-decoration="none" x="0" y="390">UNREGISTERED</text><text fill="#eeeeee" stroke="none" font-family="Arial" font-size="24px" font-style="normal" font-weight="normal" text-decoration="none" x="200" y="0">UNREGISTERED</text><text fill="#eeeeee" stroke="none" font-family="Arial" font-size="24px" font-style="normal" font-weight="normal" text-decoration="none" x="200" y="30">UNREGISTERED</text><text fill="#eeeeee" stroke="none" font-family="Arial" font-size="24px" font-style="normal" font-weight="normal" text-decoration="none" x="200" y="60">UNREGISTERED</text><text fill="#eeeeee" stroke="none" font-family="Arial" font-size="24px" font-style="normal" font-weight="normal" text-decoration="none" x="200" y="90">UNREGISTERED</text><text fill="#eeeeee" stroke="none" font-family="Arial" font-size="24px" font-style="normal" font-weight="normal" text-decoration="none" x="200" y="120">UNREGISTERED</text><text fill="#eeeeee" stroke="none" font-family="Arial" font-size="24px" font-style="normal" font-weight="normal" text-decoration="none" x="200" y="150">UNREGISTERED</text><text fill="#eeeeee" stroke="none" font-family="Arial" font-size="24px" font-style="normal" font-weight="normal" text-decoration="none" x="200" y="180">UNREGISTERED</text><text fill="#eeeeee" stroke="none" font-family="Arial" font-size="24px" font-style="normal" font-weight="normal" text-decoration="none" x="200" y="210">UNREGISTERED</text><text fill="#eeeeee" stroke="none" font-family="Arial" font-size="24px" font-style="normal" font-weight="normal" text-decoration="none" x="200" y="240">UNREGISTERED</text><text fill="#eeeeee" stroke="none" font-family="Arial" font-size="24px" font-style="normal" font-weight="normal" text-decoration="none" x="200" y="270">UNREGISTERED</text><text fill="#eeeeee" stroke="none" font-family="Arial" font-size="24px" font-style="normal" font-weight="normal" text-decoration="none" x="200" y="300">UNREGISTERED</text><text fill="#eeeeee" stroke="none" font-family="Arial" font-size="24px" font-style="normal" font-weight="normal" text-decoration="none" x="200" y="330">UNREGISTERED</text><text fill="#eeeeee" stroke="none" font-family="Arial" font-size="24px" font-style="normal" font-weight="normal" text-decoration="none" x="200" y="360">UNREGISTERED</text><text fill="#eeeeee" stroke="none" font-family="Arial" font-size="24px" font-style="normal" font-weight="normal" text-decoration="none" x="200" y="390">UNREGISTERED</text><text fill="#eeeeee" stroke="none" font-family="Arial" font-size="24px" font-style="normal" font-weight="normal" text-decoration="none" x="400" y="0">UNREGISTERED</text><text fill="#eeeeee" stroke="none" font-family="Arial" font-size="24px" font-style="normal" font-weight="normal" text-decoration="none" x="400" y="30">UNREGISTERED</text><text fill="#eeeeee" stroke="none" font-family="Arial" font-size="24px" font-style="normal" font-weight="normal" text-decoration="none" x="400" y="60">UNREGISTERED</text><text fill="#eeeeee" stroke="none" font-family="Arial" font-size="24px" font-style="normal" font-weight="normal" text-decoration="none" x="400" y="90">UNREGISTERED</text><text fill="#eeeeee" stroke="none" font-family="Arial" font-size="24px" font-style="normal" font-weight="normal" text-decoration="none" x="400" y="120">UNREGISTERED</text><text fill="#eeeeee" stroke="none" font-family="Arial" font-size="24px" font-style="normal" font-weight="normal" text-decoration="none" x="400" y="150">UNREGISTERED</text><text fill="#eeeeee" stroke="none" font-family="Arial" font-size="24px" font-style="normal" font-weight="normal" text-decoration="none" x="400" y="180">UNREGISTERED</text><text fill="#eeeeee" stroke="none" font-family="Arial" font-size="24px" font-style="normal" font-weight="normal" text-decoration="none" x="400" y="210">UNREGISTERED</text><text fill="#eeeeee" stroke="none" font-family="Arial" font-size="24px" font-style="normal" font-weight="normal" text-decoration="none" x="400" y="240">UNREGISTERED</text><text fill="#eeeeee" stroke="none" font-family="Arial" font-size="24px" font-style="normal" font-weight="normal" text-decoration="none" x="400" y="270">UNREGISTERED</text><text fill="#eeeeee" stroke="none" font-family="Arial" font-size="24px" font-style="normal" font-weight="normal" text-decoration="none" x="400" y="300">UNREGISTERED</text><text fill="#eeeeee" stroke="none" font-family="Arial" font-size="24px" font-style="normal" font-weight="normal" text-decoration="none" x="400" y="330">UNREGISTERED</text><text fill="#eeeeee" stroke="none" font-family="Arial" font-size="24px" font-style="normal" font-weight="normal" text-decoration="none" x="400" y="360">UNREGISTERED</text><text fill="#eeeeee" stroke="none" font-family="Arial" font-size="24px" font-style="normal" font-weight="normal" text-decoration="none" x="400" y="390">UNREGISTERED</text><text fill="#eeeeee" stroke="none" font-family="Arial" font-size="24px" font-style="normal" font-weight="normal" text-decoration="none" x="600" y="0">UNREGISTERED</text><text fill="#eeeeee" stroke="none" font-family="Arial" font-size="24px" font-style="normal" font-weight="normal" text-decoration="none" x="600" y="30">UNREGISTERED</text><text fill="#eeeeee" stroke="none" font-family="Arial" font-size="24px" font-style="normal" font-weight="normal" text-decoration="none" x="600" y="60">UNREGISTERED</text><text fill="#eeeeee" stroke="none" font-family="Arial" font-size="24px" font-style="normal" font-weight="normal" text-decoration="none" x="600" y="90">UNREGISTERED</text><text fill="#eeeeee" stroke="none" font-family="Arial" font-size="24px" font-style="normal" font-weight="normal" text-decoration="none" x="600" y="120">UNREGISTERED</text><text fill="#eeeeee" stroke="none" font-family="Arial" font-size="24px" font-style="normal" font-weight="normal" text-decoration="none" x="600" y="150">UNREGISTERED</text><text fill="#eeeeee" stroke="none" font-family="Arial" font-size="24px" font-style="normal" font-weight="normal" text-decoration="none" x="600" y="180">UNREGISTERED</text><text fill="#eeeeee" stroke="none" font-family="Arial" font-size="24px" font-style="normal" font-weight="normal" text-decoration="none" x="600" y="210">UNREGISTERED</text><text fill="#eeeeee" stroke="none" font-family="Arial" font-size="24px" font-style="normal" font-weight="normal" text-decoration="none" x="600" y="240">UNREGISTERED</text><text fill="#eeeeee" stroke="none" font-family="Arial" font-size="24px" font-style="normal" font-weight="normal" text-decoration="none" x="600" y="270">UNREGISTERED</text><text fill="#eeeeee" stroke="none" font-family="Arial" font-size="24px" font-style="normal" font-weight="normal" text-decoration="none" x="600" y="300">UNREGISTERED</text><text fill="#eeeeee" stroke="none" font-family="Arial" font-size="24px" font-style="normal" font-weight="normal" text-decoration="none" x="600" y="330">UNREGISTERED</text><text fill="#eeeeee" stroke="none" font-family="Arial" font-size="24px" font-style="normal" font-weight="normal" text-decoration="none" x="600" y="360">UNREGISTERED</text><text fill="#eeeeee" stroke="none" font-family="Arial" font-size="24px" font-style="normal" font-weight="normal" text-decoration="none" x="600" y="390">UNREGISTERED</text><g transform="translate(-158,-54) scale(1,1)"><rect fill="#C0C0C0" stroke="none" x="175" y="71" width="53.05908203125" height="44" opacity="0.2"/></g><g transform="translate(-158,-54) scale(1,1)"><rect fill="#ffffff" stroke="none" x="168" y="64" width="53.05908203125" height="44"/></g><g transform="translate(-158,-54) scale(1,1)"><path fill="none" stroke="#000000" d="M 168 64 L 221.05908203125 64 L 221.05908203125 108 L 168 108 L 168 64 Z Z" stroke-miterlimit="10"/></g><g transform="translate(-158,-54) scale(1,1)"><path fill="none" stroke="#000000" d="M 168 89 L 221.05908203125 89" stroke-miterlimit="10"/></g><g transform="translate(-158,-54) scale(1,1)"><path fill="none" stroke="#000000" d="M 168 99 L 221.05908203125 99" stroke-miterlimit="10"/></g><g transform="translate(-158,-54) scale(1,1)"><g><path fill="none" stroke="none"/><text fill="#000000" stroke="none" font-family="Arial" font-size="13px" font-style="normal" font-weight="bold" text-decoration="none" x="173.569580078125" y="83.5">Cuenta</text></g></g><g transform="translate(-158,-54) scale(1,1)"><rect fill="#C0C0C0" stroke="none" x="503" y="71" width="52.341796875" height="44" opacity="0.2"/></g><g transform="translate(-158,-54) scale(1,1)"><rect fill="#ffffff" stroke="none" x="496" y="64" width="52.341796875" height="44"/></g><g transform="translate(-158,-54) scale(1,1)"><path fill="none" stroke="#000000" d="M 496 64 L 548.341796875 64 L 548.341796875 108 L 496 108 L 496 64 Z Z" stroke-miterlimit="10"/></g><g transform="translate(-158,-54) scale(1,1)"><path fill="none" stroke="#000000" d="M 496 89 L 548.341796875 89" stroke-miterlimit="10"/></g><g transform="translate(-158,-54) scale(1,1)"><path fill="none" stroke="#000000" d="M 496 99 L 548.341796875 99" stroke-miterlimit="10"/></g><g transform="translate(-158,-54) scale(1,1)"><g><path fill="none" stroke="none"/><text fill="#000000" stroke="none" font-family="Arial" font-size="13px" font-style="normal" font-weight="bold" text-decoration="none" x="501.937744140625" y="83.5">Cliente</text></g></g><g transform="translate(-158,-54) scale(1,1)"><rect fill="#C0C0C0" stroke="none" x="663" y="71" width="96.166015625" height="44" opacity="0.2"/></g><g transform="translate(-158,-54) scale(1,1)"><rect fill="#ffffff" stroke="none" x="656" y="64" width="96.166015625" height="44"/></g><g transform="translate(-158,-54) scale(1,1)"><path fill="none" stroke="#000000" d="M 656 64 L 752.166015625 64 L 752.166015625 108 L 656 108 L 656 64 Z Z" stroke-miterlimit="10"/></g><g transform="translate(-158,-54) scale(1,1)"><path fill="none" stroke="#000000" d="M 656 89 L 752.166015625 89" stroke-miterlimit="10"/></g><g transform="translate(-158,-54) scale(1,1)"><path fill="none" stroke="#000000" d="M 656 99 L 752.166015625 99" stroke-miterlimit="10"/></g><g transform="translate(-158,-54) scale(1,1)"><g><path fill="none" stroke="none"/><text fill="#000000" stroke="none" font-family="Arial" font-size="13px" font-style="normal" font-weight="bold" text-decoration="none" x="663.619873046875" y="83.5">TarjetaCrédito</text></g></g><g transform="translate(-158,-54) scale(1,1)"><rect fill="#C0C0C0" stroke="none" x="495" y="271" width="59.58447265625" height="44" opacity="0.2"/></g><g transform="translate(-158,-54) scale(1,1)"><rect fill="#ffffff" stroke="none" x="488" y="264" width="59.58447265625" height="44"/></g><g transform="translate(-158,-54) scale(1,1)"><path fill="none" stroke="#000000" d="M 488 264 L 547.58447265625 264 L 547.58447265625 308 L 488 308 L 488 264 Z Z" stroke-miterlimit="10"/></g><g transform="translate(-158,-54) scale(1,1)"><path fill="none" stroke="#000000" d="M 488 289 L 547.58447265625 289" stroke-miterlimit="10"/></g><g transform="translate(-158,-54) scale(1,1)"><path fill="none" stroke="#000000" d="M 488 299 L 547.58447265625 299" stroke-miterlimit="10"/></g><g transform="translate(-158,-54) scale(1,1)"><g><path fill="none" stroke="none"/><text fill="#000000" stroke="none" font-family="Arial" font-size="13px" font-style="normal" font-weight="bold" text-decoration="none" x="494.674072265625" y="283.5">Servicio</text></g></g><g transform="translate(-158,-54) scale(1,1)"><rect fill="#C0C0C0" stroke="none" x="239" y="271" width="97.841796875" height="44" opacity="0.2"/></g><g transform="translate(-158,-54) scale(1,1)"><rect fill="#ffffff" stroke="none" x="232" y="264" width="97.841796875" height="44"/></g><g transform="translate(-158,-54) scale(1,1)"><path fill="none" stroke="#000000" d="M 232 264 L 329.841796875 264 L 329.841796875 308 L 232 308 L 232 264 Z Z" stroke-miterlimit="10"/></g><g transform="translate(-158,-54) scale(1,1)"><path fill="none" stroke="#000000" d="M 232 289 L 329.841796875 289" stroke-miterlimit="10"/></g><g transform="translate(-158,-54) scale(1,1)"><path fill="none" stroke="#000000" d="M 232 299 L 329.841796875 299" stroke-miterlimit="10"/></g><g transform="translate(-158,-54) scale(1,1)"><g><path fill="none" stroke="none"/><text fill="#000000" stroke="none" font-family="Arial" font-size="13px" font-style="normal" font-weight="bold" text-decoration="none" x="240.82275390625" y="283.5">Administrador</text></g></g><g transform="translate(-158,-54) scale(1,1)"><rect fill="#C0C0C0" stroke="none" x="239" y="151" width="90.64990234375" height="44" opacity="0.2"/></g><g transform="translate(-158,-54) scale(1,1)"><rect fill="#ffffff" stroke="none" x="232" y="144" width="90.64990234375" height="44"/></g><g transform="translate(-158,-54) scale(1,1)"><path fill="none" stroke="#000000" d="M 232 144 L 322.64990234375 144 L 322.64990234375 188 L 232 188 L 232 144 Z Z" stroke-miterlimit="10"/></g><g transform="translate(-158,-54) scale(1,1)"><path fill="none" stroke="#000000" d="M 232 169 L 322.64990234375 169" stroke-miterlimit="10"/></g><g transform="translate(-158,-54) scale(1,1)"><path fill="none" stroke="#000000" d="M 232 179 L 322.64990234375 179" stroke-miterlimit="10"/></g><g transform="translate(-158,-54) scale(1,1)"><g><path fill="none" stroke="none"/><text fill="#000000" stroke="none" font-family="Arial" font-size="13px" font-style="normal" font-weight="bold" text-decoration="none" x="238.67724609375" y="163.5">MateriaPrima</text></g></g><g transform="translate(-158,-54) scale(1,1)"><rect fill="#C0C0C0" stroke="none" x="247" y="415" width="79.78271484375" height="44" opacity="0.2"/></g><g transform="translate(-158,-54) scale(1,1)"><rect fill="#ffffff" stroke="none" x="240" y="408" width="79.78271484375" height="44"/></g><g transform="translate(-158,-54) scale(1,1)"><path fill="none" stroke="#000000" d="M 240 408 L 319.78271484375 408 L 319.78271484375 452 L 240 452 L 240 408 Z Z" stroke-miterlimit="10"/></g><g transform="translate(-158,-54) scale(1,1)"><path fill="none" stroke="#000000" d="M 240 433 L 319.78271484375 433" stroke-miterlimit="10"/></g><g transform="translate(-158,-54) scale(1,1)"><path fill="none" stroke="#000000" d="M 240 443 L 319.78271484375 443" stroke-miterlimit="10"/></g><g transform="translate(-158,-54) scale(1,1)"><g><path fill="none" stroke="none"/><text fill="#000000" stroke="none" font-family="Arial" font-size="13px" font-style="normal" font-weight="bold" text-decoration="none" x="247.372314453125" y="427.5">Maquinaría</text></g></g><g transform="translate(-158,-54) scale(1,1)"><path fill="none" stroke="#000000" d="M 222 86 L 495 86" stroke-miterlimit="10"/></g><g transform="translate(-158,-54) scale(1,1)"><g><path fill="none" stroke="none"/><text fill="#000000" stroke="none" font-family="Arial" font-size="13px" font-style="normal" font-weight="normal" text-decoration="none" x="338.5" y="77.5">+Tiene</text></g></g><g transform="translate(-158,-54) scale(1,1)"><path fill="none" stroke="#000000" d="M 549 86 L 655 86" stroke-miterlimit="10"/></g><g transform="translate(-158,-54) scale(1,1)"><g><path fill="none" stroke="none"/><text fill="#000000" stroke="none" font-family="Arial" font-size="13px" font-style="normal" font-weight="normal" text-decoration="none" x="582.5" y="77.5">+Tiene</text></g></g><g transform="translate(-158,-54) scale(1,1)"><path fill="none" stroke="#000000" d="M 521 109 L 518 263" stroke-miterlimit="10"/></g><g transform="translate(-158,-54) scale(1,1)"><g><path fill="none" stroke="none"/><text fill="#000000" stroke="none" font-family="Arial" font-size="13px" font-style="normal" font-weight="normal" text-decoration="none" x="502.858642578125" y="192.5">+Adquiere</text></g></g><g transform="translate(-158,-54) scale(1,1)"><path fill="none" stroke="#000000" d="M 331 286 L 487 286" stroke-miterlimit="10"/></g><g transform="translate(-158,-54) scale(1,1)"><g><path fill="none" stroke="none"/><text fill="#000000" stroke="none" font-family="Arial" font-size="13px" font-style="normal" font-weight="normal" text-decoration="none" x="379.5" y="277.5">+Gestiona</text></g></g><g transform="translate(-158,-54) scale(1,1)"><path fill="none" stroke="#000000" d="M 279 263 L 278 189" stroke-miterlimit="10"/></g><g transform="translate(-158,-54) scale(1,1)"><g><path fill="none" stroke="none"/><text fill="#000000" stroke="none" font-family="Arial" font-size="13px" font-style="normal" font-weight="normal" text-decoration="none" x="236.5" y="231.5">+Compra</text></g></g><g transform="translate(-158,-54) scale(1,1)"><path fill="none" stroke="#000000" d="M 280 309 L 279 407" stroke-miterlimit="10"/></g><g transform="translate(-158,-54) scale(1,1)"><g><path fill="none" stroke="none"/><text fill="#000000" stroke="none" font-family="Arial" font-size="13px" font-style="normal" font-weight="normal" text-decoration="none" x="270.80908203125" y="363.5">+Posee</text></g></g><g transform="translate(-158,-54) scale(1,1)"><g><path fill="none" stroke="none"/><text fill="#000000" stroke="none" font-family="Arial" font-size="13px" font-style="normal" font-weight="normal" text-decoration="none" x="557" y="106">1</text></g></g><g transform="translate(-158,-54) scale(1,1)"><g><path fill="none" stroke="none"/><text fill="#000000" stroke="none" font-family="Arial" font-size="13px" font-style="normal" font-weight="normal" text-decoration="none" x="629" y="106">1..*</text></g></g><g transform="translate(-158,-54) scale(1,1)"><g><path fill="none" stroke="none"/><text fill="#000000" stroke="none" font-family="Arial" font-size="13px" font-style="normal" font-weight="normal" text-decoration="none" x="501" y="122">1</text></g></g><g transform="translate(-158,-54) scale(1,1)"><g><path fill="none" stroke="none"/><text fill="#000000" stroke="none" font-family="Arial" font-size="13px" font-style="normal" font-weight="normal" text-decoration="none" x="493" y="258">1..*</text></g></g><g transform="translate(-158,-54) scale(1,1)"><g><path fill="none" stroke="none"/><text fill="#000000" stroke="none" font-family="Arial" font-size="13px" font-style="normal" font-weight="normal" text-decoration="none" x="461" y="306">1..*</text></g></g><g transform="translate(-158,-54) scale(1,1)"><g><path fill="none" stroke="none"/><text fill="#000000" stroke="none" font-family="Arial" font-size="13px" font-style="normal" font-weight="normal" text-decoration="none" x="333" y="306">1</text></g></g><g transform="translate(-158,-54) scale(1,1)"><g><path fill="none" stroke="none"/><text fill="#000000" stroke="none" font-family="Arial" font-size="13px" font-style="normal" font-weight="normal" text-decoration="none" x="245" y="402">1..*</text></g></g><g transform="translate(-158,-54) scale(1,1)"><g><path fill="none" stroke="none"/><text fill="#000000" stroke="none" font-family="Arial" font-size="13px" font-style="normal" font-weight="normal" text-decoration="none" x="285" y="210">0..*</text></g></g><g transform="translate(-158,-54) scale(1,1)"><g><path fill="none" stroke="none"/><text fill="#000000" stroke="none" font-family="Arial" font-size="13px" font-style="normal" font-weight="normal" text-decoration="none" x="477" y="82">1</text></g></g><g transform="translate(-158,-54) scale(1,1)"><g><path fill="none" stroke="none"/><text fill="#000000" stroke="none" font-family="Arial" font-size="13px" font-style="normal" font-weight="normal" text-decoration="none" x="229" y="82">1..*</text></g></g><g transform="translate(-158,-54) scale(1,1)"><g><path fill="none" stroke="none"/><text fill="#000000" stroke="none" font-family="Arial" font-size="13px" font-style="normal" font-weight="normal" text-decoration="none" x="245" y="258">1</text></g></g><g transform="translate(-158,-54) scale(1,1)"><g><path fill="none" stroke="none"/><text fill="#000000" stroke="none" font-family="Arial" font-size="13px" font-style="normal" font-weight="normal" text-decoration="none" x="245" y="330">1</text></g></g><g transform="translate(-158,-54) scale(1,1)"><rect fill="#C0C0C0" stroke="none" x="679" y="415" width="58.12451171875" height="44" opacity="0.2"/></g><g transform="translate(-158,-54) scale(1,1)"><rect fill="#ffffff" stroke="none" x="672" y="408" width="58.12451171875" height="44"/></g><g transform="translate(-158,-54) scale(1,1)"><path fill="none" stroke="#000000" d="M 672 408 L 730.12451171875 408 L 730.12451171875 452 L 672 452 L 672 408 Z Z" stroke-miterlimit="10"/></g><g transform="translate(-158,-54) scale(1,1)"><path fill="none" stroke="#000000" d="M 672 433 L 730.12451171875 433" stroke-miterlimit="10"/></g><g transform="translate(-158,-54) scale(1,1)"><path fill="none" stroke="#000000" d="M 672 443 L 730.12451171875 443" stroke-miterlimit="10"/></g><g transform="translate(-158,-54) scale(1,1)"><g><path fill="none" stroke="none"/><text fill="#000000" stroke="none" font-family="Arial" font-size="13px" font-style="normal" font-weight="bold" text-decoration="none" x="678.302734375" y="427.5">Técnico</text></g></g><g transform="translate(-158,-54) scale(1,1)"><rect fill="#C0C0C0" stroke="none" x="463" y="415" width="100.7236328125" height="44" opacity="0.2"/></g><g transform="translate(-158,-54) scale(1,1)"><rect fill="#ffffff" stroke="none" x="456" y="408" width="100.7236328125" height="44"/></g><g transform="translate(-158,-54) scale(1,1)"><path fill="none" stroke="#000000" d="M 456 408 L 556.7236328125 408 L 556.7236328125 452 L 456 452 L 456 408 Z Z" stroke-miterlimit="10"/></g><g transform="translate(-158,-54) scale(1,1)"><path fill="none" stroke="#000000" d="M 456 433 L 556.7236328125 433" stroke-miterlimit="10"/></g><g transform="translate(-158,-54) scale(1,1)"><path fill="none" stroke="#000000" d="M 456 443 L 556.7236328125 443" stroke-miterlimit="10"/></g><g transform="translate(-158,-54) scale(1,1)"><g><path fill="none" stroke="none"/><text fill="#000000" stroke="none" font-family="Arial" font-size="13px" font-style="normal" font-weight="bold" text-decoration="none" x="463.727783203125" y="427.5">Mantenimiento</text></g></g><g transform="translate(-158,-54) scale(1,1)"><path fill="none" stroke="#000000" d="M 671 430 L 558 430" stroke-miterlimit="10"/></g><g transform="translate(-158,-54) scale(1,1)"><g><path fill="none" stroke="none"/><text fill="#000000" stroke="none" font-family="Arial" font-size="13px" font-style="normal" font-weight="normal" text-decoration="none" x="590.5" y="451.5">+realiza</text></g></g><g transform="translate(-158,-54) scale(1,1)"><path fill="none" stroke="#000000" d="M 455 430 L 321 430" stroke-miterlimit="10"/></g><g transform="translate(-158,-54) scale(1,1)"><g><path fill="none" stroke="none"/><text fill="#000000" stroke="none" font-family="Arial" font-size="13px" font-style="normal" font-weight="normal" text-decoration="none" x="365.5" y="451.5">+recibe</text></g></g><g transform="translate(-158,-54) scale(1,1)"><g><path fill="none" stroke="none"/><text fill="#000000" stroke="none" font-family="Arial" font-size="13px" font-style="normal" font-weight="normal" text-decoration="none" x="429" y="426">1</text></g></g><g transform="translate(-158,-54) scale(1,1)"><g><path fill="none" stroke="none"/><text fill="#000000" stroke="none" font-family="Arial" font-size="13px" font-style="normal" font-weight="normal" text-decoration="none" x="333" y="426">1</text></g></g><g transform="translate(-158,-54) scale(1,1)"><g><path fill="none" stroke="none"/><text fill="#000000" stroke="none" font-family="Arial" font-size="13px" font-style="normal" font-weight="normal" text-decoration="none" x="653" y="426">1</text></g></g><g transform="translate(-158,-54) scale(1,1)"><g><path fill="none" stroke="none"/><text fill="#000000" stroke="none" font-family="Arial" font-size="13px" font-style="normal" font-weight="normal" text-decoration="none" x="565" y="418">0..*</text></g></g></g></svg>