<svg version="1.1" xmlns="http://www.w3.org/2000/svg" xmlns:xlink="http://www.w3.org/1999/xlink" width="604" height="492"><defs/><g><text fill="#eeeeee" stroke="none" font-family="Arial" font-size="24px" font-style="normal" font-weight="normal" text-decoration="none" x="0" y="0">UNREGISTERED</text><text fill="#eeeeee" stroke="none" font-family="Arial" font-size="24px" font-style="normal" font-weight="normal" text-decoration="none" x="0" y="30">UNREGISTERED</text><text fill="#eeeeee" stroke="none" font-family="Arial" font-size="24px" font-style="normal" font-weight="normal" text-decoration="none" x="0" y="60">UNREGISTERED</text><text fill="#eeeeee" stroke="none" font-family="Arial" font-size="24px" font-style="normal" font-weight="normal" text-decoration="none" x="0" y="90">UNREGISTERED</text><text fill="#eeeeee" stroke="none" font-family="Arial" font-size="24px" font-style="normal" font-weight="normal" text-decoration="none" x="0" y="120">UNREGISTERED</text><text fill="#eeeeee" stroke="none" font-family="Arial" font-size="24px" font-style="normal" font-weight="normal" text-decoration="none" x="0" y="150">UNREGISTERED</text><text fill="#eeeeee" stroke="none" font-family="Arial" font-size="24px" font-style="normal" font-weight="normal" text-decoration="none" x="0" y="180">UNREGISTERED</text><text fill="#eeeeee" stroke="none" font-family="Arial" font-size="24px" font-style="normal" font-weight="normal" text-decoration="none" x="0" y="210">UNREGISTERED</text><text fill="#eeeeee" stroke="none" font-family="Arial" font-size="24px" font-style="normal" font-weight="normal" text-decoration="none" x="0" y="240">UNREGISTERED</text><text fill="#eeeeee" stroke="none" font-family="Arial" font-size="24px" font-style="normal" font-weight="normal" text-decoration="none" x="0" y="270">UNREGISTERED</text><text fill="#eeeeee" stroke="none" font-family="Arial" font-size="24px" font-style="normal" font-weight="normal" text-decoration="none" x="0" y="300">UNREGISTERED</text><text fill="#eeeeee" stroke="none" font-family="Arial" font-size="24px" font-style="normal" font-weight="normal" text-decoration="none" x="0" y="330">UNREGISTERED</text><text fill="#eeeeee" stroke="none" font-family="Arial" font-size="24px" font-style="normal" font-weight="normal" text-decoration="none" x="0" y="360">UNREGISTERED</text><text fill="#eeeeee" stroke="none" font-family="Arial" font-size="24px" font-style="normal" font-weight="normal" text-decoration="none" x="0" y="390">UNREGISTERED</text><text fill="#eeeeee" stroke="none" font-family="Arial" font-size="24px" font-style="normal" font-weight="normal" text-decoration="none" x="0" y="420">UNREGISTERED</text><text fill="#eeeeee" stroke="none" font-family="Arial" font-size="24px" font-style="normal" font-weight="normal" text-decoration="none" x="0" y="450">UNREGISTERED</text><text fill="#eeeeee" stroke="none" font-family="Arial" font-size="24px" font-style="normal" font-weight="normal" text-decoration="none" x="0" y="480">UNREGISTERED</text><text fill="#eeeeee" stroke="none" font-family="Arial" font-size="24px" font-style="normal" font-weight="normal" text-decoration="none" x="200" y="0">UNREGISTERED</text><text fill="#eeeeee" stroke="none" font-family="Arial" font-size="24px" font-style="normal" font-weight="normal" text-decoration="none" x="200" y="30">UNREGISTERED</text><text fill="#eeeeee" stroke="none" font-family="Arial" font-size="24px" font-style="normal" font-weight="normal" text-decoration="none" x="200" y="60">UNREGISTERED</text><text fill="#eeeeee" stroke="none" font-family="Arial" font-size="24px" font-style="normal" font-weight="normal" text-decoration="none" x="200" y="90">UNREGISTERED</text><text fill="#eeeeee" stroke="none" font-family="Arial" font-size="24px" font-style="normal" font-weight="normal" text-decoration="none" x="200" y="120">UNREGISTERED</text><text fill="#eeeeee" stroke="none" font-family="Arial" font-size="24px" font-style="normal" font-weight="normal" text-decoration="none" x="200" y="150">UNREGISTERED</text><text fill="#eeeeee" stroke="none" font-family="Arial" font-size="24px" font-style="normal" font-weight="normal" text-decoration="none" x="200" y="180">UNREGISTERED</text><text fill="#eeeeee" stroke="none" font-family="Arial" font-size="24px" font-style="normal" font-weight="normal" text-decoration="none" x="200" y="210">UNREGISTERED</text><text fill="#eeeeee" stroke="none" font-family="Arial" font-size="24px" font-style="normal" font-weight="normal" text-decoration="none" x="200" y="240">UNREGISTERED</text><text fill="#eeeeee" stroke="none" font-family="Arial" font-size="24px" font-style="normal" font-weight="normal" text-decoration="none" x="200" y="270">UNREGISTERED</text><text fill="#eeeeee" stroke="none" font-family="Arial" font-size="24px" font-style="normal" font-weight="normal" text-decoration="none" x="200" y="300">UNREGISTERED</text><text fill="#eeeeee" stroke="none" font-family="Arial" font-size="24px" font-style="normal" font-weight="normal" text-decoration="none" x="200" y="330">UNREGISTERED</text><text fill="#eeeeee" stroke="none" font-family="Arial" font-size="24px" font-style="normal" font-weight="normal" text-decoration="none" x="200" y="360">UNREGISTERED</text><text fill="#eeeeee" stroke="none" font-family="Arial" font-size="24px" font-style="normal" font-weight="normal" text-decoration="none" x="200" y="390">UNREGISTERED</text><text fill="#eeeeee" stroke="none" font-family="Arial" font-size="24px" font-style="normal" font-weight="normal" text-decoration="none" x="200" y="420">UNREGISTERED</text><text fill="#eeeeee" stroke="none" font-family="Arial" font-size="24px" font-style="normal" font-weight="normal" text-decoration="none" x="200" y="450">UNREGISTERED</text><text fill="#eeeeee" stroke="none" font-family="Arial" font-size="24px" font-style="normal" font-weight="normal" text-decoration="none" x="200" y="480">UNREGISTERED</text><text fill="#eeeeee" stroke="none" font-family="Arial" font-size="24px" font-style="normal" font-weight="normal" text-decoration="none" x="400" y="0">UNREGISTERED</text><text fill="#eeeeee" stroke="none" font-family="Arial" font-size="24px" font-style="normal" font-weight="normal" text-decoration="none" x="400" y="30">UNREGISTERED</text><text fill="#eeeeee" stroke="none" font-family="Arial" font-size="24px" font-style="normal" font-weight="normal" text-decoration="none" x="400" y="60">UNREGISTERED</text><text fill="#eeeeee" stroke="none" font-family="Arial" font-size="24px" font-style="normal" font-weight="normal" text-decoration="none" x="400" y="90">UNREGISTERED</text><text fill="#eeeeee" stroke="none" font-family="Arial" font-size="24px" font-style="normal" font-weight="normal" text-decoration="none" x="400" y="120">UNREGISTERED</text><text fill="#eeeeee" stroke="none" font-family="Arial" font-size="24px" font-style="normal" font-weight="normal" text-decoration="none" x="400" y="150">UNREGISTERED</text><text fill="#eeeeee" stroke="none" font-family="Arial" font-size="24px" font-style="normal" font-weight="normal" text-decoration="none" x="400" y="180">UNREGISTERED</text><text fill="#eeeeee" stroke="none" font-family="Arial" font-size="24px" font-style="normal" font-weight="normal" text-decoration="none" x="400" y="210">UNREGISTERED</text><text fill="#eeeeee" stroke="none" font-family="Arial" font-size="24px" font-style="normal" font-weight="normal" text-decoration="none" x="400" y="240">UNREGISTERED</text><text fill="#eeeeee" stroke="none" font-family="Arial" font-size="24px" font-style="normal" font-weight="normal" text-decoration="none" x="400" y="270">UNREGISTERED</text><text fill="#eeeeee" stroke="none" font-family="Arial" font-size="24px" font-style="normal" font-weight="normal" text-decoration="none" x="400" y="300">UNREGISTERED</text><text fill="#eeeeee" stroke="none" font-family="Arial" font-size="24px" font-style="normal" font-weight="normal" text-decoration="none" x="400" y="330">UNREGISTERED</text><text fill="#eeeeee" stroke="none" font-family="Arial" font-size="24px" font-style="normal" font-weight="normal" text-decoration="none" x="400" y="360">UNREGISTERED</text><text fill="#eeeeee" stroke="none" font-family="Arial" font-size="24px" font-style="normal" font-weight="normal" text-decoration="none" x="400" y="390">UNREGISTERED</text><text fill="#eeeeee" stroke="none" font-family="Arial" font-size="24px" font-style="normal" font-weight="normal" text-decoration="none" x="400" y="420">UNREGISTERED</text><text fill="#eeeeee" stroke="none" font-family="Arial" font-size="24px" font-style="normal" font-weight="normal" text-decoration="none" x="400" y="450">UNREGISTERED</text><text fill="#eeeeee" stroke="none" font-family="Arial" font-size="24px" font-style="normal" font-weight="normal" text-decoration="none" x="400" y="480">UNREGISTERED</text><text fill="#eeeeee" stroke="none" font-family="Arial" font-size="24px" font-style="normal" font-weight="normal" text-decoration="none" x="600" y="0">UNREGISTERED</text><text fill="#eeeeee" stroke="none" font-family="Arial" font-size="24px" font-style="normal" font-weight="normal" text-decoration="none" x="600" y="30">UNREGISTERED</text><text fill="#eeeeee" stroke="none" font-family="Arial" font-size="24px" font-style="normal" font-weight="normal" text-decoration="none" x="600" y="60">UNREGISTERED</text><text fill="#eeeeee" stroke="none" font-family="Arial" font-size="24px" font-style="normal" font-weight="normal" text-decoration="none" x="600" y="90">UNREGISTERED</text><text fill="#eeeeee" stroke="none" font-family="Arial" font-size="24px" font-style="normal" font-weight="normal" text-decoration="none" x="600" y="120">UNREGISTERED</text><text fill="#eeeeee" stroke="none" font-family="Arial" font-size="24px" font-style="normal" font-weight="normal" text-decoration="none" x="600" y="150">UNREGISTERED</text><text fill="#eeeeee" stroke="none" font-family="Arial" font-size="24px" font-style="normal" font-weight="normal" text-decoration="none" x="600" y="180">UNREGISTERED</text><text fill="#eeeeee" stroke="none" font-family="Arial" font-size="24px" font-style="normal" font-weight="normal" text-decoration="none" x="600" y="210">UNREGISTERED</text><text fill="#eeeeee" stroke="none" font-family="Arial" font-size="24px" font-style="normal" font-weight="normal" text-decoration="none" x="600" y="240">UNREGISTERED</text><text fill="#eeeeee" stroke="none" font-family="Arial" font-size="24px" font-style="normal" font-weight="normal" text-decoration="none" x="600" y="270">UNREGISTERED</text><text fill="#eeeeee" stroke="none" font-family="Arial" font-size="24px" font-style="normal" font-weight="normal" text-decoration="none" x="600" y="300">UNREGISTERED</text><text fill="#eeeeee" stroke="none" font-family="Arial" font-size="24px" font-style="normal" font-weight="normal" text-decoration="none" x="600" y="330">UNREGISTERED</text><text fill="#eeeeee" stroke="none" font-family="Arial" font-size="24px" font-style="normal" font-weight="normal" text-decoration="none" x="600" y="360">UNREGISTERED</text><text fill="#eeeeee" stroke="none" font-family="Arial" font-size="24px" font-style="normal" font-weight="normal" text-decoration="none" x="600" y="390">UNREGISTERED</text><text fill="#eeeeee" stroke="none" font-family="Arial" font-size="24px" font-style="normal" font-weight="normal" text-decoration="none" x="600" y="420">UNREGISTERED</text><text fill="#eeeeee" stroke="none" font-family="Arial" font-size="24px" font-style="normal" font-weight="normal" text-decoration="none" x="600" y="450">UNREGISTERED</text><text fill="#eeeeee" stroke="none" font-family="Arial" font-size="24px" font-style="normal" font-weight="normal" text-decoration="none" x="600" y="480">UNREGISTERED</text><g transform="translate(-22,2) scale(1,1)"><rect fill="#C0C0C0" stroke="none" x="247" y="15" width="376" height="472" opacity="0.2"/></g><g transform="translate(-22,2) scale(1,1)"><rect fill="#ffffff" stroke="none" x="240" y="8" width="376" height="472"/></g><g transform="translate(-22,2) scale(1,1)"><path fill="none" stroke="#000000" d="M 240 8 L 616 8 L 616 480 L 240 480 L 240 8 Z Z" stroke-miterlimit="10"/></g><g transform="translate(-22,2) scale(1,1)"><g><path fill="none" stroke="none"/><text fill="#000000" stroke="none" font-family="Arial" font-size="13px" font-style="normal" font-weight="bold" text-decoration="none" x="384.28369140625" y="27.5">GeneraFactura</text></g></g><g transform="translate(-22,2) scale(1,1)"><path fill="#C0C0C0" stroke="none" d="M 327 160 C 327 150.6111584 363.2649312 143 408 143 C 452.7350688 143 489 150.6111584 489 160 C 489 169.3888416 452.7350688 177 408 177 C 363.2649312 177 327 169.3888416 327 160 Z" opacity="0.2"/></g><g transform="translate(-22,2) scale(1,1)"><path fill="#ffffff" stroke="none" d="M 320 153 C 320 143.6111584 356.2649312 136 401 136 C 445.7350688 136 482 143.6111584 482 153 C 482 162.3888416 445.7350688 170 401 170 C 356.2649312 170 320 162.3888416 320 153 Z"/></g><g transform="translate(-22,2) scale(1,1)"><path fill="none" stroke="#000000" d="M 320 153 C 320 143.6111584 356.2649312 136 401 136 C 445.7350688 136 482 143.6111584 482 153 C 482 162.3888416 445.7350688 170 401 170 C 356.2649312 170 320 162.3888416 320 153 Z" stroke-miterlimit="10"/></g><g transform="translate(-22,2) scale(1,1)"><g><path fill="none" stroke="none"/><text fill="#000000" stroke="none" font-family="Arial" font-size="13px" font-style="normal" font-weight="bold" text-decoration="none" x="351.5009765625" y="160">PresentaClientes</text></g></g><g transform="translate(-22,2) scale(1,1)"><path fill="#C0C0C0" stroke="none" d="M 327 88 C 327 78.6111584 365.055792 71 412 71 C 458.944208 71 497 78.6111584 497 88 C 497 97.3888416 458.944208 105 412 105 C 365.055792 105 327 97.3888416 327 88 Z" opacity="0.2"/></g><g transform="translate(-22,2) scale(1,1)"><path fill="#ffffff" stroke="none" d="M 320 81 C 320 71.6111584 358.055792 64 405 64 C 451.944208 64 490 71.6111584 490 81 C 490 90.3888416 451.944208 98 405 98 C 358.055792 98 320 90.3888416 320 81 Z"/></g><g transform="translate(-22,2) scale(1,1)"><path fill="none" stroke="#000000" d="M 320 81 C 320 71.6111584 358.055792 64 405 64 C 451.944208 64 490 71.6111584 490 81 C 490 90.3888416 451.944208 98 405 98 C 358.055792 98 320 90.3888416 320 81 Z" stroke-miterlimit="10"/></g><g transform="translate(-22,2) scale(1,1)"><g><path fill="none" stroke="none"/><text fill="#000000" stroke="none" font-family="Arial" font-size="13px" font-style="normal" font-weight="bold" text-decoration="none" x="352.96826171875" y="88">SeleccionaCliente</text></g></g><g transform="translate(-22,2) scale(1,1)"><path fill="#C0C0C0" stroke="none" d="M 335 216 C 335 206.6111584 366.1162064 199 404.5 199 C 442.8837936 199 474 206.6111584 474 216 C 474 225.3888416 442.8837936 233 404.5 233 C 366.1162064 233 335 225.3888416 335 216 Z" opacity="0.2"/></g><g transform="translate(-22,2) scale(1,1)"><path fill="#ffffff" stroke="none" d="M 328 209 C 328 199.6111584 359.1162064 192 397.5 192 C 435.8837936 192 467 199.6111584 467 209 C 467 218.3888416 435.8837936 226 397.5 226 C 359.1162064 226 328 218.3888416 328 209 Z"/></g><g transform="translate(-22,2) scale(1,1)"><path fill="none" stroke="#000000" d="M 328 209 C 328 199.6111584 359.1162064 192 397.5 192 C 435.8837936 192 467 199.6111584 467 209 C 467 218.3888416 435.8837936 226 397.5 226 C 359.1162064 226 328 218.3888416 328 209 Z" stroke-miterlimit="10"/></g><g transform="translate(-22,2) scale(1,1)"><g><path fill="none" stroke="none"/><text fill="#000000" stroke="none" font-family="Arial" font-size="13px" font-style="normal" font-weight="bold" text-decoration="none" x="356.31640625" y="216">BuscaServicio</text></g></g><g transform="translate(-22,2) scale(1,1)"><path fill="#C0C0C0" stroke="none" d="M 343 264 C 343 254.6111584 382.6227952 247 431.5 247 C 480.3772048 247 520 254.6111584 520 264 C 520 273.3888416 480.3772048 281 431.5 281 C 382.6227952 281 343 273.3888416 343 264 Z" opacity="0.2"/></g><g transform="translate(-22,2) scale(1,1)"><path fill="#ffffff" stroke="none" d="M 336 257 C 336 247.6111584 375.6227952 240 424.5 240 C 473.3772048 240 513 247.6111584 513 257 C 513 266.3888416 473.3772048 274 424.5 274 C 375.6227952 274 336 266.3888416 336 257 Z"/></g><g transform="translate(-22,2) scale(1,1)"><path fill="none" stroke="#000000" d="M 336 257 C 336 247.6111584 375.6227952 240 424.5 240 C 473.3772048 240 513 247.6111584 513 257 C 513 266.3888416 473.3772048 274 424.5 274 C 375.6227952 274 336 266.3888416 336 257 Z" stroke-miterlimit="10"/></g><g transform="translate(-22,2) scale(1,1)"><g><path fill="none" stroke="none"/><text fill="#000000" stroke="none" font-family="Arial" font-size="13px" font-style="normal" font-weight="bold" text-decoration="none" x="369.697509765625" y="264">ObtieneValorPagar</text></g></g><g transform="translate(-22,2) scale(1,1)"><path fill="#C0C0C0" stroke="none" d="M 343 312 C 343 302.6111584 374.7877792 295 414 295 C 453.2122208 295 485 302.6111584 485 312 C 485 321.3888416 453.2122208 329 414 329 C 374.7877792 329 343 321.3888416 343 312 Z" opacity="0.2"/></g><g transform="translate(-22,2) scale(1,1)"><path fill="#ffffff" stroke="none" d="M 336 305 C 336 295.6111584 367.7877792 288 407 288 C 446.2122208 288 478 295.6111584 478 305 C 478 314.3888416 446.2122208 322 407 322 C 367.7877792 322 336 314.3888416 336 305 Z"/></g><g transform="translate(-22,2) scale(1,1)"><path fill="none" stroke="#000000" d="M 336 305 C 336 295.6111584 367.7877792 288 407 288 C 446.2122208 288 478 295.6111584 478 305 C 478 314.3888416 446.2122208 322 407 322 C 367.7877792 322 336 314.3888416 336 305 Z" stroke-miterlimit="10"/></g><g transform="translate(-22,2) scale(1,1)"><g><path fill="none" stroke="none"/><text fill="#000000" stroke="none" font-family="Arial" font-size="13px" font-style="normal" font-weight="bold" text-decoration="none" x="363.28369140625" y="312">GeneraFactura</text></g></g><g transform="translate(-22,2) scale(1,1)"><path fill="#C0C0C0" stroke="none" d="M 343 360 C 343 350.6111584 376.8024976 343 418.5 343 C 460.1975024 343 494 350.6111584 494 360 C 494 369.3888416 460.1975024 377 418.5 377 C 376.8024976 377 343 369.3888416 343 360 Z" opacity="0.2"/></g><g transform="translate(-22,2) scale(1,1)"><path fill="#ffffff" stroke="none" d="M 336 353 C 336 343.6111584 369.8024976 336 411.5 336 C 453.1975024 336 487 343.6111584 487 353 C 487 362.3888416 453.1975024 370 411.5 370 C 369.8024976 370 336 362.3888416 336 353 Z"/></g><g transform="translate(-22,2) scale(1,1)"><path fill="none" stroke="#000000" d="M 336 353 C 336 343.6111584 369.8024976 336 411.5 336 C 453.1975024 336 487 343.6111584 487 353 C 487 362.3888416 453.1975024 370 411.5 370 C 369.8024976 370 336 362.3888416 336 353 Z" stroke-miterlimit="10"/></g><g transform="translate(-22,2) scale(1,1)"><g><path fill="none" stroke="none"/><text fill="#000000" stroke="none" font-family="Arial" font-size="13px" font-style="normal" font-weight="bold" text-decoration="none" x="365.990478515625" y="360">ImprimeFactura</text></g></g><g transform="translate(-22,2) scale(1,1)"><path fill="#C0C0C0" stroke="none" d="M 335 448 C 335 438.6111584 362.5344848 431 396.5 431 C 430.4655152 431 458 438.6111584 458 448 C 458 457.3888416 430.4655152 465 396.5 465 C 362.5344848 465 335 457.3888416 335 448 Z" opacity="0.2"/></g><g transform="translate(-22,2) scale(1,1)"><path fill="#ffffff" stroke="none" d="M 328 441 C 328 431.6111584 355.5344848 424 389.5 424 C 423.4655152 424 451 431.6111584 451 441 C 451 450.3888416 423.4655152 458 389.5 458 C 355.5344848 458 328 450.3888416 328 441 Z"/></g><g transform="translate(-22,2) scale(1,1)"><path fill="none" stroke="#000000" d="M 328 441 C 328 431.6111584 355.5344848 424 389.5 424 C 423.4655152 424 451 431.6111584 451 441 C 451 450.3888416 423.4655152 458 389.5 458 C 355.5344848 458 328 450.3888416 328 441 Z" stroke-miterlimit="10"/></g><g transform="translate(-22,2) scale(1,1)"><g><path fill="none" stroke="none"/><text fill="#000000" stroke="none" font-family="Arial" font-size="13px" font-style="normal" font-weight="bold" text-decoration="none" x="352.28369140625" y="448">PagaFactura</text></g></g><g transform="translate(-22,2) scale(1,1)"><path fill="#ffffff" stroke="none" d="M 104.24162571022727 73.68 C 104.24162571022727 68.886167936 108.12746803517273 65 112.9208984375 65 C 117.71432883982727 65 121.60017116477273 68.886167936 121.60017116477273 73.68 C 121.60017116477273 78.473832064 117.71432883982727 82.36 112.9208984375 82.36 C 108.12746803517273 82.36 104.24162571022727 78.473832064 104.24162571022727 73.68 Z"/></g><g transform="translate(-22,2) scale(1,1)"><path fill="none" stroke="#000000" d="M 104.24162571022727 73.68 C 104.24162571022727 68.886167936 108.12746803517273 65 112.9208984375 65 C 117.71432883982727 65 121.60017116477273 68.886167936 121.60017116477273 73.68 C 121.60017116477273 78.473832064 117.71432883982727 82.36 112.9208984375 82.36 C 108.12746803517273 82.36 104.24162571022727 78.473832064 104.24162571022727 73.68 Z" stroke-miterlimit="10"/></g><g transform="translate(-22,2) scale(1,1)"><path fill="none" stroke="#000000" d="M 112.9208984375 82.36 L 112.9208984375 99.64" stroke-miterlimit="10"/></g><g transform="translate(-22,2) scale(1,1)"><path fill="none" stroke="#000000" d="M 103.73108025568182 88.84 L 122.11071661931818 88.84" stroke-miterlimit="10"/></g><g transform="translate(-22,2) scale(1,1)"><path fill="none" stroke="#000000" d="M 112.9208984375 99.64 L 100.15726207386363 117" stroke-miterlimit="10"/></g><g transform="translate(-22,2) scale(1,1)"><path fill="none" stroke="#000000" d="M 112.9208984375 99.64 L 125.68453480113637 117" stroke-miterlimit="10"/></g><g transform="translate(-22,2) scale(1,1)"><g><path fill="none" stroke="none"/><text fill="#000000" stroke="none" font-family="Arial" font-size="13px" font-style="normal" font-weight="bold" text-decoration="none" x="72.82275390625" y="137.5">Administrador</text></g></g><g transform="translate(-22,2) scale(1,1)"><path fill="#ffffff" stroke="none" d="M 129.49162571022728 401.68 C 129.49162571022728 396.886167936 133.37746803517274 393 138.1708984375 393 C 142.96432883982726 393 146.85017116477272 396.886167936 146.85017116477272 401.68 C 146.85017116477272 406.473832064 142.96432883982726 410.36 138.1708984375 410.36 C 133.37746803517274 410.36 129.49162571022728 406.473832064 129.49162571022728 401.68 Z"/></g><g transform="translate(-22,2) scale(1,1)"><path fill="none" stroke="#000000" d="M 129.49162571022728 401.68 C 129.49162571022728 396.886167936 133.37746803517274 393 138.1708984375 393 C 142.96432883982726 393 146.85017116477272 396.886167936 146.85017116477272 401.68 C 146.85017116477272 406.473832064 142.96432883982726 410.36 138.1708984375 410.36 C 133.37746803517274 410.36 129.49162571022728 406.473832064 129.49162571022728 401.68 Z" stroke-miterlimit="10"/></g><g transform="translate(-22,2) scale(1,1)"><path fill="none" stroke="#000000" d="M 138.1708984375 410.36 L 138.1708984375 427.64" stroke-miterlimit="10"/></g><g transform="translate(-22,2) scale(1,1)"><path fill="none" stroke="#000000" d="M 128.98108025568183 416.84 L 147.36071661931817 416.84" stroke-miterlimit="10"/></g><g transform="translate(-22,2) scale(1,1)"><path fill="none" stroke="#000000" d="M 138.1708984375 427.64 L 125.40726207386365 445" stroke-miterlimit="10"/></g><g transform="translate(-22,2) scale(1,1)"><path fill="none" stroke="#000000" d="M 138.1708984375 427.64 L 150.93453480113635 445" stroke-miterlimit="10"/></g><g transform="translate(-22,2) scale(1,1)"><g><path fill="none" stroke="none"/><text fill="#000000" stroke="none" font-family="Arial" font-size="13px" font-style="normal" font-weight="bold" text-decoration="none" x="117.937744140625" y="465.5">Cliente</text></g></g><g transform="translate(-22,2) scale(1,1)"><path fill="#ffffff" stroke="none" d="M 124 233.4903846153846 C 124 228.80127424615384 127.8055792 225 132.5 225 C 137.1944208 225 141 228.80127424615384 141 233.4903846153846 C 141 238.1794949846154 137.1944208 241.98076923076923 132.5 241.98076923076923 C 127.8055792 241.98076923076923 124 238.1794949846154 124 233.4903846153846 Z"/></g><g transform="translate(-22,2) scale(1,1)"><path fill="none" stroke="#000000" d="M 124 233.4903846153846 C 124 228.80127424615384 127.8055792 225 132.5 225 C 137.1944208 225 141 228.80127424615384 141 233.4903846153846 C 141 238.1794949846154 137.1944208 241.98076923076923 132.5 241.98076923076923 C 127.8055792 241.98076923076923 124 238.1794949846154 124 233.4903846153846 Z" stroke-miterlimit="10"/></g><g transform="translate(-22,2) scale(1,1)"><path fill="none" stroke="#000000" d="M 132.5 241.98076923076923 L 132.5 258.9038461538462" stroke-miterlimit="10"/></g><g transform="translate(-22,2) scale(1,1)"><path fill="none" stroke="#000000" d="M 123.5 248.3269230769231 L 141.5 248.3269230769231" stroke-miterlimit="10"/></g><g transform="translate(-22,2) scale(1,1)"><path fill="none" stroke="#000000" d="M 132.5 258.9038461538462 L 120 275.8846153846154" stroke-miterlimit="10"/></g><g transform="translate(-22,2) scale(1,1)"><path fill="none" stroke="#000000" d="M 132.5 258.9038461538462 L 145 275.8846153846154" stroke-miterlimit="10"/></g><g transform="translate(-22,2) scale(1,1)"><g><path fill="none" stroke="none"/><text fill="#000000" stroke="none" font-family="Arial" font-size="13px" font-style="normal" font-weight="bold" text-decoration="none" x="130.694091796875" y="296.3846153846154">.</text></g></g><g transform="translate(-22,2) scale(1,1)"><path fill="none" stroke="#000000" d="M 165 432 L 327 439" stroke-miterlimit="10"/></g><g transform="translate(-22,2) scale(1,1)"><path fill="none" stroke="#000000" d="M 316.66507603486116 442.7668749162667 L 327 439 L 317.02852238402926 434.3556879783767" stroke-miterlimit="10"/></g><g transform="translate(-22,2) scale(1,1)"><path fill="none" stroke="#000000" d="M 146 257 L 357 171" stroke-miterlimit="10"/></g><g transform="translate(-22,2) scale(1,1)"><path fill="none" stroke="#000000" d="M 349.1778265391271 178.73392541650202 L 357 171 L 346.0001769949998 170.93759920939888" stroke-miterlimit="10"/></g><g transform="translate(-22,2) scale(1,1)"><path fill="none" stroke="#000000" d="M 146 260 L 327 223" stroke-miterlimit="10"/></g><g transform="translate(-22,2) scale(1,1)"><path fill="none" stroke="#000000" d="M 317.88630475046347 229.15959080609866 L 327 223 L 316.20015585905844 220.91113271571177" stroke-miterlimit="10"/></g><g transform="translate(-22,2) scale(1,1)"><path fill="none" stroke="#000000" d="M 146 263 L 335 259" stroke-miterlimit="10"/></g><g transform="translate(-22,2) scale(1,1)"><path fill="none" stroke="#000000" d="M 324.92867076644075 263.42361023025927 L 335 259 L 324.7505300122454 255.00645959453044" stroke-miterlimit="10"/></g><g transform="translate(-22,2) scale(1,1)"><path fill="none" stroke="#000000" d="M 146 265 L 335 294" stroke-miterlimit="10"/></g><g transform="translate(-22,2) scale(1,1)"><path fill="none" stroke="#000000" d="M 324.31645309077606 296.6195086253745 L 335 294 L 325.5933192209842 288.29786384574214" stroke-miterlimit="10"/></g><g transform="translate(-22,2) scale(1,1)"><path fill="none" stroke="#000000" d="M 146 268 L 355 335" stroke-miterlimit="10"/></g><g transform="translate(-22,2) scale(1,1)"><path fill="none" stroke="#000000" d="M 344.0373908464533 335.9062011623114 L 355 335 L 346.6074837410399 327.88904571501894" stroke-miterlimit="10"/></g><g transform="translate(-22,2) scale(1,1)"><path fill="none" stroke="#000000" d="M 163 99 L 319 87" stroke-miterlimit="10"/></g><g transform="translate(-22,2) scale(1,1)"><path fill="none" stroke="#000000" d="M 309.19011472239123 91.976560141318 L 319 87 L 308.5444041746321 83.58232302044942" stroke-miterlimit="10"/></g><g transform="translate(-22,2) scale(1,1)"><path fill="#ffffff" stroke="none" d="M 32 224 L 141.171875 224 L 151.171875 234 L 151.171875 295 L 32 295 L 32 224"/></g><g transform="translate(-22,2) scale(1,1)"><path fill="none" stroke="#000000" d="M 32 224 L 141.171875 224 L 151.171875 234 L 151.171875 295 L 32 295 L 32 224 L 32 224" stroke-miterlimit="10"/></g><g transform="translate(-22,2) scale(1,1)"><path fill="none" stroke="#000000" d="M 141.171875 224 L 141.171875 234 L 151.171875 234 L 141.171875 224" stroke-miterlimit="10"/></g><g transform="translate(-22,2) scale(1,1)"><g><path fill="none" stroke="none"/><text fill="#000000" stroke="none" font-family="Arial" font-size="20px" font-style="normal" font-weight="normal" text-decoration="none" x="37" y="249">Imprenta</text><text fill="#000000" stroke="none" font-family="Arial" font-size="20px" font-style="normal" font-weight="normal" text-decoration="none" x="37" y="269">JemaStone</text></g></g></g></svg>