<svg version="1.1" xmlns="http://www.w3.org/2000/svg" xmlns:xlink="http://www.w3.org/1999/xlink" width="476" height="311"><defs/><g><text fill="#eeeeee" stroke="none" font-family="Arial" font-size="24px" font-style="normal" font-weight="normal" text-decoration="none" x="0" y="0">UNREGISTERED</text><text fill="#eeeeee" stroke="none" font-family="Arial" font-size="24px" font-style="normal" font-weight="normal" text-decoration="none" x="0" y="30">UNREGISTERED</text><text fill="#eeeeee" stroke="none" font-family="Arial" font-size="24px" font-style="normal" font-weight="normal" text-decoration="none" x="0" y="60">UNREGISTERED</text><text fill="#eeeeee" stroke="none" font-family="Arial" font-size="24px" font-style="normal" font-weight="normal" text-decoration="none" x="0" y="90">UNREGISTERED</text><text fill="#eeeeee" stroke="none" font-family="Arial" font-size="24px" font-style="normal" font-weight="normal" text-decoration="none" x="0" y="120">UNREGISTERED</text><text fill="#eeeeee" stroke="none" font-family="Arial" font-size="24px" font-style="normal" font-weight="normal" text-decoration="none" x="0" y="150">UNREGISTERED</text><text fill="#eeeeee" stroke="none" font-family="Arial" font-size="24px" font-style="normal" font-weight="normal" text-decoration="none" x="0" y="180">UNREGISTERED</text><text fill="#eeeeee" stroke="none" font-family="Arial" font-size="24px" font-style="normal" font-weight="normal" text-decoration="none" x="0" y="210">UNREGISTERED</text><text fill="#eeeeee" stroke="none" font-family="Arial" font-size="24px" font-style="normal" font-weight="normal" text-decoration="none" x="0" y="240">UNREGISTERED</text><text fill="#eeeeee" stroke="none" font-family="Arial" font-size="24px" font-style="normal" font-weight="normal" text-decoration="none" x="0" y="270">UNREGISTERED</text><text fill="#eeeeee" stroke="none" font-family="Arial" font-size="24px" font-style="normal" font-weight="normal" text-decoration="none" x="0" y="300">UNREGISTERED</text><text fill="#eeeeee" stroke="none" font-family="Arial" font-size="24px" font-style="normal" font-weight="normal" text-decoration="none" x="200" y="0">UNREGISTERED</text><text fill="#eeeeee" stroke="none" font-family="Arial" font-size="24px" font-style="normal" font-weight="normal" text-decoration="none" x="200" y="30">UNREGISTERED</text><text fill="#eeeeee" stroke="none" font-family="Arial" font-size="24px" font-style="normal" font-weight="normal" text-decoration="none" x="200" y="60">UNREGISTERED</text><text fill="#eeeeee" stroke="none" font-family="Arial" font-size="24px" font-style="normal" font-weight="normal" text-decoration="none" x="200" y="90">UNREGISTERED</text><text fill="#eeeeee" stroke="none" font-family="Arial" font-size="24px" font-style="normal" font-weight="normal" text-decoration="none" x="200" y="120">UNREGISTERED</text><text fill="#eeeeee" stroke="none" font-family="Arial" font-size="24px" font-style="normal" font-weight="normal" text-decoration="none" x="200" y="150">UNREGISTERED</text><text fill="#eeeeee" stroke="none" font-family="Arial" font-size="24px" font-style="normal" font-weight="normal" text-decoration="none" x="200" y="180">UNREGISTERED</text><text fill="#eeeeee" stroke="none" font-family="Arial" font-size="24px" font-style="normal" font-weight="normal" text-decoration="none" x="200" y="210">UNREGISTERED</text><text fill="#eeeeee" stroke="none" font-family="Arial" font-size="24px" font-style="normal" font-weight="normal" text-decoration="none" x="200" y="240">UNREGISTERED</text><text fill="#eeeeee" stroke="none" font-family="Arial" font-size="24px" font-style="normal" font-weight="normal" text-decoration="none" x="200" y="270">UNREGISTERED</text><text fill="#eeeeee" stroke="none" font-family="Arial" font-size="24px" font-style="normal" font-weight="normal" text-decoration="none" x="200" y="300">UNREGISTERED</text><text fill="#eeeeee" stroke="none" font-family="Arial" font-size="24px" font-style="normal" font-weight="normal" text-decoration="none" x="400" y="0">UNREGISTERED</text><text fill="#eeeeee" stroke="none" font-family="Arial" font-size="24px" font-style="normal" font-weight="normal" text-decoration="none" x="400" y="30">UNREGISTERED</text><text fill="#eeeeee" stroke="none" font-family="Arial" font-size="24px" font-style="normal" font-weight="normal" text-decoration="none" x="400" y="60">UNREGISTERED</text><text fill="#eeeeee" stroke="none" font-family="Arial" font-size="24px" font-style="normal" font-weight="normal" text-decoration="none" x="400" y="90">UNREGISTERED</text><text fill="#eeeeee" stroke="none" font-family="Arial" font-size="24px" font-style="normal" font-weight="normal" text-decoration="none" x="400" y="120">UNREGISTERED</text><text fill="#eeeeee" stroke="none" font-family="Arial" font-size="24px" font-style="normal" font-weight="normal" text-decoration="none" x="400" y="150">UNREGISTERED</text><text fill="#eeeeee" stroke="none" font-family="Arial" font-size="24px" font-style="normal" font-weight="normal" text-decoration="none" x="400" y="180">UNREGISTERED</text><text fill="#eeeeee" stroke="none" font-family="Arial" font-size="24px" font-style="normal" font-weight="normal" text-decoration="none" x="400" y="210">UNREGISTERED</text><text fill="#eeeeee" stroke="none" font-family="Arial" font-size="24px" font-style="normal" font-weight="normal" text-decoration="none" x="400" y="240">UNREGISTERED</text><text fill="#eeeeee" stroke="none" font-family="Arial" font-size="24px" font-style="normal" font-weight="normal" text-decoration="none" x="400" y="270">UNREGISTERED</text><text fill="#eeeeee" stroke="none" font-family="Arial" font-size="24px" font-style="normal" font-weight="normal" text-decoration="none" x="400" y="300">UNREGISTERED</text><g transform="translate(-30,-11) scale(1,1)"><rect fill="#C0C0C0" stroke="none" x="191" y="28" width="312" height="291" opacity="0.2"/></g><g transform="translate(-30,-11) scale(1,1)"><rect fill="#ffffff" stroke="none" x="184" y="21" width="312" height="291"/></g><g transform="translate(-30,-11) scale(1,1)"><path fill="none" stroke="#000000" d="M 184 21 L 496 21 L 496 312 L 184 312 L 184 21 Z Z" stroke-miterlimit="10"/></g><g transform="translate(-30,-11) scale(1,1)"><g><path fill="none" stroke="none"/><text fill="#000000" stroke="none" font-family="Arial" font-size="13px" font-style="normal" font-weight="bold" text-decoration="none" x="289.42822265625" y="40.5">RegistraServicios</text></g></g><g transform="translate(-30,-11) scale(1,1)"><path fill="#C0C0C0" stroke="none" d="M 247 80 C 247 70.6111584 295.3532416 63 355 63 C 414.6467584 63 463 70.6111584 463 80 C 463 89.3888416 414.6467584 97 355 97 C 295.3532416 97 247 89.3888416 247 80 Z" opacity="0.2"/></g><g transform="translate(-30,-11) scale(1,1)"><path fill="#ffffff" stroke="none" d="M 240 73 C 240 63.6111584 288.3532416 56 348 56 C 407.6467584 56 456 63.6111584 456 73 C 456 82.3888416 407.6467584 90 348 90 C 288.3532416 90 240 82.3888416 240 73 Z"/></g><g transform="translate(-30,-11) scale(1,1)"><path fill="none" stroke="#000000" d="M 240 73 C 240 63.6111584 288.3532416 56 348 56 C 407.6467584 56 456 63.6111584 456 73 C 456 82.3888416 407.6467584 90 348 90 C 288.3532416 90 240 82.3888416 240 73 Z" stroke-miterlimit="10"/></g><g transform="translate(-30,-11) scale(1,1)"><g><path fill="none" stroke="none"/><text fill="#000000" stroke="none" font-family="Arial" font-size="13px" font-style="normal" font-weight="bold" text-decoration="none" x="300.67822265625" y="80">RegistraServicio</text></g></g><g transform="translate(-30,-11) scale(1,1)"><path fill="#C0C0C0" stroke="none" d="M 271 152 C 271 142.6111584 299.8776304 135 335.5 135 C 371.1223696 135 400 142.6111584 400 152 C 400 161.3888416 371.1223696 169 335.5 169 C 299.8776304 169 271 161.3888416 271 152 Z" opacity="0.2"/></g><g transform="translate(-30,-11) scale(1,1)"><path fill="#ffffff" stroke="none" d="M 264 145 C 264 135.6111584 292.8776304 128 328.5 128 C 364.1223696 128 393 135.6111584 393 145 C 393 154.3888416 364.1223696 162 328.5 162 C 292.8776304 162 264 154.3888416 264 145 Z"/></g><g transform="translate(-30,-11) scale(1,1)"><path fill="none" stroke="#000000" d="M 264 145 C 264 135.6111584 292.8776304 128 328.5 128 C 364.1223696 128 393 135.6111584 393 145 C 393 154.3888416 364.1223696 162 328.5 162 C 292.8776304 162 264 154.3888416 264 145 Z" stroke-miterlimit="10"/></g><g transform="translate(-30,-11) scale(1,1)"><g><path fill="none" stroke="none"/><text fill="#000000" stroke="none" font-family="Arial" font-size="13px" font-style="normal" font-weight="bold" text-decoration="none" x="289.839599609375" y="152">IngresaDatos</text></g></g><g transform="translate(-30,-11) scale(1,1)"><path fill="#ffffff" stroke="none" d="M 80.24162571022727 105.68 C 80.24162571022727 100.886167936 84.12746803517273 97 88.9208984375 97 C 93.71432883982727 97 97.60017116477273 100.886167936 97.60017116477273 105.68 C 97.60017116477273 110.473832064 93.71432883982727 114.36 88.9208984375 114.36 C 84.12746803517273 114.36 80.24162571022727 110.473832064 80.24162571022727 105.68 Z"/></g><g transform="translate(-30,-11) scale(1,1)"><path fill="none" stroke="#000000" d="M 80.24162571022727 105.68 C 80.24162571022727 100.886167936 84.12746803517273 97 88.9208984375 97 C 93.71432883982727 97 97.60017116477273 100.886167936 97.60017116477273 105.68 C 97.60017116477273 110.473832064 93.71432883982727 114.36 88.9208984375 114.36 C 84.12746803517273 114.36 80.24162571022727 110.473832064 80.24162571022727 105.68 Z" stroke-miterlimit="10"/></g><g transform="translate(-30,-11) scale(1,1)"><path fill="none" stroke="#000000" d="M 88.9208984375 114.36 L 88.9208984375 131.64" stroke-miterlimit="10"/></g><g transform="translate(-30,-11) scale(1,1)"><path fill="none" stroke="#000000" d="M 79.73108025568182 120.84 L 98.11071661931818 120.84" stroke-miterlimit="10"/></g><g transform="translate(-30,-11) scale(1,1)"><path fill="none" stroke="#000000" d="M 88.9208984375 131.64 L 76.15726207386363 149" stroke-miterlimit="10"/></g><g transform="translate(-30,-11) scale(1,1)"><path fill="none" stroke="#000000" d="M 88.9208984375 131.64 L 101.68453480113637 149" stroke-miterlimit="10"/></g><g transform="translate(-30,-11) scale(1,1)"><g><path fill="none" stroke="none"/><text fill="#000000" stroke="none" font-family="Arial" font-size="13px" font-style="normal" font-weight="bold" text-decoration="none" x="48.82275390625" y="169.5">Administrador</text></g></g><g transform="translate(-30,-11) scale(1,1)"><path fill="#C0C0C0" stroke="none" d="M 231 240 C 231 230.6111584 277.3385232 223 334.5 223 C 391.6614768 223 438 230.6111584 438 240 C 438 249.3888416 391.6614768 257 334.5 257 C 277.3385232 257 231 249.3888416 231 240 Z" opacity="0.2"/></g><g transform="translate(-30,-11) scale(1,1)"><path fill="#ffffff" stroke="none" d="M 224 233 C 224 223.6111584 270.3385232 216 327.5 216 C 384.6614768 216 431 223.6111584 431 233 C 431 242.3888416 384.6614768 250 327.5 250 C 270.3385232 250 224 242.3888416 224 233 Z"/></g><g transform="translate(-30,-11) scale(1,1)"><path fill="none" stroke="#000000" d="M 224 233 C 224 223.6111584 270.3385232 216 327.5 216 C 384.6614768 216 431 223.6111584 431 233 C 431 242.3888416 384.6614768 250 327.5 250 C 270.3385232 250 224 242.3888416 224 233 Z" stroke-miterlimit="10"/></g><g transform="translate(-30,-11) scale(1,1)"><g><path fill="none" stroke="none"/><text fill="#000000" stroke="none" font-family="Arial" font-size="13px" font-style="normal" font-weight="bold" text-decoration="none" x="279.451416015625" y="240">GuardaServicios</text></g></g><g transform="translate(-30,-11) scale(1,1)"><path fill="none" stroke="#000000" d="M 139 123 L 273 91" stroke-miterlimit="10"/></g><g transform="translate(-30,-11) scale(1,1)"><path fill="none" stroke="#000000" d="M 264.0930363494359 97.45492048963655 L 273 91 L 262.13750755266204 89.26614365314603" stroke-miterlimit="10"/></g><g transform="translate(-30,-11) scale(1,1)"><path fill="none" stroke="#000000" d="M 139 137 L 263 142" stroke-miterlimit="10"/></g><g transform="translate(-30,-11) scale(1,1)"><path fill="none" stroke="#000000" d="M 252.6759760838927 145.79664722875916 L 263 142 L 253.01517767855972 137.38444768101715" stroke-miterlimit="10"/></g><g transform="translate(-30,-11) scale(1,1)"><path fill="#ffffff" stroke="none" d="M 87.32072727272727 241.68 C 87.32072727272727 236.886167936 91.20656959767273 233 96 233 C 100.79343040232727 233 104.67927272727273 236.886167936 104.67927272727273 241.68 C 104.67927272727273 246.47383206400002 100.79343040232727 250.36 96 250.36 C 91.20656959767273 250.36 87.32072727272727 246.47383206400002 87.32072727272727 241.68 Z"/></g><g transform="translate(-30,-11) scale(1,1)"><path fill="none" stroke="#000000" d="M 87.32072727272727 241.68 C 87.32072727272727 236.886167936 91.20656959767273 233 96 233 C 100.79343040232727 233 104.67927272727273 236.886167936 104.67927272727273 241.68 C 104.67927272727273 246.47383206400002 100.79343040232727 250.36 96 250.36 C 91.20656959767273 250.36 87.32072727272727 246.47383206400002 87.32072727272727 241.68 Z" stroke-miterlimit="10"/></g><g transform="translate(-30,-11) scale(1,1)"><path fill="none" stroke="#000000" d="M 96 250.36 L 96 267.64" stroke-miterlimit="10"/></g><g transform="translate(-30,-11) scale(1,1)"><path fill="none" stroke="#000000" d="M 86.81018181818182 256.84 L 105.18981818181818 256.84" stroke-miterlimit="10"/></g><g transform="translate(-30,-11) scale(1,1)"><path fill="none" stroke="#000000" d="M 96 267.64 L 83.23636363636363 285" stroke-miterlimit="10"/></g><g transform="translate(-30,-11) scale(1,1)"><path fill="none" stroke="#000000" d="M 96 267.64 L 108.76363636363637 285" stroke-miterlimit="10"/></g><g transform="translate(-30,-11) scale(1,1)"><g><path fill="none" stroke="none"/><text fill="#000000" stroke="none" font-family="Arial" font-size="13px" font-style="normal" font-weight="bold" text-decoration="none" x="94.194091796875" y="305.5">.</text></g></g><g transform="translate(-30,-11) scale(1,1)"><path fill="#ffffff" stroke="none" d="M 48 232 L 121.76171875 232 L 131.76171875 242 L 131.76171875 311 L 48 311 L 48 232"/></g><g transform="translate(-30,-11) scale(1,1)"><path fill="none" stroke="#000000" d="M 48 232 L 121.76171875 232 L 131.76171875 242 L 131.76171875 311 L 48 311 L 48 232 L 48 232" stroke-miterlimit="10"/></g><g transform="translate(-30,-11) scale(1,1)"><path fill="none" stroke="#000000" d="M 121.76171875 232 L 121.76171875 242 L 131.76171875 242 L 121.76171875 232" stroke-miterlimit="10"/></g><g transform="translate(-30,-11) scale(1,1)"><g><path fill="none" stroke="none"/><text fill="#000000" stroke="none" font-family="Arial" font-size="13px" font-style="normal" font-weight="normal" text-decoration="none" x="53" y="250">Imprenta</text><text fill="#000000" stroke="none" font-family="Arial" font-size="13px" font-style="normal" font-weight="normal" text-decoration="none" x="53" y="263">JemaStone</text></g></g><g transform="translate(-30,-11) scale(1,1)"><path fill="none" stroke="#000000" d="M 113 268 L 223 250" stroke-miterlimit="10"/></g><g transform="translate(-30,-11) scale(1,1)"><path fill="none" stroke="#000000" d="M 213.65050348361163 255.79542189059967 L 223 250 L 212.2909254939018 247.48688973126178" stroke-miterlimit="10"/></g></g></svg>